<svg width="512" height="512" viewBox="0 0 36 22" fill="none" xmlns="http://www.w3.org/2000/svg">
<path fill-rule="evenodd" clip-rule="evenodd" d="M32.4067 14.9352C32.121 12.1182 29.8024 9.92225 26.9842 9.92225C26.955 9.92225 26.928 9.9245 26.901 9.9245C26.8166 7.13788 24.5936 4.90475 21.8587 4.90475C21.654 4.90475 21.4526 4.91937 21.2535 4.943C20.7585 2.6165 18.7414 0.875 16.3271 0.875C14.3438 0.875 12.6304 2.0495 11.8057 3.75838C11.3355 3.37475 10.7426 3.14525 10.0957 3.14525C8.57475 3.14525 7.34175 4.412 7.34175 5.9735C7.34175 6.58213 7.53075 7.14463 7.84912 7.60588C6.76687 8.30113 5.93888 9.3755 5.54175 10.6479C5.37862 10.6321 5.21325 10.6231 5.04563 10.6231C2.259 10.6231 0 12.9429 0 15.8037C0 18.6657 2.259 21.125 5.04563 21.125H33.1155C34.7085 21.125 36 19.4409 36 17.8051C36 16.1682 34.7085 14.8419 33.1155 14.8419C32.8703 14.8419 32.634 14.8767 32.4067 14.9352Z" fill="black"/>
</svg>
