<svg width="238" height="28" viewBox="0 0 238 28" fill="none" xmlns="http://www.w3.org/2000/svg">
<g clip-path="url(#clip0_3205_9610)">
<path d="M88.7592 27.9963C88.2847 27.9975 87.8112 27.9494 87.3466 27.8527C86.3461 27.6459 85.4001 27.2319 84.5693 26.6373C83.7386 26.0427 83.0416 25.2807 82.5232 24.4004L82.4967 24.3513C82.2395 23.864 82.1771 23.297 82.3223 22.7654C82.4675 22.2338 82.8094 21.7772 83.2786 21.4882C83.6036 21.2927 83.9758 21.1896 84.3551 21.1899C84.7329 21.1904 85.1038 21.2915 85.4297 21.4826C85.7556 21.6738 86.0248 21.9482 86.2097 22.2777L86.2814 22.3985L86.5081 22.7045L86.8102 23.0104C87.2032 23.3504 87.6786 23.5809 88.1889 23.679C88.6015 23.7588 89.0263 23.7517 89.4361 23.658C89.8458 23.5644 90.2315 23.3863 90.5685 23.1351C90.9167 22.8874 91.2054 22.5654 91.4138 22.1924C91.6222 21.8193 91.745 21.4047 91.7734 20.9783C91.8084 20.5563 91.7526 20.1317 91.61 19.733C91.4673 19.3343 91.241 18.9707 90.9462 18.6667C90.9462 18.6667 83.9812 11.4901 83.8301 11.2899L83.4863 10.78C82.6714 9.50814 82.3033 8.00109 82.4401 6.49674C82.5146 5.45436 82.8232 4.44218 83.3428 3.53546L83.645 3.00666C84.1947 2.22042 84.9136 1.56734 85.7489 1.09542L86.0926 0.849909C87.6993 -0.033301 89.5884 -0.251113 91.354 0.243257C93.1196 0.737628 94.6209 1.90474 95.5354 3.49391C95.6779 3.73374 95.7708 3.99978 95.8084 4.2762C95.846 4.55262 95.8277 4.83378 95.7545 5.10298C95.682 5.37704 95.5554 5.63384 95.3823 5.85827C95.2091 6.08271 94.9927 6.27025 94.746 6.40987C94.4317 6.59632 94.0728 6.69421 93.7073 6.69316C93.3315 6.69213 92.9628 6.59119 92.6389 6.4007C92.315 6.21021 92.0476 5.93701 91.8641 5.60912C91.6648 5.27002 91.3957 4.97714 91.0747 4.74988C90.7536 4.52262 90.388 4.36617 90.0019 4.29089C89.6094 4.21446 89.2054 4.22031 88.8153 4.30808C88.4252 4.39585 88.0575 4.56363 87.7356 4.80081C87.4263 5.04187 87.172 5.34614 86.9896 5.69331C86.8072 6.04047 86.701 6.42255 86.678 6.81403C86.6453 7.207 86.6957 7.60245 86.8258 7.97468C86.956 8.34691 87.163 8.68759 87.4335 8.97455L93.9793 15.7243C94.9666 16.7487 95.6304 18.0412 95.8879 19.4404C96.1455 20.8397 95.9853 22.2838 95.4273 23.5926C94.8694 24.9014 93.9385 26.017 92.7506 26.8001C91.5628 27.5832 90.1707 27.9992 88.7479 27.9963H88.7592Z" fill="#003D8F"/>
<path d="M68.0529 27.9924C66.1873 27.9904 64.3986 27.2484 63.0794 25.9292C61.7601 24.61 61.0181 22.8213 61.0161 20.9556V7.03683C61.0161 6.11274 61.1981 5.1977 61.5518 4.34395C61.9054 3.4902 62.4237 2.71447 63.0772 2.06104C63.7306 1.40761 64.5063 0.88928 65.3601 0.535647C66.2138 0.182013 67.1289 0 68.0529 0C68.977 0 69.8921 0.182013 70.7458 0.535647C71.5996 0.88928 72.3753 1.40761 73.0287 2.06104C73.6822 2.71447 74.2005 3.4902 74.5541 4.34395C74.9078 5.1977 75.0898 6.11274 75.0898 7.03683V20.9556C75.0878 22.8213 74.3458 24.61 73.0265 25.9292C71.7073 27.2484 69.9186 27.9904 68.0529 27.9924ZM68.0529 4.24929C67.3139 4.25029 66.6055 4.5443 66.083 5.06685C65.5604 5.58939 65.2664 6.29783 65.2654 7.03683V20.9556C65.2614 21.3228 65.3307 21.6871 65.4694 22.0271C65.608 22.3672 65.8132 22.6761 66.0728 22.9357C66.3325 23.1954 66.6414 23.4006 66.9814 23.5392C67.3215 23.6779 67.6858 23.7472 68.0529 23.7432C68.7919 23.7422 69.5004 23.4481 70.0229 22.9256C70.5455 22.4031 70.8395 21.6946 70.8405 20.9556V7.03683C70.8307 6.30057 70.5339 5.59722 70.0132 5.07656C69.4926 4.5559 68.7892 4.25907 68.0529 4.24929Z" fill="#003D8F"/>
<path d="M40.7216 14.357V25.8887C40.7216 26.4516 40.4979 26.9916 40.0998 27.3897C39.7018 27.7878 39.1618 28.0114 38.5988 28.0114C38.0358 28.0114 37.4959 27.7878 37.0978 27.3897C36.6997 26.9916 36.4761 26.4516 36.4761 25.8887V5.54115L40.7216 14.357ZM52.1852 22.4628V2.12284C52.1621 1.57484 51.9282 1.05697 51.5323 0.677399C51.1363 0.297825 50.6091 0.0859039 50.0606 0.0859039C49.5121 0.0859039 48.9848 0.297825 48.5889 0.677399C48.193 1.05697 47.9591 1.57484 47.9359 2.12284V13.6431L52.1852 22.4628ZM40.5214 1.20499V1.16344C40.33 0.821197 40.0512 0.535934 39.7134 0.336836C39.3756 0.137737 38.9909 0.0319491 38.5988 0.0302954C38.4553 0.0296134 38.3122 0.0448144 38.172 0.0756211C37.6945 0.168605 37.2649 0.426495 36.9584 0.804185C36.6518 1.18187 36.4878 1.65532 36.495 2.14172V2.62897L48.1512 26.8292C48.334 27.1736 48.6054 27.463 48.9374 27.6675C49.2694 27.872 49.65 27.9842 50.0398 27.9925C50.2041 27.9929 50.3678 27.9726 50.5271 27.9321C50.9962 27.834 51.4172 27.5772 51.7193 27.205C52.0213 26.8328 52.1858 26.368 52.1852 25.8887V25.409C52.1852 25.409 40.8349 1.85088 40.5214 1.20499Z" fill="#003D8F"/>
<path d="M20.5478 27.9924C18.6818 27.9914 16.8926 27.2497 15.5731 25.9303C14.2537 24.6109 13.512 22.8216 13.511 20.9556V7.03683C13.511 5.17054 14.2524 3.3807 15.572 2.06104C16.8917 0.741378 18.6815 0 20.5478 0C22.4141 0 24.2039 0.741378 25.5236 2.06104C26.8433 3.3807 27.5846 5.17054 27.5846 7.03683V20.9556C27.5836 22.8216 26.8419 24.6109 25.5225 25.9303C24.2031 27.2497 22.4138 27.9914 20.5478 27.9924ZM20.5478 4.24929C20.1816 4.24879 19.8189 4.32056 19.4805 4.46047C19.1421 4.60038 18.8346 4.80569 18.5756 5.06463C18.3167 5.32358 18.1114 5.63107 17.9715 5.9695C17.8315 6.30792 17.7598 6.67062 17.7603 7.03683V20.9556C17.7603 21.6949 18.054 22.4039 18.5767 22.9267C19.0995 23.4495 19.8085 23.7432 20.5478 23.7432C21.2871 23.7432 21.9961 23.4495 22.5189 22.9267C23.0417 22.4039 23.3354 21.6949 23.3354 20.9556V7.03683C23.3256 6.30057 23.0287 5.59722 22.5081 5.07656C21.9874 4.5559 21.2841 4.25907 20.5478 4.24929Z" fill="#003D8F"/>
<path d="M2.3079 27.9811C2.00217 27.9827 1.6992 27.9232 1.41676 27.8061C1.13433 27.689 0.878122 27.5167 0.663164 27.2993C0.448206 27.0818 0.278828 26.8237 0.164961 26.5399C0.0510952 26.2562 -0.00496558 25.9526 6.70106e-05 25.6469V2.27764C0.0109916 1.67017 0.261026 1.09151 0.695913 0.667228C1.1308 0.242948 1.71546 0.00727538 2.32301 0.0113511C2.83178 0.00390648 3.32825 0.167887 3.73249 0.476893C4.13673 0.785899 4.42523 1.22195 4.55153 1.71485C4.5671 1.76825 4.57971 1.82247 4.5893 1.87726V1.97925C4.61092 2.10396 4.62104 2.2304 4.61952 2.35696C4.61952 2.35696 4.61952 25.3976 4.61952 25.662C4.62152 25.9664 4.56315 26.2683 4.44778 26.5501C4.33241 26.8319 4.16233 27.088 3.94738 27.3036C3.73243 27.5193 3.47686 27.6902 3.19546 27.8065C2.91405 27.9228 2.61239 27.9821 2.3079 27.9811Z" fill="#003D8F"/>
</g>
<path d="M232.692 24.148C231.841 24.148 231.2 23.906 230.767 23.422C230.334 22.938 230.118 22.2303 230.118 21.299V14.809H228.413V12.642H230.118V9.177L232.582 8V12.642H235.2V14.809H232.582V20.76C232.582 21.1633 232.659 21.464 232.813 21.662C232.974 21.8527 233.22 21.948 233.55 21.948C234.085 21.948 234.668 21.772 235.299 21.42L235.024 23.642C234.679 23.8107 234.316 23.9353 233.935 24.016C233.554 24.104 233.139 24.148 232.692 24.148Z" fill="#003D8F"/>
<path d="M216.372 23.8841L220.354 18.0541L216.647 12.6421H219.463L221.102 15.0401C221.227 15.2088 221.348 15.3884 221.465 15.5791C221.59 15.7698 221.689 15.9458 221.762 16.1071C221.857 15.9384 221.964 15.7624 222.081 15.5791C222.198 15.3884 222.316 15.2088 222.433 15.0401L224.072 12.6421H226.899L223.181 18.0541L227.174 23.8841H224.347L222.422 21.0681C222.305 20.8921 222.187 20.7124 222.07 20.5291C221.96 20.3384 221.857 20.1624 221.762 20.0011C221.689 20.1624 221.59 20.3384 221.465 20.5291C221.34 20.7124 221.219 20.8921 221.102 21.0681L219.188 23.8841H216.372Z" fill="#003D8F"/>
<path d="M210.39 24.1481C209.327 24.1481 208.41 23.9024 207.64 23.4111C206.87 22.9197 206.28 22.2341 205.869 21.3541C205.458 20.4667 205.253 19.4327 205.253 18.2521C205.253 17.0274 205.466 15.9787 205.891 15.1061C206.316 14.2261 206.914 13.5514 207.684 13.0821C208.454 12.6127 209.356 12.3781 210.39 12.3781C211.277 12.3781 212.084 12.5687 212.81 12.9501C213.543 13.3314 214.126 13.9181 214.559 14.7101C214.992 15.4947 215.208 16.4957 215.208 17.7131C215.208 17.9037 215.204 18.1311 215.197 18.3951C215.19 18.6517 215.168 18.9121 215.131 19.1761H207.706C207.75 19.7481 207.886 20.2467 208.113 20.6721C208.348 21.0974 208.659 21.4311 209.048 21.6731C209.437 21.9077 209.895 22.0251 210.423 22.0251C210.936 22.0251 211.391 21.9407 211.787 21.7721C212.183 21.5961 212.561 21.3174 212.92 20.9361L214.35 22.4431C213.888 22.9491 213.323 23.3597 212.656 23.6751C211.996 23.9904 211.241 24.1481 210.39 24.1481ZM207.717 17.1851H212.788C212.766 16.6497 212.656 16.1804 212.458 15.7771C212.267 15.3737 211.996 15.0621 211.644 14.8421C211.292 14.6147 210.863 14.5011 210.357 14.5011C209.653 14.5011 209.052 14.7211 208.553 15.1611C208.062 15.6011 207.783 16.2757 207.717 17.1851Z" fill="#003D8F"/>
<path d="M190.297 23.884V8.48401H192.717L199.031 18.186C199.126 18.3327 199.233 18.5123 199.35 18.725C199.475 18.9303 199.581 19.132 199.669 19.33C199.662 19.154 199.651 18.956 199.636 18.736C199.629 18.516 199.625 18.3327 199.625 18.186V8.48401H202.155V23.884H199.834L193.399 14.138C193.311 13.9913 193.205 13.8117 193.08 13.599C192.963 13.3863 192.856 13.192 192.761 13.016C192.79 13.192 192.805 13.3827 192.805 13.588C192.812 13.786 192.816 13.9693 192.816 14.138V23.884H190.297Z" fill="#003D8F"/>
<path d="M177.132 24.1481C176.069 24.1481 175.152 23.9024 174.382 23.4111C173.612 22.9197 173.022 22.2341 172.611 21.3541C172.2 20.4667 171.995 19.4327 171.995 18.2521C171.995 17.0274 172.208 15.9787 172.633 15.1061C173.058 14.2261 173.656 13.5514 174.426 13.0821C175.196 12.6127 176.098 12.3781 177.132 12.3781C178.019 12.3781 178.826 12.5687 179.552 12.9501C180.285 13.3314 180.868 13.9181 181.301 14.7101C181.734 15.4947 181.95 16.4957 181.95 17.7131C181.95 17.9037 181.946 18.1311 181.939 18.3951C181.932 18.6517 181.91 18.9121 181.873 19.1761H174.448C174.492 19.7481 174.628 20.2467 174.855 20.6721C175.09 21.0974 175.401 21.4311 175.79 21.6731C176.179 21.9077 176.637 22.0251 177.165 22.0251C177.678 22.0251 178.133 21.9407 178.529 21.7721C178.925 21.5961 179.303 21.3174 179.662 20.9361L181.092 22.4431C180.63 22.9491 180.065 23.3597 179.398 23.6751C178.738 23.9904 177.983 24.1481 177.132 24.1481ZM174.459 17.1851H179.53C179.508 16.6497 179.398 16.1804 179.2 15.7771C179.009 15.3737 178.738 15.0621 178.386 14.8421C178.034 14.6147 177.605 14.5011 177.099 14.5011C176.395 14.5011 175.794 14.7211 175.295 15.1611C174.804 15.6011 174.525 16.2757 174.459 17.1851Z" fill="#003D8F"/>
<path d="M163.884 23.8841L159.77 12.6421H162.311L164.775 19.5941C164.833 19.7628 164.892 19.9388 164.951 20.1221C165.009 20.3054 165.061 20.4924 165.105 20.6831C165.156 20.4924 165.207 20.3091 165.259 20.1331C165.317 19.9498 165.38 19.7701 165.446 19.5941L167.877 12.6421H170.407L166.293 23.8841H163.884Z" fill="#003D8F"/>
<path d="M154.887 23.884V12.642H157.351V23.884H154.887ZM156.108 11.014C155.705 11.014 155.36 10.871 155.074 10.585C154.788 10.299 154.645 9.95437 154.645 9.55104C154.645 9.14037 154.784 8.79204 155.063 8.50604C155.349 8.21271 155.697 8.06604 156.108 8.06604C156.533 8.06604 156.885 8.20904 157.164 8.49504C157.45 8.78104 157.593 9.13304 157.593 9.55104C157.593 9.96171 157.45 10.31 157.164 10.596C156.878 10.8747 156.526 11.014 156.108 11.014Z" fill="#003D8F"/>
<path d="M146.013 23.8841V12.6421H148.477V13.9401C148.697 13.4561 149.027 13.0747 149.467 12.7961C149.915 12.5174 150.406 12.3781 150.941 12.3781C151.697 12.3781 152.335 12.6237 152.855 13.1151L152.514 15.3921C152.236 15.1721 151.957 15.0144 151.678 14.9191C151.4 14.8237 151.092 14.7761 150.754 14.7761C150.285 14.7761 149.882 14.8934 149.544 15.1281C149.207 15.3627 148.943 15.6964 148.752 16.1291C148.569 16.5617 148.477 17.0751 148.477 17.6691V23.8841H146.013Z" fill="#003D8F"/>
<path d="M130.721 23.884V8.48401H135.583C136.917 8.48401 138.047 8.70401 138.971 9.14401C139.902 9.57668 140.654 10.1633 141.226 10.904C141.805 11.6373 142.227 12.4623 142.491 13.379C142.755 14.2957 142.887 15.2307 142.887 16.184C142.887 17.064 142.762 17.955 142.513 18.857C142.263 19.759 141.856 20.5913 141.292 21.354C140.727 22.1167 139.972 22.729 139.026 23.191C138.08 23.653 136.903 23.884 135.495 23.884H130.721ZM133.262 21.486H135.77C136.613 21.486 137.321 21.332 137.893 21.024C138.465 20.7087 138.923 20.2907 139.268 19.77C139.62 19.2493 139.869 18.6773 140.016 18.054C140.17 17.4307 140.247 16.8073 140.247 16.184C140.247 15.524 140.166 14.8787 140.005 14.248C139.843 13.61 139.59 13.038 139.246 12.532C138.908 12.026 138.472 11.6227 137.937 11.322C137.401 11.014 136.76 10.86 136.012 10.86H133.262V21.486Z" fill="#003D8F"/>
<path d="M124.551 23.884V12.642H127.015V23.884H124.551ZM125.772 11.014C125.369 11.014 125.024 10.871 124.738 10.585C124.452 10.299 124.309 9.95437 124.309 9.55104C124.309 9.14037 124.448 8.79204 124.727 8.50604C125.013 8.21271 125.361 8.06604 125.772 8.06604C126.197 8.06604 126.549 8.20904 126.828 8.49504C127.114 8.78104 127.257 9.13304 127.257 9.55104C127.257 9.96171 127.114 10.31 126.828 10.596C126.542 10.8747 126.19 11.014 125.772 11.014Z" fill="#003D8F"/>
<path d="M109 23.884V8.48401H111.541V14.721H118.295V8.48401H120.836V23.884H118.295V17.13H111.541V23.884H109Z" fill="#003D8F"/>
<g clip-path="url(#clip1_3205_9610)">
<path d="M88.7592 27.9963C88.2847 27.9975 87.8112 27.9494 87.3466 27.8527C86.3461 27.6459 85.4001 27.2319 84.5693 26.6373C83.7386 26.0427 83.0416 25.2807 82.5232 24.4004L82.4967 24.3513C82.2395 23.864 82.1771 23.297 82.3223 22.7654C82.4675 22.2338 82.8094 21.7772 83.2786 21.4882C83.6036 21.2927 83.9758 21.1896 84.3551 21.1899C84.7329 21.1904 85.1038 21.2915 85.4297 21.4826C85.7556 21.6738 86.0248 21.9482 86.2097 22.2777L86.2814 22.3985L86.5081 22.7045L86.8102 23.0104C87.2032 23.3504 87.6786 23.5809 88.1889 23.679C88.6015 23.7588 89.0263 23.7517 89.4361 23.658C89.8458 23.5644 90.2315 23.3863 90.5685 23.1351C90.9167 22.8874 91.2054 22.5654 91.4138 22.1924C91.6222 21.8193 91.745 21.4047 91.7734 20.9783C91.8084 20.5563 91.7526 20.1317 91.61 19.733C91.4673 19.3343 91.241 18.9707 90.9462 18.6667C90.9462 18.6667 83.9812 11.4901 83.8301 11.2899L83.4863 10.78C82.6714 9.50814 82.3033 8.00109 82.4401 6.49674C82.5146 5.45436 82.8232 4.44218 83.3428 3.53546L83.645 3.00666C84.1947 2.22042 84.9136 1.56734 85.7489 1.09542L86.0926 0.849909C87.6993 -0.033301 89.5884 -0.251113 91.354 0.243257C93.1196 0.737628 94.6209 1.90474 95.5354 3.49391C95.6779 3.73374 95.7708 3.99978 95.8084 4.2762C95.846 4.55262 95.8277 4.83378 95.7545 5.10298C95.682 5.37704 95.5554 5.63384 95.3823 5.85827C95.2091 6.08271 94.9927 6.27025 94.746 6.40987C94.4317 6.59632 94.0728 6.69421 93.7073 6.69316C93.3315 6.69213 92.9628 6.59119 92.6389 6.4007C92.315 6.21021 92.0476 5.93701 91.8641 5.60912C91.6648 5.27002 91.3957 4.97714 91.0747 4.74988C90.7536 4.52262 90.388 4.36617 90.0019 4.29089C89.6094 4.21446 89.2054 4.22031 88.8153 4.30808C88.4252 4.39585 88.0575 4.56363 87.7356 4.80081C87.4263 5.04187 87.172 5.34614 86.9896 5.69331C86.8072 6.04047 86.701 6.42255 86.678 6.81403C86.6453 7.207 86.6957 7.60245 86.8258 7.97468C86.956 8.34691 87.163 8.68759 87.4335 8.97455L93.9793 15.7243C94.9666 16.7487 95.6304 18.0412 95.8879 19.4404C96.1455 20.8397 95.9853 22.2838 95.4273 23.5926C94.8694 24.9014 93.9385 26.017 92.7506 26.8001C91.5628 27.5832 90.1707 27.9992 88.7479 27.9963H88.7592Z" fill="#003D8F"/>
<path d="M68.0529 27.9924C66.1873 27.9904 64.3986 27.2484 63.0794 25.9292C61.7601 24.61 61.0181 22.8213 61.0161 20.9556V7.03683C61.0161 6.11274 61.1981 5.1977 61.5518 4.34395C61.9054 3.4902 62.4237 2.71447 63.0772 2.06104C63.7306 1.40761 64.5063 0.88928 65.3601 0.535647C66.2138 0.182013 67.1289 0 68.0529 0C68.977 0 69.8921 0.182013 70.7458 0.535647C71.5996 0.88928 72.3753 1.40761 73.0287 2.06104C73.6822 2.71447 74.2005 3.4902 74.5541 4.34395C74.9078 5.1977 75.0898 6.11274 75.0898 7.03683V20.9556C75.0878 22.8213 74.3458 24.61 73.0265 25.9292C71.7073 27.2484 69.9186 27.9904 68.0529 27.9924ZM68.0529 4.24929C67.3139 4.25029 66.6055 4.5443 66.083 5.06685C65.5604 5.58939 65.2664 6.29783 65.2654 7.03683V20.9556C65.2614 21.3228 65.3307 21.6871 65.4694 22.0271C65.608 22.3672 65.8132 22.6761 66.0728 22.9357C66.3325 23.1954 66.6414 23.4006 66.9814 23.5392C67.3215 23.6779 67.6858 23.7472 68.0529 23.7432C68.7919 23.7422 69.5004 23.4481 70.0229 22.9256C70.5455 22.4031 70.8395 21.6946 70.8405 20.9556V7.03683C70.8307 6.30057 70.5339 5.59722 70.0132 5.07656C69.4926 4.5559 68.7892 4.25907 68.0529 4.24929Z" fill="#003D8F"/>
<path d="M40.7216 14.357V25.8887C40.7216 26.4516 40.4979 26.9916 40.0998 27.3897C39.7018 27.7878 39.1618 28.0114 38.5988 28.0114C38.0358 28.0114 37.4959 27.7878 37.0978 27.3897C36.6997 26.9916 36.4761 26.4516 36.4761 25.8887V5.54115L40.7216 14.357ZM52.1852 22.4628V2.12284C52.1621 1.57484 51.9282 1.05697 51.5323 0.677399C51.1363 0.297825 50.6091 0.0859039 50.0606 0.0859039C49.5121 0.0859039 48.9848 0.297825 48.5889 0.677399C48.193 1.05697 47.9591 1.57484 47.9359 2.12284V13.6431L52.1852 22.4628ZM40.5214 1.20499V1.16344C40.33 0.821197 40.0512 0.535934 39.7134 0.336836C39.3756 0.137737 38.9909 0.0319491 38.5988 0.0302954C38.4553 0.0296134 38.3122 0.0448144 38.172 0.0756211C37.6945 0.168605 37.2649 0.426495 36.9584 0.804185C36.6518 1.18187 36.4878 1.65532 36.495 2.14172V2.62897L48.1512 26.8292C48.334 27.1736 48.6054 27.463 48.9374 27.6675C49.2694 27.872 49.65 27.9842 50.0398 27.9925C50.2041 27.9929 50.3678 27.9726 50.5271 27.9321C50.9962 27.834 51.4172 27.5772 51.7193 27.205C52.0213 26.8328 52.1858 26.368 52.1852 25.8887V25.409C52.1852 25.409 40.8349 1.85088 40.5214 1.20499Z" fill="#003D8F"/>
<path d="M20.5478 27.9924C18.6818 27.9914 16.8926 27.2497 15.5731 25.9303C14.2537 24.6109 13.512 22.8216 13.511 20.9556V7.03683C13.511 5.17054 14.2524 3.3807 15.572 2.06104C16.8917 0.741378 18.6815 0 20.5478 0C22.4141 0 24.2039 0.741378 25.5236 2.06104C26.8433 3.3807 27.5846 5.17054 27.5846 7.03683V20.9556C27.5836 22.8216 26.8419 24.6109 25.5225 25.9303C24.2031 27.2497 22.4138 27.9914 20.5478 27.9924ZM20.5478 4.24929C20.1816 4.24879 19.8189 4.32056 19.4805 4.46047C19.1421 4.60038 18.8346 4.80569 18.5756 5.06463C18.3167 5.32358 18.1114 5.63107 17.9715 5.9695C17.8315 6.30792 17.7598 6.67062 17.7603 7.03683V20.9556C17.7603 21.6949 18.054 22.4039 18.5767 22.9267C19.0995 23.4495 19.8085 23.7432 20.5478 23.7432C21.2871 23.7432 21.9961 23.4495 22.5189 22.9267C23.0417 22.4039 23.3354 21.6949 23.3354 20.9556V7.03683C23.3256 6.30057 23.0287 5.59722 22.5081 5.07656C21.9874 4.5559 21.2841 4.25907 20.5478 4.24929Z" fill="#003D8F"/>
<path d="M2.3079 27.9811C2.00217 27.9827 1.6992 27.9232 1.41676 27.8061C1.13433 27.689 0.878122 27.5167 0.663164 27.2993C0.448206 27.0818 0.278828 26.8237 0.164961 26.5399C0.0510952 26.2562 -0.00496558 25.9526 6.70106e-05 25.6469V2.27764C0.0109916 1.67017 0.261026 1.09151 0.695913 0.667228C1.1308 0.242948 1.71546 0.00727538 2.32301 0.0113511C2.83178 0.00390648 3.32825 0.167887 3.73249 0.476893C4.13673 0.785899 4.42523 1.22195 4.55153 1.71485C4.5671 1.76825 4.57971 1.82247 4.5893 1.87726V1.97925C4.61092 2.10396 4.62104 2.2304 4.61952 2.35696C4.61952 2.35696 4.61952 25.3976 4.61952 25.662C4.62152 25.9664 4.56315 26.2683 4.44778 26.5501C4.33241 26.8319 4.16233 27.088 3.94738 27.3036C3.73243 27.5193 3.47686 27.6902 3.19546 27.8065C2.91405 27.9228 2.61239 27.9821 2.3079 27.9811Z" fill="#003D8F"/>
</g>
<defs>
<clipPath id="clip0_3205_9610">
<rect width="96.034" height="28" fill="white"/>
</clipPath>
<clipPath id="clip1_3205_9610">
<rect width="96.034" height="28" fill="white"/>
</clipPath>
</defs>
</svg>
