<svg width="24" height="24" viewBox="0 0 24 24" fill="none" xmlns="http://www.w3.org/2000/svg">
<path d="M19.9857 10.952C19.9917 10.8573 20.0003 10.7627 20.0003 10.6667C20.0003 8.08933 17.911 6 15.3337 6C14.763 6 14.219 6.10733 13.7137 6.29467C12.7503 4.90867 11.149 4 9.33366 4C6.40033 4 4.02233 6.368 4.00233 9.29667C2.02766 10.2787 0.666992 12.3113 0.666992 14.6667C0.666992 17.9807 3.35299 20.6667 6.66699 20.6667H18.3337C21.095 20.6667 23.3337 18.428 23.3337 15.6667C23.3337 13.4853 21.9343 11.6347 19.9857 10.952ZM15.3743 13.7073C15.179 13.9027 14.923 14 14.667 14C14.411 14 14.155 13.9027 13.9597 13.7073L13.0003 12.748V16.334C13.0003 16.8867 12.553 17.334 12.0003 17.334C11.4477 17.334 11.0003 16.8867 11.0003 16.334V12.748L10.041 13.7073C9.65033 14.098 9.01766 14.098 8.62699 13.7073C8.23633 13.3173 8.23633 12.6833 8.62699 12.2933L11.2937 9.62667C11.6843 9.236 12.317 9.236 12.7077 9.62667L15.3743 12.2933C15.765 12.6833 15.765 13.3173 15.3743 13.7073Z" fill="#718095"/>
</svg>
