<svg width="24" height="24" viewBox="0 0 24 24" fill="none" xmlns="http://www.w3.org/2000/svg">
<g clip-path="url(#clip0_3592_6382)">
<path d="M12.0003 0.666748C5.74099 0.666748 0.666992 5.74075 0.666992 12.0001C0.666992 18.2594 5.74099 23.3334 12.0003 23.3334C18.2597 23.3334 23.3337 18.2594 23.3337 12.0001C23.3337 5.74075 18.2597 0.666748 12.0003 0.666748ZM11.0003 6.33342C11.0003 5.78075 11.4477 5.33342 12.0003 5.33342C12.553 5.33342 13.0003 5.78075 13.0003 6.33342V13.0001C13.0003 13.5527 12.553 14.0001 12.0003 14.0001C11.4477 14.0001 11.0003 13.5527 11.0003 13.0001V6.33342ZM12.0003 18.6667C11.2637 18.6667 10.667 18.0701 10.667 17.3334C10.667 16.5967 11.2637 16.0001 12.0003 16.0001C12.737 16.0001 13.3337 16.5967 13.3337 17.3334C13.3337 18.0701 12.737 18.6667 12.0003 18.6667Z" fill="#C36B00"/>
</g>
<defs>
<clipPath id="clip0_3592_6382">
<rect width="24" height="24" fill="white"/>
</clipPath>
</defs>
</svg>
