<svg width="32" height="32" viewBox="0 0 32 32" fill="none" xmlns="http://www.w3.org/2000/svg">
<circle cx="16" cy="16" r="16" fill="#1474C4"/>
<path d="M16.8591 19.5312C15.7208 19.5312 14.583 19.0979 13.7169 18.2318C13.283 17.7979 13.283 17.0946 13.7169 16.6607C14.1508 16.2268 14.8541 16.2268 15.288 16.6607C16.1541 17.5268 17.5641 17.5268 18.4308 16.6607L21.9658 13.1251C22.3858 12.7051 22.6169 12.1473 22.6169 11.5534C22.6169 10.9596 22.3858 10.4018 21.9658 9.98233C21.0997 9.11567 19.6897 9.11567 18.823 9.98233L17.9391 10.8662C17.5052 11.3001 16.8019 11.3001 16.368 10.8662C15.9341 10.4323 15.9341 9.729 16.368 9.29456L17.2519 8.41067C18.9847 6.67789 21.8041 6.67789 23.5369 8.41067C24.3769 9.25011 24.8391 10.3662 24.8391 11.5534C24.8391 12.7407 24.3769 13.8568 23.5369 14.6962L20.0019 18.2318C19.1352 19.0979 17.9974 19.5312 16.8591 19.5312ZM14.6985 23.5351L15.5824 22.6512C16.0163 22.2173 16.0163 21.514 15.5824 21.0796C15.1486 20.6462 14.4452 20.6457 14.0113 21.0796L13.1274 21.9634C12.2602 22.8301 10.8502 22.8301 9.98466 21.9634C9.56466 21.544 9.33355 20.9857 9.33355 20.3923C9.33355 19.799 9.56466 19.2407 9.98466 18.8207L13.5197 15.2851C14.3869 14.4184 15.7969 14.419 16.6624 15.2851C17.0963 15.719 17.7997 15.719 18.2336 15.2851C18.6674 14.8512 18.6674 14.1479 18.2336 13.714C16.5008 11.9812 13.6813 11.9818 11.9485 13.714L8.41355 17.2496C7.57355 18.089 7.11133 19.2057 7.11133 20.3923C7.11133 21.579 7.57355 22.6957 8.41355 23.5351C9.28022 24.4018 10.4174 24.8346 11.5558 24.8346C12.6941 24.8346 13.8324 24.4018 14.6985 23.5351Z" fill="white"/>
</svg>
