<svg width="24" height="24" viewBox="0 0 24 24" fill="none" xmlns="http://www.w3.org/2000/svg">
<g clip-path="url(#clip0_3592_6370)">
<path d="M12.0003 0.666748C5.74099 0.666748 0.666992 5.74075 0.666992 12.0001C0.666992 18.2594 5.74099 23.3334 12.0003 23.3334C18.2597 23.3334 23.3337 18.2594 23.3337 12.0001C23.3337 5.74075 18.2597 0.666748 12.0003 0.666748ZM10.0003 16.0001C10.0003 16.5527 9.55299 17.0001 9.00033 17.0001C8.44766 17.0001 8.00033 16.5527 8.00033 16.0001V8.00008C8.00033 7.44741 8.44766 7.00008 9.00033 7.00008C9.55299 7.00008 10.0003 7.44741 10.0003 8.00008V16.0001ZM16.0003 16.0001C16.0003 16.5527 15.553 17.0001 15.0003 17.0001C14.4477 17.0001 14.0003 16.5527 14.0003 16.0001V8.00008C14.0003 7.44741 14.4477 7.00008 15.0003 7.00008C15.553 7.00008 16.0003 7.44741 16.0003 8.00008V16.0001Z" fill="#718095"/>
</g>
<defs>
<clipPath id="clip0_3592_6370">
<rect width="24" height="24" fill="white"/>
</clipPath>
</defs>
</svg>
