<svg width="58" height="58" viewBox="0 0 58 58" fill="none" xmlns="http://www.w3.org/2000/svg">
<path d="M48.3338 35.4444V48.3333C48.3338 51.8874 45.4434 54.7777 41.8893 54.7777H9.6671C6.11299 54.7777 3.22266 51.8874 3.22266 48.3333V16.1111C3.22266 12.5569 6.11299 9.66661 9.6671 9.66661H22.556C24.3347 9.66661 25.7782 11.1102 25.7782 12.8888C25.7782 14.6675 24.3347 16.1111 22.556 16.1111H9.6671V48.3333H41.8893V35.4444C41.8893 33.6657 43.3329 32.2222 45.1115 32.2222C46.8902 32.2222 48.3338 33.6657 48.3338 35.4444ZM51.556 3.22217H35.4449C33.6662 3.22217 32.2227 4.66572 32.2227 6.44439C32.2227 8.22306 33.6662 9.66661 35.4449 9.66661H43.7775L21.889 31.5552C20.6307 32.8134 20.6307 34.8531 21.889 36.113C22.5189 36.7413 23.3422 37.0571 24.1671 37.0571C24.992 37.0571 25.8153 36.7429 26.4452 36.113L48.3338 14.2228V22.5555C48.3338 24.3342 49.7773 25.7777 51.556 25.7777C53.3347 25.7777 54.7782 24.3342 54.7782 22.5555V6.44439C54.7782 4.66572 53.3347 3.22217 51.556 3.22217Z" fill="#1474C4"/>
</svg>
