<svg width="16" height="16" viewBox="0 0 16 16" fill="none" xmlns="http://www.w3.org/2000/svg">
<g clip-path="url(#clip0_3592_6338)">
<path d="M14.222 7.11114H8.88867V1.7778C8.88867 1.28714 8.49045 0.888916 7.99978 0.888916C7.50912 0.888916 7.11089 1.28714 7.11089 1.7778V7.11114H1.77756C1.28689 7.11114 0.888672 7.50936 0.888672 8.00003C0.888672 8.49069 1.28689 8.88892 1.77756 8.88892H7.11089V14.2222C7.11089 14.7129 7.50912 15.1111 7.99978 15.1111C8.49045 15.1111 8.88867 14.7129 8.88867 14.2222V8.88892H14.222C14.7127 8.88892 15.1109 8.49069 15.1109 8.00003C15.1109 7.50936 14.7127 7.11114 14.222 7.11114Z" fill="#ffffff"/>
</g>
<defs>
<clipPath id="clip0_3592_6338">
<rect width="16" height="16" fill="white"/>
</clipPath>
</defs>
</svg>
