<svg width="16" height="16" viewBox="0 0 16 16" fill="none" xmlns="http://www.w3.org/2000/svg">
<g clip-path="url(#clip0_3593_4632)">
<path d="M0.921213 6.43001C1.82166 3.16734 4.81677 0.888672 8.20477 0.888672C10.2337 0.888672 12.1443 1.72423 13.5381 3.10956V1.77756C13.5381 1.28689 13.9363 0.888672 14.427 0.888672C14.9177 0.888672 15.3159 1.28689 15.3159 1.77756V6.22201C15.3159 6.71267 14.9177 7.11089 14.427 7.11089H10.427C9.93632 7.11089 9.5381 6.71267 9.5381 6.22201C9.5381 5.73134 9.93632 5.33312 10.427 5.33312H13.0683C12.0185 3.70423 10.1843 2.66645 8.20477 2.66645C5.61366 2.66645 3.32344 4.40867 2.63455 6.90289C2.5261 7.29712 2.16788 7.55534 1.7781 7.55534C1.69988 7.55534 1.62032 7.54512 1.54121 7.52289C1.06832 7.39223 0.790546 6.90289 0.920769 6.42956L0.921213 6.43001ZM14.8683 8.92067C14.395 8.78867 13.9052 9.06778 13.775 9.54112C13.0861 12.0353 10.7959 13.7776 8.20477 13.7776C6.22521 13.7776 4.39099 12.7398 3.34121 11.1109H5.98255C6.47321 11.1109 6.87144 10.7127 6.87144 10.222C6.87144 9.73134 6.47321 9.33312 5.98255 9.33312H1.98255C1.49188 9.33312 1.09366 9.73134 1.09366 10.222V14.6664C1.09366 15.1571 1.49188 15.5553 1.98255 15.5553C2.47321 15.5553 2.87144 15.1571 2.87144 14.6664V13.3344C4.26521 14.7198 6.17588 15.5553 8.20477 15.5553C11.5928 15.5553 14.5879 13.2767 15.4888 10.014C15.6194 9.54067 15.3417 9.05134 14.8683 8.92067Z" fill="#001B41"/>
</g>
<defs>
<clipPath id="clip0_3593_4632">
<rect width="16" height="16" fill="white"/>
</clipPath>
</defs>
</svg>
