<svg width="16" height="16" viewBox="0 0 16 16" fill="none" xmlns="http://www.w3.org/2000/svg">
<path d="M9.25721 8.00004L13.5177 3.73959C13.8648 3.39248 13.8648 2.82981 13.5177 2.48226C13.1705 2.13515 12.6079 2.13515 12.2608 2.48226L8.00032 6.74315L3.73988 2.4827C3.39277 2.13559 2.8301 2.13559 2.48299 2.4827C2.13588 2.82981 2.13588 3.39248 2.48299 3.73959L6.74343 8.00004L2.48299 12.2605C2.13588 12.6076 2.13588 13.1703 2.48299 13.5178C2.65677 13.6911 2.88388 13.7783 3.11143 13.7783C3.33899 13.7783 3.5661 13.6916 3.73988 13.5178L8.00032 9.25692L12.2608 13.5174C12.4345 13.6907 12.6617 13.7778 12.8892 13.7778C13.1168 13.7778 13.3439 13.6911 13.5177 13.5174C13.8648 13.1703 13.8648 12.6076 13.5177 12.26L9.25721 8.00004Z" fill="#001B41"/>
</svg>
