<svg width="16" height="16" viewBox="0 0 16 16" fill="none" xmlns="http://www.w3.org/2000/svg">
<g clip-path="url(#clip0_3592_6349)">
<path d="M8.44423 11.1111V12.4445C8.44423 13.9151 7.24823 15.1111 5.77756 15.1111H3.55534C2.08467 15.1111 0.888672 13.9151 0.888672 12.4445V3.55558C0.888672 2.08492 2.08467 0.888916 3.55534 0.888916H5.77756C7.24823 0.888916 8.44423 2.08492 8.44423 3.55558V4.88892C8.44423 5.37958 8.04601 5.7778 7.55534 5.7778C7.06467 5.7778 6.66645 5.37958 6.66645 4.88892V3.55558C6.66645 3.06536 6.26778 2.66669 5.77756 2.66669H3.55534C3.06512 2.66669 2.66645 3.06536 2.66645 3.55558V12.4445C2.66645 12.9347 3.06512 13.3334 3.55534 13.3334H5.77756C6.26778 13.3334 6.66645 12.9347 6.66645 12.4445V11.1111C6.66645 10.6205 7.06467 10.2222 7.55534 10.2222C8.04601 10.2222 8.44423 10.6205 8.44423 11.1111ZM14.8287 7.35025L11.4953 4.23914C11.1367 3.90447 10.574 3.92403 10.2389 4.28225C9.90378 4.64136 9.92334 5.20358 10.282 5.53869L11.9669 7.11114H4.88867C4.39801 7.11114 3.99978 7.50936 3.99978 8.00003C3.99978 8.49069 4.39801 8.88892 4.88867 8.88892H11.9669L10.282 10.4614C9.92289 10.796 9.90378 11.3587 10.2389 11.7178C10.414 11.9054 10.6509 12 10.8887 12C11.106 12 11.3238 11.9209 11.4949 11.7609L14.8282 8.6498C15.0082 8.4818 15.1104 8.24625 15.1104 8.00003C15.1104 7.7538 15.0087 7.51825 14.8287 7.35025Z" fill="#001B41"/>
</g>
<defs>
<clipPath id="clip0_3592_6349">
<rect width="16" height="16" fill="white"/>
</clipPath>
</defs>
</svg>
