<svg width="24" height="24" viewBox="0 0 24 24" fill="none" xmlns="http://www.w3.org/2000/svg">
<g clip-path="url(#clip0_3590_4241)">
<path d="M11.9991 0C5.37675 0 0.00390684 5.69893 0.00390684 12.7604C-0.0284348 14.097 0.140185 15.4306 0.503706 16.7134C0.643913 16.4596 0.853667 16.2547 1.10637 16.1247C1.35908 15.9946 1.64335 15.9453 1.92314 15.9829H11.8941L11.9191 15.9104C12.0091 15.6565 12.234 15.3301 12.309 15.0763C12.3473 14.9717 12.3477 14.8562 12.31 14.7513C12.2723 14.6465 12.1991 14.5594 12.1041 14.5064C11.9791 14.4649 11.8442 14.5634 11.7242 14.5426C11.5394 14.4923 11.3684 14.3983 11.2244 14.2681C11.0345 14.1126 10.9645 13.864 10.7646 13.7189C10.5647 13.5738 10.4747 13.6723 10.2948 13.6153C10.1149 13.5583 9.9949 13.3148 9.84496 13.2371C9.61505 13.1231 9.4901 13.2837 9.2502 13.2371C9.00366 13.1443 8.7674 13.0245 8.54548 12.8796C8.3684 12.8111 8.20759 12.7039 8.07393 12.5654C7.94028 12.4268 7.8369 12.2601 7.77079 12.0766C7.63448 11.77 7.44663 11.4911 7.21602 11.2528C6.98611 10.9471 6.91614 10.6933 6.56128 10.6104C6.5163 10.6104 6.64624 10.9316 6.66124 10.9575C6.80401 11.2036 6.96089 11.4406 7.13105 11.6673C7.35596 12.0092 7.261 12.0714 7.03109 11.7398C6.80118 11.4082 6.46632 10.9886 6.23641 10.5845C6.15144 10.4342 6.16644 10.3358 6.02649 10.1907C5.88655 10.0457 5.71162 9.9835 5.57167 9.85398C5.35238 9.62135 5.18989 9.33777 5.09773 9.02686C5.00558 8.71595 4.98643 8.38671 5.04189 8.06658C5.08876 7.86836 5.10894 7.66438 5.10186 7.46042C5.06805 7.2872 4.98234 7.12946 4.85696 7.00969L4.71202 6.76619C4.61412 6.56352 4.48592 6.37818 4.33217 6.21702C4.22721 6.12376 3.96232 5.90617 3.71242 5.69893C4.83801 4.20463 6.31446 3.03448 8.0007 2.3003C8.00958 2.40427 8.04399 2.50415 8.10066 2.59042C8.23561 2.8132 8.37055 2.79248 8.64044 2.85465C8.61046 3.18622 8.2456 3.1914 7.9957 3.15514C7.7458 3.11887 7.38595 3.00489 7.13105 3.28466C7.27099 3.37273 7.66084 3.73021 7.63085 3.35719C7.90861 3.33382 8.18775 3.33382 8.46551 3.35719C8.58047 3.35719 8.96531 3.50744 9.05528 3.44526C9.14524 3.38309 9.14024 3.19658 9.18523 3.12923C9.09745 3.11639 9.00897 3.10947 8.92033 3.10851C9.10526 2.85465 9.29018 3.05152 9.52509 3.1655C9.26519 3.33647 9.42013 3.73539 9.67003 3.409C9.91993 3.08261 9.62005 2.9479 9.35516 2.79248C9.62505 2.44018 9.78498 2.40909 10.0349 2.79248C10.0749 2.5438 10.2648 2.64223 10.4597 2.66296V2.59042C10.3722 2.57156 10.2838 2.55772 10.1948 2.54898C10.3947 2.21222 10.2698 2.13451 10.5547 2.03089C10.8396 1.92728 11.4243 2.03089 11.5043 1.79775C11.0234 1.84231 10.5508 1.95564 10.0999 2.13451C9.92493 2.22777 9.71501 2.52307 9.54008 2.33138C9.36515 2.13969 9.67003 1.8133 9.82497 1.71486H9.78998C10.5156 1.55004 11.2563 1.46666 11.9991 1.46618C12.4823 1.46644 12.9649 1.50106 13.4435 1.5698C13.2786 1.66305 13.4035 1.72522 13.2836 1.81848C12.999 1.99871 12.6955 2.14471 12.3789 2.25367C12.7238 2.25367 13.5585 2.60079 13.7184 2.08788L13.3835 2.03089C13.5964 1.88366 13.8265 1.76527 14.0683 1.6786C16.2303 2.14246 18.1972 3.29869 19.691 4.98398H19.661C19.2981 4.951 18.9348 5.04197 18.6264 5.24302C18.5128 5.36098 18.3789 5.45587 18.2316 5.52279C18.0817 5.56941 17.9167 5.52279 17.7668 5.57977C17.222 5.77665 17.307 7.02005 16.5923 6.83354C16.2524 6.74547 16.0125 6.31546 15.8426 6.04087C15.6726 5.76629 15.4227 5.6005 15.6076 5.29483H15.3528C15.4677 5.0306 15.8526 5.05133 15.9175 4.91145C16.0775 4.56951 15.4777 4.53324 15.3078 4.48662C15.5127 4.25348 15.6126 4.56433 15.8076 4.51252C16.0025 4.46071 15.7026 4.19131 15.5877 4.16022C15.5477 4.16022 14.8629 4.35709 15.2578 3.98407L13.8034 2.99971C13.7184 3.36755 14.4531 3.57479 14.693 3.70949C14.653 3.85973 14.4331 4.08251 14.2632 4.01516C14.0933 3.94781 14.1632 3.67322 13.9233 3.69913C13.7484 4.12914 14.2882 4.0048 14.3382 4.26384C14.3881 4.52288 14.1332 4.43481 14.0333 4.42963C14.0333 4.42963 13.8234 4.22239 13.8134 4.383C13.8034 4.5436 14.1132 4.4918 14.1332 4.67831C13.8224 4.68527 13.5212 4.56632 13.2936 4.34673C13.0156 4.16047 12.6805 4.08842 12.354 4.14468C12.4956 4.09955 12.6315 4.03693 12.7588 3.95817C12.873 3.86082 12.9753 3.74948 13.0637 3.62659C13.1286 3.39864 13.0637 3.41418 12.8538 3.26394C12.6717 3.0836 12.4579 2.94114 12.224 2.84429C11.4193 2.67332 11.9791 3.61623 11.3644 3.74575C11.2244 3.74575 10.9595 3.70431 10.8646 3.78202C10.7696 3.85973 10.7946 4.06697 10.7196 4.14468C10.6446 4.22239 10.3997 4.32083 10.2498 4.42445C10.0293 4.56607 9.83745 4.75084 9.68503 4.96843C9.36016 5.6264 10.4097 5.82846 10.8096 6.0046C10.9895 6.09268 11.5143 6.20666 11.6143 6.35172C11.7142 6.49679 11.4993 6.72992 11.7742 6.86981C11.8297 6.89681 11.8914 6.90724 11.9523 6.89992C12.0132 6.89259 12.071 6.86782 12.119 6.82836C12.239 6.6833 12.0691 6.64703 12.0391 6.48124C11.9841 6.15485 12.0741 6.28437 12.229 6.16003C12.5439 5.91653 12.4739 5.90099 12.359 5.50206C12.309 5.32073 12.1091 4.80783 12.284 4.67313C12.4589 4.53842 12.9987 4.77156 13.1736 4.79229C13.3486 4.81301 13.4885 5.11868 13.6035 5.24302C13.7184 5.36736 13.8084 5.49688 13.9333 5.47616C14.1382 5.44507 14.0533 5.25856 14.1732 5.17049C14.4881 4.93735 14.5731 5.25338 14.698 5.56941C14.788 5.80958 14.9424 6.01809 15.1428 6.17039C15.2428 6.26365 15.6726 6.57968 15.6426 6.77655C15.6126 6.97342 15.1428 7.10813 14.9879 7.15475C14.4881 7.31536 13.6035 6.88535 13.4885 7.67284C13.6734 7.60031 14.2082 7.15475 14.3681 7.35681C14.4381 7.45524 14.3082 7.60031 14.3382 7.69874C14.4281 7.99405 14.643 7.89043 14.8679 7.84381L14.823 7.86971C15.1278 7.70392 15.0929 7.73501 15.2378 7.4656C15.2846 7.33652 15.3449 7.21317 15.4177 7.09776C15.6376 6.88017 15.6726 7.03041 15.8126 7.1962C15.8476 7.24283 16.1874 7.76609 16.0675 7.74019C15.8822 7.68553 15.688 7.67112 15.497 7.69787C15.3061 7.72461 15.1226 7.79193 14.9579 7.89561C14.7758 8.05429 14.5762 8.18995 14.3631 8.29972C14.3082 8.29972 13.9083 8.36189 13.9533 8.29972C13.9983 8.23755 14.2632 8.12357 14.3582 8.00441C14.0933 7.89043 13.8584 8.1443 13.6734 8.29454C13.4885 8.44479 13.4035 8.60539 13.2186 8.78672C13.1336 8.86443 12.9837 8.87998 12.9037 8.98359C12.8238 9.08721 12.8138 9.23745 12.7438 9.33071C12.6738 9.42397 12.5589 9.33071 12.5039 9.46023C12.4489 9.58975 12.5689 9.70891 12.5389 9.80217C12.4889 9.97832 12.179 10.1182 12.0641 10.2425L12.1091 10.1959C11.9792 10.3115 11.8589 10.438 11.7492 10.5741C11.8293 10.8485 11.8763 11.1322 11.8891 11.4186C11.7692 11.8072 11.5293 11.2062 11.4343 11.0559C11.0995 10.5378 10.4347 10.8798 9.9849 10.9212C9.82721 10.9483 9.67768 11.0128 9.54791 11.1095C9.41815 11.2063 9.31166 11.3327 9.23671 11.4791C9.16177 11.6254 9.12039 11.7877 9.1158 11.9534C9.1112 12.119 9.14351 12.2835 9.21022 12.434C9.28234 12.5787 9.39992 12.6934 9.54351 12.7594C9.6871 12.8253 9.84811 12.8385 9.9999 12.7967C10.2948 12.7345 10.3847 12.2786 10.6596 12.2786C11.1594 12.2786 10.6596 12.7967 10.6296 13.0091C10.5997 13.2215 10.6946 13.2112 10.8745 13.2578C11.0545 13.3044 11.1944 13.1956 11.3094 13.2578C11.4243 13.32 11.3743 13.5842 11.4743 13.4961C11.4316 13.5478 11.3992 13.6077 11.3789 13.6724C11.3586 13.7371 11.3507 13.8053 11.3558 13.8732C11.3609 13.941 11.3789 14.0071 11.4086 14.0678C11.4384 14.1284 11.4794 14.1824 11.5293 14.2266C11.7492 14.3924 12.0291 14.2266 12.244 14.3043C12.6838 14.4235 12.4739 14.2681 12.8638 14.0194C13.1236 13.8536 13.1686 14.0505 13.3636 14.0505C13.5585 14.0505 13.5635 13.8691 13.7684 13.9209C13.9733 13.9728 13.9983 14.1023 14.1932 14.1334C14.2782 14.1334 14.3582 14.0971 14.4381 14.1075C14.788 14.1924 15.1103 14.3711 15.3727 14.6255C15.6077 14.812 15.7626 14.7706 16.0425 14.8587C16.1922 14.9567 16.3197 15.087 16.4163 15.2408C16.5129 15.3946 16.5763 15.5682 16.6023 15.7498C16.6023 15.786 16.5073 15.8379 16.4473 15.9518H22.0801C22.3619 15.9179 22.6472 15.9676 22.9029 16.0951C23.1586 16.2225 23.3741 16.4226 23.5245 16.672C23.8746 15.401 24.033 14.0816 23.9943 12.7604C23.9943 5.69893 18.6214 0 11.9991 0ZM22.4949 17.0968H1.50331C1.37075 17.0968 1.24362 17.1514 1.14989 17.2485C1.05616 17.3457 1.00351 17.4775 1.00351 17.6149V23.3138C1.00351 23.4512 1.05616 23.583 1.14989 23.6802C1.24362 23.7773 1.37075 23.8319 1.50331 23.8319H22.4949C22.6274 23.8319 22.7546 23.7773 22.8483 23.6802C22.942 23.583 22.9947 23.4512 22.9947 23.3138V17.6149C22.9947 17.4775 22.942 17.3457 22.8483 17.2485C22.7546 17.1514 22.6274 17.0968 22.4949 17.0968ZM7.06108 22.2777H6.32137L5.45672 19.739L4.57707 22.2777H3.84237L2.5029 18.6511H3.39755L4.19223 21.1897L5.15184 18.6511H5.7516L6.69123 21.1897L7.5009 18.6511H8.38555L7.06108 22.2777ZM13.6384 22.2777H12.9037L12.0391 19.739L11.1594 22.2777H10.4247L9.10026 18.6511H9.9999L10.7946 21.1897L11.7292 18.6511H12.334L13.2736 21.1897L14.0783 18.6511H14.9579L13.6384 22.2777ZM20.1358 22.2777H19.4211L18.5565 19.739L17.6768 22.2777H16.9421L15.6176 18.6511H16.3773L17.292 21.1897L18.2516 18.6511H18.8513L19.666 21.1897H19.811L20.6006 18.6511H21.4953L20.1358 22.2777Z" fill="#001B41"/>
</g>
<defs>
<clipPath id="clip0_3590_4241">
<rect width="24" height="24" fill="white"/>
</clipPath>
</defs>
</svg>
