<svg width="24" height="24" viewBox="0 0 24 24" fill="none" xmlns="http://www.w3.org/2000/svg">
<g clip-path="url(#clip0_3592_6377)">
<path d="M12.0003 0.666748C5.74099 0.666748 0.666992 5.74075 0.666992 12.0001C0.666992 18.2594 5.74099 23.3334 12.0003 23.3334C18.2597 23.3334 23.3337 18.2594 23.3337 12.0001C23.3337 5.74075 18.2597 0.666748 12.0003 0.666748ZM16.243 14.8287C16.6337 15.2187 16.6337 15.8527 16.243 16.2427C16.0477 16.4381 15.7917 16.5354 15.5357 16.5354C15.2797 16.5354 15.0237 16.4381 14.8283 16.2427L11.9997 13.4141L9.17099 16.2427C8.97566 16.4381 8.71966 16.5354 8.46366 16.5354C8.20766 16.5354 7.95166 16.4381 7.75633 16.2427C7.36566 15.8527 7.36566 15.2187 7.75633 14.8287L10.585 12.0001L7.75633 9.17142C7.36566 8.78141 7.36566 8.14741 7.75633 7.75741C8.14699 7.36675 8.77966 7.36675 9.17033 7.75741L11.999 10.5861L14.8277 7.75741C15.2183 7.36675 15.851 7.36675 16.2417 7.75741C16.6323 8.14741 16.6323 8.78141 16.2417 9.17142L13.413 12.0001L16.2417 14.8287H16.243Z" fill="#F50C00"/>
</g>
<defs>
<clipPath id="clip0_3592_6377">
<rect width="24" height="24" fill="white"/>
</clipPath>
</defs>
</svg>
