<svg width="24" height="24" viewBox="0 0 24 24" fill="none" xmlns="http://www.w3.org/2000/svg">
<g clip-path="url(#clip0_3646_4624)">
<path d="M24 12C24 18.6274 18.6274 24 12 24C5.37258 24 0 18.6274 0 12C0 5.37258 5.37258 0 12 0C18.6274 0 24 5.37258 24 12Z" fill="#1474C4"/>
<g clip-path="url(#clip1_3646_4624)">
<path d="M5.80582 10.6265C6.59371 7.77167 9.21443 5.77783 12.1789 5.77783C13.9542 5.77783 15.626 6.50894 16.8456 7.72111V6.55561C16.8456 6.12628 17.194 5.77783 17.6234 5.77783C18.0527 5.77783 18.4011 6.12628 18.4011 6.55561V10.4445C18.4011 10.8738 18.0527 11.2223 17.6234 11.2223H14.1234C13.694 11.2223 13.3456 10.8738 13.3456 10.4445C13.3456 10.0152 13.694 9.66672 14.1234 9.66672H16.4345C15.516 8.24144 13.911 7.33339 12.1789 7.33339C9.91171 7.33339 7.90776 8.85783 7.30498 11.0403C7.2101 11.3852 6.89665 11.6112 6.5556 11.6112C6.48715 11.6112 6.41754 11.6022 6.34832 11.5828C5.93454 11.4684 5.69148 11.0403 5.80543 10.6261L5.80582 10.6265ZM18.0095 12.8058C17.5954 12.6903 17.1668 12.9346 17.0529 13.3487C16.4501 15.5312 14.4462 17.0556 12.1789 17.0556C10.4468 17.0556 8.84187 16.1476 7.92332 14.7223H10.2345C10.6638 14.7223 11.0123 14.3738 11.0123 13.9445C11.0123 13.5152 10.6638 13.1667 10.2345 13.1667H6.73448C6.30515 13.1667 5.95671 13.5152 5.95671 13.9445V17.8334C5.95671 18.2627 6.30515 18.6112 6.73448 18.6112C7.16382 18.6112 7.51226 18.2627 7.51226 17.8334V16.6679C8.73182 17.8801 10.4037 18.6112 12.1789 18.6112C15.1434 18.6112 17.7642 16.6173 18.5524 13.7625C18.6668 13.3483 18.4237 12.9202 18.0095 12.8058Z" fill="white"/>
</g>
</g>
<defs>
<clipPath id="clip0_3646_4624">
<rect width="24" height="24" fill="white"/>
</clipPath>
<clipPath id="clip1_3646_4624">
<rect width="14" height="14" fill="white" transform="translate(5 5)"/>
</clipPath>
</defs>
</svg>
