<svg width="36" height="36" viewBox="0 0 36 36" fill="none" xmlns="http://www.w3.org/2000/svg">
<path d="M18 1C8.611 1 1 8.611 1 18C1 27.389 8.611 35 18 35C27.389 35 35 27.389 35 18C35 8.611 27.389 1 18 1ZM18 28.5C16.895 28.5 16 27.605 16 26.5C16 25.395 16.895 24.5 18 24.5C19.105 24.5 20 25.395 20 26.5C20 27.605 19.105 28.5 18 28.5ZM19.5 19.811V21.5C19.5 22.329 18.829 23 18 23C17.171 23 16.5 22.329 16.5 21.5V19C16.5 18.409 16.782 17.353 18.669 16.926C20.019 16.619 21 15.389 21 14C21 12.346 19.654 11 18 11C16.346 11 15 12.346 15 14C15 14.829 14.329 15.5 13.5 15.5C12.671 15.5 12 14.829 12 14C12 10.691 14.691 8 18 8C21.309 8 24 10.691 24 14C24 16.763 22.158 19.128 19.5 19.811Z" fill="#1474C4"/>
</svg>
