<svg width="24" height="24" viewBox="0 0 24 24" fill="none" xmlns="http://www.w3.org/2000/svg">
<g clip-path="url(#clip0_3592_6351)">
<path d="M12.0003 0.666748C5.74099 0.666748 0.666992 5.74075 0.666992 12.0001C0.666992 18.2594 5.74099 23.3334 12.0003 23.3334C18.2597 23.3334 23.3337 18.2594 23.3337 12.0001C23.3337 5.74075 18.2597 0.666748 12.0003 0.666748ZM17.429 9.31475L11.7623 15.9814C11.587 16.1881 11.335 16.3141 11.0643 16.3314C11.043 16.3327 11.0217 16.3334 11.0003 16.3334C10.7523 16.3334 10.5123 16.2414 10.3277 16.0734L6.66099 12.7401C6.25233 12.3687 6.22233 11.7361 6.59366 11.3274C6.96499 10.9187 7.59766 10.8881 8.00633 11.2601L10.9083 13.8981L15.9057 8.01941C16.2637 7.59942 16.895 7.54808 17.3157 7.90541C17.7363 8.26341 17.7877 8.89408 17.4297 9.31541L17.429 9.31475Z" fill="#0C8A44"/>
</g>
<defs>
<clipPath id="clip0_3592_6351">
<rect width="24" height="24" fill="white"/>
</clipPath>
</defs>
</svg>
