<svg width="24" height="24" viewBox="0 0 24 24" fill="none" xmlns="http://www.w3.org/2000/svg">
<g clip-path="url(#clip0_3748_4604)">
<path d="M12.0003 0.666504C5.74099 0.666504 0.666992 5.7405 0.666992 11.9998C0.666992 18.2592 5.74099 23.3332 12.0003 23.3332C18.2597 23.3332 23.3337 18.2592 23.3337 11.9998C23.3337 5.7405 18.2597 0.666504 12.0003 0.666504ZM17.429 9.3145L11.7623 15.9812C11.587 16.1878 11.335 16.3138 11.0643 16.3312C11.043 16.3325 11.0217 16.3332 11.0003 16.3332C10.7523 16.3332 10.5123 16.2412 10.3277 16.0732L6.66099 12.7398C6.25233 12.3685 6.22233 11.7358 6.59366 11.3272C6.96499 10.9185 7.59766 10.8878 8.00633 11.2598L10.9083 13.8978L15.9057 8.01917C16.2637 7.59917 16.895 7.54784 17.3157 7.90517C17.7363 8.26317 17.7877 8.89384 17.4297 9.31517L17.429 9.3145Z" fill="#0C8A44"/>
</g>
<defs>
<clipPath id="clip0_3748_4604">
<rect width="24" height="24" fill="white"/>
</clipPath>
</defs>
</svg>
