<svg width="36" height="36" viewBox="0 0 36 36" fill="none" xmlns="http://www.w3.org/2000/svg">
<g clip-path="url(#clip0_3597_4615)">
<path d="M19.5006 0C18.4346 0 17.4146 0.571 16.8746 1.549L6.37357 20.551C5.79157 21.604 5.89457 22.902 6.63557 23.849C7.21257 24.587 8.09057 25.002 8.99957 25.002C9.25657 25.002 9.51657 24.969 9.77257 24.9L16.1846 23.189L14.5446 32.48C14.2856 33.947 15.1426 35.382 16.5576 35.85C16.8686 35.953 17.1856 36.002 17.4986 36.002C18.6086 36.002 19.6626 35.383 20.1826 34.343L29.6306 15.445C29.8666 15.016 30.0016 14.524 30.0016 14C30.0016 12.364 28.6946 11.034 27.0666 11.001C27.0436 11.001 27.0216 11.001 26.9986 11.001C26.9236 11.001 26.8486 11.004 26.7736 11.009C26.5226 11.028 26.2796 11.077 26.0496 11.154L20.8226 12.764L22.4536 3.522C22.7086 2.078 21.8816 0.661 20.4986 0.172C20.1696 0.056 19.8326 0 19.4996 0L19.5006 0Z" fill="#001B41"/>
</g>
<defs>
<clipPath id="clip0_3597_4615">
<rect width="36" height="36" fill="white"/>
</clipPath>
</defs>
</svg>
