<svg width="32" height="32" viewBox="0 0 32 32" fill="none" xmlns="http://www.w3.org/2000/svg">
<path d="M1.77734 9.7781C1.77734 8.79676 2.57379 8.00032 3.55512 8.00032H24.1525L20.9649 4.81276C20.2707 4.11854 20.2707 2.99321 20.9649 2.29899C21.6582 1.60476 22.7853 1.60476 23.4787 2.29899L29.7009 8.52121C30.3951 9.21543 30.3951 10.3408 29.7009 11.035L23.4787 17.2572C23.132 17.6048 22.6769 17.7781 22.2218 17.7781C21.7667 17.7781 21.3116 17.6048 20.9649 17.2572C20.2707 16.563 20.2707 15.4377 20.9649 14.7434L24.1525 11.5559H3.55512C2.57379 11.5559 1.77734 10.7594 1.77734 9.7781ZM28.444 20.4448H7.84668L11.0342 17.2572C11.7285 16.563 11.7285 15.4377 11.0342 14.7434C10.3409 14.0492 9.21379 14.0492 8.52045 14.7434L2.29823 20.9657C1.60401 21.6599 1.60401 22.7852 2.29823 23.4794L8.52045 29.7017C8.86712 30.0492 9.32223 30.2225 9.77734 30.2225C10.2325 30.2225 10.6876 30.0492 11.0342 29.7017C11.7285 29.0074 11.7285 27.8821 11.0342 27.1879L7.84668 24.0003H28.444C29.4253 24.0003 30.2218 23.2039 30.2218 22.2225C30.2218 21.2412 29.4253 20.4448 28.444 20.4448Z" fill="#001B41"/>
</svg>
