<svg width="24" height="24" viewBox="0 0 24 24" fill="none" xmlns="http://www.w3.org/2000/svg">
<path d="M21.3333 20.6667V21.3333C21.3333 22.07 20.7367 22.6667 20 22.6667H3.99935C3.26268 22.6667 2.66602 22.07 2.66602 21.3333V20.6667C2.66602 20.6607 2.66802 20.6533 2.66802 20.6473C2.68068 16.974 6.32468 14 10 14H14C17.682 14 21.3333 16.9847 21.3333 20.6667ZM12 12C14.9453 12 17.3333 9.61199 17.3333 6.66666C17.3333 3.72133 14.9453 1.33333 12 1.33333C9.05468 1.33333 6.66668 3.72133 6.66668 6.66666C6.66668 9.61199 9.05468 12 12 12Z" fill="#001B41"/>
</svg>
