<svg width="24" height="24" viewBox="0 0 24 24" fill="none" xmlns="http://www.w3.org/2000/svg">
<g clip-path="url(#clip0_3592_6372)">
<path d="M12.0003 0.666748C5.74099 0.666748 0.666992 5.74075 0.666992 12.0001C0.666992 18.2594 5.74099 23.3334 12.0003 23.3334C18.2597 23.3334 23.3337 18.2594 23.3337 12.0001C23.3337 5.74075 18.2597 0.666748 12.0003 0.666748ZM17.0003 13.0001H13.0003V17.0001C13.0003 17.5527 12.553 18.0001 12.0003 18.0001C11.4477 18.0001 11.0003 17.5527 11.0003 17.0001V13.0001H7.00033C6.44766 13.0001 6.00033 12.5527 6.00033 12.0001C6.00033 11.4474 6.44766 11.0001 7.00033 11.0001H11.0003V7.00008C11.0003 6.44741 11.4477 6.00008 12.0003 6.00008C12.553 6.00008 13.0003 6.44741 13.0003 7.00008V11.0001H17.0003C17.553 11.0001 18.0003 11.4474 18.0003 12.0001C18.0003 12.5527 17.553 13.0001 17.0003 13.0001Z" fill="#1474C4"/>
</g>
<defs>
<clipPath id="clip0_3592_6372">
<rect width="24" height="24" fill="white"/>
</clipPath>
</defs>
</svg>
