<svg width="24" height="24" viewBox="0 0 24 24" fill="none" xmlns="http://www.w3.org/2000/svg">
<path d="M8.66634 17.6666V10.3333C8.66634 9.78125 9.11434 9.33325 9.66634 9.33325C10.2183 9.33325 10.6663 9.78125 10.6663 10.3333V17.6666C10.6663 18.2186 10.2183 18.6666 9.66634 18.6666C9.11434 18.6666 8.66634 18.2186 8.66634 17.6666ZM14.333 18.6666C14.885 18.6666 15.333 18.2186 15.333 17.6666V10.3333C15.333 9.78125 14.885 9.33325 14.333 9.33325C13.781 9.33325 13.333 9.78125 13.333 10.3333V17.6666C13.333 18.2186 13.781 18.6666 14.333 18.6666ZM22.6663 6.33325C22.6663 6.88525 22.2183 7.33325 21.6663 7.33325H20.3283C20.3283 7.35659 20.3323 7.37925 20.3303 7.40259L19.493 19.4073C19.4143 20.5346 18.7223 22.6666 16.6663 22.6666H7.33301C5.27701 22.6666 4.58501 20.5346 4.50634 19.4073L3.66901 7.40259C3.66701 7.37925 3.67101 7.35659 3.67101 7.33325H2.33301C1.78101 7.33325 1.33301 6.88525 1.33301 6.33325C1.33301 5.78125 1.78101 5.33325 2.33301 5.33325H7.04834C7.28234 4.23725 8.08501 1.33325 9.99967 1.33325H13.9997C15.915 1.33325 16.717 4.23725 16.951 5.33325H21.6663C22.2183 5.33325 22.6663 5.78125 22.6663 6.33325ZM9.10901 5.33325H14.8903C14.6343 4.39925 14.2263 3.50325 13.9543 3.33325H10.0457C9.77367 3.50325 9.36501 4.39925 9.10967 5.33325H9.10901ZM18.331 7.33325H5.66834L6.50101 19.2686C6.50101 19.2773 6.64434 20.6666 7.33301 20.6666H16.6663C17.355 20.6666 17.4977 19.2773 17.4983 19.2633L18.331 7.33325Z" fill="#001B41"/>
</svg>
