<svg width="24" height="24" viewBox="0 0 24 24" fill="none" xmlns="http://www.w3.org/2000/svg">
<g clip-path="url(#clip0_3748_4606)">
<path d="M12.0003 0.666504C5.74099 0.666504 0.666992 5.7405 0.666992 11.9998C0.666992 18.2592 5.74099 23.3332 12.0003 23.3332C18.2597 23.3332 23.3337 18.2592 23.3337 11.9998C23.3337 5.7405 18.2597 0.666504 12.0003 0.666504ZM16.243 14.8285C16.6337 15.2185 16.6337 15.8525 16.243 16.2425C16.0477 16.4378 15.7917 16.5352 15.5357 16.5352C15.2797 16.5352 15.0237 16.4378 14.8283 16.2425L11.9997 13.4138L9.17099 16.2425C8.97566 16.4378 8.71966 16.5352 8.46366 16.5352C8.20766 16.5352 7.95166 16.4378 7.75633 16.2425C7.36566 15.8525 7.36566 15.2185 7.75633 14.8285L10.585 11.9998L7.75633 9.17117C7.36566 8.78117 7.36566 8.14717 7.75633 7.75717C8.14699 7.3665 8.77966 7.3665 9.17033 7.75717L11.999 10.5858L14.8277 7.75717C15.2183 7.3665 15.851 7.3665 16.2417 7.75717C16.6323 8.14717 16.6323 8.78117 16.2417 9.17117L13.413 11.9998L16.2417 14.8285H16.243Z" fill="#F50C00"/>
</g>
<defs>
<clipPath id="clip0_3748_4606">
<rect width="24" height="24" fill="white"/>
</clipPath>
</defs>
</svg>
