<svg width="24" height="24" viewBox="0 0 24 24" fill="none" xmlns="http://www.w3.org/2000/svg">
<g clip-path="url(#clip0_3594_4543)">
<path d="M12.0003 0.666748C5.74099 0.666748 0.666992 5.74075 0.666992 12.0001C0.666992 18.2594 5.74099 23.3334 12.0003 23.3334C18.2597 23.3334 23.3337 18.2594 23.3337 12.0001C23.3337 5.74075 18.2597 0.666748 12.0003 0.666748ZM12.0003 5.33342C12.737 5.33342 13.3337 5.93008 13.3337 6.66675C13.3337 7.40341 12.737 8.00008 12.0003 8.00008C11.2637 8.00008 10.667 7.40341 10.667 6.66675C10.667 5.93008 11.2637 5.33342 12.0003 5.33342ZM14.667 17.4214C14.667 17.7414 14.4077 18.0001 14.0883 18.0001H9.91299C9.59299 18.0001 9.33433 17.7407 9.33433 17.4214V16.5794C9.33433 16.2601 9.59366 16.0007 9.91299 16.0007H11.001V11.3341H10.2463C9.92633 11.3341 9.66766 11.0747 9.66766 10.7554V9.91341C9.66766 9.59408 9.92699 9.33475 10.2463 9.33475H12.4217C12.7417 9.33475 13.0003 9.59408 13.0003 9.91341V16.0014H14.0883C14.4083 16.0014 14.667 16.2607 14.667 16.5801V17.4214Z" fill="#1474C4"/>
</g>
<defs>
<clipPath id="clip0_3594_4543">
<rect width="24" height="24" fill="white"/>
</clipPath>
</defs>
</svg>
