<svg width="16" height="16" viewBox="0 0 16 16" fill="none" xmlns="http://www.w3.org/2000/svg">
<g clip-path="url(#clip0_3594_4586)">
<path d="M13.5553 11.1111H6.44423C5.58645 11.1111 4.88867 10.4134 4.88867 9.55558V2.44447C4.88867 1.58669 5.58645 0.888916 6.44423 0.888916H13.5553C14.4131 0.888916 15.1109 1.58669 15.1109 2.44447V9.55558C15.1109 10.4134 14.4131 11.1111 13.5553 11.1111ZM6.44423 2.22225C6.32156 2.22225 6.222 2.3218 6.222 2.44447V9.55558C6.222 9.67825 6.32156 9.7778 6.44423 9.7778H13.5553C13.678 9.7778 13.7776 9.67825 13.7776 9.55558V2.44447C13.7776 2.3218 13.678 2.22225 13.5553 2.22225H6.44423ZM11.1109 13.5556V12.4445H9.77756V13.5556C9.77756 13.6782 9.678 13.7778 9.55534 13.7778H2.44423C2.32156 13.7778 2.22201 13.6782 2.22201 13.5556V6.44447C2.22201 6.3218 2.32156 6.22225 2.44423 6.22225H3.55534V4.88892H2.44423C1.58645 4.88892 0.888672 5.58669 0.888672 6.44447V13.5556C0.888672 14.4134 1.58645 15.1111 2.44423 15.1111H9.55534C10.4131 15.1111 11.1109 14.4134 11.1109 13.5556Z" fill="#001B41"/>
</g>
<defs>
<clipPath id="clip0_3594_4586">
<rect width="16" height="16" fill="white"/>
</clipPath>
</defs>
</svg>
