<svg width="24" height="24" viewBox="0 0 24 24" fill="none" xmlns="http://www.w3.org/2000/svg">
<path d="M22.4433 19.3128L14.098 2.62283C13.7007 1.8275 12.9013 1.3335 12.0127 1.3335C11.124 1.3335 10.3247 1.8275 9.92733 2.62216L1.58133 19.3128C1.21733 20.0408 1.25533 20.8888 1.68333 21.5815C2.11133 22.2742 2.85266 22.6875 3.66733 22.6875H20.3573C21.1713 22.6875 21.9127 22.2742 22.3413 21.5815C22.7693 20.8888 22.8073 20.0408 22.4433 19.3128ZM11.0127 9.6875C11.0127 9.13483 11.46 8.6875 12.0127 8.6875C12.5653 8.6875 13.0127 9.13483 13.0127 9.6875V14.3542C13.0127 14.9068 12.5653 15.3542 12.0127 15.3542C11.46 15.3542 11.0127 14.9068 11.0127 14.3542V9.6875ZM12.0127 19.3542C11.276 19.3542 10.6793 18.7575 10.6793 18.0208C10.6793 17.2842 11.276 16.6875 12.0127 16.6875C12.7493 16.6875 13.346 17.2842 13.346 18.0208C13.346 18.7575 12.7493 19.3542 12.0127 19.3542Z" fill="#EF8300"/>
</svg>
