<svg width="24" height="24" viewBox="0 0 24 24" fill="none" xmlns="http://www.w3.org/2000/svg">
<path d="M20.6663 14C19.5617 14 18.6663 13.1047 18.6663 12C18.6663 10.8953 19.5617 10 20.6663 10C21.771 10 22.6663 10.8953 22.6663 12C22.6663 13.1047 21.771 14 20.6663 14ZM13.9997 12C13.9997 10.8953 13.1043 10 11.9997 10C10.895 10 9.99967 10.8953 9.99967 12C9.99967 13.1047 10.895 14 11.9997 14C13.1043 14 13.9997 13.1047 13.9997 12ZM5.33301 12C5.33301 10.8953 4.43767 10 3.33301 10C2.22834 10 1.33301 10.8953 1.33301 12C1.33301 13.1047 2.22834 14 3.33301 14C4.43767 14 5.33301 13.1047 5.33301 12Z" fill="#FFFFFF"/>
</svg>
