<svg viewBox="0 0 16 16" height="16" width="16" xmlns="http://www.w3.org/2000/svg" xml:space="preserve" style="fill-rule:evenodd;clip-rule:evenodd;stroke-linejoin:round;stroke-miterlimit:2"><path d="M4 19v-2h2v-7c0-1.383.417-2.613 1.25-3.687A5.767 5.767 0 0 1 10.5 4.2v-.7c0-.417.146-.771.438-1.062A1.443 1.443 0 0 1 12 2c.417 0 .771.146 1.063.438.291.291.437.645.437 1.062v.7a5.767 5.767 0 0 1 3.25 2.113C17.583 7.387 18 8.617 18 10v7h2v2H4Zm8 3c-.55 0-1.021-.196-1.412-.587A1.927 1.927 0 0 1 10 20h4a1.93 1.93 0 0 1-.587 1.413A1.93 1.93 0 0 1 12 22Z" style="fill-rule:nonzero" transform="matrix(.6 0 0 .6 .8 .8)"/></svg>