<?xml version="1.0" encoding="UTF-8" standalone="no"?>
<!DOCTYPE svg PUBLIC "-//W3C//DTD SVG 1.1//EN" "http://www.w3.org/Graphics/SVG/1.1/DTD/svg11.dtd">
<svg width="100%" height="100%" viewBox="0 0 16 16"
    xmlns="http://www.w3.org/2000/svg" version="1.1">
    <path d="m8 2c-0.5523 0-1 0.4477-1 1 0 0.0472 0.021 0.0873 0.0273 0.1328-1.7366 0.4362-3.0273 1.9953-3.0273 3.8672v2l-1 1v1h10v-1l-1-1v-2c0-1.8719-1.291-3.431-3.0273-3.8672 0.0063-0.0455 0.0273-0.0856 0.0273-0.1328 0-0.5523-0.4477-1-1-1zm-2 10c0 1.1046 0.8954 2 2 2s2-0.8954 2-2z" fill="#000"/>
</svg>