<?xml version="1.0" encoding="UTF-8" standalone="no"?>
<!DOCTYPE svg PUBLIC "-//W3C//DTD SVG 1.1//EN" "http://www.w3.org/Graphics/SVG/1.1/DTD/svg11.dtd">
<svg width="100%" height="100%" viewBox="0 0 18 29"
    xmlns="http://www.w3.org/2000/svg" version="1.1">
    <path d="M0.424,3.424C0.19,3.19 0.19,2.81 0.424,2.575C0.995,2.004 2.005,0.995 2.576,0.424C2.81,0.19 3.19,0.19 3.424,0.424C5.491,2.491 14.501,11.501 16.858,13.857C17.008,14.007 17.092,14.211 17.092,14.423C17.092,14.635 17.008,14.839 16.858,14.989C14.501,17.345 5.491,26.355 3.424,28.422C3.19,28.656 2.81,28.656 2.576,28.422C2.005,27.851 0.995,26.842 0.424,26.271C0.19,26.036 0.19,25.656 0.424,25.422C2.493,23.353 11.423,14.423 11.423,14.423C11.423,14.423 2.493,5.493 0.424,3.424Z" style="fill-opacity:0.6;"/>
</svg>
