<svg viewBox="0 0 32 32" height="32" width="32" xmlns="http://www.w3.org/2000/svg" xml:space="preserve" style="fill-rule:evenodd;clip-rule:evenodd;stroke-linejoin:round;stroke-miterlimit:2"><path d="M4.8 27.2c-.77 0-1.43-.274-1.977-.822A2.705 2.705 0 0 1 2 24.4V7.6c0-.77.275-1.43.823-1.978A2.695 2.695 0 0 1 4.8 4.8h8.4L16 7.6h11.2c.77 0 1.43.275 1.978.822.547.549.822 1.208.822 1.978v14c.01.743-.287 1.46-.822 1.978a2.703 2.703 0 0 1-1.978.822H4.8Zm4.559-8.355c.473 0 .868-.163 1.188-.49.32-.326.479-.718.479-1.176 0-.473-.16-.868-.479-1.189a1.617 1.617 0 0 0-1.188-.478c-.458 0-.85.16-1.176.478-.327.32-.49.716-.49 1.189 0 .458.163.85.49 1.176.326.327.718.49 1.176.49Zm1.667 4.166h10v-1.354c0-.443-.119-.85-.354-1.218a3.213 3.213 0 0 0-1.02-.968 5.086 5.086 0 0 0-1.595-.626 9.259 9.259 0 0 0-2.032-.209c-.722 0-1.391.07-2.01.209a5.065 5.065 0 0 0-1.593.626c-.41.245-.762.575-1.032.968a2.167 2.167 0 0 0-.364 1.218v1.354Zm11.25 0h3.75V21.7c0-.611-.306-1.1-.918-1.468-.61-.368-1.415-.553-2.416-.553-.167 0-.33.004-.489.011a3.533 3.533 0 0 0-.469.052c.18.277.315.577.406.896.09.32.136.66.136 1.02v1.354Zm-16.25 0h3.75v-1.354c0-.347.049-.68.145-1 .098-.318.244-.625.439-.916a3.45 3.45 0 0 0-.48-.052 12.926 12.926 0 0 0-.521-.011c-1 0-1.805.187-2.417.563-.61.375-.917.86-.917 1.458v1.312Zm10-5c.708 0 1.301-.243 1.781-.728a2.43 2.43 0 0 0 .719-1.771c0-.709-.24-1.302-.719-1.781a2.428 2.428 0 0 0-1.782-.72c-.694 0-1.284.241-1.77.72-.487.479-.729 1.072-.729 1.78 0 .695.242 1.286.728 1.772.487.485 1.077.729 1.771.729Zm6.666.834c.473 0 .868-.163 1.187-.49.32-.326.48-.718.48-1.176 0-.473-.16-.868-.48-1.189a1.611 1.611 0 0 0-1.187-.478c-.458 0-.85.16-1.177.478-.322.311-.5.742-.489 1.189 0 .458.162.85.489 1.176.327.327.72.49 1.177.49Z"/></svg>