<svg xmlns="http://www.w3.org/2000/svg" height="32" viewBox="0 0 32 32" width="32" version="1.1"><path style=" stroke:none;fill-rule:evenodd;fill:rgb(0%,0%,0%);fill-opacity:1;" d="M 2.921875 4 C 2.421875 4 2 4.421875 2 4.921875 L 2 27.078125 C 2 27.59375 2.40625 28 2.921875 28 L 29.078125 28 C 29.59375 28 30 27.59375 30 27.078125 L 30 8.925781 C 29.996094 8.417969 29.585938 8.003906 29.078125 7.992188 L 16 7.992188 L 12 4 Z M 18.085938 11.640625 C 19.429688 11.640625 20.566406 12.621094 20.566406 13.886719 L 20.566406 13.914062 C 20.550781 14.308594 20.550781 14.761719 20.28125 15.851562 L 20.257812 15.875 C 20.183594 16.0625 20.078125 16.238281 19.945312 16.394531 C 19.8125 16.566406 19.65625 16.738281 19.507812 16.910156 L 19.328125 17.117188 C 19.300781 17.21875 19.269531 17.324219 19.25 17.425781 C 19.175781 17.800781 19.210938 18.042969 19.25 18.125 C 19.914062 18.40625 20.585938 18.660156 21.160156 18.902344 C 21.789062 19.167969 22.328125 19.429688 22.6875 19.859375 C 22.738281 19.917969 22.773438 19.988281 22.789062 20.066406 C 22.828125 20.375 22.859375 20.898438 22.894531 21.433594 C 22.929688 21.96875 22.964844 22.515625 22.996094 22.753906 C 23.015625 22.921875 22.933594 23.082031 22.789062 23.167969 C 21.65625 23.769531 19.875 24.035156 18.085938 24.042969 C 16.296875 24.050781 14.5 23.800781 13.332031 23.167969 C 13.1875 23.082031 13.105469 22.921875 13.125 22.753906 C 13.167969 22.410156 13.210938 21.984375 13.261719 21.558594 L 13.21875 21.5625 C 11.988281 21.566406 10.757812 21.394531 9.957031 20.960938 C 9.859375 20.902344 9.804688 20.789062 9.816406 20.675781 C 9.882812 20.148438 9.96875 19.363281 10.027344 18.832031 C 10.027344 18.820312 10.027344 18.808594 10.027344 18.796875 C 10.089844 18.539062 10.269531 18.449219 10.453125 18.335938 C 10.636719 18.222656 10.863281 18.125 11.109375 18.019531 C 11.550781 17.828125 12.042969 17.660156 12.4375 17.523438 C 12.457031 17.359375 12.445312 17.191406 12.402344 17.027344 L 12.332031 16.722656 L 12.296875 16.6875 C 12.179688 16.566406 12.066406 16.445312 11.960938 16.316406 C 11.859375 16.199219 11.785156 16.113281 11.730469 15.960938 L 11.710938 15.945312 L 11.710938 15.925781 C 11.597656 15.492188 11.53125 15.046875 11.515625 14.597656 C 11.515625 13.726562 12.296875 13.054688 13.21875 13.054688 C 14.136719 13.054688 14.921875 13.726562 14.921875 14.597656 L 14.921875 14.617188 C 14.910156 14.886719 14.910156 15.199219 14.726562 15.945312 L 14.707031 15.964844 C 14.65625 16.09375 14.585938 16.210938 14.496094 16.316406 C 14.40625 16.433594 14.296875 16.554688 14.195312 16.671875 L 14.070312 16.8125 C 14.050781 16.882812 14.03125 16.960938 14.015625 17.027344 C 13.972656 17.183594 13.972656 17.347656 14.015625 17.503906 C 14.472656 17.699219 14.9375 17.871094 15.328125 18.035156 C 15.628906 18.160156 15.882812 18.304688 16.101562 18.46875 C 16.390625 18.367188 16.695312 18.238281 16.949219 18.152344 C 16.976562 17.910156 16.957031 17.664062 16.898438 17.429688 C 16.867188 17.289062 16.824219 17.132812 16.792969 16.988281 L 16.742188 16.9375 C 16.570312 16.761719 16.40625 16.582031 16.25 16.394531 C 16.101562 16.222656 15.988281 16.097656 15.914062 15.878906 L 15.890625 15.851562 L 15.890625 15.824219 C 15.648438 14.78125 15.613281 14.289062 15.605469 13.886719 C 15.605469 12.621094 16.742188 11.640625 18.085938 11.640625 Z M 18.085938 11.640625 "/></svg>
