<?xml version="1.0" encoding="UTF-8" standalone="no"?>
<!DOCTYPE svg PUBLIC "-//W3C//DTD SVG 1.1//EN" "http://www.w3.org/Graphics/SVG/1.1/DTD/svg11.dtd">
<svg width="16" height="16" viewBox="0 0 16 16" version="1.1" xmlns="http://www.w3.org/2000/svg" xmlns:xlink="http://www.w3.org/1999/xlink" xml:space="preserve" xmlns:serif="http://www.serif.com/" style="fill-rule:evenodd;clip-rule:evenodd;stroke-linejoin:round;stroke-miterlimit:2;">
    <g transform="matrix(0.0175,0,0,0.0175,-0.4,16.4)">
        <path d="M856,-390L570,-104C562,-96 553,-90 543,-86C533,-82 523,-80 513,-80C503,-80 493,-82 483,-86C473,-90 464,-96 456,-104L103,-457C95.667,-464.333 90,-472.833 86,-482.5C82,-492.167 80,-502.333 80,-513L80,-800C80,-822 87.833,-840.833 103.5,-856.5C119.167,-872.167 138,-880 160,-880L447,-880C457.667,-880 468,-877.833 478,-873.5C488,-869.167 496.667,-863.333 504,-856L856,-503C864,-495 869.833,-486 873.5,-476C877.167,-466 879,-456 879,-446C879,-436 877.167,-426.167 873.5,-416.5C869.833,-406.833 864,-398 856,-390ZM513,-160L799,-446L446,-800L160,-800L160,-514L513,-160ZM260,-640C276.667,-640 290.833,-645.833 302.5,-657.5C314.167,-669.167 320,-683.333 320,-700C320,-716.667 314.167,-730.833 302.5,-742.5C290.833,-754.167 276.667,-760 260,-760C243.333,-760 229.167,-754.167 217.5,-742.5C205.833,-730.833 200,-716.667 200,-700C200,-683.333 205.833,-669.167 217.5,-657.5C229.167,-645.833 243.333,-640 260,-640Z" style="fill-rule:nonzero;"/>
    </g>
</svg>
