<?xml version="1.0" encoding="UTF-8" standalone="no"?>
<!DOCTYPE svg PUBLIC "-//W3C//DTD SVG 1.1//EN" "http://www.w3.org/Graphics/SVG/1.1/DTD/svg11.dtd">
<svg width="100%" height="100%" viewBox="0 0 15 15" version="1.1" xmlns="http://www.w3.org/2000/svg" xmlns:xlink="http://www.w3.org/1999/xlink" xml:space="preserve" xmlns:serif="http://www.serif.com/" style="fill-rule:evenodd;clip-rule:evenodd;stroke-linejoin:round;stroke-miterlimit:2;">
    <g transform="matrix(1,0,0,1,-0.6,-0.6)">
        <g transform="matrix(1,0,0,1,0.6,0.6)">
            <path d="M7.4,0C3.3,0 0,3.3 0,7.4C0,11.5 3.3,14.8 7.4,14.8C11.5,14.8 14.8,11.5 14.8,7.4C14.8,3.3 11.5,0 7.4,0ZM8.2,0.9C9.5,0.9 10.6,1.7 11.7,2.2L13.5,4.7L13.2,5.8L13.8,6.1L13.8,8.5C13.6,9.2 13.2,9.8 12.9,10.5C12.7,10.6 12.9,9.7 12.8,9.5C12.8,8.9 12.3,8.9 11.9,9.3C11.5,9.6 10.5,9.6 10.4,8.9C10.1,8.1 10.4,7.2 10.7,6.4L10.1,5.7L10.3,3.9L9.5,3L9.7,2L8.7,1.4C8.5,1.2 8.1,1.2 8,1C8.1,1 8.2,0.9 8.2,0.9ZM5.6,1C5.6,1 5.7,1 5.7,1.1C6.1,1.3 5.6,1.5 5.5,1.7C5,2 5.8,2.4 6,2.7C6.4,2.6 6.8,2 7.4,2.2C8.1,2 8,2.8 8.5,3.2C8.6,3.4 9.4,4 8.9,3.8C8.4,3.4 7.9,3.4 7.6,3.9C6.8,4.4 7.3,3 6.9,2.7C6.3,2 6.5,3.2 6.5,3.6C6.1,3.6 5.4,3.3 5,3.8L5.4,4.4L5.9,3.7C5.9,3.4 6,3.9 6.2,4C6.3,4.2 7,4.7 6.5,4.9C5.7,5.3 5.1,6 4.4,6.6C4.2,7.1 3.7,7 3.4,6.6C2.7,6.2 2.7,7.3 2.8,7.7L3.4,7.3L3.4,8.4C3,8.8 2.5,7.7 2.1,7.5L2.1,5.9C2.1,5.5 2,5 2.1,4.6C2.9,3.7 3.8,2.7 4.3,1.6L5.1,1.6C5.7,1.8 5.4,0.9 5.6,1ZM4.4,9.2C4.5,9.2 4.6,9.2 4.7,9.3C5.5,9.4 6.1,10 6.7,10.4C7.2,10.9 8.3,10.7 8.4,11.6C8.2,12.5 7.3,13 6.6,13.3C6.4,13.4 6.2,13.5 6,13.5C5.3,13.7 5,12.9 4.8,12.4C4.5,11.7 3.7,11.2 3.8,10.3C3.8,9.9 4,9.3 4.4,9.2Z" style="fill-opacity:0.8;fill-rule:nonzero;"/>
        </g>
    </g>
</svg>
