<svg xmlns="http://www.w3.org/2000/svg" height="16" width="16" version="1.1" viewBox="0 0 4.2333331 4.2333334"><g transform="translate(0 -292.77)"><path d="m2.1167 292.77a2.1167 2.1167 0 0 0 -2.1167 2.11 2.1167 2.1167 0 0 0 2.1167 2.1167 2.1167 2.1167 0 0 0 2.1167 -2.1167 2.1167 2.1167 0 0 0 -2.1167 -2.1167zm-0.5333 0.79375a0.26461 0.26461 0 0 1 0.26872 0.2682v2.1094a0.26461 0.26461 0 1 1 -0.52917 0v-2.1094a0.26461 0.26461 0 0 1 0.26045 -0.2682zm1.0583 0a0.26461 0.26461 0 0 1 0.26872 0.2682v2.1094a0.26461 0.26461 0 1 1 -0.52917 0v-2.1094a0.26461 0.26461 0 0 1 0.26045 -0.2682z" stroke-width=".25066"/></g></svg>
