<svg xmlns="http://www.w3.org/2000/svg" width="16" height="16" viewBox="0 0 16 16"><path d="M3.6,12.8 L3.6,11.6 L4.83333333,11.6 L4.83333333,11.6 C4.33333333,11.1555556 3.93611111,10.625 3.64166667,10.0083333 C3.34722222,9.39166667 3.2,8.72222222 3.2,8 C3.2,6.87777778 3.53888889,5.89166667 4.21666667,5.04166667 C4.89444444,4.19166667 5.75555556,3.63333333 6.8,3.36666667 L6.8,4.61666667 C6.1,4.87222222 5.525,5.30277778 5.075,5.90833333 C4.625,6.51388889 4.4,7.21111111 4.4,8 C4.4,8.53333333 4.50833333,9.02777778 4.725,9.48333333 C4.94166667,9.93888889 5.23333333,10.3277778 5.6,10.65 L5.6,10.65 L5.6,9.6 L6.8,9.6 L6.8,12.8 L3.6,12.8 Z M9.2,12.6333333 L9.2,11.3833333 C9.9,11.1277778 10.475,10.6972222 10.925,10.0916667 C11.375,9.48611111 11.6,8.78888889 11.6,8 C11.6,7.46666667 11.4916667,6.97222222 11.275,6.51666667 C11.0583333,6.06111111 10.7666667,5.67222222 10.4,5.35 L10.4,5.35 L10.4,6.4 L9.2,6.4 L9.2,3.2 L12.4,3.2 L12.4,4.4 L11.1666667,4.4 L11.1666667,4.4 C11.6666667,4.84444444 12.0638889,5.375 12.3583333,5.99166667 C12.6527778,6.60833333 12.8,7.27777778 12.8,8 C12.8,9.12222222 12.4611111,10.1083333 11.7833333,10.9583333 C11.1055556,11.8083333 10.2444444,12.3666667 9.2,12.6333333 Z"/></svg>