<svg xmlns="http://www.w3.org/2000/svg" height="16" width="16" version="1.1" viewBox="0 0 4.2333331 4.2333334"><g transform="translate(0 -292.77)"><path d="m2.1167 292.77a2.1167 2.1167 0 0 0 -2.1167 2.11 2.1167 2.1167 0 0 0 2.1167 2.1167 2.1167 2.1167 0 0 0 2.1167 -2.1167 2.1167 2.1167 0 0 0 -2.1167 -2.1167zm-0.93534 0.91674a0.26461 0.26461 0 0 1 0.18965 0.0801l0.74569 0.74569 0.74569-0.74569a0.26461 0.26461 0 0 1 0.1819 -0.0801 0.26461 0.26461 0 0 1 0.19224 0.45424l-0.74569 0.74569 0.74569 0.74569a0.26461 0.26461 0 1 1 -0.37414 0.37413l-0.74569-0.74569-0.74569 0.74569a0.26461 0.26461 0 1 1 -0.37416 -0.37l0.74569-0.74569-0.74569-0.74569a0.26461 0.26461 0 0 1 0.18448 -0.45424z" stroke-width=".25066"/></g></svg>
