<?xml version="1.0" encoding="UTF-8" standalone="no"?>
<!DOCTYPE svg PUBLIC "-//W3C//DTD SVG 1.1//EN" "http://www.w3.org/Graphics/SVG/1.1/DTD/svg11.dtd">
<svg width="100%" height="100%" viewBox="0 0 16 16"
    xmlns="http://www.w3.org/2000/svg" version="1.1">
    <path d="M8,1C4.16,1 1,4.16 1,8C1,11.84 4.16,15 8,15C11.84,15 15,11.84 15,8C15,4.16 11.84,1 8,1ZM8,2C11.291,2 14,4.708 14,8C14,11.291 11.291,14 8,14C4.708,14 2,11.291 2,8C2,4.708 4.708,2 8,2ZM5.344,4.603L5.344,4.605C4.934,4.608 4.598,4.946 4.598,5.355C4.598,5.56 4.681,5.755 4.828,5.896L6.939,8.008L4.828,10.119C4.665,10.261 4.571,10.468 4.571,10.684C4.571,11.095 4.91,11.434 5.322,11.434C5.536,11.434 5.741,11.342 5.883,11.182L8,9.068L10.113,11.182C10.253,11.313 10.437,11.386 10.628,11.386C11.041,11.386 11.38,11.046 11.38,10.634C11.38,10.443 11.307,10.258 11.176,10.119L9.061,8.008L11.176,5.896C11.323,5.755 11.407,5.559 11.407,5.355C11.407,4.944 11.068,4.605 10.657,4.605C10.648,4.605 10.639,4.605 10.631,4.605C10.435,4.611 10.249,4.693 10.113,4.834L8,6.947L5.883,4.834C5.742,4.687 5.547,4.604 5.344,4.603L5.344,4.603Z" style="fill-rule:nonzero;"/>
</svg>
