<svg xmlns="http://www.w3.org/2000/svg" width="16" height="16" viewBox="0 0 16 16"><path d="M1.85684492,12.941123 L1.85684492,11.967861 L3.37868984,11.967861 C2.68754902,11.3535829 2.17664884,10.7039305 1.8459893,10.0189037 C1.51532977,9.33375223 1.35,8.60224599 1.35,7.82438503 C1.35,6.65647059 1.69338681,5.61651515 2.38016043,4.70451872 C3.06693405,3.79264706 3.94636364,3.175 5.0184492,2.85157754 L5.0184492,3.86657754 C4.2227451,4.18226381 3.57459002,4.69572193 3.07398396,5.40695187 C2.57350267,6.11818182 2.32326203,6.92399287 2.32326203,7.82438503 C2.32326203,8.47160428 2.45808378,9.06772727 2.72772727,9.61275401 C2.99749554,10.1577807 3.427041,10.6880214 4.01636364,11.2034759 L4.01636364,9.80834225 L4.98962567,9.80834225 L4.98962567,12.941123 L1.85684492,12.941123 Z M9.47299465,12.9987701 C8.96914439,12.9987701 8.53747772,12.8190285 8.17799465,12.4595455 C7.81851159,12.1000624 7.63877005,11.6683957 7.63877005,11.1645455 C7.63877005,10.6510873 7.8173262,10.2158021 8.1744385,9.85868984 C8.53142602,9.50170232 8.98106061,9.32320856 9.52334225,9.32320856 C9.68368093,8.94114082 9.94627451,8.62221034 10.311123,8.36641711 C10.6760963,8.11062389 11.1011497,7.98272727 11.5862834,7.98272727 C12.1623797,7.98272727 12.6615508,8.1701426 13.0837968,8.54497326 C13.5061676,8.91980392 13.747549,9.40618538 13.8079412,10.0041176 L13.9232353,10.0041176 C14.3196524,10.0165954 14.6565508,10.1689483 14.9339305,10.4611765 C15.2113102,10.7535294 15.35,11.102656 15.35,11.5085561 C15.35,11.92082 15.2051337,12.2722549 14.9154011,12.562861 C14.6257932,12.853467 14.2715508,12.9987701 13.8526738,12.9987701 L9.47299465,12.9987701 Z M10.6895722,6.79628342 C10.5705348,6.35581996 10.3935383,5.95035651 10.1585829,5.57989305 C9.92362745,5.20955437 9.56745098,4.81457219 9.09005348,4.39494652 L9.09005348,5.78278075 L8.11679144,5.78278075 L8.11679144,2.65 L11.2495722,2.65 L11.2495722,3.62326203 L9.72772727,3.62326203 C10.3065686,4.13771836 10.7452228,4.6504902 11.0436898,5.16157754 C11.3422816,5.67266488 11.5524688,6.21756684 11.6742513,6.79628342 L10.6895722,6.79628342 Z M9.47299465,12.025508 L13.8526738,12.025508 C14.0052763,12.025508 14.1308021,11.9763458 14.2292513,11.8780214 C14.3275758,11.7795722 14.376738,11.6540463 14.376738,11.5014439 C14.376738,11.3488414 14.3232086,11.2233155 14.2161497,11.1248663 C14.1089661,11.0265419 13.9815686,10.9773797 13.8339572,10.9773797 L12.7483957,10.9773797 L12.7483957,10.1351337 C12.7483957,9.80834225 12.6335383,9.53015152 12.4038235,9.3005615 C12.173984,9.0708467 11.8956061,8.9559893 11.5686898,8.9559893 C11.2417736,8.9559893 10.9703209,9.05999109 10.7543316,9.26799465 C10.5383422,9.47612299 10.4255437,9.72680036 10.4159358,10.0200267 L10.4159358,10.3035829 L9.47299465,10.3035829 C9.23404635,10.3035829 9.0308467,10.3869964 8.86339572,10.5538235 C8.69581996,10.7205258 8.61203209,10.9227897 8.61203209,11.160615 C8.61203209,11.3984403 8.69581996,11.6020143 8.86339572,11.7713369 C9.0308467,11.9407843 9.23404635,12.025508 9.47299465,12.025508 Z"/></svg>