<svg xmlns="http://www.w3.org/2000/svg" height="16" width="16" version="1.1" viewBox="0 0 4.2333331 4.2333334"><g transform="translate(0 -292.77)"><path d="m2.1167 292.77a2.1167 2.1167 0 0 0 -2.1167 2.11 2.1167 2.1167 0 0 0 2.1167 2.1167 2.1167 2.1167 0 0 0 2.1167 -2.1167 2.1167 2.1167 0 0 0 -2.1167 -2.1167zm1.3338 1.1813a0.2646 0.2646 0 0 1 0.19224 0.45424l-1.7265 1.7265a0.2646 0.2646 0 0 1 -0.37414 0l-0.93284-0.93a0.2646 0.2646 0 1 1 0.37414 -0.37414l0.74569 0.74569 1.5394-1.5394a0.2646 0.2646 0 0 1 0.1819 -0.0801z" stroke-width=".25066"/></g></svg>
