<svg viewBox="0 0 24 24" height="24" width="24" xmlns="http://www.w3.org/2000/svg" xml:space="preserve" style="fill-rule:evenodd;clip-rule:evenodd;stroke-linejoin:round;stroke-miterlimit:2"><path style="fill:none;fill-rule:nonzero" d="M0 0h24v24H0z"/><path d="M11 17h2v-6h-2v6Zm1-8a.972.972 0 0 0 .713-.288A.965.965 0 0 0 13 8a.975.975 0 0 0-.287-.713A.975.975 0 0 0 12 7a.965.965 0 0 0-.712.287A.972.972 0 0 0 11 8c0 .283.096.521.288.712.187.19.445.295.712.288Zm0 13a9.72 9.72 0 0 1-3.9-.788 10.071 10.071 0 0 1-3.175-2.137c-.9-.9-1.612-1.958-2.137-3.175A9.754 9.754 0 0 1 2 12a9.754 9.754 0 0 1 .788-3.9 10.088 10.088 0 0 1 2.137-3.175c.9-.9 1.958-1.612 3.175-2.138A9.736 9.736 0 0 1 12 2a9.736 9.736 0 0 1 3.9.787 10.12 10.12 0 0 1 3.175 2.138c.9.9 1.613 1.958 2.138 3.175A9.736 9.736 0 0 1 22 12a9.736 9.736 0 0 1-.787 3.9 10.09 10.09 0 0 1-2.138 3.175c-.9.9-1.958 1.613-3.175 2.137A9.72 9.72 0 0 1 12 22Z" style="fill-rule:nonzero" transform="scale(.99998)"/></svg>