<svg xmlns="http://www.w3.org/2000/svg" width="16" height="16" viewBox="0 0 16 16"><path d="M12.8,14.5 L11.1,12.8 L4,12.8 C3.1078125,12.8 2.35143229,12.4897135 1.73085937,11.8691406 C1.11028646,11.2485677 0.8,10.4921875 0.8,9.6 C0.8,8.75555556 1.08888889,8.02777778 1.66666667,7.41666667 C2.24444444,6.80555556 2.95,6.47222222 3.78333333,6.41666667 C3.8203125,6.296875 3.85733507,6.18081597 3.89440104,6.06848958 C3.93146701,5.95616319 3.97777778,5.84444444 4.03333333,5.73333333 L1.5,3.2 L2.35,2.35 L13.65,13.65 L12.8,14.5 Z M4,11.6 L9.9,11.6 L4.96666667,6.66666667 C4.92222222,6.81111111 4.88055556,6.95833333 4.84166667,7.10833333 C4.80277778,7.25833333 4.76111111,7.40555556 4.71666667,7.55 L3.86666667,7.61666667 C3.33333333,7.66111111 2.88888889,7.87044271 2.53333333,8.24466146 C2.17777778,8.61888021 2,9.07065972 2,9.6 C2,10.1524306 2.19522569,10.6238715 2.58567708,11.0143229 C2.97612847,11.4047743 3.44756944,11.6 4,11.6 Z M14,12.3 L13.1166667,11.4333333 C13.3722222,11.3 13.5833333,11.1065538 13.75,10.8529948 C13.9166667,10.5994358 14,10.3151042 14,10 C14,9.55208333 13.8453125,9.1734375 13.5359375,8.8640625 C13.2265625,8.5546875 12.8479167,8.4 12.4,8.4 L11.3,8.4 L11.2,7.31666667 C11.1222222,6.49444444 10.7777778,5.80277778 10.1666667,5.24166667 C9.55555556,4.68055556 8.83211806,4.4 7.99635417,4.4 C7.72447917,4.4 7.46267361,4.43333333 7.2109375,4.5 C6.95920139,4.56666667 6.71666667,4.66111111 6.48333333,4.78333333 L5.61666667,3.91666667 C5.97222222,3.69444444 6.34804688,3.51944444 6.74414062,3.39166667 C7.14023437,3.26388889 7.55885417,3.2 8,3.2 C9.14444444,3.2 10.1388889,3.58611111 10.9833333,4.35833333 C11.8277778,5.13055556 12.3,6.07777778 12.4,7.2 L12.4,7.2 L12.4,7.2 C13.1777778,7.2 13.8388889,7.47222222 14.3833333,8.01666667 C14.9277778,8.56111111 15.2,9.22222222 15.2,10 C15.2,10.4777778 15.0916667,10.9166667 14.875,11.3166667 C14.6583333,11.7166667 14.3666667,12.0444444 14,12.3 Z"/></svg>