<svg width="16" height="16" version="1.1" viewBox="0 0 4.2333 4.2333" xmlns="http://www.w3.org/2000/svg"><path transform="scale(.26458)" d="m8 1a7 7 0 0 0-7 7 7 7 0 0 0 7 7 7 7 0 0 0 7-7 7 7 0 0 0-7-7zm0 1a6 6 0 0 1 6 6 6 6 0 0 1-6 6 6 6 0 0 1-6-6 6 6 0 0 1 6-6zm0.0019531 2.252c-1.3387-1.47e-5 -2.5787 0.71561-3.248 1.875a0.62505 0.62505 0 1 0 1.0781 0.62695c0.44706-0.77437 1.2758-1.2461 2.1699-1.2461 0.79042-8.4e-6 1.5081 0.38319 1.9766 1.0039a0.75005 0.75005 0 1 0 0.0019532 1.498h1.4902a0.75005 0.75005 0 0 0 0.74609-0.74609v-1.4902a0.75005 0.75005 0 0 0-0.75977-0.76172 0.75005 0.75005 0 0 0-0.68555 0.47461c-0.7027-0.77272-1.7016-1.2344-2.7695-1.2344zm-1.9082 3.7637a0.75005 0.75005 0 0 0-0.025391 0.0019531h-1.4922a0.75005 0.75005 0 0 0-0.072266 0 0.75005 0.75005 0 0 0-0.67188 0.74414v1.4922a0.75005 0.75005 0 0 0 1.4453 0.31055c0.70011 0.74162 1.6805 1.1797 2.7246 1.1797 1.3387 2.1e-5 2.5787-0.71562 3.248-1.875a0.62505 0.62505 0 1 0-1.0859-0.61914c-0.44706 0.77436-1.268 1.2481-2.1621 1.248-0.78026 1.2e-5 -1.4943-0.37608-1.9648-0.98242h0.03125a0.75005 0.75005 0 1 0 0.025391-1.5z" stroke-width=".82894"/></svg>
