<?xml version="1.0" encoding="UTF-8" standalone="no"?>
<!DOCTYPE svg PUBLIC "-//W3C//DTD SVG 1.1//EN" "http://www.w3.org/Graphics/SVG/1.1/DTD/svg11.dtd">
<svg width="100%" height="100%" viewBox="0 0 16 16"
    xmlns="http://www.w3.org/2000/svg" version="1.1">
    <path d="M8,0.99C11.863,0.99 15,4.127 15,7.99C15,11.854 11.863,14.99 8,14.99C4.137,14.99 1,11.854 1,7.99C1,4.127 4.137,0.99 8,0.99ZM6.076,7.984C6.181,8.241 6.296,8.449 6.511,8.15C6.786,7.969 7.699,7.186 7.633,7.919C7.384,9.28 7.07,10.63 6.843,11.996C6.578,12.748 7.271,13.391 7.948,12.88C8.676,12.541 9.291,12.011 9.924,11.523C9.827,11.305 9.755,10.99 9.521,11.289C9.206,11.451 8.529,12.179 8.377,11.608C8.589,10.136 9.035,8.709 9.298,7.246C9.566,6.567 9.052,5.745 8.353,6.326C7.505,6.742 6.807,7.394 6.076,7.984ZM9.087,2.942C8.203,2.927 7.8,4.388 8.651,4.748C9.342,5.003 10.053,4.266 9.86,3.566C9.793,3.201 9.456,2.912 9.085,2.939L9.087,2.942Z"/>
</svg>
