<svg width="128" height="128" viewBox="0 0 128 128" fill="none" xmlns="http://www.w3.org/2000/svg">
<g clip-path="url(#clip0_4_45)">
<path d="M128 0H0V128H128V0Z" fill="#0B2A63"/>
<path d="M19.2 77C18 77 16.8 76 16.8 74.6V51.4C16.8 50.2 17.8 49.2 19.2 49.2C20.2 49.2 21.2 49.8 21.4 51C21.4 51 21.4 51 21.4 51.2V51.4C21.4 51.6 21.4 51.6 21.4 51.8C21.4 51.8 21.4 74.8 21.4 75.2C21.6 76 20.6 77 19.2 77Z" fill="white"/>
<path d="M105.8 77C105.4 77 104.8 77 104.4 76.8C102.4 76.4 100.6 75.2 99.6 73.4C99 72.4 99.4 71.2 100.4 70.6C100.8 70.4 101 70.4 101.4 70.4C102.2 70.4 102.8 70.8 103.2 71.4C103.2 71.4 103.2 71.4 103.2 71.6L103.4 72L103.8 72.4C104.2 72.8 104.6 73 105.2 73C106 73.2 107 73 107.6 72.4C108.4 71.8 108.8 71.2 108.8 70.2C108.8 69.4 108.6 68.4 108 67.8C108 67.8 101.6 61.2 101.4 60.8C101.2 60.6 101 60.4 100.6 59.8C99.6 58.6 99.4 57 99.6 55.6C99.6 54.6 100 53.6 100.4 52.6C100.4 52.6 100.6 52.2 100.8 52C101.2 51.6 101.8 50.8 102.2 50.6C102.6 50.2 103.2 50 103.4 49.8C104.6 49.2 106.2 49 107.8 49.2C109.8 49.6 111.4 50.8 112.4 52.6C112.6 53 112.8 53.6 112.6 54.2C112.4 54.8 112 55.2 111.6 55.6C111.2 55.8 111 55.8 110.6 55.8C109.8 55.8 109.2 55.4 108.8 54.8C108.4 54.2 107.8 53.6 107 53.4C106.2 53.2 105.4 53.4 104.8 54C104.2 54.4 103.8 55.2 103.8 56C103.8 56.8 104 57.6 104.6 58.2L111.2 65C112.6 66.4 113.4 68.6 113.2 70.6C113 72.6 112 74.6 110.4 75.8C108.8 76.4 107.4 77 105.8 77Z" fill="white"/>
<path d="M85 77C81.2 77 78 73.8 78 70V56C78 52.2 81.2 49 85 49C88.8 49 92 52.2 92 56V70C92 73.8 89 77 85 77ZM85 53.2C83.4 53.2 82.2 54.4 82.2 56V70C82.2 71.6 83.4 72.8 85 72.8C86.6 72.8 87.8 71.6 87.8 70V56C87.8 54.6 86.6 53.2 85 53.2Z" fill="white"/>
<path d="M57.6 63.4V75C57.6 76.2 56.6 77.2 55.4 77.2C54.2 77.2 53.2 76.2 53.2 75V54.6L57.6 63.4ZM69.2 71.4V51.2C69.2 50 68.2 49 67 49C65.8 49 64.8 50 64.8 51.2V62.8L69.2 71.4ZM57.6 50.2C57.2 49.4 56.4 49 55.6 49C55.4 49 55.4 49 55.2 49C54.2 49.2 53.6 50 53.6 51V51.4L65.2 75.6C65.6 76.4 66.4 76.8 67 76.8C67.2 76.8 67.4 76.8 67.4 76.8C68.4 76.6 69 75.8 69 74.8V74.4C69.2 74.4 57.8 50.8 57.6 50.2Z" fill="white"/>
<path d="M37.6 77C35.8 77 34 76.2 32.6 75C31.2 73.6 30.6 72 30.6 70V56C30.6 54.2 31.4 52.4 32.6 51C34 49.6 35.6 49 37.6 49C39.6 49 41.2 49.8 42.6 51C44 52.4 44.6 54 44.6 56V70C44.6 71.8 43.8 73.6 42.6 75C41.2 76.2 39.4 77 37.6 77ZM37.6 53.2C36.8 53.2 36.2 53.4 35.6 54C35 54.6 34.8 55.2 34.8 56V70C34.8 70.8 35 71.4 35.6 72C36.2 72.6 36.8 72.8 37.6 72.8C38.4 72.8 39 72.6 39.6 72C40.2 71.4 40.4 70.8 40.4 70V56C40.4 55.2 40.2 54.6 39.6 54C39 53.6 38.2 53.2 37.6 53.2Z" fill="white"/>
</g>
<rect x="16" y="46" width="101" height="40" fill="#0B2A63"/>
<g clip-path="url(#clip1_4_45)">
<path fill-rule="evenodd" clip-rule="evenodd" d="M86 40H85.052C80.714 31.686 72.028 26 62 26C47.64 26 36 37.64 36 52C27.164 52 20 59.164 20 68C20 76.836 27.164 84 36 84H86C98.15 84 108 74.15 108 62C108 49.85 98.15 40 86 40Z" fill="#3196D6"/>
<path d="M66 84H76L56 104L36 84H46V68C46 66.896 46.896 66 48 66H66V84Z" fill="#95CAEB"/>
<path d="M66 66H56L76 46L96 66H86V82C86 83.104 85.104 84 84 84H66V66Z" fill="white"/>
<path fill-rule="evenodd" clip-rule="evenodd" d="M86 40H85.052C80.714 31.686 72.028 26 62 26C47.64 26 36 37.64 36 52C27.164 52 20 59.164 20 68C20 76.836 27.164 84 36 84H86C98.15 84 108 74.15 108 62C108 49.85 98.15 40 86 40Z" fill="#3196D6"/>
<path d="M66 84H76L56 104L36 84H46V68C46 66.896 46.896 66 48 66H66V84Z" fill="#95CAEB"/>
<path d="M66 66H56L76 46L96 66H86V82C86 83.104 85.104 84 84 84H66V66Z" fill="white"/>
</g>
<defs>
<clipPath id="clip0_4_45">
<rect width="128" height="128" rx="32" fill="white"/>
</clipPath>
<clipPath id="clip1_4_45">
<rect width="96" height="96" fill="white" transform="translate(16 16)"/>
</clipPath>
</defs>
</svg>
