<?xml version="1.0" encoding="UTF-8" standalone="no"?>
<svg
   xmlns:dc="http://purl.org/dc/elements/1.1/"
   xmlns:cc="http://creativecommons.org/ns#"
   xmlns:rdf="http://www.w3.org/1999/02/22-rdf-syntax-ns#"
   xmlns:svg="http://www.w3.org/2000/svg"
   xmlns="http://www.w3.org/2000/svg"
   xmlns:sodipodi="http://sodipodi.sourceforge.net/DTD/sodipodi-0.dtd"
   xmlns:inkscape="http://www.inkscape.org/namespaces/inkscape"
   height="16"
   width="16"
   version="1.1"
   viewBox="0 0 16 16"
   id="svg4"
   sodipodi:docname="talk-app.svg"
   inkscape:version="1.0.1 (3bc2e813f5, 2020-09-07)">
  <metadata
     id="metadata10">
    <rdf:RDF>
      <cc:Work
         rdf:about="">
        <dc:format>image/svg+xml</dc:format>
        <dc:type
           rdf:resource="http://purl.org/dc/dcmitype/StillImage" />
        <dc:title></dc:title>
      </cc:Work>
    </rdf:RDF>
  </metadata>
  <defs
     id="defs8" />
  <sodipodi:namedview
     pagecolor="#ffffff"
     bordercolor="#666666"
     borderopacity="1"
     objecttolerance="10"
     gridtolerance="10"
     guidetolerance="10"
     inkscape:pageopacity="0"
     inkscape:pageshadow="2"
     inkscape:window-width="2560"
     inkscape:window-height="1352"
     id="namedview6"
     showgrid="false"
     inkscape:zoom="44.6875"
     inkscape:cx="8"
     inkscape:cy="8"
     inkscape:window-x="0"
     inkscape:window-y="0"
     inkscape:window-maximized="1"
     inkscape:current-layer="svg4"
     inkscape:document-rotation="0" />
  <path
     d="m7.9992 0.999a6.9993 6.9994 0 0 0 -6.9992 6.9996 6.9993 6.9994 0 0 0 6.9992 6.9994 6.9993 6.9994 0 0 0 3.6308 -1.024c0.86024 0.34184 2.7871 1.356 3.2457 0.91794 0.47922-0.45765-0.56261-2.6116-0.81238-3.412a6.9993 6.9994 0 0 0 0.935 -3.4814 6.9993 6.9994 0 0 0 -6.9991 -6.9993zm0.0008 2.6611a4.34 4.3401 0 0 1 4.34 4.3401 4.34 4.3401 0 0 1 -4.34 4.3398 4.34 4.3401 0 0 1 -4.34 -4.3398 4.34 4.3401 0 0 1 4.34 -4.3401z"
     stroke-width="0.14"
     fill="#000000"
     id="path2" />
</svg>
