<?xml version="1.0" encoding="UTF-8" standalone="no"?>
<!DOCTYPE svg PUBLIC "-//W3C//DTD SVG 1.1//EN" "http://www.w3.org/Graphics/SVG/1.1/DTD/svg11.dtd">
<svg width="16" height="16" viewBox="0 0 16 16" version="1.1" xmlns="http://www.w3.org/2000/svg" xmlns:xlink="http://www.w3.org/1999/xlink" xml:space="preserve" xmlns:serif="http://www.serif.com/" style="fill-rule:evenodd;clip-rule:evenodd;stroke-linejoin:round;stroke-miterlimit:2;">
    <g transform="matrix(0.0159091,0,0,0.0159091,0.363636,15.6273)">
        <path d="M40,-160L40,-272C40,-294.667 45.833,-315.5 57.5,-334.5C69.167,-353.5 84.667,-368 104,-378C145.333,-398.667 187.333,-414.167 230,-424.5C272.667,-434.833 316,-440 360,-440C404,-440 447.333,-434.833 490,-424.5C532.667,-414.167 574.667,-398.667 616,-378C635.333,-368 650.833,-353.5 662.5,-334.5C674.167,-315.5 680,-294.667 680,-272L680,-160L40,-160ZM760,-160L760,-280C760,-309.333 751.833,-337.5 735.5,-364.5C719.167,-391.5 696,-414.667 666,-434C700,-430 732,-423.167 762,-413.5C792,-403.833 820,-392 846,-378C870,-364.667 888.333,-349.833 901,-333.5C913.667,-317.167 920,-299.333 920,-280L920,-160L760,-160ZM360,-480C316,-480 278.333,-495.667 247,-527C215.667,-558.333 200,-596 200,-640C200,-684 215.667,-721.667 247,-753C278.333,-784.333 316,-800 360,-800C404,-800 441.667,-784.333 473,-753C504.333,-721.667 520,-684 520,-640C520,-596 504.333,-558.333 473,-527C441.667,-495.667 404,-480 360,-480ZM760,-640C760,-596 744.333,-558.333 713,-527C681.667,-495.667 644,-480 600,-480C592.667,-480 583.333,-480.833 572,-482.5C560.667,-484.167 551.333,-486 544,-488C562,-509.333 575.833,-533 585.5,-559C595.167,-585 600,-612 600,-640C600,-668 595.167,-695 585.5,-721C575.833,-747 562,-770.667 544,-792C553.333,-795.333 562.667,-797.5 572,-798.5C581.333,-799.5 590.667,-800 600,-800C644,-800 681.667,-784.333 713,-753C744.333,-721.667 760,-684 760,-640ZM120,-240L600,-240L600,-272C600,-279.333 598.167,-286 594.5,-292C590.833,-298 586,-302.667 580,-306C544,-324 507.667,-337.5 471,-346.5C434.333,-355.5 397.333,-360 360,-360C322.667,-360 285.667,-355.5 249,-346.5C212.333,-337.5 176,-324 140,-306C134,-302.667 129.167,-298 125.5,-292C121.833,-286 120,-279.333 120,-272L120,-240ZM360,-560C382,-560 400.833,-567.833 416.5,-583.5C432.167,-599.167 440,-618 440,-640C440,-662 432.167,-680.833 416.5,-696.5C400.833,-712.167 382,-720 360,-720C338,-720 319.167,-712.167 303.5,-696.5C287.833,-680.833 280,-662 280,-640C280,-618 287.833,-599.167 303.5,-583.5C319.167,-567.833 338,-560 360,-560Z" style="fill-rule:nonzero;"/>
    </g>
</svg>
