<?xml version="1.0" encoding="UTF-8" standalone="no"?>
<!DOCTYPE svg PUBLIC "-//W3C//DTD SVG 1.1//EN" "http://www.w3.org/Graphics/SVG/1.1/DTD/svg11.dtd">
<svg width="16" height="16" viewBox="0 0 16 16" version="1.1" xmlns="http://www.w3.org/2000/svg" xmlns:xlink="http://www.w3.org/1999/xlink" xml:space="preserve" xmlns:serif="http://www.serif.com/" style="fill-rule:evenodd;clip-rule:evenodd;stroke-linejoin:round;stroke-miterlimit:2;">
    <g transform="matrix(0.0175,0,0,0.0175,-0.4,16.4)">
        <path d="M160,-160C138,-160 119.167,-167.833 103.5,-183.5C87.833,-199.167 80,-218 80,-240L80,-720C80,-742 87.833,-760.833 103.5,-776.5C119.167,-792.167 138,-800 160,-800L400,-800L480,-720L800,-720C822,-720 840.833,-712.167 856.5,-696.5C872.167,-680.833 880,-662 880,-640L880,-240C880,-218 872.167,-199.167 856.5,-183.5C840.833,-167.833 822,-160 800,-160L160,-160ZM160,-240L800,-240L800,-640L447,-640L367,-720L160,-720L160,-240ZM160,-240L160,-720L160,-240Z" style="fill-rule:nonzero;"/>
    </g>
    <g transform="matrix(0.0078125,0,0,0.0078125,4.25585,12.3699)">
        <path d="M720,-400L720,-520L600,-520L600,-600L720,-600L720,-720L800,-720L800,-600L920,-600L920,-520L800,-520L800,-400L720,-400ZM360,-480C316,-480 278.333,-495.667 247,-527C215.667,-558.333 200,-596 200,-640C200,-684 215.667,-721.667 247,-753C278.333,-784.333 316,-800 360,-800C404,-800 441.667,-784.333 473,-753C504.333,-721.667 520,-684 520,-640C520,-596 504.333,-558.333 473,-527C441.667,-495.667 404,-480 360,-480ZM40,-160L40,-272C40,-294.667 45.833,-315.5 57.5,-334.5C69.167,-353.5 84.667,-368 104,-378C145.333,-398.667 187.333,-414.167 230,-424.5C272.667,-434.833 316,-440 360,-440C404,-440 447.333,-434.833 490,-424.5C532.667,-414.167 574.667,-398.667 616,-378C635.333,-368 650.833,-353.5 662.5,-334.5C674.167,-315.5 680,-294.667 680,-272L680,-160L40,-160ZM120,-240L600,-240L600,-272C600,-279.333 598.167,-286 594.5,-292C590.833,-298 586,-302.667 580,-306C544,-324 507.667,-337.5 471,-346.5C434.333,-355.5 397.333,-360 360,-360C322.667,-360 285.667,-355.5 249,-346.5C212.333,-337.5 176,-324 140,-306C134,-302.667 129.167,-298 125.5,-292C121.833,-286 120,-279.333 120,-272L120,-240ZM360,-560C382,-560 400.833,-567.833 416.5,-583.5C432.167,-599.167 440,-618 440,-640C440,-662 432.167,-680.833 416.5,-696.5C400.833,-712.167 382,-720 360,-720C338,-720 319.167,-712.167 303.5,-696.5C287.833,-680.833 280,-662 280,-640C280,-618 287.833,-599.167 303.5,-583.5C319.167,-567.833 338,-560 360,-560Z" style="fill-rule:nonzero;"/>
    </g>
</svg>
