<?xml version="1.0" encoding="UTF-8" standalone="no"?>
<!DOCTYPE svg PUBLIC "-//W3C//DTD SVG 1.1//EN" "http://www.w3.org/Graphics/SVG/1.1/DTD/svg11.dtd">
<svg width="100%" height="100%" viewBox="0 0 196 74"
    xmlns="http://www.w3.org/2000/svg" version="1.1">
    <g style="fill:none;stroke:white;stroke-width:5.57px;">
        <circle cx="100.016" cy="15.583" r="11.8" />
        <circle cx="122.516" cy="15.583" r="6.7" />
        <circle cx="77.416" cy="15.583" r="6.7" />
    </g>
    <g style="fill:white;fill-rule:nonzero;">
        <path d="M38.67,49.779C44.57,49.779 47.87,53.979 47.87,60.279C47.87,60.879 47.37,61.379 46.77,61.379L30.87,61.379C30.97,66.979 34.87,70.179 39.37,70.179C42.17,70.179 44.17,68.979 45.17,68.179C45.77,67.779 46.27,67.879 46.57,68.479L46.87,68.979C47.17,69.479 47.07,69.979 46.57,70.379C45.37,71.279 42.77,72.779 39.27,72.779C32.77,72.779 27.77,68.079 27.77,61.279C27.87,54.079 32.67,49.779 38.67,49.779ZM44.77,59.179C44.57,54.579 41.77,52.279 38.57,52.279C34.87,52.279 31.67,54.679 30.97,59.179L44.77,59.179Z"/>
        <path d="M77.9,64.279L77.9,45.279C77.9,44.579 78.3,44.179 79,44.179L79.8,44.179C80.5,44.179 80.8,44.579 80.8,45.279L80.8,50.479L85.3,50.479C86,50.479 86.4,50.879 86.4,51.579L86.4,51.879C86.4,52.579 86,52.879 85.3,52.879L80.8,52.879L80.8,63.879C80.8,68.979 83.9,69.579 85.6,69.679C86.5,69.779 86.8,69.979 86.8,70.779L86.8,71.379C86.8,72.079 86.5,72.379 85.6,72.379C80.8,72.379 77.9,69.479 77.9,64.279Z"/>
        <path d="M100.8,49.779C104.6,49.779 107,51.379 108.1,52.279C108.6,52.679 108.7,53.179 108.2,53.779L107.9,54.279C107.5,54.879 107,54.879 106.4,54.479C105.4,53.779 103.5,52.479 100.9,52.479C96.1,52.479 92.3,56.079 92.3,61.379C92.3,66.579 96.1,70.179 100.9,70.179C104,70.179 106.1,68.779 107.1,67.879C107.7,67.479 108.1,67.579 108.5,68.179L108.8,68.579C109.1,69.179 109,69.579 108.5,70.079C107.4,70.979 104.7,72.879 100.7,72.879C94.2,72.879 89.2,68.179 89.2,61.379C89.3,54.579 94.3,49.779 100.8,49.779Z"/>
        <path d="M114.1,42.679C114.1,41.979 113.7,41.579 114.4,41.579L115.2,41.579C115.9,41.579 117,41.979 117,42.679L117,66.579C117,69.379 118.3,69.679 119.3,69.779C119.8,69.779 120.2,70.079 120.2,70.779L120.2,71.479C120.2,72.179 119.9,72.579 119.1,72.579C117.3,72.579 114.1,71.979 114.1,67.179L114.1,42.679Z"/>
        <path d="M134.6,49.779C141,49.779 146.2,54.679 146.2,61.179C146.2,67.779 141,72.779 134.6,72.779C128.2,72.779 123,67.779 123,61.179C123,54.679 128.2,49.779 134.6,49.779ZM134.6,70.179C139.3,70.179 143.1,66.379 143.1,61.179C143.1,56.179 139.3,52.479 134.6,52.479C129.9,52.479 126,56.279 126,61.179C126.1,66.279 129.9,70.179 134.6,70.179Z"/>
        <path d="M184.5,49.779C189.8,49.779 191.7,54.179 191.7,54.179L191.8,54.179C191.8,54.179 191.7,53.479 191.7,52.479L191.7,42.579C191.7,41.879 191.4,41.479 192.1,41.479L192.9,41.479C193.6,41.479 194.7,41.879 194.7,42.579L194.7,71.079C194.7,71.779 194.4,72.179 193.7,72.179L193,72.179C192.3,72.179 191.9,71.879 191.9,71.179L191.9,69.479C191.9,68.679 192.1,68.079 192.1,68.079L192,68.079C192,68.079 190.1,72.679 184.4,72.679C178.5,72.679 174.8,67.979 174.8,61.179C174.6,54.379 178.7,49.779 184.5,49.779ZM184.6,70.179C188.3,70.179 191.7,67.579 191.7,61.279C191.7,56.779 189.4,52.479 184.7,52.479C180.8,52.479 177.6,55.679 177.6,61.279C177.7,66.679 180.5,70.179 184.6,70.179Z"/>
        <path d="M2,72.279L2.8,72.279C3.5,72.279 3.9,71.879 3.9,71.179L3.9,49.707C3.9,46.307 7.6,43.879 11.8,43.879C16,43.879 19.7,46.307 19.7,49.707L19.7,71.179C19.7,71.879 20.1,72.279 20.8,72.279L21.6,72.279C22.3,72.279 22.6,71.879 22.6,71.179L22.6,49.579C22.6,43.879 16.9,41.079 11.7,41.079C6.7,41.079 1,43.879 1,49.579L1,71.179C1,71.879 1.3,72.279 2,72.279Z"/>
        <path d="M168.9,50.279L168.1,50.279C167.4,50.279 167,50.679 167,51.379L167,63.479C167,66.879 164.8,69.979 160.5,69.979C156.3,69.979 154,66.879 154,63.479L154,51.379C154,50.679 153.6,50.279 152.9,50.279L152.1,50.279C151.4,50.279 151.1,50.679 151.1,51.379L151.1,64.279C151.1,69.979 155.3,72.779 160.5,72.779C165.7,72.779 169.9,69.979 169.9,64.279L169.9,51.379C170,50.679 169.6,50.279 168.9,50.279Z"/>
        <path d="M69.908,50.115C69.663,50.154 69.428,50.317 69.203,50.586L65.156,55.41L62.127,59.019L57.541,53.552L55.053,50.586C54.828,50.317 54.573,50.171 54.309,50.148C54.044,50.125 53.77,50.226 53.502,50.451L52.889,50.964C52.352,51.414 52.38,51.913 52.83,52.449L56.879,57.273L60.236,61.273L55.32,67.13C55.317,67.135 55.314,67.14 55.311,67.144L52.83,70.099C52.38,70.635 52.431,71.2 52.967,71.65L53.58,72.162C54.116,72.612 54.603,72.499 55.053,71.963L59.1,67.138L62.129,63.529L66.715,68.996C66.718,68.999 66.722,69.002 66.725,69.006L69.205,71.963C69.655,72.499 70.218,72.547 70.754,72.097L71.367,71.584C71.903,71.134 71.876,70.636 71.426,70.099L67.377,65.275L64.02,61.275L68.936,55.418C68.939,55.413 68.942,55.408 68.945,55.404L71.426,52.449C71.876,51.913 71.825,51.348 71.289,50.898L70.676,50.384C70.408,50.159 70.153,50.076 69.908,50.115L69.908,50.115Z"/>
    </g>
</svg>
