<?xml version="1.0" encoding="utf-8"?>
<svg width="512" height="512" viewBox="0 0 32 32" fill="none" xmlns="http://www.w3.org/2000/svg">
  <g clip-path="url(#clip0)">
    <path fill-rule="evenodd" clip-rule="evenodd" d="M 23.5 15 C 28.194 15 32 18.805 32 23.5 C 32 28.193 28.194 31.999 23.5 31.999 C 18.806 31.999 15 28.193 15 23.5 C 15 18.805 18.806 15 23.5 15 Z M 24.272 21.695 L 24.268 21.695 L 21.642 21.695 C 21.547 21.696 21.452 21.71 21.361 21.735 C 21.249 21.758 21.164 21.849 21.147 21.962 C 21.116 22.084 21.178 22.211 21.294 22.263 C 21.434 22.328 21.585 22.369 21.74 22.383 C 22.146 22.402 22.31 22.58 22.249 22.998 C 22.134 23.781 21.981 24.557 21.849 25.338 C 21.76 25.865 21.685 26.393 21.599 26.919 C 21.484 27.628 22.145 28.294 22.67 28.381 C 22.981 28.425 23.295 28.445 23.609 28.441 C 24.281 28.44 24.924 28.162 25.385 27.672 C 25.469 27.595 25.532 27.498 25.568 27.39 C 25.586 27.296 25.564 27.198 25.507 27.121 C 25.438 27.078 25.353 27.069 25.277 27.096 C 25.157 27.135 25.05 27.217 24.933 27.269 C 24.797 27.332 24.654 27.381 24.506 27.415 C 24.283 27.47 24.057 27.333 24.002 27.109 C 23.997 27.088 23.994 27.066 23.992 27.043 C 23.967 26.907 23.963 26.768 23.978 26.631 C 24.028 26.292 24.098 25.955 24.16 25.619 C 24.327 24.702 24.496 23.784 24.667 22.865 C 24.714 22.614 24.793 22.367 24.74 22.102 C 24.724 21.86 24.514 21.678 24.272 21.695 Z M 23.742 18.443 C 23.009 18.411 22.389 18.979 22.357 19.711 C 22.325 20.444 22.893 21.064 23.625 21.096 C 24.358 21.128 24.978 20.56 25.01 19.828 C 25.01 19.818 25.011 19.808 25.011 19.799 C 25.031 19.076 24.464 18.471 23.742 18.446 L 23.742 18.443 Z" fill="#041E42"/>
  </g>
  <defs>
    <clipPath id="clip0">
      <rect width="32" height="32" fill="white"/>
    </clipPath>
  </defs>
</svg>