<?xml version="1.0" encoding="utf-8"?>
<svg width="512" height="512" viewBox="0 0 32 32" fill="none" xmlns="http://www.w3.org/2000/svg">
  <g clip-path="url(#clip0)">
    <path fill-rule="evenodd" clip-rule="evenodd" d="M 23.5 15 C 28.194 15 32 18.805 32 23.5 C 32 28.193 28.194 31.999 23.5 31.999 C 18.806 31.999 15 28.193 15 23.5 C 15 18.805 18.806 15 23.5 15 Z M 20.5 22.249 L 18 22.249 L 18 24.749 L 20.5 24.749 L 20.5 22.249 Z M 24.75 22.249 L 22.25 22.249 L 22.25 24.749 L 24.75 24.749 L 24.75 22.249 Z M 29 22.249 L 26.5 22.249 L 26.5 24.749 L 29 24.749 L 29 22.249 Z" fill="#041E42"/>
  </g>
  <defs>
    <clipPath id="clip0">
      <rect width="32" height="32" fill="white"/>
    </clipPath>
  </defs>
</svg>