<?xml version="1.0" encoding="utf-8"?>
<svg width="512" height="512" viewBox="0 0 32 32" fill="none" xmlns="http://www.w3.org/2000/svg">
  <g clip-path="url(#clip0)">
    <path fill-rule="evenodd" clip-rule="evenodd" d="M 23.5 15 C 28.194 15 32 18.805 32 23.5 C 32 28.193 28.194 31.999 23.5 31.999 C 18.806 31.999 15 28.193 15 23.5 C 15 18.805 18.806 15 23.5 15 Z M 21.22 23.772 L 20.245 23.934 L 18.432 24.252 L 18.684 27.07 L 19.263 26.318 L 19.381 26.478 L 19.534 26.676 C 20.527 27.901 22.012 28.615 23.593 28.615 C 23.896 28.615 24.201 28.588 24.502 28.535 C 25.566 28.347 26.532 27.844 27.295 27.078 C 27.978 26.391 28.453 25.543 28.679 24.612 L 28.745 24.3 L 26.915 24.622 L 26.907 24.644 L 26.823 24.845 C 26.371 25.836 25.479 26.573 24.423 26.828 L 24.21 26.873 L 24.005 26.903 C 23.868 26.919 23.73 26.927 23.593 26.927 C 22.321 26.927 21.147 26.236 20.52 25.139 L 20.42 24.952 L 20.436 24.794 L 21.22 23.772 Z M 23.597 18.15 C 23.295 18.15 22.989 18.177 22.685 18.231 C 20.622 18.594 18.965 20.179 18.495 22.21 L 18.437 22.492 L 20.262 22.17 L 20.27 22.15 L 20.349 21.957 C 20.797 20.943 21.701 20.189 22.775 19.934 L 22.978 19.892 L 23.184 19.861 C 23.321 19.845 23.459 19.837 23.596 19.837 C 24.875 19.837 26.053 20.533 26.677 21.639 L 26.776 21.827 L 26.76 21.984 L 25.971 23.01 L 28.774 22.519 L 28.506 19.713 L 27.933 20.457 L 27.815 20.296 L 27.663 20.097 C 26.671 18.867 25.184 18.15 23.597 18.15 Z" fill="#041E42"/>
  </g>
  <defs>
    <clipPath id="clip0">
      <rect width="32" height="32" fill="white"/>
    </clipPath>
  </defs>
</svg>