<?xml version="1.0" encoding="UTF-8" standalone="no"?>
<!DOCTYPE svg PUBLIC "-//W3C//DTD SVG 1.1//EN" "http://www.w3.org/Graphics/SVG/1.1/DTD/svg11.dtd">
<svg width="100%" height="100%" viewBox="0 0 32 32"
     xmlns="http://www.w3.org/2000/svg" version="1.1">
     <circle cx="16" cy="16" r="16" style="fill:rgb(250,188,61);"/>
     <path d="M21.705,22.647L24.647,22.647C24.647,14.213 17.786,7.347 9.353,7.347L9.353,10.281C16.163,10.281 21.705,15.829 21.705,22.647ZM11.39,22.652C12.518,22.652 13.429,21.746 13.429,20.623C13.429,19.506 12.518,18.59 11.39,18.59C10.267,18.59 9.354,19.506 9.354,20.623C9.353,21.746 10.266,22.652 11.39,22.652ZM16.506,22.648L19.451,22.648C19.451,17.078 14.92,12.547 9.352,12.547L9.352,15.48C11.262,15.48 13.057,16.226 14.409,17.58C15.761,18.929 16.506,20.732 16.506,22.648Z" style="fill:white;fill-rule:nonzero;"/>
</svg>
