<?xml version="1.0" encoding="UTF-8"?>
<svg id="Layer_1" xmlns="http://www.w3.org/2000/svg" xmlns:svg="http://www.w3.org/2000/svg" xmlns:sodipodi="http://sodipodi.sourceforge.net/DTD/sodipodi-0.dtd" xmlns:rdf="http://www.w3.org/1999/02/22-rdf-syntax-ns#" xmlns:inkscape="http://www.inkscape.org/namespaces/inkscape" xmlns:dc="http://purl.org/dc/elements/1.1/" xmlns:cc="http://creativecommons.org/ns#" version="1.1" viewBox="0 0 141.49 99.6">
  <!-- Generator: Adobe Illustrator 30.3.0, SVG Export Plug-In . SVG Version: 2.1.3 Build 182)  -->
  <defs>
    <style>
      .st0 {
        fill: #fff;
      }
    </style>
  </defs>
  <path id="path1052" class="st0" d="M70.83,22.15c-12.59,0-23.26,8.54-26.57,20.1-2.88-6.14-9.1-10.43-16.28-10.43-9.87,0-17.98,8.11-17.98,17.98s8.11,17.99,17.98,17.99c7.18,0,13.41-4.3,16.28-10.44,3.31,11.57,13.98,20.11,26.57,20.11s23.12-8.41,26.51-19.85c2.93,6,9.08,10.18,16.15,10.18,9.87,0,17.99-8.12,17.99-17.99s-8.12-17.98-17.99-17.98c-7.07,0-13.23,4.18-16.15,10.17-3.39-11.44-14.01-19.84-26.51-19.84h0ZM70.83,32.7c9.51,0,17.1,7.59,17.1,17.1s-7.59,17.1-17.1,17.1-17.1-7.59-17.1-17.1,7.59-17.1,17.1-17.1ZM27.98,42.37c4.16,0,7.43,3.26,7.43,7.43s-3.26,7.43-7.43,7.43-7.43-3.26-7.43-7.43,3.26-7.43,7.43-7.43ZM113.5,42.37c4.17,0,7.43,3.26,7.43,7.43s-3.26,7.43-7.43,7.43-7.43-3.26-7.43-7.43,3.26-7.43,7.43-7.43Z" inkscape:connector-curvature="0" inkscape:export-filename="Nextcloud Hub logo variants.png" inkscape:export-xdpi="300" inkscape:export-ydpi="300"/>
</svg>