<svg width="512" height="512" viewBox="0 0 512 512" fill="#838FA1" xmlns="http://www.w3.org/2000/svg">
<g clip-path="url(#clip0_1106_43)">
<path d="M194.37 201.218C194.37 197.436 197.436 194.37 201.218 194.37H242.304C246.086 194.37 249.152 197.436 249.152 201.218V242.305C249.152 246.087 246.086 249.152 242.304 249.152H201.218C197.436 249.152 194.37 246.087 194.37 242.305V201.218ZM194.37 269.695C194.37 265.913 197.436 262.848 201.218 262.848H242.304C246.086 262.848 249.152 265.913 249.152 269.695V310.782C249.152 314.564 246.086 317.63 242.304 317.63H201.218C197.436 317.63 194.37 314.564 194.37 310.782V269.695ZM262.847 201.218C262.847 197.436 265.913 194.37 269.695 194.37H310.782C314.564 194.37 317.629 197.436 317.629 201.218V242.305C317.629 246.087 314.564 249.152 310.782 249.152H269.695C265.913 249.152 262.847 246.087 262.847 242.305V201.218ZM262.847 269.695C262.847 265.913 265.913 262.848 269.695 262.848H310.782C314.564 262.848 317.629 265.913 317.629 269.695V310.782C317.629 314.564 314.564 317.63 310.782 317.63H269.695C265.913 317.63 262.847 314.564 262.847 310.782V269.695Z" fill="#838FA1"/>
</g>
<defs>
<clipPath id="clip0_1106_43">
<rect width="512" height="512" fill="#838FA1"/>
</clipPath>
</defs>
</svg>
