<svg width="16" height="16" version="1.1" viewBox="0 0 4.2333 4.2333" xmlns="http://www.w3.org/2000/svg"><g transform="translate(0 -292.77)"><path transform="matrix(.26458 0 0 .26458 0 292.77)" d="m8 1a7 7 0 0 0-7 7 7 7 0 0 0 7 7 7 7 0 0 0 7-7 7 7 0 0 0-7-7zm0 1a6 6 0 0 1 6 6 6 6 0 0 1-6 6 6 6 0 0 1-6-6 6 6 0 0 1 6-6zm-2.6562 2.6035v0.0019532a0.75008 0.75008 0 0 0-0.51562 1.291l2.1113 2.1113-2.1113 2.1113a0.75008 0.75008 0 1 0 1.0547 1.0625l2.1172-2.1133 2.1133 2.1133a0.75165 0.75165 0 0 0 1.0625-1.0625l-2.1152-2.1113 2.1152-2.1113a0.75008 0.75008 0 0 0-0.54492-1.291 0.75008 0.75008 0 0 0-0.51758 0.22852l-2.1133 2.1133-2.1172-2.1133a0.75008 0.75008 0 0 0-0.53906-0.23047z" fill="#fff" stroke-width=".82894"/></g></svg>
