<svg width="16" height="16" version="1.1" viewBox="0 0 4.2333 4.2333" xmlns="http://www.w3.org/2000/svg"><path transform="scale(.26458)" d="m8 1a7 7 0 0 0-7 7 7 7 0 0 0 7 7 7 7 0 0 0 7-7 7 7 0 0 0-7-7zm0 1a6 6 0 0 1 6 6 6 6 0 0 1-6 6 6 6 0 0 1-6-6 6 6 0 0 1 6-6zm-1.5117 2.2598a0.75007 0.75007 0 0 0-0.73828 0.76758v5.9727a0.75007 0.75007 0 1 0 1.5 0v-5.9727a0.75007 0.75007 0 0 0-0.76172-0.76758zm2.998 0a0.75007 0.75007 0 0 0-0.73828 0.76758v5.9727a0.75296 0.75296 0 0 0 1.5059 0v-5.9727a0.75007 0.75007 0 0 0-0.76758-0.76758z" fill="#fff" stroke-width=".82894"/></svg>
