<svg width="16" height="16" version="1.1" viewBox="0 0 4.2333 4.2333" xmlns="http://www.w3.org/2000/svg"><path transform="scale(.26458)" d="m8 1a7 7 0 0 0-7 7 7 7 0 0 0 7 7 7 7 0 0 0 7-7 7 7 0 0 0-7-7zm0 1a6 6 0 0 1 6 6 6 6 0 0 1-6 6 6 6 0 0 1-6-6 6 6 0 0 1 6-6zm-0.013672 2.2598a0.75007 0.75007 0 0 0-0.73633 0.76758v3.7285a0.75007 0.75007 0 1 0 1.498 0v-3.7285a0.75007 0.75007 0 0 0-0.76172-0.76758zm-0.0039062 5.8359a0.93749 0.93749 0 0 0-0.9375 0.9375 0.93749 0.93749 0 0 0 0.9375 0.9375 0.93749 0.93749 0 0 0 0.9375-0.9375 0.93749 0.93749 0 0 0-0.9375-0.9375z" fill="#fff" stroke-width=".82894"/></svg>
