<?xml version="1.0" encoding="utf-8"?>
<svg width="512" height="512" viewBox="0 0 32 32" fill="none" xmlns="http://www.w3.org/2000/svg">
  <g clip-path="url(#clip0)">
    <path fill-rule="evenodd" clip-rule="evenodd" d="M 32 23.5 C 32 28.193 28.194 31.999 23.5 31.999 C 18.806 31.999 15 28.193 15 23.5 C 15 18.805 18.806 15 23.5 15 C 28.194 15 32 18.805 32 23.5 Z" fill="#2268AB"/>
    <path fill-rule="evenodd" clip-rule="evenodd" d="M 24.292 21.53 L 22.133 22.924 C 22.059 23.443 21.966 23.959 21.874 24.476 C 21.824 24.756 21.773 25.037 21.726 25.317 C 21.676 25.61 21.631 25.903 21.586 26.196 C 21.55 26.43 21.514 26.665 21.476 26.899 C 21.417 27.259 21.537 27.611 21.744 27.894 C 21.984 28.222 22.34 28.453 22.649 28.505 C 22.97 28.55 23.29 28.57 23.61 28.566 C 24.33 28.565 25.288 28.535 24.109 26.605 C 24.143 26.38 24.188 26.141 24.283 25.642 C 24.449 24.724 24.619 23.807 24.82 22.741 C 24.868 22.515 24.94 22.284 24.292 21.53 Z M 23.746 18.318 C 23.346 18.301 22.976 18.447 22.702 18.698 C 22.428 18.95 22.25 19.305 22.232 19.706 C 22.214 20.107 22.361 20.477 22.612 20.751 C 22.863 21.025 23.219 21.204 23.62 21.221 C 24.021 21.239 24.391 21.092 24.665 20.841 C 24.938 20.59 25.117 20.236 25.136 19.804 C 25.147 19.407 24.998 19.043 24.747 18.775 C 24.495 18.507 24.142 18.334 23.746 18.318 Z" fill="white" stroke="#1455B1" stroke-width="0.25"/>
  </g>
  <defs>
    <clipPath id="clip0">
      <rect width="32" height="32" fill="white"/>
    </clipPath>
  </defs>
</svg>