<?xml version="1.0" encoding="UTF-8" standalone="no"?>
<svg
   width="256"
   height="256"
   viewBox="0 0 16 16"
   fill="none"
   version="1.1"
   id="svg15"
   sodipodi:docname="info.svg"
   inkscape:version="1.1.2 (0a00cf5339, 2022-02-04)"
   xmlns:inkscape="http://www.inkscape.org/namespaces/inkscape"
   xmlns:sodipodi="http://sodipodi.sourceforge.net/DTD/sodipodi-0.dtd"
   xmlns="http://www.w3.org/2000/svg"
   xmlns:svg="http://www.w3.org/2000/svg">
  <sodipodi:namedview
     id="namedview17"
     pagecolor="#ffffff"
     bordercolor="#666666"
     borderopacity="1.0"
     inkscape:pageshadow="2"
     inkscape:pageopacity="0.0"
     inkscape:pagecheckerboard="true"
     showgrid="false"
     inkscape:zoom="0.82128905"
     inkscape:cx="-82.187873"
     inkscape:cy="140.63258"
     inkscape:window-width="1920"
     inkscape:window-height="1029"
     inkscape:window-x="1920"
     inkscape:window-y="25"
     inkscape:window-maximized="1"
     inkscape:current-layer="svg15"
     fit-margin-top="0"
     fit-margin-left="0"
     fit-margin-right="0"
     fit-margin-bottom="0" />
  <defs
     id="defs13">
    <clipPath
       id="clip0">
      <rect
         width="32"
         height="32"
         fill="#ffffff"
         id="rect10"
         x="0"
         y="0" />
    </clipPath>
  </defs>
  <g
     id="g837"
     transform="matrix(0.94117647,0,0,0.94125952,-15.420857,7.8567403)">
    <path
       fill-rule="evenodd"
       clip-rule="evenodd"
       d="m 33.384661,0.15245 c 0,4.6939 -3.8061,8.499 -8.5,8.499 -4.6939,0 -8.5,-3.8051 -8.5,-8.499 0,-4.6944 3.8061,-8.4995 8.5,-8.4995 4.6939,0 8.5,3.8051 8.5,8.4995 z"
       fill="#2268ab"
       id="path4-3"
       style="stroke:none;stroke-width:3.125;stroke-miterlimit:4;stroke-dasharray:none;paint-order:stroke fill markers" />
    <path
       fill-rule="evenodd"
       clip-rule="evenodd"
       d="m 25.677061,-1.81665 -2.1595,1.3938 c -0.0744,0.5189 -0.1668,1.0351 -0.2592,1.5517 -0.0502,0.2802 -0.1004,0.5606 -0.1477,0.8415 -0.0496,0.2925 -0.0947,0.5856 -0.1397,0.8786 -0.0361,0.2344 -0.0721,0.4687 -0.1105,0.7028 -0.0587,0.3606 0.0614,0.7119 0.2684,0.9947 0.2402,0.3282 0.5956,0.5595 0.9048,0.6112 0.3206,0.0449 0.6407,0.0655 0.961,0.0616 0.7198,-9e-4 1.6779,-0.0315 0.499,-1.9617 0.0339,-0.2245 0.0794,-0.4637 0.1736,-0.9624 0.1668,-0.918 0.336,-1.8356 0.5375,-2.9016 0.0479,-0.226 0.1196,-0.4569 -0.5277,-1.2102 z m -0.545999,-3.2122 c -0.400201,-0.0176 -0.7702,0.129 -1.0444,0.3801 -0.2742,0.2512 -0.452501,0.6069 -0.4701,1.0077 -0.0176,0.4008 0.129,0.7708 0.3801,1.045 0.2511,0.2742 0.6069,0.4526 1.0078,0.4702 0.4008,0.0175 0.7708,-0.1291 1.044999,-0.3802 0.2734,-0.2506 0.4524,-0.605 0.471,-1.0369 0.0112,-0.3975 -0.1382,-0.7607 -0.3893,-1.0288 -0.2512,-0.2684 -0.604299,-0.4416 -1.000099,-0.4571 z"
       fill="#ffffff"
       stroke="#1455b1"
       stroke-width="0.25"
       id="path6-6" />
  </g>
</svg>
