<?xml version="1.0" encoding="utf-8"?>
<svg width="512" height="512" viewBox="0 0 32 32" fill="none" xmlns="http://www.w3.org/2000/svg">
  <g clip-path="url(#clip0)">
    <path fill-rule="evenodd" clip-rule="evenodd" d="M 32 23.5 C 32 28.193 28.194 31.999 23.5 31.999 C 18.806 31.999 15 28.193 15 23.5 C 15 18.805 18.806 15 23.5 15 C 28.194 15 32 18.805 32 23.5 Z" fill="#595959"/>
    <path fill-rule="evenodd" clip-rule="evenodd" d="M 20.625 22.124 L 17.875 22.124 L 17.875 24.874 L 20.625 24.874 L 20.625 22.124 Z M 24.875 22.124 L 22.125 22.124 L 22.125 24.874 L 24.875 24.874 L 24.875 22.124 Z M 29.125 22.124 L 26.375 22.124 L 26.375 24.874 L 29.125 24.874 L 29.125 22.124 Z" fill="white" stroke="#3F3F3F" stroke-width="0.25"/>
  </g>
  <defs>
    <clipPath id="clip0">
      <rect width="32" height="32" fill="white"/>
    </clipPath>
  </defs>
</svg>