<?xml version="1.0" encoding="UTF-8" standalone="no"?>
<svg
   width="256"
   height="256"
   viewBox="0 0 16 16"
   fill="none"
   version="1.1"
   id="svg13"
   sodipodi:docname="ui-dark-plain-monochrom-state-info.svg"
   inkscape:version="1.1.2 (0a00cf5339, 2022-02-04)"
   xmlns:inkscape="http://www.inkscape.org/namespaces/inkscape"
   xmlns:sodipodi="http://sodipodi.sourceforge.net/DTD/sodipodi-0.dtd"
   xmlns="http://www.w3.org/2000/svg"
   xmlns:svg="http://www.w3.org/2000/svg">
  <sodipodi:namedview
     id="namedview15"
     pagecolor="#ffffff"
     bordercolor="#666666"
     borderopacity="1.0"
     inkscape:pageshadow="2"
     inkscape:pageopacity="0.0"
     inkscape:pagecheckerboard="true"
     showgrid="false"
     inkscape:zoom="1.4277344"
     inkscape:cx="94.905607"
     inkscape:cy="15.759234"
     inkscape:window-width="1920"
     inkscape:window-height="1029"
     inkscape:window-x="1920"
     inkscape:window-y="25"
     inkscape:window-maximized="1"
     inkscape:current-layer="svg13"
     fit-margin-top="0"
     fit-margin-left="0"
     fit-margin-right="0"
     fit-margin-bottom="0" />
  <path
     fill-rule="evenodd"
     clip-rule="evenodd"
     d="m 8,0 c 4.417788,0 8,3.581587 8,8.000235 C 16,12.418413 12.417788,16 8,16 3.582212,16 0,12.418413 0,8.000235 0,3.581587 3.582212,0 8,0 Z m 0.726776,6.30145 -0.004,2.83e-4 -2.471811,3.76e-4 C 6.161645,6.302956 6.0728,6.315479 5.986682,6.339289 5.881647,6.361129 5.801459,6.446498 5.785741,6.552578 c -0.02908,0.115399 0.02899,0.235127 0.1376,0.283602 0.13233,0.06175 0.274353,0.100056 0.419765,0.112857 0.382682,0.01788 0.536847,0.185804 0.479059,0.579533 -0.107389,0.736347 -0.251953,1.467236 -0.375812,2.202359 -0.08395,0.495479 -0.154165,0.99237 -0.235294,1.487943 -0.1088,0.66773 0.513317,1.293856 1.007435,1.376498 0.2928,0.04095 0.588141,0.05996 0.883671,0.05638 0.633223,-8.48e-4 1.238306,-0.262612 1.672188,-0.724017 0.07887,-0.07266 0.13807,-0.163968 0.172047,-0.265624 0.01666,-0.08885 -0.0042,-0.180533 -0.05779,-0.253293 -0.06456,-0.04047 -0.144377,-0.04913 -0.216094,-0.02344 -0.112847,0.03718 -0.213271,0.114269 -0.323389,0.162556 -0.128753,0.05986 -0.263435,0.106174 -0.401882,0.137706 -0.210447,0.05158 -0.422871,-0.07728 -0.474447,-0.287555 -0.005,-0.02052 -0.0083,-0.04132 -0.01007,-0.06212 -0.02315,-0.128105 -0.02729,-0.258846 -0.01242,-0.38827 C 8.497178,10.628324 8.563249,10.311778 8.621037,9.995139 8.777931,9.131721 8.937178,8.267739 9.09859,7.403287 9.14264,7.16656 9.21699,6.93388 9.16739,6.684729 9.15158,6.457227 8.954402,6.285729 8.726825,6.301448 Z M 8.227294,3.240851 C 7.537788,3.210541 6.954165,3.745178 6.924047,4.43465 6.893737,5.124405 7.428235,5.707892 8.117929,5.738106 8.807435,5.768326 9.390871,5.233779 9.421176,4.544213 9.421553,4.535113 9.421835,4.525863 9.422024,4.516823 9.441314,3.836104 8.907671,3.267489 8.227294,3.243581 Z"
     fill="#ffffff"
     id="path4"
     style="stroke-width:0.941218" />
  <defs
     id="defs11">
    <clipPath
       id="clip0">
      <rect
         width="32"
         height="32"
         fill="#ffffff"
         id="rect8"
         x="0"
         y="0" />
    </clipPath>
  </defs>
</svg>
