<?xml version="1.0" encoding="utf-8"?>
<svg width="512" height="512" viewBox="0 0 32 32" fill="none" xmlns="http://www.w3.org/2000/svg">
  <g clip-path="url(#clip0)">
    <path fill-rule="evenodd" clip-rule="evenodd" d="M 23.5 15 C 28.194 15 32 18.805 32 23.5 C 32 28.193 28.194 31.999 23.5 31.999 C 18.806 31.999 15 28.193 15 23.5 C 15 18.805 18.806 15 23.5 15 Z M 21.571 23.563 L 20.219 23.786 L 18.271 24.129 L 18.569 27.468 L 19.26 26.567 C 20.276 27.948 21.877 28.765 23.593 28.765 C 23.905 28.765 24.219 28.737 24.528 28.682 C 25.624 28.49 26.617 27.971 27.401 27.183 C 28.167 26.414 28.679 25.446 28.882 24.385 L 28.933 24.115 L 26.805 24.49 L 26.767 24.59 C 26.342 25.701 25.351 26.519 24.184 26.725 C 23.988 26.76 23.789 26.777 23.593 26.777 C 22.305 26.777 21.124 26.038 20.555 24.885 L 21.571 23.563 Z M 23.597 18 C 23.284 18 22.969 18.028 22.659 18.083 C 20.458 18.47 18.706 20.21 18.3 22.411 L 18.25 22.679 L 20.373 22.304 L 20.41 22.203 C 20.831 21.076 21.825 20.247 23.005 20.039 C 23.2 20.005 23.399 19.987 23.596 19.987 C 24.89 19.987 26.074 20.731 26.641 21.893 L 25.617 23.225 L 28.93 22.645 L 28.93 22.644 L 28.937 22.644 L 28.619 19.321 L 27.936 20.207 C 26.922 18.821 25.319 18 23.597 18 Z" fill="white"/>
  </g>
  <defs>
    <clipPath id="clip0">
      <rect width="32" height="32" fill="white"/>
    </clipPath>
  </defs>
</svg>