<?xml version="1.0" encoding="utf-8"?>
<svg width="512" height="512" viewBox="0 0 32 32" fill="none" xmlns="http://www.w3.org/2000/svg">
  <g clip-path="url(#clip0)">
    <path fill-rule="evenodd" clip-rule="evenodd" d="M 23.5 15 C 28.194 15 32 18.805 32 23.5 C 32 28.193 28.194 31.999 23.5 31.999 C 18.806 31.999 15 28.193 15 23.5 C 15 18.805 18.806 15 23.5 15 Z M 23.5 26.587 C 22.82 26.587 22.34 27.082 22.34 27.794 C 22.325 28.49 22.804 29 23.5 29 C 24.211 29 24.676 28.49 24.676 27.794 C 24.66 27.082 24.211 26.587 23.5 26.587 Z M 24.505 18 L 22.495 18 C 22.385 18 22.279 18.045 22.202 18.125 C 22.125 18.205 22.084 18.313 22.088 18.423 L 22.366 25.629 C 22.375 25.848 22.555 26.021 22.774 26.021 L 24.227 26.021 C 24.445 26.021 24.625 25.848 24.634 25.629 L 24.912 18.423 C 24.916 18.313 24.875 18.205 24.798 18.125 C 24.721 18.045 24.616 18 24.505 18 Z" fill="white"/>
  </g>
  <defs>
    <clipPath id="clip0">
      <rect width="32" height="32" fill="white"/>
    </clipPath>
  </defs>
</svg>