<?xml version="1.0" encoding="UTF-8" standalone="no"?>
<svg
   width="256"
   height="256"
   viewBox="0 0 16 16"
   fill="none"
   version="1.1"
   id="svg13"
   sodipodi:docname="ui-dark-plain-monochrom-state-warning.svg"
   inkscape:version="1.1.2 (0a00cf5339, 2022-02-04)"
   xmlns:inkscape="http://www.inkscape.org/namespaces/inkscape"
   xmlns:sodipodi="http://sodipodi.sourceforge.net/DTD/sodipodi-0.dtd"
   xmlns="http://www.w3.org/2000/svg"
   xmlns:svg="http://www.w3.org/2000/svg">
  <sodipodi:namedview
     id="namedview15"
     pagecolor="#ffffff"
     bordercolor="#666666"
     borderopacity="1.0"
     inkscape:pageshadow="2"
     inkscape:pageopacity="0.0"
     inkscape:pagecheckerboard="true"
     showgrid="false"
     inkscape:zoom="1.4277344"
     inkscape:cx="94.905607"
     inkscape:cy="15.759234"
     inkscape:window-width="1920"
     inkscape:window-height="1029"
     inkscape:window-x="1920"
     inkscape:window-y="25"
     inkscape:window-maximized="1"
     inkscape:current-layer="svg13"
     fit-margin-top="0"
     fit-margin-left="0"
     fit-margin-right="0"
     fit-margin-bottom="0" />
  <path
     fill-rule="evenodd"
     clip-rule="evenodd"
     d="m 8,0 c 4.417788,0 8,3.581587 8,8.000235 C 16,12.418413 12.417788,16 8,16 3.582212,16 0,12.418413 0,8.000235 0,3.581587 3.582212,0 8,0 Z m 0,10.906751 c -0.639812,0 -1.091482,0.465547 -1.091482,1.135347 -0.01431,0.655399 0.436047,1.135535 1.091482,1.135535 0.669459,0 1.106824,-0.480136 1.106824,-1.135535 C 9.091484,11.372298 8.669459,10.906751 8,10.906751 Z M 8.945506,2.823779 H 7.054494 c -0.104376,0 -0.204047,0.04245 -0.276329,0.117563 C 6.706075,3.016552 6.6672,3.118016 6.671247,3.22212 l 0.261741,6.782716 c 0.0082,0.205759 0.177412,0.368597 0.383247,0.368597 h 1.36753 c 0.206023,0 0.375247,-0.162838 0.383153,-0.368597 L 9.328753,3.22212 C 9.332753,3.118016 9.294213,3.016549 9.221835,2.941342 9.149555,2.866232 9.050071,2.823779 8.945506,2.823779 Z"
     fill="#ffffff"
     id="path4"
     style="stroke-width:0.941218" />
  <defs
     id="defs11">
    <clipPath
       id="clip0">
      <rect
         width="32"
         height="32"
         fill="#ffffff"
         id="rect8"
         x="0"
         y="0" />
    </clipPath>
  </defs>
</svg>
