<?xml version="1.0" encoding="UTF-8" standalone="no"?>
<!DOCTYPE svg PUBLIC "-//W3C//DTD SVG 1.1//EN" "http://www.w3.org/Graphics/SVG/1.1/DTD/svg11.dtd">
<svg width="100%" height="100%" viewBox="0 0 400 200"
    xmlns="http://www.w3.org/2000/svg" version="1.1">
    <path d="M200.305,8.948C158.625,8.951 123.638,37.484 112.945,75.871C103.613,55.34 83.071,40.789 59.204,40.788C26.716,40.791 0.004,67.503 0.001,99.991C-0.005,132.485 26.71,159.204 59.204,159.207C83.073,159.204 103.601,144.645 112.932,124.111C123.623,162.511 158.628,191.051 200.304,191.051C241.75,191.054 276.573,162.825 287.482,124.763C296.965,144.917 317.191,159.209 340.784,159.213C373.285,159.219 400.005,132.498 400,99.997C399.997,67.503 373.278,40.787 340.784,40.794C317.19,40.797 296.952,55.087 287.47,75.244C276.574,37.18 241.758,8.951 200.318,8.954L200.305,8.948ZM200.305,43.702C231.603,43.7 256.603,68.694 256.606,99.992C256.608,131.293 231.606,156.296 200.305,156.293C169.009,156.291 144.014,131.29 144.017,99.992C144.02,68.698 169.009,43.706 200.305,43.702ZM59.205,75.542C72.915,75.544 83.653,86.282 83.655,99.992C83.657,113.705 72.919,124.453 59.205,124.454C45.492,124.452 34.752,113.705 34.755,99.992C34.756,86.282 45.495,75.544 59.205,75.542ZM340.785,75.542C354.498,75.54 365.246,86.278 365.247,99.992C365.25,113.708 354.502,124.456 340.785,124.454C327.072,124.452 316.332,113.705 316.335,99.992C316.337,86.282 327.075,75.544 340.785,75.542Z" style="fill:white;fill-rule:nonzero;"/>
</svg>
