<?xml version="1.0" encoding="UTF-8" standalone="no"?>
<svg
   xmlns:dc="http://purl.org/dc/elements/1.1/"
   xmlns:cc="http://creativecommons.org/ns#"
   xmlns:rdf="http://www.w3.org/1999/02/22-rdf-syntax-ns#"
   xmlns:svg="http://www.w3.org/2000/svg"
   xmlns="http://www.w3.org/2000/svg"
   xmlns:sodipodi="http://sodipodi.sourceforge.net/DTD/sodipodi-0.dtd"
   xmlns:inkscape="http://www.inkscape.org/namespaces/inkscape"
   enable-background="new 0 0 595.275 311.111"
   xml:space="preserve"
   height="200"
   width="320"
   version="1.1"
   y="0px"
   x="0px"
   viewBox="0 0 35 0"
   id="svg2"
   inkscape:version="0.48.4 r9939"
   sodipodi:docname="installer-background.svg"><metadata
     id="metadata12"><rdf:RDF><cc:Work
         rdf:about=""><dc:format>image/svg+xml</dc:format><dc:type
           rdf:resource="http://purl.org/dc/dcmitype/StillImage" /><dc:title></dc:title></cc:Work></rdf:RDF></metadata><defs
     id="defs10" /><sodipodi:namedview
     pagecolor="#ffffff"
     bordercolor="#666666"
     borderopacity="1"
     objecttolerance="10"
     gridtolerance="10"
     guidetolerance="10"
     inkscape:pageopacity="0"
     inkscape:pageshadow="2"
     inkscape:window-width="1920"
     inkscape:window-height="1002"
     id="namedview8"
     showgrid="false"
     inkscape:zoom="0.734375"
     inkscape:cx="-49.141255"
     inkscape:cy="236.17459"
     inkscape:window-x="0"
     inkscape:window-y="34"
     inkscape:window-maximized="1"
     inkscape:current-layer="svg2"
     fit-margin-top="0"
     fit-margin-left="0"
     fit-margin-right="0"
     fit-margin-bottom="0" /><path
     style="text-indent:0;text-transform:none;block-progression:tb;color:#000000;fill:#ffffff;fill-opacity:1;enable-background:accumulate"
     d="m 75.63384,28.421489 c -29.36582,0 -53.09172,23.724901 -53.09172,53.091701 0,12.1047 4.03087,23.2455 10.82647,32.1667 14.74225,-17.0631 36.50138,-27.8988 60.79508,-27.8988 11.88546,0 23.15644,2.6467 33.31219,7.2871 0.82221,-3.7185 1.24924,-7.5856 1.24924,-11.555 0,-29.3658 -23.72491,-53.091701 -53.09172,-53.091701 z M 6.30358,52.98809 c -15.29297,0 -27.58645,12.3977 -27.58645,27.6906 0,4.9515 1.27738,9.6301 3.53933,13.6373 9.22826,-5.206 19.89756,-8.2239 31.23002,-8.2239 1.09366,0 2.14708,0.039 3.22713,0.1052 -0.12231,-1.5502 -0.20806,-3.103 -0.20806,-4.6844 0,-8.5178 1.85002,-16.6223 5.10106,-23.9429 -4.37708,-2.9351 -9.62115,-4.5803 -15.30284,-4.5803 z m 130.95716,19.0502 c -1.12983,0 -2.21885,0.1381 -3.33122,0.2078 0.48121,3.0338 0.83274,6.097 0.83274,9.2651 0,4.9298 -0.62692,9.6869 -1.7697,14.2616 13.39754,7.4144 24.52385,18.5084 31.8547,31.9586 7.60342,-3.9586 16.08566,-6.4754 25.08804,-7.0787 -2.32015,-27.2093 -24.86184,-48.6137 -52.67416,-48.6137 z m -43.09675,19.7789 c -41.09117,0 -74.32775,33.2333 -74.32775,74.3278 0,41.0911 33.23329,74.3277 74.32775,74.3277 41.09447,0 74.32775,-33.2366 74.32775,-74.3277 0,-41.0945 -33.23657,-74.3278 -74.32775,-74.3278 z m -80.67652,0.3117 c -31.87937,0 -57.67166,25.792 -57.67166,57.6717 0,18.7668 8.94156,35.3802 22.79774,45.9078 5.84147,-11.2667 17.57406,-18.9461 31.1258,-18.9461 1.63789,0 3.21,0.1986 4.78871,0.4169 -0.49554,-3.6054 -0.72871,-7.2937 -0.72871,-11.0346 0,-17.8847 5.82174,-34.4234 15.71907,-47.7819 -5.92466,-7.4133 -10.1643,-16.321 -11.97162,-26.025 -1.33935,-0.092 -2.69673,-0.2078 -4.05979,-0.2078 z m 180.71831,34.3544 c -9.68,0 -18.74781,2.4714 -26.75364,6.6625 4.54607,10.0696 7.07867,21.2422 7.07867,32.9998 0,22.0146 -8.85114,42.0052 -23.21431,56.5275 10.5516,11.7145 25.861,19.0503 42.88961,19.0503 31.87937,0 57.67165,-25.7916 57.67165,-57.6717 0,-31.8793 -25.79195,-57.5664 -57.67165,-57.5664 z m -244.00885,7.5998 c -29.3701,0 -53.19693,23.6164 -53.19693,52.9832 0,29.3669 23.82815,53.1937 53.19364,53.1937 11.17727,0 21.53161,-3.4825 30.08487,-9.369 -3.5344,-5.492 -5.62151,-12.0581 -5.62151,-19.0503 0,-3.6291 0.53552,-7.1158 1.56148,-10.4099 -16.01267,-11.5721 -26.44131,-30.4034 -26.44131,-51.6319 0,-5.394 0.71083,-10.6098 1.97792,-15.6152 -0.52591,-0.013 -1.03171,-0.1052 -1.56152,-0.1052 z m 312.19495,45.5955 c -1.56661,0 -3.08252,0.1789 -4.58026,0.4169 0.0829,1.3242 0.1039,2.6108 0.1039,3.9559 0,16.9326 -6.68118,32.3015 -17.4889,43.7214 5.31706,6.1831 13.12695,10.0976 21.96526,10.0976 16.09849,0 29.14785,-12.9451 29.14785,-29.0439 0,-16.0985 -13.04936,-29.1479 -29.14785,-29.1479 z m -252.64924,3.1229 c -16.09783,0 -29.04395,12.9461 -29.04395,29.044 0,16.0978 12.94612,29.1478 29.04395,29.1478 12.33919,0 22.81287,-7.6994 27.06599,-18.5298 -10.378,-10.57 -17.83675,-24.0544 -21.13213,-39.0363 -1.92854,-0.3985 -3.88588,-0.6247 -5.93386,-0.6247 z"
     id="path6"
     inkscape:connector-curvature="0" /></svg>