<?xml version="1.0" encoding="UTF-8" standalone="no"?>
<svg xmlns="http://www.w3.org/2000/svg" version="1.1" xml:space="preserve" height="200" width="320" enable-background="new 0 0 595.275 311.111" y="0px" x="0px" viewBox="0 0 35 0"><path style="color-rendering:auto;text-decoration-color:#000000;color:#000000;isolation:auto;mix-blend-mode:normal;shape-rendering:auto;solid-color:#000000;block-progression:tb;text-decoration-line:none;image-rendering:auto;white-space:normal;text-indent:0;enable-background:accumulate;text-transform:none;text-decoration-style:solid" d="m100.3 47.902c-41.68 0.003-76.667 28.536-87.36 66.923-9.3312-20.531-29.874-35.082-53.741-35.083-32.488 0.003-59.2 26.715-59.203 59.203-0.0058 32.494 26.709 59.213 59.203 59.216 23.869-0.003 44.397-14.562 53.728-35.096 10.691 38.4 45.696 66.94 87.372 66.94 41.446 0.003 76.269-28.226 87.178-66.288 9.4834 20.154 29.709 34.446 53.302 34.45 32.501 0.006 59.221-26.715 59.216-59.216-0.003-32.494-26.722-59.21-59.216-59.203-23.594 0.003-43.832 14.293-53.314 34.45-10.896-38.064-45.712-66.293-87.152-66.29zm0 34.754c31.298-0.002 56.298 24.992 56.301 56.29 0.002 31.301-25 56.304-56.301 56.301-31.296-0.002-56.291-25.003-56.288-56.301 0.003-31.294 24.992-56.286 56.288-56.29zm-141.1 31.84c13.71 0.002 24.448 10.74 24.45 24.45 0.0024 13.713-10.736 24.461-24.45 24.462-13.713-0.002-24.453-10.749-24.45-24.462 0.0016-13.71 10.74-24.448 24.45-24.45zm281.58 0c13.713-0.002 24.461 10.736 24.462 24.45 0.003 13.716-10.745 24.464-24.462 24.462-13.713-0.002-24.453-10.749-24.45-24.462 0.002-13.71 10.74-24.448 24.45-24.45z" fill="#fff"/></svg>
