<?xml version="1.0" encoding="UTF-8" standalone="no"?>
<!DOCTYPE svg PUBLIC "-//W3C//DTD SVG 1.1//EN" "http://www.w3.org/Graphics/SVG/1.1/DTD/svg11.dtd">
<svg width="100%" height="100%" viewBox="0 0 512 512"
   xmlns="http://www.w3.org/2000/svg" version="1.1">
   <circle cx="256" cy="256" r="256" style="fill:rgb(92,184,92);"/>
   <path d="M412.75,212.264C407.501,218.037 401.553,223.111 395.255,227.484C366.04,247.253 336.649,267.196 308.133,287.84C293.438,298.686 275.244,311.982 256.175,311.982L255.825,311.982C236.756,311.982 218.562,298.686 203.867,287.84C175.351,267.021 145.96,247.253 116.92,227.484C110.447,223.111 104.499,218.037 99.25,212.264L99.25,351.169C99.25,366.564 111.846,379.16 127.241,379.16L384.759,379.16C400.154,379.16 412.75,366.564 412.75,351.169L412.75,212.264ZM412.75,160.831C412.75,145.436 399.979,132.84 384.759,132.84L127.241,132.84C108.522,132.84 99.25,147.535 99.25,164.679C99.25,180.599 116.92,200.368 129.341,208.765C156.457,227.659 183.923,246.553 211.039,265.622C222.411,273.494 241.655,289.589 255.825,289.589L256.175,289.589C270.345,289.589 289.589,273.494 300.961,265.622C328.077,246.553 355.543,227.659 382.834,208.765C398.229,198.094 412.75,180.424 412.75,160.831Z" style="fill:white;fill-rule:nonzero;"/>
</svg>
