<?xml version="1.0" encoding="UTF-8" standalone="no"?>
<!DOCTYPE svg PUBLIC "-//W3C//DTD SVG 1.1//EN" "http://www.w3.org/Graphics/SVG/1.1/DTD/svg11.dtd">
<svg width="100%" height="100%" viewBox="0 0 32 32"
     xmlns:cc="http://creativecommons.org/ns#"
     xmlns="http://www.w3.org/2000/svg" version="1.1">
     <path d="M16,0C7.163,0,0,7.163,0,16c0,8.836,7.163,16,16,16s16-7.164,16-16C32,7.163,24.837,0,16,0z" fill="#FABC3D" />
     <path d="M21.705,22.647h2.942c0-8.434-6.861-15.3-15.294-15.3v2.934C16.163,10.281,21.705,15.829,21.705,22.647z    M11.39,22.652c1.128,0,2.039-0.906,2.039-2.029c0-1.117-0.911-2.033-2.039-2.033c-1.123,0-2.036,0.916-2.036,2.033   C9.353,21.746,10.266,22.652,11.39,22.652z M16.506,22.648L16.506,22.648h2.945c0-5.57-4.531-10.101-10.099-10.101v2.933   c1.91,0,3.705,0.746,5.057,2.1C15.761,18.929,16.506,20.732,16.506,22.648z" fill="#FFFFFF" />
</svg>