<?xml version="1.0" encoding="UTF-8" standalone="no"?>
<!DOCTYPE svg PUBLIC "-//W3C//DTD SVG 1.1//EN" "http://www.w3.org/Graphics/SVG/1.1/DTD/svg11.dtd">
<svg width="100%" height="100%" viewBox="0 0 493 58"
     xmlns="http://www.w3.org/2000/svg" version="1.1">
     <path d="M439.294,11.601C431.235,11.601 424.405,17.065 422.288,24.467C420.448,20.541 416.46,17.79 411.868,17.79C405.552,17.79 400.36,22.982 400.36,29.298C400.36,35.614 405.552,40.808 411.868,40.808C416.46,40.808 420.448,38.056 422.288,34.129C424.405,41.532 431.235,46.997 439.294,46.997C447.294,46.997 454.09,41.614 456.261,34.295C458.135,38.133 462.073,40.808 466.6,40.808C472.916,40.808 478.11,35.614 478.11,29.298C478.11,22.982 472.916,17.79 466.6,17.79C462.073,17.79 458.135,20.464 456.261,24.302C454.09,16.983 447.294,11.601 439.294,11.601ZM439.294,18.357C445.378,18.357 450.238,23.214 450.238,29.298C450.238,35.382 445.378,40.242 439.294,40.242C433.211,40.242 428.353,35.382 428.353,29.298C428.353,23.214 433.211,18.357 439.294,18.357ZM411.868,24.546C414.533,24.546 416.623,26.633 416.623,29.298C416.623,31.963 414.533,34.053 411.868,34.053C409.202,34.053 407.115,31.963 407.115,29.298C407.115,26.633 409.202,24.546 411.868,24.546ZM466.6,24.546C469.266,24.546 471.355,26.633 471.355,29.298C471.355,31.963 469.266,34.053 466.6,34.053C463.935,34.053 461.848,31.963 461.848,29.298C461.848,26.633 463.935,24.546 466.6,24.546Z" style="fill:rgb(0,130,201);fill-rule:nonzero;"/>
</svg>
