<?xml version="1.0" encoding="UTF-8" standalone="no"?>
<svg
   xmlns:dc="http://purl.org/dc/elements/1.1/"
   xmlns:cc="http://creativecommons.org/ns#"
   xmlns:rdf="http://www.w3.org/1999/02/22-rdf-syntax-ns#"
   xmlns:svg="http://www.w3.org/2000/svg"
   xmlns="http://www.w3.org/2000/svg"
   xmlns:sodipodi="http://sodipodi.sourceforge.net/DTD/sodipodi-0.dtd"
   xmlns:inkscape="http://www.inkscape.org/namespaces/inkscape"
   version="1.1"
   id="Layer_1"
   x="0px"
   y="0px"
   viewBox="0 0 462.18754 54.374996"
   enable-background="new 0 0 196.6 72"
   xml:space="preserve"
   inkscape:version="1.0 (4035a4f, 2020-05-01)"
   sodipodi:docname="banner.svg"
   width="493"
   height="58"
   inkscape:export-filename="/Users/misch/nextcloud/_icon/_msi/banner.png"
   inkscape:export-xdpi="96"
   inkscape:export-ydpi="96"><metadata
     id="metadata20"><rdf:RDF><cc:Work
         rdf:about=""><dc:format>image/svg+xml</dc:format><dc:type
           rdf:resource="http://purl.org/dc/dcmitype/StillImage" /><dc:title /></cc:Work></rdf:RDF></metadata><defs
     id="defs18"><clipPath
       clipPathUnits="userSpaceOnUse"
       id="clipPath8812"><circle
         id="circle8814"
         cx="95.669289"
         cy="95.669296"
         r="79.724197"
         style="fill:#00080d;fill-opacity:1;stroke-width:1" /></clipPath></defs><sodipodi:namedview
     pagecolor="#ffffff"
     bordercolor="#666666"
     borderopacity="1"
     objecttolerance="10"
     gridtolerance="10"
     guidetolerance="10"
     inkscape:pageopacity="1"
     inkscape:pageshadow="2"
     inkscape:window-width="1440"
     inkscape:window-height="812"
     id="namedview16"
     showgrid="false"
     inkscape:zoom="1.3964178"
     inkscape:cx="264.97589"
     inkscape:cy="100.72146"
     inkscape:current-layer="Layer_1"
     fit-margin-top="10"
     fit-margin-left="10"
     fit-margin-right="10"
     fit-margin-bottom="10"
     inkscape:window-x="0"
     inkscape:window-y="23"
     inkscape:window-maximized="1"
     units="px"
     inkscape:snap-bbox="true"
     inkscape:bbox-paths="true"
     inkscape:bbox-nodes="true"
     inkscape:snap-bbox-edge-midpoints="true"
     inkscape:snap-bbox-midpoints="true"
     inkscape:snap-page="true"
     inkscape:document-rotation="0" /><path
     inkscape:connector-curvature="0"
     id="path1052"
     d="m 411.83858,10.876373 c -7.55537,0 -13.95917,5.122046 -15.94393,12.061838 -1.72495,-3.680971 -5.463,-6.259801 -9.76856,-6.259801 -5.92119,0 -10.78856,4.867369 -10.78856,10.78855 0,5.921172 4.86737,10.790763 10.78856,10.790763 4.30556,0 8.04361,-2.580407 9.76856,-6.262024 1.98476,6.94032 8.38856,12.064068 15.94393,12.064068 7.49951,0 13.87065,-5.046471 15.90617,-11.908511 1.75682,3.598038 5.4486,6.106467 9.69302,6.106467 5.92118,0 10.79076,-4.869591 10.79076,-10.790763 0,-5.921181 -4.86958,-10.78855 -10.79076,-10.78855 -4.24442,0 -7.9362,2.506858 -9.69302,6.10425 -2.03552,-6.861503 -8.40666,-11.906287 -15.90617,-11.906287 z m 0,6.333131 c 5.70346,0 10.25968,4.554019 10.25968,10.257456 0,5.703427 -4.55622,10.259672 -10.25968,10.259672 -5.70341,0 -10.25743,-4.556245 -10.25743,-10.259672 0,-5.703437 4.55402,-10.257454 10.25743,-10.257456 z m -25.71249,5.802039 c 2.4988,0 4.45763,1.9566 4.45763,4.455417 0,2.498807 -1.95883,4.457631 -4.45763,4.457631 -2.49882,0 -4.45544,-1.958824 -4.45544,-4.457631 0,-2.498817 1.95662,-4.455417 4.45544,-4.455417 z m 51.31168,0 c 2.49883,0 4.45764,1.9566 4.45764,4.455417 0,2.498807 -1.95883,4.457631 -4.45764,4.457631 -2.49879,0 -4.45541,-1.958824 -4.45541,-4.457631 0,-2.498817 1.95662,-4.455417 4.45541,-4.455417 z"
     style="color:#000000;font-style:normal;font-variant:normal;font-weight:normal;font-stretch:normal;font-size:medium;line-height:normal;font-family:sans-serif;text-indent:0;text-align:start;text-decoration:none;text-decoration-line:none;text-decoration-style:solid;text-decoration-color:#000000;letter-spacing:normal;word-spacing:normal;text-transform:none;writing-mode:lr-tb;direction:ltr;baseline-shift:baseline;text-anchor:start;white-space:normal;clip-rule:nonzero;display:inline;overflow:visible;visibility:visible;opacity:1;isolation:auto;mix-blend-mode:normal;color-interpolation:sRGB;color-interpolation-filters:linearRGB;solid-color:#000000;solid-opacity:1;fill:#0082c9;fill-opacity:1;fill-rule:nonzero;stroke:none;stroke-width:3.56218;stroke-linecap:butt;stroke-linejoin:miter;stroke-miterlimit:10;stroke-dasharray:none;stroke-dashoffset:0;stroke-opacity:1;color-rendering:auto;image-rendering:auto;shape-rendering:auto;text-rendering:auto;enable-background:accumulate"
     inkscape:export-filename="Nextcloud Hub logo variants.png"
     inkscape:export-xdpi="300"
     inkscape:export-ydpi="300" /></svg>
