<?xml version="1.0" encoding="UTF-8" standalone="no"?>
<svg xmlns:rdf="http://www.w3.org/1999/02/22-rdf-syntax-ns#" xmlns="http://www.w3.org/2000/svg" height="64" width="64" version="1.0" xmlns:cc="http://creativecommons.org/ns#" xmlns:xlink="http://www.w3.org/1999/xlink" xmlns:dc="http://purl.org/dc/elements/1.1/">
 <defs>
  <linearGradient id="a" y2="69.127" gradientUnits="userSpaceOnUse" x2="-18.398" gradientTransform="matrix(.93749 0 0 .93750 48.705 -2.957)" y1="5.2866" x1="-18.398">
   <stop offset="0"/>
   <stop stop-color="#363636" offset="1"/>
  </linearGradient>
 </defs>
 <path opacity=".7" style="block-progression:tb;color:#000000;text-transform:none;text-indent:0" d="m32.014 2.0032c-6.4921 0-12 4.7474-12 10.874 0.04608 1.9365 0.21927 4.3246 1.3749 9.3745v0.125l0.12499 0.125c0.37098 1.0626 0.91084 1.6705 1.6249 2.4999 0.71405 0.82937 1.5653 1.8055 2.3749 2.6249 0.09524 0.0964 0.15627 0.15612 0.24995 0.25003 0.16055 0.69862 0.35503 1.4505 0.49998 2.1249 0.38566 1.7943 0.34611 3.065 0.25003 3.4998-2.7899 0.97997-6.2601 2.1463-9.3744 3.5003-1.7483 0.75997-3.3307 1.4404-4.625 2.2483-1.2943 0.81109-2.5815 1.4239-2.9998 3.2498-0.00516 0.08324-0.00516 0.16675 0 0.25003-0.40882 3.7538-1.0272 9.2737-1.4999 13-0.10204 0.78425 0.31131 1.611 0.99996 1.9999 5.6546 3.0543 14.34 4.2835 22.999 4.2499 8.6584-0.0336 17.275-1.3353 22.749-4.2499 0.68865-0.38891 1.102-1.2156 0.99996-1.9999-0.15092-1.1646-0.33631-3.7907-0.49998-6.3746-0.16367-2.584-0.30575-5.1258-0.49994-6.6246-0.06775-0.37155-0.24343-0.72281-0.49998-0.99996-1.7388-2.0763-4.3366-3.3456-7.3745-4.6246-2.7736-1.1679-6.0249-2.3806-9.2496-3.7498-0.18047-0.40203-0.35975-1.5717 0-3.3748 0.0984-0.48318 0.24959-1.002 0.37678-1.4991 0.30279-0.33919 0.53918-0.61678 0.87476-0.99996 0.71597-0.81717 1.4859-1.6747 2.1259-2.4999 0.63997-0.82517 1.16-1.5327 1.4999-2.4999l0.124-0.1248c1.3065-5.273 1.3072-7.4733 1.3749-9.3745v-0.12852c0-6.127-5.5074-10.874-12-10.874z" fill="url(#a)"/>
</svg>
