<?xml version="1.0" encoding="UTF-8" standalone="no"?>
<svg
   width="256"
   height="256"
   viewBox="0 0 16 16"
   fill="none"
   version="1.1"
   id="svg15"
   sodipodi:docname="checkmark.svg"
   inkscape:version="1.1.2 (0a00cf5339, 2022-02-04)"
   xmlns:inkscape="http://www.inkscape.org/namespaces/inkscape"
   xmlns:sodipodi="http://sodipodi.sourceforge.net/DTD/sodipodi-0.dtd"
   xmlns="http://www.w3.org/2000/svg"
   xmlns:svg="http://www.w3.org/2000/svg">
  <sodipodi:namedview
     id="namedview17"
     pagecolor="#ffffff"
     bordercolor="#666666"
     borderopacity="1.0"
     inkscape:pageshadow="2"
     inkscape:pageopacity="0.0"
     inkscape:pagecheckerboard="true"
     showgrid="false"
     inkscape:zoom="0.82128906"
     inkscape:cx="118.71581"
     inkscape:cy="-127.239"
     inkscape:window-width="1920"
     inkscape:window-height="1029"
     inkscape:window-x="1920"
     inkscape:window-y="25"
     inkscape:window-maximized="1"
     inkscape:current-layer="svg15"
     fit-margin-top="0"
     fit-margin-left="0"
     fit-margin-right="0"
     fit-margin-bottom="0" />
  <path
     fill-rule="evenodd"
     clip-rule="evenodd"
     d="m 17,8.4995 c 0,4.6939 -3.8061,8.499 -8.5,8.499 C 3.8061,16.9985 0,13.1934 0,8.4995 0,3.8051 3.8061,0 8.5,0 13.1939,0 17,3.8051 17,8.4995 Z"
     fill="#5eb220"
     id="path1193"
     style="fill:none;stroke:none;stroke-width:4;stroke-linecap:butt;stroke-miterlimit:4;stroke-dasharray:none;paint-order:stroke fill markers" />
  <path
     fill-rule="evenodd"
     clip-rule="evenodd"
     d="M 16,8.000235 C 16,12.418413 12.417788,16 8,16 3.582212,16 0,12.418413 0,8.000235 0,3.581587 3.582212,0 8,0 c 4.417788,0 8,3.581587 8,8.000235 z"
     fill="#5eb220"
     id="path4"
     style="stroke:none;stroke-width:2.94131;stroke-linecap:butt;stroke-miterlimit:4;stroke-dasharray:none;paint-order:stroke fill markers" />
  <path
     fill-rule="evenodd"
     clip-rule="evenodd"
     d="M 11.535,3.9398 7.0191,10.084 4.7401,8.3033 3.2383,10.2245 4.7898,11.4367 7.4953,13.5504 8.2399,12.5401 13.5,5.3843 Z"
     fill="#ffffff"
     stroke="#009a00"
     stroke-width="0.25"
     id="path6" />
  <defs
     id="defs13">
    <clipPath
       id="clip0">
      <rect
         width="32"
         height="32"
         fill="#ffffff"
         id="rect10"
         x="0"
         y="0" />
    </clipPath>
  </defs>
</svg>
