<?xml version="1.0" encoding="UTF-8" standalone="no"?>
<svg
   width="256"
   height="256"
   viewBox="0 0 16 16"
   fill="none"
   version="1.1"
   id="svg15"
   sodipodi:docname="sync.svg"
   inkscape:version="1.1.2 (0a00cf5339, 2022-02-04)"
   xmlns:inkscape="http://www.inkscape.org/namespaces/inkscape"
   xmlns:sodipodi="http://sodipodi.sourceforge.net/DTD/sodipodi-0.dtd"
   xmlns="http://www.w3.org/2000/svg"
   xmlns:svg="http://www.w3.org/2000/svg">
  <sodipodi:namedview
     id="namedview17"
     pagecolor="#ffffff"
     bordercolor="#666666"
     borderopacity="1.0"
     inkscape:pageshadow="2"
     inkscape:pageopacity="0.0"
     inkscape:pagecheckerboard="true"
     showgrid="false"
     inkscape:zoom="1.1614781"
     inkscape:cx="71.891152"
     inkscape:cy="27.981586"
     inkscape:window-width="1920"
     inkscape:window-height="1029"
     inkscape:window-x="1920"
     inkscape:window-y="25"
     inkscape:window-maximized="1"
     inkscape:current-layer="svg15"
     fit-margin-top="0"
     fit-margin-left="0"
     fit-margin-right="0"
     fit-margin-bottom="0" />
  <g
     id="g826"
     transform="matrix(0.94117647,0,0,0.94125952,-8.9411765,-14.118893)">
    <path
       fill-rule="evenodd"
       clip-rule="evenodd"
       d="m 26.5,23.4995 c 0,4.6939 -3.8061,8.499 -8.5,8.499 -4.6939,0 -8.5,-3.8051 -8.5,-8.499 C 9.5,18.8051 13.3061,15 18,15 c 4.6939,0 8.5,3.8051 8.5,8.4995 z"
       fill="#006ab0"
       id="path4"
       style="stroke:none;stroke-width:3.125;stroke-miterlimit:4;stroke-dasharray:none;stroke-opacity:1;paint-order:stroke fill markers" />
    <path
       fill-rule="evenodd"
       clip-rule="evenodd"
       d="m 16.3627,23.3878 -1.6643,0.2747 -2.0618,0.3632 0.3361,3.773 0.787,-1.0254 c 1.0431,1.3328 2.633,2.1164 4.3335,2.1164 0.3189,0 0.6404,-0.0284 0.9567,-0.0842 1.1207,-0.1972 2.137,-0.7284 2.9399,-1.534 0.8173,-0.8212 1.3536,-1.8629 1.5992,-3.319 l -2.4155,0.5305 c -0.3959,1.1015 -1.3652,1.9162 -2.5118,2.1188 -0.1882,0.0333 -0.3804,0.05 -0.5691,0.05 -0.6191,0 -1.2126,-0.1776 -1.7201,-0.4935 -0.4876,-0.3035 -0.8957,-0.7349 -1.1708,-1.2594 z m 1.7338,-5.5128 c -0.3199,0 -0.642,0.0289 -0.9592,0.0846 -1.1392,0.2007 -2.1608,0.7549 -2.9528,1.5806 -0.8106,0.8449 -1.3809,1.9743 -1.589,3.3005 l 2.4088,-0.5309 c 0.3916,-1.1176 1.3636,-1.9438 2.522,-2.1475 0.1878,-0.0333 0.3795,-0.0505 0.5692,-0.0505 0.6228,0 1.219,0.1789 1.7277,0.4973 0.4889,0.306 0.8971,0.7409 1.1708,1.2699 l -1.1715,1.524 3.7497,-0.6562 -0.3586,-3.7536 -0.7763,1.008 C 21.396,18.6627 19.8033,17.875 18.0965,17.875 Z"
       fill="#ffffff"
       stroke="#004a9f"
       stroke-width="0.25"
       id="path6" />
  </g>
  <defs
     id="defs13">
    <clipPath
       id="clip0">
      <rect
         width="32"
         height="32"
         fill="#ffffff"
         id="rect10"
         x="0"
         y="0" />
    </clipPath>
  </defs>
</svg>
