<?xml version="1.0" encoding="utf-8"?>
<svg width="512" height="512" viewBox="0 0 32 32" fill="none" xmlns="http://www.w3.org/2000/svg">
  <g clip-path="url(#clip0)">
    <path fill-rule="evenodd" clip-rule="evenodd" d="M 32 23.5 C 32 28.193 28.194 31.999 23.5 31.999 C 18.806 31.999 15 28.193 15 23.5 C 15 18.805 18.806 15 23.5 15 C 28.194 15 32 18.805 32 23.5 Z" fill="#006AB0"/>
    <path fill-rule="evenodd" clip-rule="evenodd" d="M 21.863 23.388 L 20.198 23.663 L 18.137 24.026 L 18.473 27.799 L 19.26 26.773 C 20.303 28.106 21.893 28.89 23.593 28.89 C 23.912 28.89 24.234 28.861 24.55 28.806 C 25.671 28.608 26.687 28.077 27.49 27.272 C 28.307 26.45 28.843 25.409 29.089 23.953 L 26.674 24.483 C 26.278 25.585 25.308 26.399 24.162 26.602 C 23.974 26.635 23.781 26.652 23.593 26.652 C 22.974 26.652 22.38 26.474 21.873 26.158 C 21.385 25.855 20.977 25.423 20.702 24.899 L 21.863 23.388 Z M 23.597 17.875 C 23.277 17.875 22.955 17.904 22.637 17.96 C 21.498 18.16 20.477 18.715 19.685 19.54 C 18.874 20.385 18.304 21.515 18.096 22.841 L 20.504 22.31 C 20.896 21.192 21.868 20.366 23.026 20.162 C 23.214 20.129 23.406 20.112 23.596 20.112 C 24.218 20.112 24.815 20.291 25.323 20.609 C 25.812 20.915 26.22 21.35 26.494 21.879 L 25.323 23.403 L 29.072 22.747 L 28.714 18.993 L 27.937 20.001 C 26.896 18.663 25.303 17.875 23.597 17.875 Z" fill="white" stroke="#004A9F" stroke-width="0.25"/>
  </g>
  <defs>
    <clipPath id="clip0">
      <rect width="32" height="32" fill="white"/>
    </clipPath>
  </defs>
</svg>