<?xml version="1.0" encoding="UTF-8" standalone="no"?>
<svg
   width="256"
   height="256"
   viewBox="0 0 16 16"
   fill="none"
   version="1.1"
   id="svg15"
   sodipodi:docname="warning.svg"
   inkscape:version="1.1.2 (0a00cf5339, 2022-02-04)"
   xmlns:inkscape="http://www.inkscape.org/namespaces/inkscape"
   xmlns:sodipodi="http://sodipodi.sourceforge.net/DTD/sodipodi-0.dtd"
   xmlns="http://www.w3.org/2000/svg"
   xmlns:svg="http://www.w3.org/2000/svg">
  <sodipodi:namedview
     id="namedview17"
     pagecolor="#ffffff"
     bordercolor="#666666"
     borderopacity="1.0"
     inkscape:pageshadow="2"
     inkscape:pageopacity="0.0"
     inkscape:pagecheckerboard="true"
     showgrid="false"
     inkscape:zoom="0.82128905"
     inkscape:cx="56.618312"
     inkscape:cy="107.75743"
     inkscape:window-width="1920"
     inkscape:window-height="1029"
     inkscape:window-x="1920"
     inkscape:window-y="25"
     inkscape:window-maximized="1"
     inkscape:current-layer="svg15"
     fit-margin-top="0"
     fit-margin-left="0"
     fit-margin-right="0"
     fit-margin-bottom="0" />
  <g
     id="g826"
     transform="matrix(0.94117647,0,0,0.94125952,-8.9411765,-14.118893)">
    <path
       fill-rule="evenodd"
       clip-rule="evenodd"
       d="m 26.5,23.4995 c 0,4.6939 -3.8061,8.499 -8.5,8.499 -4.6939,0 -8.5,-3.8051 -8.5,-8.499 C 9.5,18.8051 13.3061,15 18,15 c 4.6939,0 8.5,3.8051 8.5,8.4995 z"
       fill="#ffae00"
       id="path4"
       style="stroke:none;stroke-width:3.125;stroke-linejoin:miter;stroke-miterlimit:4;stroke-dasharray:none;stroke-opacity:0.986951;paint-order:stroke fill markers" />
    <path
       fill-rule="evenodd"
       clip-rule="evenodd"
       d="m 18,26.4624 c -0.3778,0 -0.6988,0.1395 -0.9259,0.3757 -0.2247,0.2337 -0.3588,0.5641 -0.3588,0.9555 -0.0084,0.3836 0.1228,0.7169 0.3505,0.9537 0.2265,0.2357 0.5498,0.3777 0.9342,0.3777 0.3894,0 0.7107,-0.1401 0.937,-0.3723 0.2306,-0.2365 0.364,-0.5708 0.364,-0.9591 C 19.2919,27.395 19.1583,27.0622 18.9307,26.8287 18.7065,26.5987 18.3896,26.4624 18,26.4624 Z m 1.1271,-8.6107 -2.6737,0.4682 0.7082,7.8523 2.0988,-0.4419 z"
       fill="#ffffff"
       stroke="#eb7a04"
       stroke-width="0.25"
       id="path6" />
  </g>
  <defs
     id="defs13">
    <clipPath
       id="clip0">
      <rect
         width="32"
         height="32"
         fill="#ffffff"
         id="rect10"
         x="0"
         y="0" />
    </clipPath>
  </defs>
</svg>
