<?xml version="1.0" encoding="utf-8"?>
<svg width="512" height="512" viewBox="0 0 32 32" fill="none" xmlns="http://www.w3.org/2000/svg">
  <g clip-path="url(#clip0)">
    <path fill-rule="evenodd" clip-rule="evenodd" d="M 32 23.5 C 32 28.193 28.194 31.999 23.5 31.999 C 18.806 31.999 15 28.193 15 23.5 C 15 18.805 18.806 15 23.5 15 C 28.194 15 32 18.805 32 23.5 Z" fill="#FFAE00"/>
    <path fill-rule="evenodd" clip-rule="evenodd" d="M 23.5 26.462 C 23.122 26.462 22.801 26.602 22.574 26.838 C 22.349 27.072 22.215 27.402 22.215 27.794 C 22.207 28.177 22.338 28.511 22.566 28.747 C 22.792 28.983 23.116 29.125 23.5 29.125 C 23.889 29.125 24.211 28.985 24.437 28.753 C 24.668 28.516 24.801 28.182 24.801 27.794 C 24.792 27.395 24.658 27.062 24.431 26.829 C 24.207 26.599 23.89 26.462 23.5 26.462 Z M 24.627 17.852 L 21.953 18.32 L 22.662 26.172 L 24.76 25.73 L 24.627 17.852 Z" fill="white" stroke="#EB7A04" stroke-width="0.25"/>
  </g>
  <defs>
    <clipPath id="clip0">
      <rect width="32" height="32" fill="white"/>
    </clipPath>
  </defs>
</svg>