<svg xmlns="http://www.w3.org/2000/svg" width="16" height="16" viewBox="0 0 16 16"><path d="M0.0416666667,14.2125 L8,0.929166667 L15.9583333,14.2125 L0.0416666667,14.2125 Z M2.82916667,12.6333333 L13.1708333,12.6333333 L8,4.02083333 L2.82916667,12.6333333 Z M8.01119792,11.99375 C8.22873264,11.99375 8.41527778,11.9171441 8.57083333,11.7639323 C8.72638889,11.6107205 8.80416667,11.4252604 8.80416667,11.2075521 C8.80416667,10.9900174 8.72756076,10.8034722 8.57434896,10.6479167 C8.42113715,10.4923611 8.23567708,10.4145833 8.01796875,10.4145833 C7.80043403,10.4145833 7.61388889,10.4911892 7.45833333,10.644401 C7.30277778,10.7976128 7.225,10.9830729 7.225,11.2007813 C7.225,11.418316 7.3016059,11.6048611 7.45481771,11.7604167 C7.60802951,11.9159722 7.79348958,11.99375 8.01119792,11.99375 Z M7.225,9.65833333 L8.80416667,9.65833333 L8.80416667,6.4 L7.225,6.4 L7.225,9.65833333 Z"/></svg>