<svg xmlns="http://www.w3.org/2000/svg" width="16" height="16" viewBox="0 0 16 16"><g fill="none"><path fill="#000" d="M8.01340034,0 C6.35510888,0 4.9480737,1.11892797 4.51256281,2.64321608 C4.13065327,1.83919598 3.31658291,1.27638191 2.36850921,1.27638191 C1.06532663,1.27638191 0,2.34170854 0,3.64489112 C0,4.9480737 1.06532663,6.01340034 2.36850921,6.01340034 C3.31658291,6.01340034 4.13065327,5.44723618 4.51256281,4.64656616 C4.9480737,6.17420436 6.35510888,7.28978224 8.01340034,7.28978224 C9.65829146,7.28978224 11.0519263,6.18425461 11.5008375,4.68341709 C11.8827471,5.47403685 12.6968174,6.02680067 13.6314908,6.02680067 C14.9346734,6.02680067 16,4.96147404 16,3.65829146 C16,2.35510888 14.9346734,1.28978224 13.6314908,1.28978224 C12.6968174,1.28978224 11.8961474,1.84254606 11.5008375,2.63316583 C11.0519263,1.10552764 9.65829146,0 8.01340034,0 Z M8.01340034,1.38023451 C9.26298157,1.38023451 10.2646566,2.38190955 10.2646566,3.63149079 C10.2646566,4.88107203 9.26298157,5.88274707 8.01340034,5.88274707 C6.7638191,5.88274707 5.76214405,4.88107203 5.76214405,3.63149079 C5.76214405,2.38190955 6.7638191,1.38023451 8.01340034,1.38023451 Z M2.36850921,2.65661642 C2.92127303,2.65661642 3.34338358,3.0921273 3.34338358,3.63149079 C3.34338358,4.18425461 2.9078727,4.60636516 2.36850921,4.60636516 C1.81574539,4.60636516 1.39363484,4.17085427 1.39363484,3.63149079 C1.39363484,3.0921273 1.82914573,2.65661642 2.36850921,2.65661642 Z M13.6314908,2.65661642 C14.1842546,2.65661642 14.6063652,3.0921273 14.6063652,3.63149079 C14.6063652,4.18425461 14.1708543,4.60636516 13.6314908,4.60636516 C13.078727,4.60636516 12.6566164,4.17085427 12.6566164,3.63149079 C12.6432161,3.0921273 13.078727,2.65661642 13.6314908,2.65661642 Z" transform="translate(0 3.4)"/><path fill="#000" d="M15.7682292,11.218652 C16.0567234,11.4968358 16.0650817,11.9562191 15.786898,12.2447133 C15.7807888,12.2510489 15.7745648,12.2572729 15.7682292,12.2633821 L12.1540755,15.7483699 L12.1540755,15.7483699 C11.7994837,16.090289 11.2245768,16.090289 10.869985,15.7483699 L9.22961516,14.2465096 C8.94157959,13.9827951 8.92186342,13.5355134 9.18557785,13.2474778 C9.19548577,13.2366561 9.2057281,13.2261454 9.21628998,13.215961 C9.52134302,12.9218103 10.0020244,12.913949 10.3165331,13.1979671 L11.5120303,14.277565 L11.5120303,14.277565 L14.6847455,11.2186185 C14.9870915,10.9271142 15.4659013,10.927129 15.7682292,11.218652 Z"/></g></svg>