<svg xmlns="http://www.w3.org/2000/svg" width="16" height="16" viewBox="0 0 16 16"><path d="M7.225,11.4333333 L8.80416667,11.4333333 L8.80416667,7.2 L7.225,7.2 L7.225,11.4333333 Z M7.99401042,5.76666667 C8.20355903,5.76666667 8.38125,5.69578993 8.52708333,5.55403646 C8.67291667,5.41228299 8.74583333,5.23654514 8.74583333,5.02682292 C8.74583333,4.81727431 8.6749566,4.63958333 8.53320312,4.49375 C8.39144965,4.34791667 8.21571181,4.275 8.00598958,4.275 C7.79644097,4.275 7.61875,4.34587674 7.47291667,4.48763021 C7.32708333,4.62938368 7.25416667,4.80512153 7.25416667,5.01484375 C7.25416667,5.22439236 7.3250434,5.40208333 7.46679687,5.54791667 C7.60855035,5.69375 7.78428819,5.76666667 7.99401042,5.76666667 Z M8.0046875,14.8666667 C7.05920139,14.8666667 6.16918403,14.6877604 5.33463542,14.3299479 C4.50008681,13.9721354 3.77013889,13.4805556 3.14479167,12.8552083 C2.51944444,12.2298611 2.02786458,11.5001302 1.67005208,10.6660156 C1.31223958,9.83190104 1.13333333,8.94071181 1.13333333,7.99244792 C1.13333333,7.04157986 1.3125434,6.15056424 1.67096354,5.31940104 C2.02938368,4.48823785 2.52174479,3.75915799 3.14804687,3.13216146 C3.77434896,2.50516493 4.50403646,2.01527778 5.33710937,1.6625 C6.17018229,1.30972222 7.06032986,1.13333333 8.00755208,1.13333333 C8.95842014,1.13333333 9.84939236,1.30972222 10.6804687,1.6625 C11.5115451,2.01527778 12.240625,2.50520833 12.8677083,3.13229167 C13.4947917,3.759375 13.9847222,4.48984375 14.3375,5.32369792 C14.6902778,6.15755208 14.8666667,7.04852431 14.8666667,7.99661458 C14.8666667,8.94470486 14.6902778,9.834375 14.3375,10.665625 C13.9847222,11.496875 13.4948351,12.225651 12.8678385,12.8519531 C12.240842,13.4782552 11.5105035,13.9706163 10.6768229,14.3290365 C9.84314236,14.6874566 8.95243056,14.8666667 8.0046875,14.8666667 Z M8,13.2875 C9.46892361,13.2875 10.7174045,12.7734809 11.7454427,11.7454427 C12.7734809,10.7174045 13.2875,9.46892361 13.2875,8 C13.2875,6.53107639 12.7734809,5.28259549 11.7454427,4.25455729 C10.7174045,3.2265191 9.46892361,2.7125 8,2.7125 C6.53107639,2.7125 5.28259549,3.2265191 4.25455729,4.25455729 C3.2265191,5.28259549 2.7125,6.53107639 2.7125,8 C2.7125,9.46892361 3.2265191,10.7174045 4.25455729,11.7454427 C5.28259549,12.7734809 6.53107639,13.2875 8,13.2875 Z"/></svg>