<svg xmlns="http://www.w3.org/2000/svg" width="16" height="16" viewBox="0 0 16 16"><path d="M8.01340034,0 C6.35510888,0 4.9480737,1.11892797 4.51256281,2.64321608 C4.13065327,1.83919598 3.31658291,1.27638191 2.36850921,1.27638191 C1.06532663,1.27638191 0,2.34170854 0,3.64489112 C0,4.9480737 1.06532663,6.01340034 2.36850921,6.01340034 C3.31658291,6.01340034 4.13065327,5.44723618 4.51256281,4.64656616 C4.9480737,6.17420436 6.35510888,7.28978224 8.01340034,7.28978224 C9.65829146,7.28978224 11.0519263,6.18425461 11.5008375,4.68341709 C11.8827471,5.47403685 12.6968174,6.02680067 13.6314908,6.02680067 C14.9346734,6.02680067 16,4.96147404 16,3.65829146 C16,2.35510888 14.9346734,1.28978224 13.6314908,1.28978224 C12.6968174,1.28978224 11.8961474,1.84254606 11.5008375,2.63316583 C11.0519263,1.10552764 9.65829146,0 8.01340034,0 Z M8.01340034,1.38023451 C9.26298157,1.38023451 10.2646566,2.38190955 10.2646566,3.63149079 C10.2646566,4.88107203 9.26298157,5.88274707 8.01340034,5.88274707 C6.7638191,5.88274707 5.76214405,4.88107203 5.76214405,3.63149079 C5.76214405,2.38190955 6.7638191,1.38023451 8.01340034,1.38023451 Z M2.36850921,2.65661642 C2.92127303,2.65661642 3.34338358,3.0921273 3.34338358,3.63149079 C3.34338358,4.18425461 2.9078727,4.60636516 2.36850921,4.60636516 C1.81574539,4.60636516 1.39363484,4.17085427 1.39363484,3.63149079 C1.39363484,3.0921273 1.82914573,2.65661642 2.36850921,2.65661642 Z M13.6314908,2.65661642 C14.1842546,2.65661642 14.6063652,3.0921273 14.6063652,3.63149079 C14.6063652,4.18425461 14.1708543,4.60636516 13.6314908,4.60636516 C13.078727,4.60636516 12.6566164,4.17085427 12.6566164,3.63149079 C12.6432161,3.0921273 13.078727,2.65661642 13.6314908,2.65661642 Z" opacity=".5" transform="translate(0 4.4)"/></svg>