<svg xmlns="http://www.w3.org/2000/svg" width="16" height="16" viewBox="0 0 16 16"><path d="M3.27916667,13.1208333 L3.27916667,11.5416667 L4.425,11.5416667 L4.62916667,11.7166667 C4.13888889,11.2236111 3.73194444,10.6663194 3.40833333,10.0447917 C3.08472222,9.42326389 2.92291667,8.73680556 2.92291667,7.98541667 C2.92291667,6.76597222 3.30555556,5.69236111 4.07083333,4.76458333 C4.83611111,3.83680556 5.79444444,3.25416667 6.94583333,3.01666667 L6.94583333,4.675 C6.23611111,4.90138889 5.65138889,5.3125 5.19166667,5.90833333 C4.73194444,6.50416667 4.50208333,7.19652778 4.50208333,7.98541667 C4.50208333,8.46041667 4.59583333,8.90625 4.78333333,9.32291667 C4.97083333,9.73958333 5.21388889,10.0944444 5.5125,10.3875 L5.39583333,10.2708333 L5.39583333,9.425 L6.975,9.425 L6.975,13.1208333 L3.27916667,13.1208333 Z M9.05416667,12.9833333 L9.05416667,11.325 C9.76388889,11.0986111 10.3486111,10.6875 10.8083333,10.0916667 C11.2680556,9.49583333 11.4979167,8.80347222 11.4979167,8.01458333 C11.4979167,7.53958333 11.4041667,7.09375 11.2166667,6.67708333 C11.0291667,6.26041667 10.7861111,5.90555556 10.4875,5.6125 L10.6041667,5.72916667 L10.6041667,6.575 L9.025,6.575 L9.025,2.87916667 L12.7208333,2.87916667 L12.7208333,4.45833333 L11.575,4.45833333 L11.3708333,4.28333333 C11.8902778,4.74722222 12.3045139,5.29722222 12.6135417,5.93333333 C12.9225694,6.56944444 13.0770833,7.26319444 13.0770833,8.01458333 C13.0770833,9.23402778 12.6944444,10.3076389 11.9291667,11.2354167 C11.1638889,12.1631944 10.2055556,12.7458333 9.05416667,12.9833333 Z"/></svg>