<svg xmlns="http://www.w3.org/2000/svg" width="16" height="16" viewBox="0 0 16 16"><defs><linearGradient id="a" x1="100%" x2="0%" y1="100%" y2="0%"><stop offset="0%" stop-color="#0082C9"/><stop offset="100%" stop-color="#1CAFFF"/></linearGradient></defs><g fill="none"><circle cx="7" cy="7" r="7" fill="url(#a)" fill-rule="evenodd"/><circle cx="12.5" cy="12.5" r="3.5" fill="#A37200" fill-rule="evenodd"/><path fill="#FFF" d="M12.5050485,15 C12.6313916,15 12.747055,14.9474434 12.8520388,14.8423301 C12.9571521,14.7370874 13.0097087,14.6212945 13.0097087,14.4949515 C13.0097087,14.3557929 12.9603236,14.2368932 12.8615534,14.1382524 C12.7627832,14.0397411 12.6438188,13.9904854 12.5046602,13.9904854 C12.3653722,13.9904854 12.2464725,14.0398058 12.1479612,14.1384466 C12.0493204,14.2372168 12,14.356246 12,14.495534 C12,14.6217476 12.0526214,14.737411 12.1578641,14.8425243 C12.2631068,14.9475081 12.378835,15 12.5050485,15 Z M12,13 L13.0097087,13 L13,10 L11.9902913,10 L12,13 Z"/><path fill="#FFF" d="M5.00837521,0 C3.97194305,0 3.09254606,0.699329983 2.82035176,1.65201005 C2.58165829,1.14949749 2.07286432,0.797738693 1.48031826,0.797738693 C0.665829146,0.797738693 0,1.46356784 0,2.27805695 C0,3.09254606 0.665829146,3.75837521 1.48031826,3.75837521 C2.07286432,3.75837521 2.58165829,3.40452261 2.82035176,2.90410385 C3.09254606,3.85887772 3.97194305,4.5561139 5.00837521,4.5561139 C6.03643216,4.5561139 6.90745394,3.86515913 7.18802345,2.92713568 C7.42671692,3.42127303 7.93551089,3.76675042 8.51968174,3.76675042 C9.33417085,3.76675042 10,3.10092127 10,2.28643216 C10,1.47194305 9.33417085,0.806113903 8.51968174,0.806113903 C7.93551089,0.806113903 7.43509213,1.15159129 7.18802345,1.64572864 C6.90745394,0.690954774 6.03643216,0 5.00837521,0 Z M5.00837521,0.862646566 C5.78936348,0.862646566 6.41541039,1.48869347 6.41541039,2.26968174 C6.41541039,3.05067002 5.78936348,3.67671692 5.00837521,3.67671692 C4.22738693,3.67671692 3.60134003,3.05067002 3.60134003,2.26968174 C3.60134003,1.48869347 4.22738693,0.862646566 5.00837521,0.862646566 Z M1.48031826,1.66038526 C1.82579564,1.66038526 2.08961474,1.93257956 2.08961474,2.26968174 C2.08961474,2.61515913 1.81742044,2.87897822 1.48031826,2.87897822 C1.13484087,2.87897822 0.871021776,2.60678392 0.871021776,2.26968174 C0.871021776,1.93257956 1.14321608,1.66038526 1.48031826,1.66038526 Z M8.51968174,1.66038526 C8.86515913,1.66038526 9.12897822,1.93257956 9.12897822,2.26968174 C9.12897822,2.61515913 8.85678392,2.87897822 8.51968174,2.87897822 C8.17420436,2.87897822 7.91038526,2.60678392 7.91038526,2.26968174 C7.90201005,1.93257956 8.17420436,1.66038526 8.51968174,1.66038526 Z" transform="translate(2 5)"/></g></svg>