<svg xmlns="http://www.w3.org/2000/svg" width="18" height="16" viewBox="0 0 18 16"><g fill="none" transform="translate(1)"><polygon fill="#A37200" fill-rule="evenodd" points="-.067 14.467 8 1 16.067 14.467"/><path fill="#FFF" d="M7.99585459,13 C8.27072704,13 8.50680272,12.9016485 8.70408163,12.7049456 C8.90136054,12.5082427 9,12.2707258 9,11.9923949 C9,11.7142791 8.90279549,11.4754179 8.70838648,11.2758112 C8.51397747,11.0762045 8.27923044,10.9764012 8.00414541,10.9764012 C7.72927296,10.9764012 7.49319728,11.0747526 7.29591837,11.2714556 C7.09863946,11.4681585 7,11.7056754 7,11.9840063 C7,12.2621221 7.09720451,12.5009833 7.29161352,12.70059 C7.48602253,12.9001967 7.72076956,13 7.99585459,13 Z M7,10.0471976 L9,10.0471976 L9,6 L7,6 L7,10.0471976 Z"/></g></svg>