<svg xmlns="http://www.w3.org/2000/svg" width="16" height="16" viewBox="0 0 16 16"><defs><linearGradient id="a" x1="100%" x2="0%" y1="100%" y2="0%"><stop offset="0%" stop-color="#0082C9"/><stop offset="100%" stop-color="#1CAFFF"/></linearGradient></defs><g fill="none"><path fill="url(#a)" fill-rule="evenodd" d="M8.00540865,16 C6.90384615,16 5.8669371,15.7915164 4.89468149,15.3745493 C3.92242588,14.9575821 3.0720653,14.3848658 2.34359976,13.6564002 C1.61513421,12.9279347 1.04241787,12.0778245 0.625450721,11.1060697 C0.208483574,10.1343149 0,9.09605369 0,7.99128606 C0,6.88311298 0.208834135,5.84460136 0.626502404,4.8757512 C1.04417067,3.90690104 1.61788862,3.05719151 2.34765625,2.3266226 C3.07742388,1.59605369 3.92753405,1.02564103 4.89798678,0.615384615 C5.8684395,0.205128205 6.90534856,1.13686838e-13 8.00871394,1.13686838e-13 C9.11688702,1.13686838e-13 10.1552985,0.205128205 11.1239483,0.615384615 C12.0925982,1.02564103 12.9423077,1.59615385 13.6730769,2.32692308 C14.4038462,3.05769231 14.974359,3.90900441 15.3846154,4.88085938 C15.7948718,5.85271434 16,6.89122596 16,7.99639423 C16,9.10136218 15.7948718,10.1378205 15.3846154,11.1057692 C14.974359,12.0737179 14.4039463,12.9225761 13.6733774,13.6523438 C12.9428085,14.3821114 12.0916967,14.9558293 11.1200421,15.3734976 C10.1483874,15.7911659 9.11017628,16 8.00540865,16 Z"/><path fill="#FFF" d="M7.88118812,13.5 L10.1782178,11.2535211 L7.92079208,9.00704225 L6.95049505,9.93661972 L7.54455446,10.5369718 C7.28052805,10.4724178 7.02310231,10.38527 6.77227723,10.2755282 C6.52145215,10.1657864 6.30363036,10.0205399 6.11881188,9.83978873 C5.8679868,9.59448357 5.67656766,9.31367371 5.54455446,8.99735915 C5.41254125,8.6810446 5.34653465,8.34859155 5.34653465,8 C5.34653465,7.80633803 5.36963696,7.60944836 5.41584158,7.40933099 C5.4620462,7.20921362 5.53135314,7.00586854 5.62376238,6.79929577 L4.65346535,5.85035211 C4.45544554,6.22476526 4.2970297,6.58949531 4.17821782,6.94454225 C4.05940594,7.2995892 4,7.65140845 4,8 C4,8.52934272 4.09570957,9.03286385 4.28712871,9.51056338 C4.47854785,9.98826291 4.76567657,10.4143192 5.14851485,10.7887324 C5.49174917,11.1244131 5.87128713,11.3794014 6.28712871,11.5536972 C6.7029703,11.727993 7.14851485,11.834507 7.62376238,11.8732394 L6.93069307,12.5704225 L7.88118812,13.5 Z M11.3465347,10.1496479 C11.5445545,9.77523474 11.7029703,9.41050469 11.8217822,9.05545775 C11.9405941,8.7004108 12,8.34859155 12,8 C12,7.47065728 11.8976898,6.97036385 11.6930693,6.49911972 C11.4884488,6.02787559 11.1947195,5.60504695 10.8118812,5.2306338 C10.4818482,4.90786385 10.1023102,4.65610329 9.67326733,4.47535211 C9.24422442,4.29460094 8.79867987,4.18485915 8.33663366,4.14612676 L9.06930693,3.42957746 L8.11881188,2.5 L5.82178218,4.74647887 L8.0990099,6.99295775 L9.06930693,6.06338028 L8.45544554,5.46302817 C8.75907591,5.51467136 9.01980198,5.59213615 9.23762376,5.69542254 C9.45544554,5.79870892 9.669967,5.9536385 9.88118812,6.16021127 C10.1320132,6.40551643 10.3234323,6.68632629 10.4554455,7.00264085 C10.5874587,7.3189554 10.6534653,7.65140845 10.6534653,8 C10.6534653,8.19366197 10.630363,8.39055164 10.5841584,8.59066901 C10.5379538,8.79078638 10.4686469,8.99413146 10.3762376,9.20070423 L11.3465347,10.1496479 Z"/></g></svg>