<svg xmlns="http://www.w3.org/2000/svg" width="16" height="16" viewBox="0 0 16 16"><g fill="none" fill-rule="evenodd"><path fill="#DB0606" d="M8,16 C6.90204327,16 5.8669371,15.7915164 4.89468149,15.3745493 C3.92242588,14.9575821 3.0720653,14.3848658 2.34359976,13.6564002 C1.61513421,12.9279347 1.04241787,12.0775741 0.625450721,11.1053185 C0.208483574,10.1330629 0,9.09795673 0,8 C0,6.88601763 0.208834135,5.84460136 0.626502404,4.8757512 C1.04417067,3.90690104 1.61788862,3.05719151 2.34765625,2.3266226 C3.07742388,1.59605369 3.92778446,1.02564103 4.89873798,0.615384615 C5.86969151,0.205128205 6.90344551,1.13686838e-13 8,1.13686838e-13 C9.11398237,1.13686838e-13 10.1552985,0.205128205 11.1239483,0.615384615 C12.0925982,1.02564103 12.9423077,1.59615385 13.6730769,2.32692308 C14.4038462,3.05769231 14.974359,3.90760216 15.3846154,4.87665264 C15.7948718,5.84570313 16,6.88731971 16,8.0015024 C16,9.1030649 15.7948718,10.1378205 15.3846154,11.1057692 C14.974359,12.0737179 14.4039463,12.9225761 13.6733774,13.6523438 C12.9428085,14.3821114 12.093099,14.9558293 11.1242488,15.3734976 C10.1553986,15.7911659 9.11398237,16 8,16 Z"/><polygon fill="#FFF" points="5.302 12 8 9.302 10.698 12 12 10.698 9.302 8 12 5.302 10.698 4 8 6.698 5.302 4 4 5.302 6.698 8 4 10.698"/></g></svg>