<svg xmlns="http://www.w3.org/2000/svg" xmlns:xlink="http://www.w3.org/1999/xlink" width="16" height="16" viewBox="0 0 16 16"><defs><linearGradient id="b" x1="100%" x2="0%" y1="100%" y2="0%"><stop offset="0%" stop-color="#0082C9"/><stop offset="100%" stop-color="#1CAFFF"/></linearGradient><path id="a" d="M8,0 C12.418278,0 16,3.581722 16,8 C16,8.31458661 15.9818421,8.6249322 15.9465171,8.93004589 C15.0310297,7.75499376 13.603684,7 12,7 C9.23857625,7 7,9.23857625 7,12 C7,13.603684 7.75499376,15.0310297 8.92892978,15.9459857 C8.6249322,15.9818421 8.31458661,16 8,16 C3.581722,16 0,12.418278 0,8 C0,3.581722 3.581722,0 8,0 Z"/></defs><g fill="none" fill-rule="evenodd"><g transform="translate(7.015 7.992)"><circle cx="4.985" cy="4.008" r="4" fill="#2D7B41"/><path fill="#FFF" fill-rule="nonzero" d="M7.48543689,2.66593914 C7.69632001,2.87682225 7.69632001,3.21873134 7.48543689,3.42961446 L4.93798523,5.97706612 L4.93798523,5.97706612 C4.68804969,6.22700167 4.2828241,6.22700167 4.03288855,5.97706612 L2.87703513,4.87958794 C2.66629166,4.67948787 2.65766349,4.34643337 2.85776356,4.1356899 C2.86089163,4.13239546 2.86406222,4.12914166 2.86727456,4.12592933 C3.08015146,3.91305242 3.42351757,3.90742643 3.64325424,4.11321504 L4.48543689,4.90193914 L4.48543689,4.90193914 L6.72173789,2.66591546 C6.93263792,2.45504159 7.27454995,2.45505219 7.48543689,2.66593914 Z"/></g><mask id="c" fill="#fff"><use xlink:href="#a"/></mask><use xlink:href="#a" fill="url(#b)"/><path fill="#FFF" fill-rule="nonzero" d="M8.01005025,5.48011725 C6.76633166,5.48011725 5.71105528,6.31931323 5.38442211,7.46252931 C5.09798995,6.85951424 4.48743719,6.43740368 3.77638191,6.43740368 C2.79899497,6.43740368 2,7.23639866 2,8.21378559 C2,9.19117253 2.79899497,9.9901675 3.77638191,9.9901675 C4.48743719,9.9901675 5.09798995,9.56554439 5.38442211,8.96504188 C5.71105528,10.1107705 6.76633166,10.9474539 8.01005025,10.9474539 C9.24371859,10.9474539 10.2889447,10.1183082 10.6256281,8.99268007 C10.9120603,9.58564489 11.5226131,10.0002178 12.2236181,10.0002178 C13.201005,10.0002178 14,9.20122278 14,8.22383585 C14,7.24644891 13.201005,6.44745394 12.2236181,6.44745394 C11.5226131,6.44745394 10.9221106,6.8620268 10.6256281,7.45499162 C10.2889447,6.30926298 9.24371859,5.48011725 8.01005025,5.48011725 Z M8.01005025,6.51529313 C8.94723618,6.51529313 9.69849246,7.26654941 9.69849246,8.20373534 C9.69849246,9.14092127 8.94723618,9.89217755 8.01005025,9.89217755 C7.07286432,9.89217755 6.32160804,9.14092127 6.32160804,8.20373534 C6.32160804,7.26654941 7.07286432,6.51529313 8.01005025,6.51529313 Z M3.77638191,7.47257956 C4.19095477,7.47257956 4.50753769,7.79921273 4.50753769,8.20373534 C4.50753769,8.61830821 4.18090452,8.93489112 3.77638191,8.93489112 C3.36180905,8.93489112 3.04522613,8.60825796 3.04522613,8.20373534 C3.04522613,7.79921273 3.3718593,7.47257956 3.77638191,7.47257956 Z M12.2236181,7.47257956 C12.638191,7.47257956 12.9547739,7.79921273 12.9547739,8.20373534 C12.9547739,8.61830821 12.6281407,8.93489112 12.2236181,8.93489112 C11.8090452,8.93489112 11.4924623,8.60825796 11.4924623,8.20373534 C11.4824121,7.79921273 11.8090452,7.47257956 12.2236181,7.47257956 Z" mask="url(#c)"/></g></svg>