<svg width="182" height="182" viewBox="0 0 182 182" fill="none" xmlns="http://www.w3.org/2000/svg">
<path fill-rule="evenodd" clip-rule="evenodd" d="M25.6389 0L156.361 0C165.276 0 168.509 0.928256 171.768 2.67133C175.028 4.4144 177.586 6.97228 179.329 10.2315C181.072 13.4908 182 16.7237 182 25.6389V156.361C182 165.276 181.072 168.509 179.329 171.768C177.586 175.028 175.028 177.586 171.768 179.329C168.509 181.072 165.276 182 156.361 182H25.6389C16.7237 182 13.4908 181.072 10.2315 179.329C6.97228 177.586 4.4144 175.028 2.67133 171.768C0.928256 168.509 0 165.276 0 156.361L0 25.6389C0 16.7237 0.928256 13.4908 2.67133 10.2315C4.4144 6.97228 6.97228 4.4144 10.2315 2.67133C13.4908 0.928256 16.7237 0 25.6389 0Z" fill="#041E42"/>
<path d="M34.1301 97.8698C30.2084 97.8698 27.0178 101.135 27.0178 105.148C27.0178 109.161 30.2084 112.426 34.1301 112.426C38.0518 112.426 41.2425 109.161 41.2425 105.148C41.2425 101.135 38.0518 97.8698 34.1301 97.8698ZM34.1301 110.552C31.218 110.552 28.8487 108.128 28.8487 105.148C28.8487 102.168 31.218 99.7434 34.1301 99.7434C37.0422 99.7434 39.4115 102.168 39.4115 105.148C39.4115 108.128 37.0422 110.552 34.1301 110.552ZM60.186 98.3869H59.8339V98.7472V107.416C59.8339 109.144 58.4598 110.55 56.7706 110.55C55.0815 110.55 53.7072 109.144 53.7072 107.416V98.7472V98.3869H53.3551H52.2283H51.8762V98.7472V107.416C51.8762 109.144 50.5021 110.55 48.8129 110.55C47.1238 110.55 45.7501 109.144 45.7501 107.416V98.7472V98.3869H45.3979H44.2712H43.9191V98.7472V107.416C43.9191 110.177 46.1143 112.424 48.8129 112.424C50.4526 112.424 51.903 111.592 52.7917 110.321C53.6804 111.592 55.1308 112.424 56.7706 112.424C59.4694 112.424 61.6649 110.177 61.6649 107.416V98.7472V98.3869H61.3128H60.186ZM71.5961 97.811C67.6742 97.811 64.4835 101.076 64.4835 105.089V111.489V111.849H64.8356H65.9623H66.3144V111.489V105.089C66.3144 102.109 68.6837 99.6846 71.5961 99.6846C74.5088 99.6846 76.8783 102.109 76.8783 105.089V111.489V111.849H77.2304H78.3572H78.7093V111.489V105.089C78.7093 101.076 75.5183 97.811 71.5961 97.811Z" fill="white"/>
<path d="M109.485 97.8688C105.563 97.8688 102.372 101.134 102.372 105.148C102.372 109.161 105.563 112.426 109.485 112.426C113.407 112.426 116.598 109.161 116.598 105.148C116.598 101.134 113.407 97.8688 109.485 97.8688ZM109.485 110.553C106.573 110.553 104.203 108.128 104.203 105.148C104.203 102.167 106.573 99.7425 109.485 99.7425C112.398 99.7425 114.767 102.167 114.767 105.148C114.767 108.128 112.398 110.553 109.485 110.553ZM131.598 98.3865H131.245V98.7469V105.148C131.245 108.127 128.876 110.552 125.963 110.552C123.051 110.552 120.682 108.127 120.682 105.148V98.7469V98.3865H120.329H119.203H118.851V98.7469V105.148C118.851 109.161 122.041 112.425 125.963 112.425C129.885 112.425 133.076 109.161 133.076 105.148V98.7469V98.3865H132.724H131.598ZM149.773 87.2156V86.8552H149.421H148.294H147.942V87.2156V97.8596L142.601 97.8657C138.679 97.8657 135.489 101.131 135.489 105.144C135.489 109.157 138.679 112.422 142.601 112.422H144.812C147.019 112.422 149.723 110.195 149.772 107.43L149.773 87.2156ZM147.941 107.396C147.912 109.019 146.154 110.548 144.812 110.548H142.601C139.689 110.548 137.32 108.124 137.32 105.144C137.32 102.164 139.689 99.7393 142.602 99.7393L147.946 99.733C147.955 101.476 147.971 105.723 147.941 107.396ZM97.6552 107.416V93.0775C97.0174 92.748 96.4059 92.3744 95.8242 91.9588V107.416C95.8242 110.177 98.0197 112.424 100.718 112.424H101.07V112.063V110.91V110.55H100.718C99.0293 110.55 97.6552 109.144 97.6552 107.416ZM83.1203 101.352C83.1203 98.5583 84.3457 96.0525 86.2733 94.364C85.6662 94.125 85.1029 93.7964 84.5978 93.394C82.5601 95.4089 81.2894 98.2306 81.2894 101.352C81.2894 107.458 86.1437 112.425 92.1107 112.425H92.4628V112.065V110.912V110.552H92.1107C87.1536 110.552 83.1203 106.425 83.1203 101.352Z" fill="white"/>
<path d="M83.498 65.5924C83.0693 64.8224 82.8211 63.9343 82.8211 62.9868C82.8211 60.0732 85.1377 57.7026 87.985 57.7026C89.0383 57.7026 90.0183 58.0286 90.8357 58.5849C90.2287 59.9841 89.8887 61.5309 89.8887 63.1578C89.8887 63.4576 89.9036 63.7533 89.9262 64.0473C89.7247 64.0369 89.5217 64.0315 89.3177 64.0315C87.2048 64.0315 85.2203 64.6005 83.498 65.5924ZM82.3597 86.0889C79.3665 83.874 77.4133 80.2737 77.4133 76.2134C77.4133 75.1756 77.5414 74.1679 77.7812 73.206C77.682 73.2028 77.5828 73.1982 77.4828 73.1982C72.0088 73.1982 67.5556 77.7555 67.5556 83.3571C67.5556 88.9585 72.0088 93.5158 77.4828 93.5158C79.569 93.5158 81.5059 92.8519 83.1056 91.7226C82.4456 90.6753 82.0608 89.4301 82.0608 88.094C82.0608 87.3959 82.1656 86.7225 82.3597 86.0889ZM82.8048 84.9936C83.6963 83.2488 85.3141 81.9522 87.2459 81.5285C87.4284 81.4878 87.6143 81.457 87.8022 81.4328C87.9879 81.4086 88.1755 81.3921 88.3653 81.3849C88.4512 81.3815 88.5371 81.3783 88.6239 81.3783C88.9284 81.3783 89.2278 81.4013 89.5214 81.4426C89.4295 80.7574 89.3783 80.0587 89.3783 79.3481C89.3783 75.934 90.4726 72.7777 92.3197 70.2234C91.9014 69.6902 91.5281 69.1186 91.2084 68.5124C91.1188 68.342 91.0335 68.1691 90.9521 67.9932C90.8707 67.8183 90.794 67.6401 90.7216 67.46C90.4335 66.7454 90.216 65.9939 90.0754 65.2147C89.8247 65.1969 89.5729 65.1845 89.318 65.1845C87.4526 65.1845 85.6966 65.6722 84.1648 66.5292C83.9955 66.624 83.8298 66.724 83.6659 66.8275C83.5045 66.9299 83.3462 67.0371 83.1904 67.1472C81.4428 68.3881 80.0707 70.143 79.2828 72.1974C79.2135 72.3781 79.1485 72.5612 79.0885 72.7462C79.0287 72.931 78.9733 73.1172 78.9228 73.3057C78.675 74.2328 78.54 75.2071 78.54 76.2131C78.54 79.7926 80.2155 82.9775 82.8048 84.9936ZM117.587 71.9858C119.023 71.2139 120.63 70.7339 122.334 70.6224C121.894 65.4344 117.629 61.3496 112.447 61.3496C112.249 61.3496 112.052 61.3571 111.857 61.3689C111.947 61.9517 111.996 62.549 111.996 63.1578C111.996 64.1021 111.881 65.0193 111.667 65.897C114.158 67.3118 116.218 69.4282 117.587 71.9858ZM91.1397 64.7593C91.1715 64.964 91.2109 65.166 91.2543 65.3664C91.3546 65.8273 91.4842 66.2764 91.6436 66.7116C91.7143 66.9048 91.7915 67.0939 91.8732 67.2815C91.9532 67.4651 92.0385 67.6462 92.129 67.824C92.3932 68.3446 92.6988 68.839 93.0436 69.3019C93.7366 68.4827 94.5104 67.7373 95.3557 67.0829C95.5151 66.9595 95.6779 66.8408 95.8422 66.724C96.0056 66.6076 96.1718 66.4952 96.3399 66.3853C98.6196 64.8954 101.315 64.0173 104.206 63.9793C104.271 63.9784 104.336 63.9741 104.402 63.9741C104.589 63.9741 104.776 63.9816 104.962 63.9885C105.219 63.9983 105.475 64.0147 105.728 64.0375C107.464 64.1938 109.114 64.6532 110.631 65.3638C110.785 64.6529 110.869 63.9156 110.869 63.1581C110.869 62.5948 110.822 62.0425 110.736 61.5038C110.705 61.3132 110.669 61.1244 110.627 60.9374C110.586 60.7488 110.54 60.5623 110.488 60.3784C109.304 56.1247 105.474 53 100.942 53C97.2033 53 93.9413 55.127 92.249 58.2601C92.1546 58.4344 92.0647 58.612 91.9802 58.7927C91.8929 58.9804 91.8121 59.1721 91.7357 59.3661C91.2726 60.5387 91.0152 61.818 91.0152 63.1581C91.0152 63.4976 91.0323 63.8331 91.0642 64.1641C91.0839 64.3641 91.1092 64.5624 91.1397 64.7593ZM135.853 81.9387C135.556 81.9387 135.266 81.9701 134.982 82.0168C134.997 82.2684 135.007 82.5212 135.007 82.7763C135.007 86.012 133.766 88.9542 131.748 91.138C132.746 92.3158 134.214 93.0652 135.853 93.0652C138.851 93.0652 141.29 90.5695 141.29 87.5022C141.29 84.4344 138.851 81.9387 135.853 81.9387ZM133.87 82.3278C133.862 82.1263 133.849 81.9263 133.83 81.7276C133.812 81.5293 133.789 81.333 133.761 81.1376C133.004 75.96 128.717 71.9498 123.495 71.7575C123.365 71.7526 123.234 71.7474 123.103 71.7474C123.045 71.7474 122.989 71.7509 122.932 71.7521C122.742 71.7549 122.554 71.7633 122.368 71.7763C120.831 71.8826 119.382 72.3196 118.088 73.0189C118.867 74.7761 119.333 76.7077 119.41 78.7402C119.418 78.9423 119.425 79.1443 119.425 79.3484C119.425 79.4081 119.421 79.4666 119.421 79.5257C119.418 79.7851 119.409 80.0425 119.394 80.2988C119.164 84.1239 117.564 87.5737 115.088 90.1406C117.062 92.3887 119.923 93.8058 123.103 93.8058C125.848 93.8058 128.355 92.7485 130.26 91.0132C130.405 90.8814 130.546 90.7468 130.683 90.6079C130.822 90.4678 130.957 90.3242 131.088 90.1761C132.822 88.218 133.881 85.6214 133.881 82.7772C133.881 82.6261 133.875 82.4768 133.87 82.3278ZM91.7104 87.5579C91.6033 87.3855 91.5 87.2111 91.3997 87.0344C90.636 85.6871 90.0664 84.2121 89.7304 82.6475C89.3729 82.5714 89.0028 82.531 88.6239 82.531C88.5836 82.531 88.5448 82.5362 88.5048 82.5371C88.3149 82.5411 88.1279 82.5555 87.9431 82.5791C87.7541 82.6034 87.5684 82.6382 87.3859 82.6815C85.7842 83.0654 84.4566 84.1741 83.747 85.6514C83.6634 85.8257 83.5887 86.005 83.5228 86.1889C83.4575 86.372 83.4014 86.5588 83.3546 86.7496C83.2496 87.1808 83.1876 87.6296 83.1876 88.0934C83.1876 89.1626 83.489 90.1591 84.0022 91.0074C84.1025 91.174 84.2107 91.3346 84.327 91.4882C84.4411 91.639 84.5617 91.7842 84.6901 91.9223C85.6811 92.988 87.0763 93.6564 88.6239 93.6564C90.9267 93.6564 92.8951 92.1809 93.6858 90.1069C93.0825 89.4779 92.5318 88.7968 92.0405 88.0701C91.927 87.902 91.8174 87.7308 91.7104 87.5579ZM118.253 80.449C118.271 80.2051 118.283 79.9604 118.289 79.7136C118.292 79.592 118.298 79.4703 118.298 79.3475C118.298 77.307 117.873 75.3676 117.114 73.6119C117.036 73.4329 116.956 73.2553 116.872 73.08C116.789 72.9082 116.705 72.7373 116.616 72.5695C115.388 70.2612 113.551 68.3409 111.329 67.0279C111.165 66.9304 110.999 66.8365 110.83 66.746C110.662 66.6557 110.493 66.5678 110.32 66.4845C108.615 65.6598 106.721 65.1819 104.724 65.1349C104.616 65.1326 104.509 65.1268 104.402 65.1268C104.268 65.1268 104.136 65.1332 104.004 65.1372C103.764 65.1438 103.527 65.1568 103.291 65.1764C101.101 65.3546 99.052 66.0515 97.2639 67.1518C97.0974 67.2541 96.9337 67.3614 96.7717 67.4706C96.6084 67.5807 96.4481 67.6952 96.2895 67.8122C95.3627 68.4968 94.5216 69.2941 93.785 70.1857C93.6622 70.335 93.5425 70.4875 93.4253 70.6417C93.3095 70.7942 93.1968 70.949 93.0873 71.1061C91.4642 73.4329 90.505 76.2768 90.505 79.3472C90.505 80.1575 90.5752 80.9511 90.7033 81.7248C90.74 81.947 90.7814 82.1684 90.8281 82.3875C90.8794 82.6261 90.9366 82.8625 90.9991 83.0974C91.3461 84.394 91.8656 85.6179 92.5354 86.7395C92.6366 86.9096 92.7419 87.0768 92.8501 87.2417C92.9588 87.4071 93.0718 87.57 93.187 87.7308C93.4467 88.0934 93.7228 88.4431 94.014 88.7786C94.1732 88.9617 94.3357 89.1407 94.5033 89.3151C94.6571 89.475 94.8146 89.631 94.9757 89.7835C97.4548 92.129 100.767 93.5662 104.401 93.5662C107.903 93.5662 111.104 92.2313 113.55 90.0363C113.691 89.91 113.829 89.7806 113.965 89.6483C114.105 89.5131 114.241 89.3753 114.375 89.2343C116.409 87.0866 117.787 84.2879 118.18 81.1756C118.21 80.9355 118.234 80.6934 118.253 80.449Z" fill="white"/>
</svg>
