<svg width="128" height="128" viewBox="0 0 128 128" fill="none" xmlns="http://www.w3.org/2000/svg">
<path d="M108 0H20C8.9543 0 0 8.9543 0 20V108C0 119.046 8.9543 128 20 128H108C119.046 128 128 119.046 128 108V20C128 8.9543 119.046 0 108 0Z" fill="#041E42"/>
<path d="M36.6215 49.953C36.04 48.9326 35.7035 47.7555 35.7035 46.4998C35.7035 42.6382 38.8453 39.4964 42.7069 39.4964C44.1353 39.4964 45.4644 39.9285 46.5731 40.6658C45.7498 42.5202 45.2887 44.5702 45.2887 46.7263C45.2887 47.1237 45.3089 47.5156 45.3395 47.9053C45.0663 47.8915 44.7909 47.8843 44.5143 47.8843C41.6487 47.8843 38.9572 48.6384 36.6215 49.953ZM35.0777 77.1178C31.0182 74.1822 28.3692 69.4107 28.3692 64.0294C28.3692 62.654 28.543 61.3185 28.8682 60.0436C28.7337 60.0394 28.5992 60.0333 28.4636 60.0333C21.0395 60.0333 15 66.0732 15 73.4973C15 80.9209 21.0395 86.9608 28.4636 86.9608C31.2929 86.9608 33.9198 86.081 36.0893 84.5842C35.1942 83.1963 34.6724 81.5459 34.6724 79.7752C34.6724 78.8499 34.8145 77.9575 35.0777 77.1178ZM35.6813 75.6661C36.8904 73.3536 39.0845 71.6352 41.7044 71.0736C41.952 71.0198 42.2041 70.9789 42.459 70.9468C42.7107 70.9147 42.9651 70.8929 43.2226 70.8834C43.3392 70.8788 43.4557 70.8746 43.5733 70.8746C43.9863 70.8746 44.3924 70.9052 44.7905 70.9598C44.666 70.0517 44.5964 69.1257 44.5964 68.184C44.5964 63.6592 46.0806 59.4759 48.5856 56.0907C48.0183 55.384 47.5121 54.6264 47.0785 53.823C46.957 53.5972 46.8412 53.368 46.7308 53.1349C46.6204 52.903 46.5165 52.667 46.4183 52.4282C46.0275 51.4811 45.7326 50.4852 45.542 49.4525C45.2019 49.4288 44.8604 49.4124 44.5147 49.4124C41.9848 49.4124 39.6033 50.0588 37.5258 51.1946C37.2962 51.3203 37.0715 51.4529 36.8492 51.59C36.6303 51.7256 36.4156 51.8677 36.2043 52.0137C33.8342 53.6583 31.9733 55.9841 30.9048 58.7069C30.8108 58.9464 30.7225 59.189 30.6412 59.4343C30.5602 59.6792 30.4849 59.9259 30.4165 60.1758C30.0803 61.4044 29.8973 62.6957 29.8973 64.029C29.8973 68.773 32.1697 72.9941 35.6813 75.6661ZM82.8535 58.4265C84.8011 57.4034 86.9806 56.7673 89.2919 56.6195C88.6944 49.7436 82.9108 44.3299 75.8826 44.3299C75.6136 44.3299 75.3473 44.3398 75.0822 44.3555C75.2052 45.1279 75.2713 45.9195 75.2713 46.7263C75.2713 47.9779 75.1151 49.1935 74.8243 50.3568C78.203 52.2318 80.9968 55.0367 82.8535 58.4265ZM46.9853 48.8489C47.0284 49.1202 47.0819 49.388 47.1408 49.6535C47.2768 50.2643 47.4525 50.8596 47.6687 51.4364C47.7646 51.6924 47.8693 51.943 47.9801 52.1917C48.0886 52.4351 48.2043 52.675 48.327 52.9107C48.6853 53.6006 49.0998 54.2558 49.5674 54.8694C50.5072 53.7836 51.5567 52.7957 52.7031 51.9285C52.9194 51.765 53.1402 51.6076 53.3629 51.4529C53.5845 51.2985 53.8099 51.1495 54.038 51.004C57.1298 49.0292 60.785 47.8656 64.7062 47.8151C64.7948 47.814 64.8827 47.8083 64.9713 47.8083C65.2262 47.8083 65.4787 47.8182 65.7316 47.8274C66.08 47.8404 66.4265 47.8621 66.7707 47.8923C69.124 48.0994 71.3627 48.7083 73.4196 49.65C73.6293 48.708 73.7432 47.7307 73.7432 46.7267C73.7432 45.9802 73.6794 45.2483 73.5617 44.5342C73.5201 44.2817 73.4708 44.0315 73.415 43.7836C73.3592 43.5337 73.2962 43.2865 73.2263 43.0428C71.6195 37.4051 66.4257 33.2639 60.2796 33.2639C55.2089 33.2639 50.785 36.0829 48.4897 40.2352C48.3617 40.4664 48.2399 40.7017 48.1253 40.9412C48.0068 41.1899 47.8972 41.444 47.7936 41.7011C47.1656 43.2552 46.8164 44.9507 46.8164 46.7267C46.8164 47.1768 46.8397 47.6215 46.8829 48.06C46.9096 48.3252 46.944 48.588 46.9853 48.8489ZM107.627 71.6173C107.223 71.6173 106.831 71.6589 106.445 71.7208C106.466 72.0543 106.48 72.3894 106.48 72.7275C106.48 77.0158 104.796 80.9152 102.059 83.8095C103.412 85.3704 105.404 86.3637 107.627 86.3637C111.692 86.3637 115 83.0561 115 78.9909C115 74.9249 111.692 71.6173 107.627 71.6173ZM104.937 72.133C104.926 71.866 104.909 71.6009 104.883 71.3376C104.859 71.0748 104.828 70.8146 104.789 70.5556C103.763 63.6936 97.9484 58.3787 90.8663 58.1239C90.6894 58.1174 90.5129 58.1105 90.3345 58.1105C90.2565 58.1105 90.1797 58.1151 90.1022 58.1166C89.8455 58.1205 89.5907 58.1315 89.3374 58.1487C87.2534 58.2897 85.2878 58.8689 83.5328 59.7957C84.5895 62.1245 85.2214 64.6845 85.3264 67.3782C85.3367 67.646 85.347 67.9139 85.347 68.1843C85.347 68.2634 85.3417 68.341 85.3409 68.4193C85.3367 68.7631 85.3249 69.1043 85.3039 69.4439C84.9929 74.5135 82.8222 79.0856 79.4641 82.4876C82.1418 85.4671 86.0225 87.3452 90.3345 87.3452C94.0574 87.3452 97.4578 85.9439 100.042 83.644C100.237 83.4694 100.429 83.291 100.615 83.1069C100.803 82.9212 100.986 82.731 101.164 82.5346C103.516 79.9395 104.951 76.4981 104.951 72.7286C104.951 72.5284 104.944 72.3305 104.937 72.133ZM47.7593 79.0646C47.6141 78.8362 47.4739 78.605 47.3379 78.3708C46.3022 76.5852 45.5297 74.6304 45.074 72.5567C44.5892 72.4558 44.0872 72.4024 43.5733 72.4024C43.5187 72.4024 43.466 72.4092 43.4117 72.4104C43.1542 72.4157 42.9006 72.4348 42.65 72.4662C42.3936 72.4982 42.1419 72.5445 41.8943 72.6018C39.7221 73.1106 37.9216 74.5799 36.9592 76.5378C36.8457 76.769 36.7445 77.0066 36.6551 77.2503C36.5665 77.4929 36.4905 77.7405 36.427 77.9934C36.2845 78.5649 36.2005 79.1597 36.2005 79.7744C36.2005 81.1914 36.6093 82.5121 37.3053 83.6364C37.4413 83.8572 37.588 84.07 37.7458 84.2736C37.9005 84.4734 38.0641 84.666 38.2383 84.849C39.5822 86.2613 41.4745 87.1473 43.5733 87.1473C46.6965 87.1473 49.3661 85.1916 50.4385 82.4429C49.6201 81.6093 48.8733 80.7066 48.207 79.7435C48.0531 79.5208 47.9044 79.2938 47.7593 79.0646ZM83.7566 69.6429C83.7815 69.3197 83.7979 68.9954 83.8063 68.6684C83.8105 68.5071 83.8185 68.3459 83.8185 68.1832C83.8185 65.4788 83.2417 62.9085 82.2117 60.5815C82.1066 60.3443 81.9985 60.1089 81.8843 59.8767C81.772 59.649 81.6578 59.4224 81.5367 59.2001C79.871 56.1408 77.3794 53.5957 74.3671 51.8555C74.1439 51.7264 73.9185 51.6018 73.6901 51.4819C73.4616 51.3623 73.232 51.2458 72.9978 51.1354C70.6854 50.0424 68.1166 49.409 65.408 49.3467C65.2625 49.3437 65.1177 49.336 64.9713 49.336C64.7903 49.336 64.6119 49.3444 64.4319 49.3498C64.1072 49.3586 63.7855 49.3757 63.4654 49.4017C60.4951 49.6378 57.7162 50.5616 55.291 52.0198C55.0653 52.1554 54.8433 52.2975 54.6236 52.4423C54.402 52.5883 54.1847 52.7399 53.9696 52.895C52.7127 53.8023 51.5719 54.8591 50.5729 56.0407C50.4064 56.2386 50.244 56.4407 50.0851 56.6451C49.9281 56.8471 49.7752 57.0523 49.6266 57.2605C47.4254 60.3443 46.1245 64.1134 46.1245 68.1828C46.1245 69.2567 46.2197 70.3084 46.3935 71.3338C46.4432 71.6284 46.4993 71.9218 46.5627 72.2121C46.6323 72.5284 46.7098 72.8417 46.7946 73.153C47.2653 74.8714 47.9698 76.4935 48.8782 77.98C49.0154 78.2054 49.1583 78.427 49.305 78.6455C49.4524 78.8648 49.6056 79.0807 49.7619 79.2938C50.1141 79.7744 50.4885 80.2378 50.8835 80.6825C51.0994 80.9251 51.3198 81.1623 51.5471 81.3935C51.7557 81.6055 51.9693 81.8122 52.1878 82.0143C55.55 85.1229 60.0416 87.0277 64.971 87.0277C69.72 87.0277 74.061 85.2585 77.379 82.3493C77.5704 82.182 77.7576 82.0105 77.9421 81.8351C78.1308 81.6559 78.3157 81.4733 78.4972 81.2865C81.2559 78.44 83.1248 74.7308 83.6573 70.606C83.6986 70.2878 83.7318 69.9669 83.7566 69.6429Z" fill="white"/>
</svg>
