<svg width="187" height="88" viewBox="0 0 187 88" fill="none" xmlns="http://www.w3.org/2000/svg">
<g clip-path="url(#clip0)">
<path d="M10.835 66.4643C8.69203 66.4643 6.5972 67.0964 4.81539 68.2807C3.03359 69.465 1.64484 71.1482 0.82477 73.1176C0.00469629 75.087 -0.209875 77.2541 0.208195 79.3448C0.626266 81.4355 1.6582 83.3559 3.1735 84.8632C4.6888 86.3705 6.61941 87.397 8.72119 87.8129C10.823 88.2288 13.0015 88.0153 14.9814 87.1996C16.9612 86.3838 18.6534 85.0024 19.8439 83.23C21.0345 81.4576 21.67 79.3738 21.67 77.2421C21.6673 74.3845 20.5249 71.6446 18.4935 69.6239C16.4622 67.6033 13.7078 66.4669 10.835 66.4643ZM10.835 85.2444C9.24687 85.2444 7.69443 84.776 6.37396 83.8983C5.0535 83.0206 4.02432 81.7732 3.41657 80.3137C2.80883 78.8542 2.64982 77.2482 2.95964 75.6989C3.26947 74.1495 4.03422 72.7263 5.15718 71.6092C6.28015 70.4922 7.71089 69.7315 9.26848 69.4233C10.8261 69.1151 12.4406 69.2733 13.9078 69.8778C15.375 70.4823 16.6291 71.5061 17.5114 72.8196C18.3937 74.1331 18.8646 75.6774 18.8646 77.2571C18.8593 79.372 18.011 81.3985 16.5057 82.8921C15.0004 84.3857 12.9611 85.2244 10.835 85.2244V85.2444Z" fill="white"/>
<path d="M50.5264 67.2081H49.9894V80.5818C49.9497 81.7861 49.4409 82.9279 48.5704 83.7658C47.6999 84.6037 46.5361 85.0722 45.3247 85.0722C44.1134 85.0722 42.9495 84.6037 42.0791 83.7658C41.2086 82.9279 40.6997 81.7861 40.66 80.5818V67.2081H37.8697V80.5818C37.8697 81.8131 37.378 82.994 36.5027 83.8646C35.6274 84.7353 34.4403 85.2244 33.2025 85.2244C31.9647 85.2244 30.7776 84.7353 29.9023 83.8646C29.027 82.994 28.5353 81.8131 28.5353 80.5818V67.2081H25.75V80.5818C25.748 82.1539 26.2489 83.6859 27.1802 84.9562C28.1114 86.2264 29.4248 87.169 30.9302 87.6476C32.4357 88.1262 34.0552 88.116 35.5544 87.6184C37.0536 87.1209 38.3549 86.1618 39.2699 84.88C40.1856 86.1597 41.4866 87.1167 42.9848 87.6129C44.4831 88.1091 46.1012 88.1187 47.6053 87.6403C49.1094 87.1619 50.4217 86.2204 51.3527 84.9516C52.2837 83.6829 52.7852 82.1526 52.7848 80.5818V67.2081H50.5314H50.5264Z" fill="white"/>
<path d="M67.9056 66.3544C65.0328 66.3571 62.2784 67.4934 60.247 69.5141C58.2156 71.5348 57.0732 74.2746 57.0706 77.1323V87.1464H59.8759V77.1323C59.8759 75.0093 60.7238 72.9733 62.2329 71.4721C63.7421 69.9709 65.7889 69.1275 67.9231 69.1275C70.0574 69.1275 72.1042 69.9709 73.6134 71.4721C75.1225 72.9733 75.9703 75.0093 75.9703 77.1323V87.1464H78.7606V77.1323C78.7566 74.2716 77.6111 71.5295 75.5756 69.5085C73.5402 67.4876 70.7814 66.3531 67.9056 66.3544Z" fill="white"/>
<path d="M125.619 66.4643C123.476 66.4643 121.381 67.0964 119.599 68.2807C117.817 69.465 116.428 71.1482 115.608 73.1176C114.788 75.087 114.574 77.2541 114.992 79.3448C115.41 81.4355 116.442 83.3559 117.957 84.8632C119.472 86.3705 121.403 87.397 123.505 87.8129C125.606 88.2288 127.785 88.0153 129.765 87.1996C131.745 86.3838 133.437 85.0024 134.627 83.23C135.818 81.4576 136.453 79.3738 136.453 77.2421C136.451 74.3845 135.308 71.6446 133.277 69.6239C131.246 67.6033 128.491 66.4669 125.619 66.4643ZM125.619 85.2444C124.03 85.2444 122.478 84.776 121.157 83.8983C119.837 83.0206 118.808 81.7732 118.2 80.3137C117.592 78.8542 117.433 77.2482 117.743 75.6989C118.053 74.1495 118.818 72.7263 119.941 71.6092C121.064 70.4922 122.494 69.7315 124.052 69.4233C125.61 69.1151 127.224 69.2733 128.691 69.8778C130.159 70.4823 131.413 71.5061 132.295 72.8196C133.177 74.1331 133.648 75.6774 133.648 77.2571C133.643 79.372 132.795 81.3985 131.289 82.8921C129.784 84.3857 127.745 85.2244 125.619 85.2244V85.2444Z" fill="white"/>
<path d="M159.313 67.2081H158.776V77.2221C158.776 79.3451 157.928 81.3812 156.419 82.8824C154.91 84.3836 152.863 85.2269 150.729 85.2269C148.594 85.2269 146.548 84.3836 145.038 82.8824C143.529 81.3812 142.681 79.3451 142.681 77.2221V67.2081H139.896V77.2221C139.896 80.0806 141.038 82.822 143.07 84.8432C145.102 86.8645 147.858 88 150.731 88C153.605 88 156.361 86.8645 158.393 84.8432C160.425 82.822 161.566 80.0806 161.566 77.2221V67.2081H159.313Z" fill="white"/>
<path d="M187 50.6694V50.1352H184.21V66.4293H176.075C173.201 66.4293 170.445 67.5648 168.413 69.5861C166.381 71.6073 165.24 74.3487 165.24 77.2072C165.24 80.0656 166.381 82.807 168.413 84.8283C170.445 86.8495 173.201 87.985 176.075 87.985H179.442C182.805 87.985 186.925 84.6853 187 80.5918V50.6694ZM184.21 80.5518C184.165 82.953 181.49 85.2194 179.442 85.2194H176.075C173.941 85.2194 171.895 84.3763 170.386 82.8756C168.878 81.3749 168.03 79.3395 168.03 77.2172C168.03 75.0948 168.878 73.0594 170.386 71.5587C171.895 70.058 173.941 69.2149 176.075 69.2149H184.22C184.23 71.7858 184.255 78.0758 184.21 80.5518Z" fill="white"/>
<path d="M107.607 80.5818V59.3456C106.638 58.8621 105.706 58.3099 104.817 57.6932V80.5818C104.819 82.548 105.606 84.4328 107.004 85.8226C108.402 87.2124 110.298 87.9937 112.274 87.995H112.806V85.2194H112.274C111.038 85.2181 109.852 84.7292 108.977 83.8599C108.102 82.9906 107.61 81.8118 107.607 80.5818Z" fill="white"/>
<path d="M85.4704 71.6011C85.4705 69.6332 85.9 67.6888 86.7291 65.9021C87.5583 64.1154 88.7675 62.5291 90.2731 61.2526C89.3554 60.9004 88.4947 60.416 87.7187 59.8148C85.3544 62.0832 83.7257 65.0027 83.0417 68.1985C82.3578 71.3944 82.6497 74.7206 83.8802 77.7502C85.1106 80.7797 87.2233 83.3743 89.9471 85.2007C92.6708 87.027 95.8811 88.0019 99.1659 88H99.7029V85.2244H99.1659C95.5349 85.2204 92.0537 83.7839 89.4861 81.2299C86.9186 78.6759 85.4744 75.213 85.4704 71.6011Z" fill="white"/>
<path d="M86.0375 18.6503C85.1621 17.1215 84.8307 15.3437 85.0969 13.6043C85.3632 11.8649 86.2115 10.2658 87.5047 9.06543C88.7979 7.8651 90.4603 7.13378 92.2231 6.98976C93.9859 6.84575 95.746 7.29746 97.2187 8.27184C96.2655 10.4044 95.7731 12.7122 95.7734 15.0461C95.7734 15.4904 95.7985 15.9297 95.8336 16.364C95.5225 16.364 95.2163 16.364 94.9052 16.364C91.8005 16.3524 88.7456 17.1401 86.0375 18.6503ZM84.3061 48.9921C81.3502 46.8777 79.1036 43.9262 77.8592 40.5227C76.6148 37.1192 76.4305 33.4217 77.3303 29.9124H76.8787C74.5117 29.9164 72.1788 30.4731 70.0676 31.5377C67.9564 32.6022 66.126 34.1449 64.7236 36.0416C63.3211 37.9383 62.3859 40.136 61.9932 42.4578C61.6005 44.7796 61.7612 47.1607 62.4624 49.4095C63.1636 51.6582 64.3858 53.7119 66.0305 55.405C67.6752 57.0982 69.6965 58.3837 71.9318 59.1579C74.1671 59.9322 76.5539 60.1737 78.9002 59.8629C81.2464 59.5522 83.4865 58.6978 85.4403 57.3687C84.6427 56.1418 84.1274 54.7546 83.9313 53.3066C83.7353 51.8585 83.8632 50.3852 84.3061 48.9921ZM84.9836 47.3696C85.6646 46.0736 86.6234 44.9422 87.7924 44.0555C88.9614 43.1687 90.3119 42.5482 91.7485 42.2378C92.0296 42.1779 92.3106 42.128 92.5967 42.093C92.8827 42.0581 93.1638 42.0331 93.4548 42.0231H93.8463C94.3046 42.0242 94.7623 42.0559 95.2163 42.118C94.3927 36.2465 95.9231 30.2883 99.4771 25.5294C98.838 24.738 98.2719 23.8909 97.7858 22.9984C97.6503 22.7438 97.5198 22.4992 97.3944 22.2296C97.2689 21.9601 97.1535 21.7055 97.0431 21.4409C96.5947 20.3699 96.2584 19.2557 96.0394 18.1162C95.658 18.0862 95.2715 18.0712 94.8851 18.0712C92.1417 18.0703 89.4422 18.757 87.0362 20.0681C86.7752 20.2128 86.5343 20.3576 86.2733 20.5124C86.0124 20.6671 85.7715 20.8219 85.5507 21.0116C82.8645 22.8657 80.7929 25.472 79.5987 28.4997C79.4933 28.7642 79.393 29.0388 79.3026 29.3134C79.2123 29.5879 79.127 29.8625 79.0517 30.142C78.6619 31.5436 78.4644 32.991 78.4645 34.4452C78.4765 36.9534 79.0695 39.425 80.1975 41.6682C81.3255 43.9114 82.9581 45.8658 84.9685 47.3796L84.9836 47.3696ZM137.969 28.1053C140.212 26.9412 142.676 26.2608 145.201 26.1085C144.868 22.3631 143.138 18.8771 140.352 16.3359C137.566 13.7946 133.925 12.3819 130.145 12.3753C129.844 12.3753 129.543 12.3753 129.247 12.4053C129.386 13.2805 129.456 14.165 129.458 15.0511C129.458 16.4192 129.29 17.7823 128.956 19.1096C132.752 21.2083 135.876 24.3298 137.969 28.1153V28.1053ZM97.6804 17.4023C97.7306 17.7068 97.7908 18.0064 97.8561 18.3059C98.0074 18.9842 98.2053 19.6513 98.4483 20.3027C98.5587 20.5872 98.6741 20.8668 98.7996 21.1464C98.925 21.4259 99.0505 21.6855 99.186 21.9501C99.588 22.7169 100.055 23.4484 100.581 24.1366C101.633 22.9216 102.81 21.8206 104.094 20.8518C104.335 20.6671 104.596 20.4924 104.837 20.3177C105.078 20.143 105.339 19.9782 105.595 19.8185C109.179 17.5383 113.335 16.305 117.589 16.2591H117.89C118.176 16.2591 118.457 16.2591 118.743 16.2591C119.135 16.2591 119.521 16.2991 119.907 16.329C122.493 16.5565 125.02 17.2217 127.38 18.2959C127.62 17.2224 127.742 16.1259 127.741 15.0261C127.742 14.2064 127.673 13.3882 127.536 12.58C127.49 12.2954 127.435 12.0159 127.375 11.7413C127.315 11.4668 127.24 11.1822 127.159 10.9126C126.34 8.04543 124.683 5.4851 122.398 3.55683C120.113 1.62857 117.303 0.419389 114.326 0.0828834C111.348 -0.253622 108.338 0.297731 105.676 1.66691C103.014 3.03609 100.822 5.16131 99.3767 7.77263C99.2312 8.03222 99.0957 8.27184 98.9652 8.56138C98.8347 8.85092 98.7092 9.12548 98.5938 9.41502C97.8707 11.2047 97.5042 13.1172 97.5148 15.0461C97.5148 15.5453 97.5449 16.0445 97.5901 16.5437C97.5951 16.8282 97.6353 17.1228 97.6804 17.4123V17.4023ZM165.797 42.8618C165.351 42.8659 164.906 42.906 164.467 42.9816C164.467 43.351 164.507 43.7254 164.507 44.1048C164.508 48.7126 162.729 53.1445 159.539 56.4851C160.446 57.5293 161.603 58.3299 162.902 58.8135C164.202 59.297 165.602 59.448 166.976 59.2526C168.349 59.0572 169.651 58.5216 170.763 57.695C171.874 56.8684 172.758 55.7774 173.335 54.522C173.911 53.2667 174.162 51.8874 174.063 50.5108C173.964 49.1342 173.519 47.8044 172.768 46.6435C172.018 45.4827 170.986 44.528 169.768 43.8672C168.55 43.2064 167.184 42.8607 165.797 42.8618ZM162.786 43.4409C162.786 43.1414 162.751 42.8468 162.725 42.5523C162.7 42.2578 162.66 41.9682 162.62 41.6787C162.045 37.9144 160.168 34.4674 157.313 31.9315C154.457 29.3956 150.802 27.9296 146.977 27.7858C146.782 27.7858 146.581 27.7858 146.38 27.7858H146.119C145.833 27.7858 145.547 27.7858 145.261 27.8207C142.981 27.9711 140.758 28.5971 138.737 29.6578C139.953 32.3305 140.635 35.2128 140.744 38.1443C140.744 38.4438 140.769 38.7434 140.769 39.0479C140.769 39.1377 140.769 39.2226 140.769 39.3075C140.769 39.6919 140.769 40.0762 140.724 40.4556C140.372 45.9298 138.036 51.0912 134.15 54.9825C137.046 58.1985 141.106 60.1406 145.439 60.383C149.772 60.6254 154.025 59.1482 157.265 56.2755C157.486 56.0808 157.702 55.8811 157.908 55.6764C158.113 55.4718 158.324 55.2571 158.525 55.0374C161.267 52.0401 162.784 48.1323 162.781 44.0799C162.791 43.8702 162.781 43.6506 162.756 43.4309L162.786 43.4409ZM98.5486 51.1836C98.388 50.929 98.2275 50.6844 98.0769 50.4098C96.8968 48.3903 96.0385 46.2011 95.5325 43.9201C94.9781 43.8034 94.413 43.7449 93.8463 43.7454H93.6656C93.3804 43.7503 93.0956 43.7703 92.8125 43.8053C92.5214 43.8452 92.2404 43.8952 91.9643 43.9601C90.7707 44.2398 89.6542 44.7794 88.6953 45.5398C87.7364 46.3003 86.9589 47.2628 86.4189 48.3581C86.2934 48.6177 86.178 48.8573 86.0776 49.1518C85.9772 49.4249 85.8918 49.7032 85.8217 49.9855C85.5502 51.0492 85.4991 52.1567 85.6717 53.2406C85.8442 54.3246 86.2368 55.3622 86.8254 56.2904C86.981 56.5351 87.1466 56.7897 87.3272 56.9993C87.5079 57.209 87.6836 57.4386 87.8793 57.6433C88.8387 58.6495 90.0384 59.398 91.3668 59.8191C92.6952 60.2402 94.109 60.3202 95.4768 60.0516C96.8446 59.7831 98.1219 59.1748 99.1899 58.2832C100.258 57.3917 101.082 56.2459 101.585 54.9526C100.663 54.028 99.8236 53.0259 99.0756 51.9573C98.8799 51.6828 98.7143 51.4332 98.5486 51.1736V51.1836ZM138.983 40.6603C139.013 40.2959 139.028 39.9365 139.038 39.567C139.038 39.3873 139.038 39.2076 139.038 39.0279C139.039 36.1046 138.423 33.2136 137.231 30.5414C137.116 30.2768 136.996 30.0172 136.865 29.7577C136.735 29.4981 136.609 29.2584 136.474 28.9989C134.602 25.584 131.825 22.7453 128.444 20.7919L127.681 20.3776C127.425 20.2428 127.179 20.113 126.903 19.9882C124.232 18.7353 121.325 18.055 118.372 17.9914H117.87C117.664 17.9914 117.463 17.9914 117.263 17.9914C116.896 17.9914 116.535 17.9914 116.179 18.0463C112.931 18.3023 109.788 19.3037 106.995 20.9716C106.739 21.1264 106.493 21.2811 106.247 21.4459C106.001 21.6106 105.745 21.7754 105.509 21.9451C104.101 22.9532 102.821 24.1265 101.695 25.4395C101.51 25.6592 101.324 25.8888 101.148 26.1135C100.973 26.3381 100.797 26.5727 100.646 26.8024C99.0234 29.0531 97.8667 31.6025 97.2438 34.3022C96.6208 37.0019 96.5441 39.7979 97.018 42.5273C97.0732 42.8568 97.1334 43.1863 97.2037 43.5258C97.2739 43.8652 97.3693 44.2296 97.4646 44.5741C97.9854 46.4804 98.7745 48.3038 99.8083 49.9905C99.9588 50.2401 100.119 50.4897 100.285 50.7343C100.451 50.9789 100.626 51.2335 100.787 51.4581C101.18 51.995 101.6 52.5115 102.047 53.0057C102.287 53.2802 102.548 53.5448 102.789 53.8044C103.03 54.064 103.266 54.2687 103.512 54.4983C107.345 58.0338 112.36 60.0292 117.587 60.0984C122.814 60.1675 127.88 58.3055 131.806 54.8727C132.022 54.683 132.233 54.4933 132.439 54.2986C132.644 54.1039 132.855 53.8943 133.061 53.6846C136.237 50.4321 138.27 46.2451 138.857 41.7486C138.918 41.3692 138.958 41.0048 138.983 40.6503V40.6603Z" fill="white"/>
</g>
<defs>
<clipPath id="clip0">
<rect width="187" height="88" fill="white"/>
</clipPath>
</defs>
</svg>
