<svg width="24" height="24" viewBox="0 0 24 24" fill="none" xmlns="http://www.w3.org/2000/svg">
<circle cx="12" cy="12" r="10" fill="white"/>
<path d="M12.0234 24C7.71094 24 3.77344 21.75 1.61719 18C-0.539062 14.2969 -0.539062 9.75 1.61719 6C3.77344 2.29688 7.71094 0 12.0234 0C16.2891 0 20.2266 2.29688 22.3828 6C24.5391 9.75 24.5391 14.2969 22.3828 18C20.2266 21.75 16.2891 24 12.0234 24ZM10.5234 9C10.5234 8.20312 9.82031 7.5 9.02344 7.5C8.17969 7.5 7.52344 8.20312 7.52344 9V15C7.52344 15.8438 8.17969 16.5 9.02344 16.5C9.82031 16.5 10.5234 15.8438 10.5234 15V9ZM16.5234 9C16.5234 8.20312 15.8203 7.5 15.0234 7.5C14.1797 7.5 13.5234 8.20312 13.5234 9V15C13.5234 15.8438 14.1797 16.5 15.0234 16.5C15.8203 16.5 16.5234 15.8438 16.5234 15V9Z" fill="#29294D"/>
</svg>
