<svg width="16" height="16" viewBox="0 0 16 16" fill="none" xmlns="http://www.w3.org/2000/svg">
<g clip-path="url(#clip0_238_257)">
<path d="M7.99989 0.444458C3.827 0.444458 0.444336 3.82712 0.444336 8.00001C0.444336 12.1729 3.827 15.5556 7.99989 15.5556C12.1728 15.5556 15.5554 12.1729 15.5554 8.00001C15.5554 3.82712 12.1728 0.444458 7.99989 0.444458ZM6.66656 10.6667C6.66656 11.0351 6.36834 11.3333 5.99989 11.3333C5.63145 11.3333 5.33322 11.0351 5.33322 10.6667V5.33335C5.33322 4.9649 5.63145 4.66668 5.99989 4.66668C6.36834 4.66668 6.66656 4.9649 6.66656 5.33335V10.6667ZM10.6666 10.6667C10.6666 11.0351 10.3683 11.3333 9.99989 11.3333C9.63145 11.3333 9.33322 11.0351 9.33322 10.6667V5.33335C9.33322 4.9649 9.63145 4.66668 9.99989 4.66668C10.3683 4.66668 10.6666 4.9649 10.6666 5.33335V10.6667Z" fill="#2F2F70"/>
</g>
<defs>
<clipPath id="clip0_238_257">
<rect width="16" height="16" fill="white"/>
</clipPath>
</defs>
</svg>
