<svg width="16" height="16" viewBox="0 0 16 16" fill="none" xmlns="http://www.w3.org/2000/svg">
<g clip-path="url(#clip0_238_2409)">
<path d="M14.4445 7.33312H8.66669V1.55534C8.66669 1.18734 8.36803 0.888672 8.00003 0.888672C7.63203 0.888672 7.33336 1.18734 7.33336 1.55534V7.33312H1.55558C1.18758 7.33312 0.888916 7.63178 0.888916 7.99978C0.888916 8.36778 1.18758 8.66645 1.55558 8.66645H7.33336V14.4442C7.33336 14.8122 7.63203 15.1109 8.00003 15.1109C8.36803 15.1109 8.66669 14.8122 8.66669 14.4442V8.66645H14.4445C14.8125 8.66645 15.1111 8.36778 15.1111 7.99978C15.1111 7.63178 14.8125 7.33312 14.4445 7.33312Z" fill="white"/>
</g>
<defs>
<clipPath id="clip0_238_2409">
<rect width="16" height="16" fill="white"/>
</clipPath>
</defs>
</svg>
