<svg width="24" height="24" viewBox="0 0 24 24" fill="none" xmlns="http://www.w3.org/2000/svg">
<path d="M12 0C5.37225 0 0 5.37225 0 12C0 18.6278 5.37225 24 12 24C18.6278 24 24 18.6278 24 12C24 5.37225 18.6278 0 12 0Z" fill="#2F2F70"/>
<path d="M9.15 9.17809C8.725 9.62809 8.4 10.1281 8.225 10.6781C8.075 11.1031 7.6 11.3281 7.2 11.1781C6.775 11.0281 6.55 10.5781 6.7 10.1531C6.975 9.37809 7.425 8.65309 8.025 8.05309C10.2 5.87809 13.725 5.87809 15.925 8.02809L16.975 6.97809C17.125 6.82809 17.4 6.77809 17.625 6.85309C17.85 6.95309 18 7.17809 18 7.40309V10.6031C18 10.9531 17.725 11.2031 17.4 11.2031H17.175H14.2C13.95 11.2031 13.725 11.0781 13.625 10.8531C13.55 10.6281 13.6 10.3531 13.775 10.1781L14.8 9.15309C13.225 7.62809 10.725 7.62809 9.15 9.17809ZM6 13.4031C6 13.0781 6.25 12.8031 6.6 12.8031H6.775H6.8H9.8C10.025 12.8031 10.25 12.9531 10.35 13.1781C10.425 13.4031 10.375 13.6781 10.225 13.8281L9.175 14.8781C10.75 16.4031 13.275 16.4031 14.825 14.8531C15.25 14.4031 15.575 13.9031 15.775 13.3531C15.9 12.9281 16.375 12.7031 16.775 12.8531C17.2 13.0031 17.425 13.4531 17.275 13.8781C17 14.6531 16.55 15.3531 15.95 15.9781C13.775 18.1531 10.25 18.1531 8.05 16.0031L7.025 17.0281C6.85 17.2031 6.575 17.2531 6.35 17.1781C6.125 17.0781 6 16.8531 6 16.6031V13.6281V13.6031V13.4031Z" fill="white"/>
</svg>
