<svg width="238" height="28" viewBox="0 0 157 16" fill="none" xmlns="http://www.w3.org/2000/svg">
<path d="M155.49 15.9999C154.989 15.9999 154.611 15.8559 154.357 15.5679C154.102 15.2799 153.974 14.8587 153.974 14.3045V10.4424H152.97V9.15288H153.974V7.09092L155.426 6.3905V9.15288H156.968V10.4424H155.426V13.9838C155.426 14.2238 155.471 14.4027 155.562 14.5205C155.657 14.634 155.801 14.6907 155.996 14.6907C156.311 14.6907 156.655 14.586 157.026 14.3765L156.864 15.6988C156.661 15.7992 156.447 15.8734 156.223 15.9214C155.998 15.9737 155.754 15.9999 155.49 15.9999Z" fill="#FF8800"/>
<path d="M145.877 15.8429L148.223 12.3735L146.039 9.15293H147.698L148.663 10.5799C148.737 10.6803 148.808 10.7872 148.877 10.9007C148.951 11.0142 149.009 11.1189 149.052 11.2149C149.108 11.1145 149.171 11.0098 149.24 10.9007C149.309 10.7872 149.378 10.6803 149.447 10.5799L150.413 9.15293H152.078L149.888 12.3735L152.24 15.8429H150.575L149.441 14.1671C149.372 14.0624 149.303 13.9555 149.234 13.8464C149.169 13.7329 149.108 13.6282 149.052 13.5321C149.009 13.6282 148.951 13.7329 148.877 13.8464C148.804 13.9555 148.733 14.0624 148.663 14.1671L147.536 15.8429H145.877Z" fill="#FF8800"/>
<path d="M142.353 15.9999C141.727 15.9999 141.187 15.8537 140.734 15.5614C140.28 15.269 139.932 14.8609 139.69 14.3373C139.448 13.8092 139.328 13.1939 139.328 12.4913C139.328 11.7625 139.453 11.1385 139.703 10.6192C139.954 10.0955 140.306 9.69403 140.759 9.41474C141.213 9.13545 141.744 8.9958 142.353 8.9958C142.876 8.9958 143.351 9.10926 143.779 9.33619C144.211 9.56311 144.554 9.91223 144.809 10.3835C145.064 10.8505 145.191 11.4462 145.191 12.1706C145.191 12.284 145.189 12.4193 145.185 12.5764C145.181 12.7292 145.168 12.8841 145.146 13.0412H140.772C140.798 13.3816 140.878 13.6783 141.012 13.9314C141.15 14.1845 141.334 14.3831 141.563 14.5271C141.792 14.6667 142.062 14.7366 142.373 14.7366C142.675 14.7366 142.943 14.6864 143.176 14.586C143.41 14.4813 143.632 14.3155 143.844 14.0885L144.686 14.9853C144.414 15.2864 144.081 15.5308 143.688 15.7185C143.299 15.9061 142.855 15.9999 142.353 15.9999ZM140.779 11.8564H143.766C143.753 11.5378 143.688 11.2585 143.572 11.0185C143.459 10.7785 143.299 10.593 143.092 10.4621C142.885 10.3268 142.632 10.2592 142.334 10.2592C141.919 10.2592 141.565 10.3901 141.271 10.6519C140.982 10.9138 140.818 11.3152 140.779 11.8564Z" fill="#FF8800"/>
<path d="M130.518 15.8428V6.67852H131.943L135.662 12.452C135.719 12.5393 135.781 12.6462 135.85 12.7728C135.924 12.895 135.986 13.015 136.038 13.1328C136.034 13.0281 136.027 12.9102 136.019 12.7793C136.014 12.6484 136.012 12.5393 136.012 12.452V6.67852H137.503V15.8428H136.135L132.345 10.0431C132.293 9.95585 132.23 9.84893 132.157 9.72238C132.088 9.59582 132.025 9.48018 131.969 9.37544C131.986 9.48018 131.995 9.59364 131.995 9.71583C131.999 9.83366 132.001 9.94276 132.001 10.0431V15.8428H130.518Z" fill="#FF8800"/>
<path d="M122.763 15.9999C122.137 15.9999 121.597 15.8537 121.143 15.5614C120.69 15.269 120.342 14.8609 120.1 14.3373C119.858 13.8092 119.737 13.1939 119.737 12.4913C119.737 11.7625 119.862 11.1385 120.113 10.6192C120.364 10.0955 120.716 9.69403 121.169 9.41474C121.623 9.13545 122.154 8.9958 122.763 8.9958C123.286 8.9958 123.761 9.10926 124.189 9.33619C124.621 9.56311 124.964 9.91223 125.219 10.3835C125.474 10.8505 125.601 11.4462 125.601 12.1706C125.601 12.284 125.599 12.4193 125.595 12.5764C125.59 12.7292 125.577 12.8841 125.556 13.0412H121.182C121.208 13.3816 121.288 13.6783 121.422 13.9314C121.56 14.1845 121.744 14.3831 121.973 14.5271C122.202 14.6667 122.472 14.7366 122.783 14.7366C123.085 14.7366 123.353 14.6864 123.586 14.586C123.819 14.4813 124.042 14.3155 124.253 14.0885L125.096 14.9853C124.824 15.2864 124.491 15.5308 124.098 15.7185C123.709 15.9061 123.264 15.9999 122.763 15.9999ZM121.189 11.8564H124.176C124.163 11.5378 124.098 11.2585 123.981 11.0185C123.869 10.7785 123.709 10.593 123.502 10.4621C123.294 10.3268 123.042 10.2592 122.744 10.2592C122.329 10.2592 121.975 10.3901 121.681 10.6519C121.392 10.9138 121.227 11.3152 121.189 11.8564Z" fill="#FF8800"/>
<path d="M114.959 15.8429L112.536 9.15293H114.033L115.484 13.2899C115.519 13.3903 115.553 13.4951 115.588 13.6042C115.622 13.7133 115.652 13.8245 115.678 13.938C115.709 13.8245 115.739 13.7154 115.769 13.6107C115.804 13.5016 115.84 13.3947 115.879 13.2899L117.311 9.15293H118.801L116.378 15.8429H114.959Z" fill="#FF8800"/>
<path d="M109.66 15.8428V9.1529H111.111V15.8428H109.66ZM110.379 8.1841C110.141 8.1841 109.938 8.099 109.77 7.92881C109.601 7.75861 109.517 7.55351 109.517 7.31349C109.517 7.06911 109.599 6.86182 109.763 6.69163C109.932 6.51707 110.137 6.42979 110.379 6.42979C110.63 6.42979 110.837 6.51489 111.001 6.68508C111.17 6.85528 111.254 7.06475 111.254 7.31349C111.254 7.55787 111.17 7.76516 111.001 7.93535C110.833 8.10118 110.625 8.1841 110.379 8.1841Z" fill="#FF8800"/>
<path d="M104.433 15.8428V9.1529H105.884V9.92532C106.014 9.6373 106.208 9.41038 106.467 9.24455C106.731 9.07872 107.02 8.9958 107.336 8.9958C107.78 8.9958 108.156 9.14199 108.463 9.43438L108.262 10.7894C108.098 10.6585 107.934 10.5646 107.77 10.5079C107.606 10.4512 107.424 10.4228 107.225 10.4228C106.949 10.4228 106.711 10.4926 106.513 10.6323C106.314 10.7719 106.158 10.9705 106.046 11.228C105.938 11.4854 105.884 11.7909 105.884 12.1444V15.8428H104.433Z" fill="#FF8800"/>
<path d="M95.4247 15.8428V6.67852H98.2886C99.0748 6.67852 99.74 6.80944 100.284 7.07128C100.833 7.32875 101.276 7.67787 101.613 8.11863C101.954 8.55502 102.202 9.04596 102.358 9.59146C102.513 10.137 102.591 10.6934 102.591 11.2607C102.591 11.7843 102.518 12.3146 102.371 12.8513C102.224 13.3881 101.984 13.8834 101.651 14.3373C101.319 14.7911 100.874 15.1555 100.317 15.4304C99.7595 15.7053 99.0662 15.8428 98.2368 15.8428H95.4247ZM96.9215 14.4158H98.3988C98.8956 14.4158 99.3124 14.3242 99.6493 14.1409C99.9863 13.9532 100.256 13.7045 100.459 13.3946C100.667 13.0848 100.813 12.7444 100.9 12.3735C100.991 12.0025 101.036 11.6316 101.036 11.2607C101.036 10.8679 100.988 10.4839 100.893 10.1086C100.798 9.72892 100.649 9.38853 100.446 9.08742C100.248 8.78631 99.9906 8.54629 99.6753 8.36737C99.3599 8.18409 98.9819 8.09244 98.5413 8.09244H96.9215V14.4158Z" fill="#FF8800"/>
<path d="M91.7906 15.8428V9.1529H93.242V15.8428H91.7906ZM92.5098 8.1841C92.2722 8.1841 92.0692 8.099 91.9007 7.92881C91.7323 7.75861 91.648 7.55351 91.648 7.31349C91.648 7.06911 91.7301 6.86182 91.8943 6.69163C92.0627 6.51707 92.2679 6.42979 92.5098 6.42979C92.7604 6.42979 92.9677 6.51489 93.1318 6.68508C93.3003 6.85528 93.3845 7.06475 93.3845 7.31349C93.3845 7.55787 93.3003 7.76516 93.1318 7.93535C92.9634 8.10118 92.756 8.1841 92.5098 8.1841Z" fill="#FF8800"/>
<path d="M82.6303 15.8428V6.67852H84.1271V10.3901H88.1055V6.67852H89.6022V15.8428H88.1055V11.8236H84.1271V15.8428H82.6303Z" fill="#FF8800"/>
<path d="M8.05128 2.23095C6.78071 2.23095 5.75092 1.23181 5.75092 7.05719e-05H13.8023C15.0728 7.05719e-05 16.1026 0.998676 16.1026 2.23095L16.1024 10.0388C14.8319 10.0388 13.802 9.04 13.802 7.80812L13.8023 3.3463C13.8023 2.73038 13.2872 2.23095 12.6521 2.23095H8.05128Z" fill="#FF8800"/>
<path d="M11.5018 5.57725C11.5018 4.96122 10.9868 4.46168 10.3517 4.46168H1.1501C0.514846 4.46168 0 4.96122 0 5.57725V14.5005C0 15.1165 0.514846 15.616 1.1501 15.616H10.3517C10.9868 15.616 11.5018 15.1165 11.5018 14.5005V5.57725Z" fill="#FF8800"/>
<path d="M27.5675 14.5292C26.9295 15.6998 25.2739 15.7836 23.9977 15.7836C23.0146 15.7836 22.0317 15.7165 21.4626 15.6665C20.7557 15.5995 20.5659 15.4324 20.5659 15.0812V14.5125C20.5659 13.9103 20.6695 13.7097 21.2212 13.7097C22.2388 13.7097 22.756 13.8434 24.2564 13.8434C25.4118 13.8434 25.636 13.7599 25.636 12.7564C25.636 11.6193 25.6189 11.5357 25.0324 11.3015C24.2909 11.0004 23.5839 10.7161 22.8596 10.4152C21.066 9.66256 20.704 9.32809 20.704 7.33811C20.704 6.06692 20.9454 5.08019 22.4112 4.61195C23.0493 4.41124 23.7908 4.34443 24.8083 4.34443C25.6017 4.34443 26.0154 4.37777 26.7571 4.42805C27.4641 4.47827 27.6711 4.64538 27.6711 5.01333V5.56529C27.6711 6.1672 27.5502 6.36802 26.9985 6.36802C26.3949 6.36802 26.3431 6.26767 23.8944 6.26767C22.9286 6.26767 22.963 6.66895 22.963 7.48852C22.963 8.09061 22.9803 8.22443 23.5666 8.4752C24.0322 8.67594 24.5151 8.85984 24.9807 9.06047C27.3779 10.0472 27.8953 10.2813 27.8953 12.1878C27.8953 12.8234 27.878 13.9438 27.5675 14.5292Z" fill="#FF8800"/>
<path d="M37.0103 6.38477C36.0272 6.38477 35.217 6.36803 34.4753 6.35122V14.8971C34.4753 15.3989 34.2339 15.6331 33.7338 15.6331H32.9923C32.423 15.6331 32.1644 15.4824 32.1644 14.8971V6.35122C31.4228 6.36803 30.5951 6.38477 29.6121 6.38477C28.9051 6.38477 28.8878 5.94995 28.8878 5.59878V5.14701C28.8878 4.57847 29.2155 4.46149 29.6121 4.46149H37.0103C37.4071 4.46149 37.7519 4.57847 37.7519 5.14701V5.59878C37.7519 5.94995 37.7174 6.38477 37.0103 6.38477Z" fill="#FF8800"/>
<path d="M44.0902 6.5018C43.8145 6.36803 43.073 6.36803 42.7624 6.36803C42.2105 6.36803 41.7622 6.38477 41.2794 6.40135V9.66257H43.2281C43.8487 9.66257 44.1593 9.56222 44.3488 9.32809C44.5042 9.12735 44.5558 8.85985 44.5558 8.24108C44.5558 7.5554 44.4869 6.70243 44.0902 6.5018ZM46.8323 15.6331H45.7974C45.3664 15.6331 45.0731 15.5828 44.7458 15.1815L41.814 11.5691H41.2794V14.8971C41.2794 15.3989 41.0552 15.6331 40.5551 15.6331H39.8134C39.2443 15.6331 38.9683 15.4824 38.9683 14.8971V5.14701C38.9683 4.49487 39.4339 4.46149 39.8134 4.46149H43.0039C44.8144 4.46149 45.2804 4.57847 45.9529 5.24746C46.5908 5.86624 46.8495 6.93667 46.8495 8.37485C46.8495 9.74611 46.4358 10.5992 45.7115 11.0841C45.4009 11.2848 45.0389 11.4185 44.5558 11.4855L47.1945 14.5962C47.5393 14.9974 47.6083 15.6331 46.8323 15.6331Z" fill="#FF8800"/>
<path d="M53.4848 7.2879L52.1053 11.2346C52.5018 11.2346 52.9677 11.2178 53.4678 11.2178C54.0022 11.2178 54.3645 11.2346 54.8646 11.2346L53.4848 7.2879ZM58.0377 15.6331H57.0892C56.5546 15.6331 56.3994 15.3821 56.2789 15.0478L55.5201 12.9571C54.7786 12.9738 54.2263 12.9738 53.4678 12.9738C52.7432 12.9738 52.1053 12.9738 51.4845 12.9571L50.7945 14.9307C50.6393 15.3821 50.5015 15.6331 49.915 15.6331H49.1218C48.5356 15.6331 48.4492 15.4824 48.4492 15.2316C48.4492 15.1312 48.5011 14.9307 48.587 14.7133L52.1225 5.14701C52.3121 4.62864 52.5018 4.39457 53.14 4.39457H53.847C54.4853 4.39457 54.6749 4.62864 54.8646 5.13037L58.5897 14.8804C58.6242 14.9642 58.6587 15.0478 58.6587 15.1312C58.6587 15.5495 58.3136 15.6331 58.0377 15.6331Z" fill="#FF8800"/>
<path d="M65.832 6.38477C64.849 6.38477 64.0384 6.36803 63.2968 6.35122V14.8971C63.2968 15.3989 63.0554 15.6331 62.5553 15.6331H61.8138C61.2445 15.6331 60.9859 15.4824 60.9859 14.8971V6.35122C60.2443 6.36803 59.4167 6.38477 58.4338 6.38477C57.7267 6.38477 57.7095 5.94995 57.7095 5.59878V5.14701C57.7095 4.57847 58.0368 4.46149 58.4338 4.46149H65.832C66.2286 4.46149 66.5737 4.57847 66.5737 5.14701V5.59878C66.5737 5.94995 66.539 6.38477 65.832 6.38477Z" fill="#FF8800"/>
<path d="M74.099 7.17083C73.7197 6.3849 72.9263 6.10054 71.9606 6.10054C70.9949 6.10054 70.2016 6.3849 69.8222 7.17083C69.4946 7.87325 69.4427 9.21108 69.4427 10.064C69.4427 10.9168 69.4946 12.2381 69.8222 12.9405C70.2016 13.7264 70.9949 14.0275 71.9606 14.0275C72.9263 14.0275 73.7197 13.7264 74.099 12.9405C74.4268 12.2381 74.4785 10.9168 74.4785 10.064C74.4785 9.21108 74.4268 7.87325 74.099 7.17083ZM75.5822 14.5794C74.7543 15.5326 73.5989 15.9841 71.9606 15.9841C70.3222 15.9841 69.1323 15.5326 68.3219 14.5794C67.3043 13.4087 67.0457 11.7866 67.0457 10.064C67.0457 8.34156 67.3043 6.71938 68.3219 5.54858C69.1668 4.5786 70.3567 4.14366 71.9606 4.14366C73.5644 4.14366 74.737 4.5786 75.5822 5.54858C76.5996 6.71938 76.8756 8.34156 76.8756 10.064C76.8756 11.7866 76.5996 13.4087 75.5822 14.5794Z" fill="#FF8800"/>
</svg>
