<svg width="32" height="32" viewBox="0 0 32 32" fill="none" xmlns="http://www.w3.org/2000/svg">
<g clip-path="url(#clip0_27_10038)">
<path d="M15.9998 0.888916C7.65401 0.888916 0.888672 7.65425 0.888672 16C0.888672 24.3458 7.65401 31.1111 15.9998 31.1111C24.3456 31.1111 31.1109 24.3458 31.1109 16C31.1109 7.65425 24.3456 0.888916 15.9998 0.888916ZM15.9998 6.22225C18.7002 6.22225 20.8887 8.41069 20.8887 11.1111C20.8887 13.8116 18.7002 16 15.9998 16C13.2993 16 11.1109 13.8116 11.1109 11.1111C11.1109 8.41069 13.2993 6.22225 15.9998 6.22225ZM15.9998 28.4445C11.8024 28.4445 8.09223 26.3502 5.83712 23.1582C7.33312 20.4302 10.3038 18.6667 15.9998 18.6667C21.6958 18.6667 24.6664 20.4302 26.1624 23.1582C23.9073 26.3502 20.1962 28.4445 15.9998 28.4445Z" fill="#2F2F70"/>
</g>
<defs>
<clipPath id="clip0_27_10038">
<rect width="32" height="32" fill="white"/>
</clipPath>
</defs>
</svg>
