<svg width="58" height="58" viewBox="0 0 58 58" fill="none" xmlns="http://www.w3.org/2000/svg">
<path d="M48.3335 35.4446V48.3335C48.3335 51.8876 45.4432 54.778 41.8891 54.778H9.66686C6.11275 54.778 3.22241 51.8876 3.22241 48.3335V16.1113C3.22241 12.5572 6.11275 9.66686 9.66686 9.66686H22.5557C24.3344 9.66686 25.778 11.1104 25.778 12.8891C25.778 14.6677 24.3344 16.1113 22.5557 16.1113H9.66686V48.3335H41.8891V35.4446C41.8891 33.666 43.3326 32.2224 45.1113 32.2224C46.89 32.2224 48.3335 33.666 48.3335 35.4446ZM51.5557 3.22241H35.4446C33.666 3.22241 32.2224 4.66597 32.2224 6.44463C32.2224 8.2233 33.666 9.66686 35.4446 9.66686H43.7773L21.8887 31.5554C20.6305 32.8137 20.6305 34.8534 21.8887 36.1132C22.5187 36.7416 23.342 37.0574 24.1669 37.0574C24.9917 37.0574 25.815 36.7432 26.445 36.1132L48.3335 14.2231V22.5557C48.3335 24.3344 49.7771 25.778 51.5557 25.778C53.3344 25.778 54.778 24.3344 54.778 22.5557V6.44463C54.778 4.66597 53.3344 3.22241 51.5557 3.22241Z" fill="#2F2F70"/>
</svg>
