<svg width="37" height="43" viewBox="0 0 37 43" fill="none" xmlns="http://www.w3.org/2000/svg">
<path d="M28.8236 3.69165L22.4642 18.4573H31.7142C32.7879 18.4573 33.779 19.1135 34.1919 20.0979C34.5223 21.1643 34.2745 22.3127 33.4486 23.051L12.3057 41.426C11.3147 42.1643 9.99325 42.2463 9.00218 41.5081C8.01111 40.8518 7.59816 39.5393 8.0937 38.3909L14.4531 23.6252H5.28566C4.12941 23.6252 3.13834 22.969 2.80798 21.9846C2.39504 20.9182 2.6428 19.7698 3.4687 19.0315L24.6116 0.656491C25.6026 -0.0817906 26.9241 -0.163822 27.9151 0.574459C28.9062 1.23071 29.3191 2.54321 28.8236 3.69165Z" fill="#CDD5E3"/>
</svg>
