<svg width="24" height="24" viewBox="0 0 24 24" fill="none" xmlns="http://www.w3.org/2000/svg">
<path d="M21.334 20.6666V21.3333C21.334 22.07 20.7374 22.6666 20.0007 22.6666H4.00002C3.26335 22.6666 2.66669 22.07 2.66669 21.3333V20.6666C2.66669 20.6606 2.66869 20.6533 2.66869 20.6473C2.68135 16.974 6.32535 14 10.0007 14H14.0007C17.6827 14 21.334 16.9846 21.334 20.6666ZM12.0007 12C14.946 12 17.334 9.61198 17.334 6.66665C17.334 3.72131 14.946 1.33331 12.0007 1.33331C9.05535 1.33331 6.66735 3.72131 6.66735 6.66665C6.66735 9.61198 9.05535 12 12.0007 12Z" fill="#2F2F70"/>
</svg>
