<svg width="24" height="24" viewBox="0 0 24 24" fill="none" xmlns="http://www.w3.org/2000/svg">
<path d="M21.3333 10.6667H13.3333V2.66668C13.3333 1.93068 12.7359 1.33334 11.9999 1.33334C11.2639 1.33334 10.6666 1.93068 10.6666 2.66668V10.6667H2.66659C1.93059 10.6667 1.33325 11.264 1.33325 12C1.33325 12.736 1.93059 13.3333 2.66659 13.3333H10.6666V21.3333C10.6666 22.0693 11.2639 22.6667 11.9999 22.6667C12.7359 22.6667 13.3333 22.0693 13.3333 21.3333V13.3333H21.3333C22.0693 13.3333 22.6666 12.736 22.6666 12C22.6666 11.264 22.0693 10.6667 21.3333 10.6667Z" fill="#2F2F70"/>
</svg>
