<svg width="24" height="24" viewBox="0 0 24 24" fill="none" xmlns="http://www.w3.org/2000/svg">
<path d="M20 7.33317V19.9998C20 21.8378 18.5047 23.3332 16.6667 23.3332H7.33333C5.49533 23.3332 4 21.8378 4 19.9998V7.33317C4 5.96784 4.82667 4.79517 6.004 4.2805C6.004 4.2985 6 4.31517 6 4.33317V5.6665C6 7.5045 7.49533 8.99984 9.33333 8.99984H14.6667C16.5047 8.99984 18 7.5045 18 5.6665V4.33317C18 4.31517 17.996 4.29784 17.996 4.2805C19.1733 4.79517 20 5.9685 20 7.33317ZM16.3333 4.33317V5.6665C16.3333 6.58517 15.5853 7.33317 14.6667 7.33317H9.33333C8.41467 7.33317 7.66667 6.58517 7.66667 5.6665V4.33317C7.66667 3.46984 8.32667 2.75784 9.16867 2.6745C9.57867 1.5065 10.6933 0.666504 12 0.666504C13.3067 0.666504 14.4213 1.5065 14.8313 2.6745C15.6733 2.75784 16.3333 3.46984 16.3333 4.33317ZM13 3.6665C13 3.1145 12.552 2.6665 12 2.6665C11.448 2.6665 11 3.1145 11 3.6665C11 4.2185 11.448 4.6665 12 4.6665C12.552 4.6665 13 4.2185 13 3.6665Z" fill="#2F2F70"/>
</svg>
