<svg width="24" height="24" viewBox="0 0 24 24" fill="none" xmlns="http://www.w3.org/2000/svg">
<circle cx="12" cy="12" r="10" fill="white"/>
<g clip-path="url(#clip0_10_1227)">
<path d="M12 0.666687C5.74069 0.666687 0.666687 5.74069 0.666687 12C0.666687 18.2594 5.74069 23.3334 12 23.3334C18.2594 23.3334 23.3334 18.2594 23.3334 12C23.3334 5.74069 18.2594 0.666687 12 0.666687ZM17 13H13V17C13 17.5527 12.5527 18 12 18C11.4474 18 11 17.5527 11 17V13H7.00002C6.44735 13 6.00002 12.5527 6.00002 12C6.00002 11.4474 6.44735 11 7.00002 11H11V7.00002C11 6.44735 11.4474 6.00002 12 6.00002C12.5527 6.00002 13 6.44735 13 7.00002V11H17C17.5527 11 18 11.4474 18 12C18 12.5527 17.5527 13 17 13Z" fill="#2F2F70"/>
</g>
<defs>
<clipPath id="clip0_10_1227">
<rect width="24" height="24" fill="white"/>
</clipPath>
</defs>
</svg>
