<svg width="24" height="24" viewBox="0 0 24 24" fill="none" xmlns="http://www.w3.org/2000/svg">
<g clip-path="url(#clip0_19_5230)">
<path d="M14.9713 7.33335H9.02867C9.69334 3.25069 11.112 0.987354 11.8387 0.674687C11.8927 0.67402 11.9453 0.666687 12 0.666687C12.0547 0.666687 12.1073 0.67402 12.1613 0.674687C12.888 0.987354 14.3067 3.25069 14.9713 7.33335ZM8.66667 12C8.66667 12.9467 8.70734 13.8354 8.77867 14.6667H15.2213C15.2927 13.8354 15.3333 12.9467 15.3333 12C15.3333 11.0534 15.2927 10.1647 15.2213 9.33335H8.77867C8.70734 10.1647 8.66667 11.0534 8.66667 12ZM11.8387 23.3254C11.8927 23.326 11.9453 23.3334 12 23.3334C12.0547 23.3334 12.1073 23.326 12.1613 23.3254C12.888 23.0127 14.3067 20.7494 14.9713 16.6667H9.02867C9.69401 20.7494 11.1127 23.0127 11.8387 23.3254ZM22.32 7.33335C20.9547 4.32002 18.3147 2.01535 15.0833 1.10269C15.9447 2.64135 16.616 4.80669 16.9927 7.33335H22.32ZM23.0047 9.33335H17.2267C17.296 10.1954 17.3333 11.0867 17.3333 12C17.3333 12.9134 17.296 13.8047 17.2267 14.6667H23.0047C23.2113 13.81 23.3333 12.92 23.3333 12C23.3333 11.08 23.212 10.19 23.0047 9.33335ZM8.91667 1.10269C5.68534 2.01535 3.04534 4.32002 1.68001 7.33335H7.00734C7.38334 4.80669 8.05534 2.64135 8.91667 1.10269ZM15.0833 22.8974C18.3147 21.9847 20.9547 19.68 22.32 16.6667H16.9927C16.6167 19.1934 15.9447 21.3587 15.0833 22.8974ZM1.68001 16.6667C3.04534 19.68 5.68534 21.9847 8.91667 22.8974C8.05534 21.358 7.38401 19.1934 7.00734 16.6667H1.68001ZM6.66667 12C6.66667 11.0867 6.70401 10.1954 6.77334 9.33335H0.995338C0.788672 10.19 0.666672 11.08 0.666672 12C0.666672 12.92 0.788005 13.81 0.995338 14.6667H6.77334C6.70401 13.8047 6.66667 12.9134 6.66667 12Z" fill="#2F2F70"/>
</g>
<defs>
<clipPath id="clip0_19_5230">
<rect width="24" height="24" fill="white"/>
</clipPath>
</defs>
</svg>
