<svg width="24" height="24" viewBox="0 0 24 24" fill="none" xmlns="http://www.w3.org/2000/svg">
<path d="M8.66658 17.6667V10.3333C8.66658 9.78133 9.11458 9.33333 9.66658 9.33333C10.2186 9.33333 10.6666 9.78133 10.6666 10.3333V17.6667C10.6666 18.2187 10.2186 18.6667 9.66658 18.6667C9.11458 18.6667 8.66658 18.2187 8.66658 17.6667ZM14.3333 18.6667C14.8853 18.6667 15.3333 18.2187 15.3333 17.6667V10.3333C15.3333 9.78133 14.8853 9.33333 14.3333 9.33333C13.7813 9.33333 13.3333 9.78133 13.3333 10.3333V17.6667C13.3333 18.2187 13.7813 18.6667 14.3333 18.6667ZM22.6666 6.33333C22.6666 6.88533 22.2186 7.33333 21.6666 7.33333H20.3286C20.3286 7.35666 20.3326 7.37933 20.3306 7.40266L19.4932 19.4073C19.4146 20.5347 18.7226 22.6667 16.6666 22.6667H7.33325C5.27725 22.6667 4.58525 20.5347 4.50659 19.4073L3.66925 7.40266C3.66725 7.37933 3.67125 7.35666 3.67125 7.33333H2.33325C1.78125 7.33333 1.33325 6.88533 1.33325 6.33333C1.33325 5.78133 1.78125 5.33333 2.33325 5.33333H7.04858C7.28259 4.23733 8.08525 1.33333 9.99992 1.33333H13.9999C15.9153 1.33333 16.7173 4.23733 16.9513 5.33333H21.6666C22.2186 5.33333 22.6666 5.78133 22.6666 6.33333ZM9.10925 5.33333H14.8906C14.6346 4.39933 14.2266 3.50333 13.9546 3.33333H10.0459C9.77392 3.50333 9.36525 4.39933 9.10992 5.33333H9.10925ZM18.3313 7.33333H5.66858L6.50125 19.2687C6.50125 19.2773 6.64459 20.6667 7.33325 20.6667H16.6666C17.3553 20.6667 17.4979 19.2773 17.4986 19.2633L18.3313 7.33333Z" fill="#2F2F70"/>
</svg>
