<svg width="24" height="24" viewBox="0 0 24 24" fill="none" xmlns="http://www.w3.org/2000/svg">
<circle cx="12" cy="12" r="10" fill="white"/>
<g clip-path="url(#clip0_10_1239)">
<path d="M12 0.666687C5.74069 0.666687 0.666687 5.74069 0.666687 12C0.666687 18.2594 5.74069 23.3334 12 23.3334C18.2594 23.3334 23.3334 18.2594 23.3334 12C23.3334 5.74069 18.2594 0.666687 12 0.666687ZM11 6.33335C11 5.78069 11.4474 5.33335 12 5.33335C12.5527 5.33335 13 5.78069 13 6.33335V13C13 13.5527 12.5527 14 12 14C11.4474 14 11 13.5527 11 13V6.33335ZM12 18.6667C11.2634 18.6667 10.6667 18.07 10.6667 17.3334C10.6667 16.5967 11.2634 16 12 16C12.7367 16 13.3334 16.5967 13.3334 17.3334C13.3334 18.07 12.7367 18.6667 12 18.6667Z" fill="#855400"/>
</g>
<defs>
<clipPath id="clip0_10_1239">
<rect width="24" height="24" fill="white"/>
</clipPath>
</defs>
</svg>
