<svg width="16" height="16" viewBox="0 0 16 16" fill="none" xmlns="http://www.w3.org/2000/svg">
<g clip-path="url(#clip0_238_509)">
<path d="M15.1111 3.33333V12.6667C15.1111 14.0147 14.0147 15.1111 12.6667 15.1111H6.44447C5.09647 15.1111 4.00003 14.0147 4.00003 12.6667V10.8889C4.00003 10.5204 4.29825 10.2222 4.66669 10.2222C5.03514 10.2222 5.33336 10.5204 5.33336 10.8889V12.6667C5.33336 13.2791 5.83203 13.7778 6.44447 13.7778H12.6667C13.2791 13.7778 13.7778 13.2791 13.7778 12.6667V3.33333C13.7778 2.72089 13.2791 2.22222 12.6667 2.22222H6.44447C5.83203 2.22222 5.33336 2.72089 5.33336 3.33333V5.11111C5.33336 5.47955 5.03514 5.77777 4.66669 5.77777C4.29825 5.77777 4.00003 5.47955 4.00003 5.11111V3.33333C4.00003 1.98533 5.09647 0.888885 6.44447 0.888885H12.6667C14.0147 0.888885 15.1111 1.98533 15.1111 3.33333ZM7.76625 10.8471C7.4978 11.0987 7.48403 11.5209 7.73603 11.7893C7.86714 11.9293 8.04447 12 8.22269 12C8.38625 12 8.5498 11.9404 8.67825 11.8196L12.2338 8.48622C12.3685 8.36 12.4445 8.184 12.4445 8C12.4445 7.816 12.3685 7.63955 12.2338 7.51377L8.67825 4.18044C8.40936 3.92844 7.98758 3.94222 7.73603 4.21066C7.48403 4.47911 7.4978 4.90133 7.76625 5.15288L10.092 7.33333H1.55558C1.18714 7.33333 0.888916 7.63155 0.888916 8C0.888916 8.36844 1.18714 8.66666 1.55558 8.66666H10.092L7.76625 10.8471Z" fill="#2F2F70"/>
</g>
<defs>
<clipPath id="clip0_238_509">
<rect width="16" height="16" fill="white"/>
</clipPath>
</defs>
</svg>
