<svg width="16" height="16" viewBox="0 0 16 16" fill="none" xmlns="http://www.w3.org/2000/svg">
<g clip-path="url(#clip0_238_971)">
<path d="M14.4445 3.55555H11.3009C11.1449 2.82489 10.6098 0.888885 9.33336 0.888885H6.66669C5.3898 0.888885 4.85514 2.82489 4.69914 3.55555H1.55558C1.18758 3.55555 0.888916 3.85422 0.888916 4.22222C0.888916 4.59022 1.18758 4.88889 1.55558 4.88889H2.44758C2.44758 4.90444 2.44492 4.91955 2.44625 4.93511L3.00447 12.9382C3.05692 13.6898 3.51825 15.1111 4.88892 15.1111H11.1111C12.4818 15.1111 12.9431 13.6898 12.9956 12.9382L13.5538 4.93511C13.5551 4.91955 13.5525 4.90444 13.5525 4.88889H14.4445C14.8125 4.88889 15.1111 4.59022 15.1111 4.22222C15.1111 3.85422 14.8125 3.55555 14.4445 3.55555ZM6.69692 2.22222H9.30269C9.48403 2.33555 9.75647 2.93289 9.92669 3.55555H6.07247C6.24314 2.93289 6.51558 2.33555 6.69692 2.22222ZM7.11114 11.7778C7.11114 12.1458 6.81247 12.4444 6.44447 12.4444C6.07647 12.4444 5.7778 12.1458 5.7778 11.7778V6.88889C5.7778 6.52088 6.07647 6.22222 6.44447 6.22222C6.81247 6.22222 7.11114 6.52088 7.11114 6.88889V11.7778ZM10.2222 11.7778C10.2222 12.1458 9.92358 12.4444 9.55558 12.4444C9.18758 12.4444 8.88892 12.1458 8.88892 11.7778V6.88889C8.88892 6.52088 9.18758 6.22222 9.55558 6.22222C9.92358 6.22222 10.2222 6.52088 10.2222 6.88889V11.7778Z" fill="#2F2F70"/>
</g>
<defs>
<clipPath id="clip0_238_971">
<rect width="16" height="16" fill="white"/>
</clipPath>
</defs>
</svg>
