<svg width="16" height="4" viewBox="0 0 16 4" fill="none" xmlns="http://www.w3.org/2000/svg">
<path d="M13.8334 3.66669C13.0662 3.66669 12.4445 3.04503 12.4445 2.2778C12.4445 1.51058 13.0662 0.888916 13.8334 0.888916C14.6006 0.888916 15.2223 1.51058 15.2223 2.2778C15.2223 3.04503 14.6006 3.66669 13.8334 3.66669ZM9.38894 2.2778C9.38894 1.51058 8.76728 0.888916 8.00005 0.888916C7.23283 0.888916 6.61117 1.51058 6.61117 2.2778C6.61117 3.04503 7.23283 3.66669 8.00005 3.66669C8.76728 3.66669 9.38894 3.04503 9.38894 2.2778ZM3.55561 2.2778C3.55561 1.51058 2.93394 0.888916 2.16672 0.888916C1.3995 0.888916 0.777832 1.51058 0.777832 2.2778C0.777832 3.04503 1.3995 3.66669 2.16672 3.66669C2.93394 3.66669 3.55561 3.04503 3.55561 2.2778Z" fill="#2F2F70"/>
</svg>
