<svg width="24" height="24" viewBox="0 0 24 24" fill="none" xmlns="http://www.w3.org/2000/svg">
<path d="M13.1446 22.6667H10.898C10.0653 22.6667 9.35465 22.044 9.24465 21.2193L9.00265 19.402C8.32598 19.1267 7.69598 18.7627 7.11998 18.316L5.42598 19.014C4.65398 19.3313 3.76065 19.0267 3.34532 18.306L2.22198 16.3607C1.80598 15.6393 1.98998 14.7127 2.64932 14.2053L4.09932 13.0893C4.04798 12.722 4.02198 12.3573 4.02198 12.0007C4.02198 11.644 4.04798 11.2793 4.09932 10.912L2.64932 9.79601C1.98932 9.28734 1.80598 8.36134 2.22198 7.63934L3.34532 5.69334C3.76198 4.97201 4.65598 4.66734 5.42598 4.98534L7.11998 5.68334C7.69532 5.23667 8.32598 4.87267 9.00265 4.59734L9.24465 2.78001C9.35465 1.95467 10.0653 1.33267 10.898 1.33267H13.1446C13.9773 1.33267 14.688 1.95534 14.798 2.78001L15.04 4.59734C15.7166 4.87267 16.3467 5.23667 16.9226 5.68334L18.6166 4.98534C19.3873 4.66601 20.2813 4.97201 20.6973 5.69334L21.8213 7.63867C22.2373 8.36067 22.0533 9.28667 21.394 9.79467L19.944 10.9107C19.9953 11.278 20.0213 11.6427 20.0213 11.9993C20.0213 12.356 19.9953 12.7207 19.944 13.088L21.394 14.204C22.0533 14.712 22.2367 15.6387 21.8213 16.3593L20.698 18.3053C20.2813 19.0267 19.388 19.3313 18.6173 19.0133L16.9233 18.3153C16.348 18.762 15.7173 19.126 15.0406 19.4013L14.7986 21.2187C14.6886 22.044 13.978 22.666 13.1453 22.666L13.1446 22.6667ZM12.0213 9.00001C10.3673 9.00001 9.02132 10.346 9.02132 12C9.02132 13.654 10.3673 15 12.0213 15C13.6753 15 15.0213 13.654 15.0213 12C15.0213 10.346 13.6753 9.00001 12.0213 9.00001Z" fill="#2F2F70"/>
</svg>
