<svg width="24" height="24" viewBox="0 0 24 24" fill="none" xmlns="http://www.w3.org/2000/svg">
<g clip-path="url(#clip0_238_654)">
<path d="M12 0.666664C5.74069 0.666664 0.666687 5.74066 0.666687 12C0.666687 18.2593 5.74069 23.3333 12 23.3333C18.2594 23.3333 23.3334 18.2593 23.3334 12C23.3334 5.74066 18.2594 0.666664 12 0.666664ZM12 5.33333C12.7367 5.33333 13.3334 5.93 13.3334 6.66666C13.3334 7.40333 12.7367 8 12 8C11.2634 8 10.6667 7.40333 10.6667 6.66666C10.6667 5.93 11.2634 5.33333 12 5.33333ZM14.6667 17.4213C14.6667 17.7413 14.4074 18 14.088 18H9.91269C9.59269 18 9.33402 17.7407 9.33402 17.4213V16.5793C9.33402 16.26 9.59335 16.0007 9.91269 16.0007H11.0007V11.334H10.246C9.92602 11.334 9.66735 11.0747 9.66735 10.7553V9.91333C9.66735 9.594 9.92669 9.33466 10.246 9.33466H12.4214C12.7414 9.33466 13 9.594 13 9.91333V16.0013H14.088C14.408 16.0013 14.6667 16.2607 14.6667 16.58V17.4213Z" fill="#2F2F70"/>
</g>
<defs>
<clipPath id="clip0_238_654">
<rect width="24" height="24" fill="white"/>
</clipPath>
</defs>
</svg>
