<svg width="32" height="32" viewBox="0 0 32 32" fill="none" xmlns="http://www.w3.org/2000/svg">
<path d="M1.77779 9.33343C1.77779 8.59654 2.37423 8.0001 3.11112 8.0001H25.6702L21.7245 4.05432C21.2036 3.53432 21.2036 2.68899 21.7245 2.16899C22.2453 1.6481 23.0889 1.6481 23.6098 2.16899L29.832 8.39121C30.3529 8.91121 30.3529 9.75654 29.832 10.2765L23.6098 16.4988C23.3493 16.7592 23.008 16.889 22.6667 16.889C22.3253 16.889 21.984 16.7592 21.7236 16.4988C21.2027 15.9788 21.2027 15.1334 21.7236 14.6134L25.6693 10.6677H3.11112C2.37423 10.6677 1.77779 10.0712 1.77779 9.33432V9.33343ZM28.8889 21.3334H6.32979L10.2756 17.3877C10.7965 16.8677 10.7965 16.0223 10.2756 15.5023C9.75468 14.9814 8.91112 14.9814 8.39023 15.5023L2.16801 21.7237C1.64712 22.2437 1.64712 23.089 2.16801 23.609L8.39023 29.8312C8.65068 30.0917 8.99201 30.2214 9.33334 30.2214C9.67468 30.2214 10.016 30.0917 10.2765 29.8312C10.7973 29.3112 10.7973 28.4659 10.2765 27.9459L6.33068 24.0001H28.8898C29.6267 24.0001 30.2231 23.4037 30.2231 22.6668C30.2231 21.9299 29.6258 21.3334 28.8889 21.3334Z" fill="#2F2F70"/>
</svg>
