<svg width="24" height="24" viewBox="0 0 24 24" fill="none" xmlns="http://www.w3.org/2000/svg">
<circle cx="12" cy="12" r="10" fill="white"/>
<g clip-path="url(#clip0_10_1233)">
<path d="M12 0.666687C5.74069 0.666687 0.666687 5.74069 0.666687 12C0.666687 18.2594 5.74069 23.3334 12 23.3334C18.2594 23.3334 23.3334 18.2594 23.3334 12C23.3334 5.74069 18.2594 0.666687 12 0.666687ZM16.2427 14.8287C16.6334 15.2187 16.6334 15.8527 16.2427 16.2427C16.0474 16.438 15.7914 16.5354 15.5354 16.5354C15.2794 16.5354 15.0234 16.438 14.828 16.2427L11.9994 13.414L9.17069 16.2427C8.97535 16.438 8.71935 16.5354 8.46335 16.5354C8.20735 16.5354 7.95135 16.438 7.75602 16.2427C7.36535 15.8527 7.36535 15.2187 7.75602 14.8287L10.5847 12L7.75602 9.17135C7.36535 8.78135 7.36535 8.14735 7.75602 7.75735C8.14669 7.36669 8.77935 7.36669 9.17002 7.75735L11.9987 10.586L14.8274 7.75735C15.218 7.36669 15.8507 7.36669 16.2414 7.75735C16.632 8.14735 16.632 8.78135 16.2414 9.17135L13.4127 12L16.2414 14.8287H16.2427Z" fill="#FF004C"/>
</g>
<defs>
<clipPath id="clip0_10_1233">
<rect width="24" height="24" fill="white"/>
</clipPath>
</defs>
</svg>
