<svg width="16" height="16" viewBox="0 0 16 16" fill="none" xmlns="http://www.w3.org/2000/svg">
<path d="M13.3334 4.88878V13.3332C13.3334 14.5586 12.3365 15.5554 11.1112 15.5554H4.88897C3.66364 15.5554 2.66675 14.5586 2.66675 13.3332V4.88878C2.66675 3.97856 3.21786 3.19678 4.00275 2.85367C4.00275 2.86567 4.00008 2.87678 4.00008 2.88878V3.77767C4.00008 5.003 4.99697 5.99989 6.2223 5.99989H9.77786C11.0032 5.99989 12.0001 5.003 12.0001 3.77767V2.88878C12.0001 2.87678 11.9974 2.86522 11.9974 2.85367C12.7823 3.19678 13.3334 3.979 13.3334 4.88878ZM10.889 2.88878V3.77767C10.889 4.39011 10.3903 4.88878 9.77786 4.88878H6.2223C5.60986 4.88878 5.11119 4.39011 5.11119 3.77767V2.88878C5.11119 2.31322 5.55119 1.83856 6.11253 1.783C6.38586 1.00434 7.12897 0.444336 8.00008 0.444336C8.87119 0.444336 9.6143 1.00434 9.88764 1.783C10.449 1.83856 10.889 2.31322 10.889 2.88878ZM8.66675 2.44434C8.66675 2.07634 8.36808 1.77767 8.00008 1.77767C7.63208 1.77767 7.33341 2.07634 7.33341 2.44434C7.33341 2.81234 7.63208 3.111 8.00008 3.111C8.36808 3.111 8.66675 2.81234 8.66675 2.44434Z" fill="white"/>
</svg>
