<svg width="16" height="16" viewBox="0 0 16 16" fill="none" xmlns="http://www.w3.org/2000/svg">
<path d="M9.16495 8.22222L13.5827 3.80489C13.8432 3.54445 13.8432 3.12267 13.5827 2.86222C13.3223 2.60178 12.9005 2.60178 12.6401 2.86222L8.22228 7.27956L3.80495 2.86178C3.5445 2.60178 3.12228 2.60178 2.86184 2.86178C2.60184 3.12222 2.60184 3.54445 2.86184 3.80489L7.27961 8.22222L2.86184 12.6396C2.60139 12.9 2.60139 13.3218 2.86184 13.5822C2.99206 13.7124 3.16273 13.7773 3.33339 13.7773C3.50406 13.7773 3.67473 13.7124 3.80495 13.5822L8.22228 9.16489L12.6396 13.5822C12.7698 13.7124 12.9405 13.7773 13.1112 13.7773C13.2818 13.7773 13.4525 13.7124 13.5827 13.5822C13.8432 13.3218 13.8432 12.9 13.5827 12.6396L9.16495 8.22222Z" fill="#2F2F70"/>
</svg>
