<svg width="24" height="24" viewBox="0 0 24 24" fill="none" xmlns="http://www.w3.org/2000/svg">
<g clip-path="url(#clip0_7_1620)">
<circle cx="12" cy="12" r="11" fill="white"/>
<g clip-path="url(#clip1_7_1620)">
<path d="M11.9844 0.666656C5.72506 0.666656 0.651062 5.74066 0.651062 12C0.651062 18.2593 5.72506 23.3333 11.9844 23.3333C18.2437 23.3333 23.3177 18.2593 23.3177 12C23.3177 5.74066 18.2437 0.666656 11.9844 0.666656ZM17.4131 9.31466L11.7464 15.9813C11.5711 16.188 11.3191 16.314 11.0484 16.3313C11.0271 16.3327 11.0057 16.3333 10.9844 16.3333C10.7364 16.3333 10.4964 16.2413 10.3117 16.0733L6.64506 12.74C6.2364 12.3687 6.2064 11.736 6.57773 11.3273C6.94906 10.9187 7.58173 10.888 7.9904 11.26L10.8924 13.898L15.8897 8.01932C16.2477 7.59932 16.8791 7.54799 17.2997 7.90532C17.7204 8.26332 17.7717 8.89399 17.4137 9.31532L17.4131 9.31466Z" fill="#009850"/>
</g>
</g>
<defs>
<clipPath id="clip0_7_1620">
<rect width="24" height="24" fill="white"/>
</clipPath>
<clipPath id="clip1_7_1620">
<rect width="24" height="24" fill="white" transform="translate(-0.015625)"/>
</clipPath>
</defs>
</svg>
