<svg width="512" height="512" viewBox="0 0 512 512" fill="#435671" xmlns="http://www.w3.org/2000/svg">
<g clip-path="url(#clip0_1106_39)">
<path d="M256 512C323.895 512 389.01 485.029 437.019 437.019C485.029 389.01 512 323.895 512 256C512 188.105 485.029 122.99 437.019 74.9807C389.01 26.9714 323.895 0 256 0C188.105 0 122.99 26.9714 74.9807 74.9807C26.9714 122.99 0 188.105 0 256C0 323.895 26.9714 389.01 74.9807 437.019C122.99 485.029 188.105 512 256 512ZM224 192V320C224 337.7 209.7 352 192 352C174.3 352 160 337.7 160 320V192C160 174.3 174.3 160 192 160C209.7 160 224 174.3 224 192ZM352 192V320C352 337.7 337.7 352 320 352C302.3 352 288 337.7 288 320V192C288 174.3 302.3 160 320 160C337.7 160 352 174.3 352 192Z" fill="#435671"/>
</g>
<defs>
<clipPath id="clip0_1106_39">
<rect width="512" height="512" fill="#435671"/>
</clipPath>
</defs>
</svg>
