<svg width="512" height="512" viewBox="0 0 512 512" fill="#435671" xmlns="http://www.w3.org/2000/svg">
<g clip-path="url(#clip0_1128_39)">
<path d="M256 32C270.2 32 283.3 39.5 290.5 51.8L506.5 419.8C513.8 432.2 513.8 447.5 506.7 459.9C499.6 472.3 486.3 480 472 480H40C25.7 480 12.4 472.3 5.29996 459.9C-1.80004 447.5 -1.70004 432.1 5.49996 419.8L221.5 51.8C228.7 39.5 241.8 32 256 32ZM256 160C242.7 160 232 170.7 232 184V296C232 309.3 242.7 320 256 320C269.3 320 280 309.3 280 296V184C280 170.7 269.3 160 256 160ZM288 384C288 375.513 284.629 367.374 278.627 361.373C272.626 355.371 264.487 352 256 352C247.513 352 239.374 355.371 233.373 361.373C227.371 367.374 224 375.513 224 384C224 392.487 227.371 400.626 233.373 406.627C239.374 412.629 247.513 416 256 416C264.487 416 272.626 412.629 278.627 406.627C284.629 400.626 288 392.487 288 384Z" fill="#435671"/>
</g>
<defs>
<clipPath id="clip0_1128_39">
<rect width="512" height="512" fill="#435671"/>
</clipPath>
</defs>
</svg>
