<svg xmlns="http://www.w3.org/2000/svg" width="16" height="16" viewBox="0 0 16 16"><g fill="none" fill-rule="evenodd"><path fill="#FFF" fill-rule="nonzero" d="M8.01340034,0 C6.35510888,0 4.9480737,1.11892797 4.51256281,2.64321608 C4.13065327,1.83919598 3.31658291,1.27638191 2.36850921,1.27638191 C1.06532663,1.27638191 0,2.34170854 0,3.64489112 C0,4.9480737 1.06532663,6.01340034 2.36850921,6.01340034 C3.31658291,6.01340034 4.13065327,5.44723618 4.51256281,4.64656616 C4.9480737,6.17420436 6.35510888,7.28978224 8.01340034,7.28978224 C9.65829146,7.28978224 11.0519263,6.18425461 11.5008375,4.68341709 C11.8827471,5.47403685 12.6968174,6.02680067 13.6314908,6.02680067 C14.9346734,6.02680067 16,4.96147404 16,3.65829146 C16,2.35510888 14.9346734,1.28978224 13.6314908,1.28978224 C12.6968174,1.28978224 11.8961474,1.84254606 11.5008375,2.63316583 C11.0519263,1.10552764 9.65829146,0 8.01340034,0 Z M8.01340034,1.38023451 C9.26298157,1.38023451 10.2646566,2.38190955 10.2646566,3.63149079 C10.2646566,4.88107203 9.26298157,5.88274707 8.01340034,5.88274707 C6.7638191,5.88274707 5.76214405,4.88107203 5.76214405,3.63149079 C5.76214405,2.38190955 6.7638191,1.38023451 8.01340034,1.38023451 Z M2.36850921,2.65661642 C2.92127303,2.65661642 3.34338358,3.0921273 3.34338358,3.63149079 C3.34338358,4.18425461 2.9078727,4.60636516 2.36850921,4.60636516 C1.81574539,4.60636516 1.39363484,4.17085427 1.39363484,3.63149079 C1.39363484,3.0921273 1.82914573,2.65661642 2.36850921,2.65661642 Z M13.6314908,2.65661642 C14.1842546,2.65661642 14.6063652,3.0921273 14.6063652,3.63149079 C14.6063652,4.18425461 14.1708543,4.60636516 13.6314908,4.60636516 C13.078727,4.60636516 12.6566164,4.17085427 12.6566164,3.63149079 C12.6432161,3.0921273 13.078727,2.65661642 13.6314908,2.65661642 Z" transform="translate(0 4.4)"/><path fill="#FFF" d="M11.7519355,10.560428 C11.8264373,10.6038874 11.8884301,10.6658801 11.9318895,10.7403819 L14.561371,15.2480645 C14.7005111,15.4865904 14.619943,15.7927493 14.381417,15.9318895 C14.304949,15.9764958 14.2180088,16 14.1294815,16 L8.8705185,16 C8.59437612,16 8.3705185,15.7761424 8.3705185,15.5 C8.3705185,15.4114727 8.3940227,15.3245325 8.43862905,15.2480645 L11.0681105,10.7403819 C11.2072507,10.501856 11.5134096,10.4212878 11.7519355,10.560428 Z M11.5,14.25 C11.2238576,14.25 11,14.4738576 11,14.75 C11,15.0261424 11.2238576,15.25 11.5,15.25 C11.7761424,15.25 12,15.0261424 12,14.75 C12,14.4738576 11.7761424,14.25 11.5,14.25 Z M11.5097087,11.75 C11.2656329,11.75 11.0677704,11.9478625 11.0677704,12.1919384 C11.0677704,12.210082 11.0688877,12.2282085 11.071116,12.2462148 L11.2262127,13.4995069 C11.2439165,13.6425663 11.3654647,13.75 11.5096154,13.75 C11.6537694,13.75 11.7753238,13.6425709 11.7930411,13.4995098 L11.9482558,12.2462092 C11.9782514,12.0040063 11.8062234,11.7833459 11.5640205,11.7533503 C11.5460026,11.7511189 11.5278643,11.75 11.5097087,11.75 Z"/></g></svg>