<?xml version="1.0" encoding="UTF-8" standalone="no"?>
<svg
   height="16"
   width="16"
   version="1.1"
   viewBox="0 0 16 16"
   id="svg4"
   sodipodi:docname="bell.svg"
   inkscape:version="1.1.1 (3bf5ae0d25, 2021-09-20)"
   xmlns:inkscape="http://www.inkscape.org/namespaces/inkscape"
   xmlns:sodipodi="http://sodipodi.sourceforge.net/DTD/sodipodi-0.dtd"
   xmlns="http://www.w3.org/2000/svg"
   xmlns:svg="http://www.w3.org/2000/svg">
  <defs
     id="defs8" />
  <sodipodi:namedview
     id="namedview6"
     pagecolor="#ffffff"
     bordercolor="#ffffff"
     borderopacity="1.0"
     inkscape:pageshadow="2"
     inkscape:pageopacity="0.0"
     inkscape:pagecheckerboard="0"
     showgrid="false"
     inkscape:zoom="39.375"
     inkscape:cx="8"
     inkscape:cy="8"
     inkscape:window-width="1471"
     inkscape:window-height="826"
     inkscape:window-x="170"
     inkscape:window-y="133"
     inkscape:window-maximized="0"
     inkscape:current-layer="svg4" />
  <path
     d="m8 2c-0.5523 0-1 0.4477-1 1 0 0.0472 0.021 0.0873 0.0273 0.1328-1.7366 0.4362-3.0273 1.9953-3.0273 3.8672v2l-1 1v1h10v-1l-1-1v-2c0-1.8719-1.291-3.431-3.0273-3.8672 0.0063-0.0455 0.0273-0.0856 0.0273-0.1328 0-0.5523-0.4477-1-1-1zm-2 10c0 1.1046 0.8954 2 2 2s2-0.8954 2-2z"
     fill="#ffffff"
     id="path2"
     style="fill:#ffffff;fill-opacity:1" />
</svg>
