<?xml version="1.0" encoding="UTF-8" standalone="no"?>
<!DOCTYPE svg PUBLIC "-//W3C//DTD SVG 1.1//EN" "http://www.w3.org/Graphics/SVG/1.1/DTD/svg11.dtd">
<svg width="16" height="16" viewBox="0 0 16 16" version="1.1" xmlns="http://www.w3.org/2000/svg" xmlns:xlink="http://www.w3.org/1999/xlink" xml:space="preserve" xmlns:serif="http://www.serif.com/" style="fill-rule:evenodd;clip-rule:evenodd;stroke-linejoin:round;stroke-miterlimit:2;">
    <g transform="matrix(0.015,0,0,0.015,0.8,15.2)">
        <path d="M160,-200L160,-280L240,-280L240,-560C240,-615.333 256.667,-664.5 290,-707.5C323.333,-750.5 366.667,-778.667 420,-792L420,-820C420,-836.667 425.833,-850.833 437.5,-862.5C449.167,-874.167 463.333,-880 480,-880C496.667,-880 510.833,-874.167 522.5,-862.5C534.167,-850.833 540,-836.667 540,-820L540,-792C593.333,-778.667 636.667,-750.5 670,-707.5C703.333,-664.5 720,-615.333 720,-560L720,-280L800,-280L800,-200L160,-200ZM480,-80C458,-80 439.167,-87.833 423.5,-103.5C407.833,-119.167 400,-138 400,-160L560,-160C560,-138 552.167,-119.167 536.5,-103.5C520.833,-87.833 502,-80 480,-80ZM320,-280L640,-280L640,-560C640,-604 624.333,-641.667 593,-673C561.667,-704.333 524,-720 480,-720C436,-720 398.333,-704.333 367,-673C335.667,-641.667 320,-604 320,-560L320,-280Z" style="fill:white;fill-rule:nonzero;"/>
    </g>
</svg>
