<svg viewBox="0 0 24 24" height="24" width="24" xmlns="http://www.w3.org/2000/svg" xml:space="preserve" style="fill-rule:evenodd;clip-rule:evenodd;stroke-linejoin:round;stroke-miterlimit:2"><path style="fill:none;fill-rule:nonzero" d="M0 0h24v24H0z"/><path d="M6 14h12v-2H6v2Zm0-3h12V9H6v2Zm0-3h12V6H6v2ZM4 18c-.55 0-1.021-.196-1.412-.587A1.93 1.93 0 0 1 2 16V4c0-.55.196-1.021.588-1.413A1.925 1.925 0 0 1 4 2h16c.55 0 1.021.196 1.413.587.391.392.587.863.587 1.413v18l-4-4H4Z" style="fill:#fff;fill-rule:nonzero"/></svg>