<?xml version="1.0" encoding="UTF-8" standalone="no"?>
<!DOCTYPE svg PUBLIC "-//W3C//DTD SVG 1.1//EN" "http://www.w3.org/Graphics/SVG/1.1/DTD/svg11.dtd">
<svg width="100%" height="100%" viewBox="0 0 18 29"
    xmlns="http://www.w3.org/2000/svg" version="1.1">
    <path d="M16.999,3.424C17.233,3.19 17.233,2.81 16.999,2.575C16.428,2.004 15.418,0.995 14.847,0.424C14.613,0.19 14.233,0.19 13.999,0.424C11.932,2.491 2.922,11.501 0.565,13.857C0.415,14.007 0.331,14.211 0.331,14.423C0.331,14.635 0.415,14.839 0.565,14.989C2.922,17.345 11.932,26.355 13.999,28.422C14.233,28.656 14.613,28.656 14.847,28.422C15.418,27.851 16.428,26.842 16.999,26.271C17.233,26.036 17.233,25.656 16.999,25.422C14.93,23.353 6,14.423 6,14.423C6,14.423 14.93,5.493 16.999,3.424Z" style="fill:white;fill-opacity:0.6;"/>
</svg>
