<?xml version="1.0" encoding="UTF-8" standalone="no"?>
<!-- Created with Inkscape (http://www.inkscape.org/) -->

<svg
   version="1.1"
   id="svg2"
   width="16"
   height="16"
   viewBox="0 0 16 16"
   sodipodi:docname="edit.svg"
   inkscape:version="1.1 (c4e8f9ed74, 2021-05-24)"
   xmlns:inkscape="http://www.inkscape.org/namespaces/inkscape"
   xmlns:sodipodi="http://sodipodi.sourceforge.net/DTD/sodipodi-0.dtd"
   xmlns="http://www.w3.org/2000/svg"
   xmlns:svg="http://www.w3.org/2000/svg">
  <defs
     id="defs6" />
  <sodipodi:namedview
     id="namedview4"
     pagecolor="#ffffff"
     bordercolor="#666666"
     borderopacity="1.0"
     inkscape:pageshadow="2"
     inkscape:pageopacity="0.0"
     inkscape:pagecheckerboard="0"
     showgrid="false"
     inkscape:zoom="5.8388225"
     inkscape:cx="39.99094"
     inkscape:cy="20.466455"
     inkscape:window-width="2560"
     inkscape:window-height="1367"
     inkscape:window-x="0"
     inkscape:window-y="0"
     inkscape:window-maximized="1"
     inkscape:current-layer="g8"
     inkscape:snap-bbox="true"
     width="16px" />
  <g
     inkscape:groupmode="layer"
     inkscape:label="Image"
     id="g8">
    <path
       style="fill:#fff;stroke-width:0.237748"
       d="m 8.0529525,14.60266 -5.533428,0.06384 -0.117155,-0.305305 -0.117156,-0.305304 0.06349,-6.2966204 0.06349,-6.2966201 4.281826,-0.064566 4.2818265,-0.064584 1.36947,1.3839101 1.36947,1.3839101 -0.06421,5.2187458 -0.06421,5.2187625 z m -1.95565,-1.84695 h 1.901987 v -0.475502 -0.475503 h -1.901987 -1.901988 v 0.475503 0.475502 z M 7.9992895,9.9027285 H 11.803266 V 9.4272255 8.9517225 H 7.9992895 4.1953145 v 0.475503 0.475503 z m -1.42649,-2.8529819 h 2.377485 v -0.475503 -0.475503 h -2.377485 -2.377485 v 0.475503 0.475503 z m 0.475496,-2.8529817 h 2.852983 V 3.721262 3.2457591 H 7.0482955 4.1953145 V 3.721262 4.1967649 Z"
       id="path783" />
  </g>
</svg>
