<svg width="24" height="24" viewBox="0 0 24 24" fill="none" xmlns="http://www.w3.org/2000/svg">
<rect width="24" height="24" fill="#0B2A63"/>
<path d="M9.56631 3.75619V3.72945C9.44435 3.50914 9.26663 3.32551 9.05133 3.19734C8.83604 3.06918 8.5909 3.00108 8.341 3.00001C8.24954 2.99958 8.15831 3.00936 8.06898 3.02919C7.76467 3.08905 7.49087 3.25506 7.29549 3.49819C7.1001 3.74131 6.99556 4.04608 7.00014 4.35919V4.67285L14.429 20.2511C14.5455 20.4728 14.7185 20.6591 14.9301 20.7908C15.1417 20.9224 15.3842 20.9947 15.6327 21C15.7374 21.0002 15.8417 20.9872 15.9432 20.9611C16.2422 20.8979 16.5105 20.7326 16.703 20.4931C16.8955 20.2535 17.0004 19.9542 17 19.6457V19.3369C17 19.3369 9.76611 4.17197 9.56631 3.75619Z" fill="white"/>
</svg>
