<svg width="16" height="16" viewBox="0 0 16 16" fill="none" xmlns="http://www.w3.org/2000/svg">
<mask id="path-1-inside-1_7883_28223" fill="white">
<path d="M13.6 7.14955C15 7.61607 16 8.94196 16 10.4643C16 12.4286 14.4 14 12.4 14H3.2C1.45 14 0 12.6004 0 10.8571C0 9.35938 1.1 8.08259 2.575 7.78795C2.475 7.51786 2.4 7.24777 2.4 6.92857C2.4 5.62723 3.475 4.57143 4.8 4.57143C5.3 4.57143 5.775 4.71875 6.15 4.98884C6.825 3.81027 8.125 3 9.6 3C11.825 3 13.6 4.76786 13.6 6.92857V7.14955Z"/>
</mask>
<path d="M13.6 7.14955H12.8C12.8 7.49393 13.0204 7.79966 13.3471 7.90852L13.6 7.14955ZM2.575 7.78795L2.73171 8.57245C2.96126 8.52659 3.15921 8.3825 3.27338 8.17815C3.38756 7.9738 3.40651 7.7297 3.32523 7.51018L2.575 7.78795ZM6.15 4.98884L5.68246 5.63799C5.86636 5.77045 6.09781 5.81868 6.31931 5.77072C6.54081 5.72276 6.73157 5.58309 6.84421 5.38643L6.15 4.98884ZM16.8 10.4643C16.8 8.58747 15.5699 6.96274 13.8529 6.39058L13.3471 7.90852C14.4301 8.26941 15.2 9.29646 15.2 10.4643H16.8ZM12.4 14.8C14.8282 14.8 16.8 12.8839 16.8 10.4643H15.2C15.2 11.9732 13.9718 13.2 12.4 13.2V14.8ZM3.2 14.8H12.4V13.2H3.2V14.8ZM-0.8 10.8571C-0.8 13.0598 1.02593 14.8 3.2 14.8V13.2C1.87407 13.2 0.8 12.1411 0.8 10.8571H-0.8ZM2.41829 7.00345C0.589909 7.36868 -0.8 8.95729 -0.8 10.8571H0.8C0.8 9.76146 1.61009 8.7965 2.73171 8.57245L2.41829 7.00345ZM1.6 6.92857C1.6 7.38152 1.70882 7.75256 1.82477 8.06572L3.32523 7.51018C3.24118 7.28316 3.2 7.11402 3.2 6.92857H1.6ZM4.8 3.77143C3.04682 3.77143 1.6 5.17188 1.6 6.92857H3.2C3.2 6.08259 3.90318 5.37143 4.8 5.37143V3.77143ZM6.61755 4.33969C6.09567 3.96381 5.45412 3.77143 4.8 3.77143V5.37143C5.14588 5.37143 5.45433 5.47369 5.68246 5.63799L6.61755 4.33969ZM9.6 2.2C7.82941 2.2 6.26892 3.17152 5.4558 4.59125L6.84421 5.38643C7.38109 4.44902 8.42059 3.8 9.6 3.8V2.2ZM14.4 6.92857C14.4 4.31573 12.2565 2.2 9.6 2.2V3.8C11.3935 3.8 12.8 5.21998 12.8 6.92857H14.4ZM14.4 7.14955V6.92857H12.8V7.14955H14.4Z" fill="black" mask="url(#path-1-inside-1_7883_28223)"/>
<mask id="path-3-inside-2_7883_28223" fill="white">
<path fill-rule="evenodd" clip-rule="evenodd" d="M7.80976 8.18465L6.7166 7.11176C6.57995 6.96647 6.34083 6.96647 6.20418 7.11176L5.11102 8.18465C4.96299 8.31876 4.96299 8.55345 5.11102 8.68757C5.24767 8.83285 5.4868 8.83285 5.62344 8.68757L6.1017 8.22935V11.6492C6.1017 11.8504 6.26112 12.0068 6.46608 12.0068C6.65966 12.0068 6.83047 11.8504 6.83047 11.6492V8.22935L7.29734 8.68757C7.43398 8.83285 7.67311 8.83285 7.80976 8.68757C7.95779 8.55345 7.95779 8.31876 7.80976 8.18465ZM9.63168 11.9062L10.7248 10.8333C10.8729 10.6992 10.8729 10.4645 10.7248 10.3304C10.5882 10.1851 10.3491 10.1851 10.2124 10.3304L9.74556 10.7886V7.35763C9.74556 7.16764 9.57475 7 9.38117 7C9.1762 7 9.01678 7.16764 9.01678 7.35763V10.7886L8.53853 10.3304C8.40188 10.1851 8.16275 10.1851 8.02611 10.3304C7.87808 10.4645 7.87808 10.6992 8.02611 10.8333L9.11927 11.9062C9.25591 12.0515 9.49504 12.0515 9.63168 11.9062Z"/>
</mask>
<path d="M6.7166 7.11176L6.13385 7.65985L6.14481 7.6715L6.15623 7.68271L6.7166 7.11176ZM7.80976 8.18465L7.24939 8.7556L7.26079 8.76679L7.27263 8.77752L7.80976 8.18465ZM6.20418 7.11176L6.76455 7.68271L6.77597 7.6715L6.78693 7.65985L6.20418 7.11176ZM5.11102 8.18465L5.64815 8.77752L5.65999 8.76679L5.67139 8.7556L5.11102 8.18465ZM5.11102 8.68757L5.69378 8.13948L5.67186 8.11617L5.64814 8.09469L5.11102 8.68757ZM5.62344 8.68757L5.06999 8.1099L5.05495 8.12431L5.04069 8.13948L5.62344 8.68757ZM6.1017 8.22935H6.9017V6.35497L5.54825 7.65169L6.1017 8.22935ZM6.83047 8.22935L7.39084 7.6584L6.03047 6.32326V8.22935H6.83047ZM7.29734 8.68757L7.88009 8.13948L7.86913 8.12782L7.85771 8.11661L7.29734 8.68757ZM7.80976 8.68757L7.27264 8.09469L7.24892 8.11617L7.227 8.13948L7.80976 8.68757ZM10.7248 10.8333L10.1877 10.2405L10.1759 10.2512L10.1645 10.2624L10.7248 10.8333ZM9.63168 11.9062L9.07132 11.3353L9.0599 11.3465L9.04893 11.3581L9.63168 11.9062ZM10.7248 10.3304L10.1421 10.8785L10.164 10.9018L10.1877 10.9233L10.7248 10.3304ZM10.2124 10.3304L10.7728 10.9014L10.7842 10.8902L10.7952 10.8785L10.2124 10.3304ZM9.74556 10.7886H8.94556V12.6947L10.3059 11.3596L9.74556 10.7886ZM9.01678 10.7886L8.46333 11.3663L9.81678 12.663V10.7886H9.01678ZM8.53853 10.3304L7.95577 10.8785L7.97004 10.8937L7.98508 10.9081L8.53853 10.3304ZM8.02611 10.3304L8.56323 10.9233L8.58694 10.9018L8.60886 10.8785L8.02611 10.3304ZM8.02611 10.8333L8.58648 10.2624L8.57507 10.2512L8.56323 10.2405L8.02611 10.8333ZM9.11927 11.9062L9.70202 11.3581L9.69106 11.3465L9.67964 11.3353L9.11927 11.9062ZM6.15623 7.68271L7.24939 8.7556L8.37012 7.61369L7.27697 6.54081L6.15623 7.68271ZM6.78693 7.65985C6.60767 7.85044 6.31311 7.85044 6.13385 7.65985L7.29935 6.56367C6.8468 6.0825 6.07398 6.0825 5.62143 6.56367L6.78693 7.65985ZM5.67139 8.7556L6.76455 7.68271L5.64381 6.54081L4.55066 7.61369L5.67139 8.7556ZM5.64814 8.09469C5.85062 8.27812 5.85062 8.59409 5.64815 8.77752L4.5739 7.59177C4.07537 8.04343 4.07537 8.82879 4.5739 9.28044L5.64814 8.09469ZM5.04069 8.13948C5.21995 7.94888 5.51452 7.94888 5.69378 8.13948L4.52827 9.23565C4.98082 9.71682 5.75365 9.71682 6.2062 9.23565L5.04069 8.13948ZM5.54825 7.65169L5.06999 8.1099L6.17689 9.26523L6.65515 8.80701L5.54825 7.65169ZM6.9017 11.6492V8.22935H5.3017V11.6492H6.9017ZM6.46608 11.2068C6.68876 11.2068 6.9017 11.3945 6.9017 11.6492H5.3017C5.3017 12.3062 5.83347 12.8068 6.46608 12.8068V11.2068ZM6.03047 11.6492C6.03047 11.3785 6.24847 11.2068 6.46608 11.2068V12.8068C7.07086 12.8068 7.63047 12.3222 7.63047 11.6492H6.03047ZM6.03047 8.22935V11.6492H7.63047V8.22935H6.03047ZM7.85771 8.11661L7.39084 7.6584L6.2701 8.80031L6.73697 9.25852L7.85771 8.11661ZM7.227 8.13948C7.40626 7.94888 7.70083 7.94888 7.88009 8.13948L6.71459 9.23565C7.16713 9.71682 7.93996 9.71682 8.39251 9.23565L7.227 8.13948ZM7.27263 8.77752C7.07016 8.59409 7.07016 8.27812 7.27264 8.09469L8.34688 9.28044C8.84542 8.82879 8.84541 8.04343 8.34688 7.59177L7.27263 8.77752ZM10.1645 10.2624L9.07132 11.3353L10.1921 12.4772L11.2852 11.4043L10.1645 10.2624ZM10.1877 10.9233C9.98525 10.7399 9.98525 10.4239 10.1877 10.2405L11.262 11.4262C11.7605 10.9746 11.7605 10.1892 11.262 9.73755L10.1877 10.9233ZM10.7952 10.8785C10.6159 11.0691 10.3213 11.0691 10.1421 10.8785L11.3076 9.78234C10.855 9.30117 10.0822 9.30117 9.62967 9.78234L10.7952 10.8785ZM10.3059 11.3596L10.7728 10.9014L9.65206 9.75947L9.18519 10.2177L10.3059 11.3596ZM8.94556 7.35763V10.7886H10.5456V7.35763H8.94556ZM9.38117 7.8C9.24601 7.8 9.1415 7.74321 9.07559 7.67852C9.00989 7.61405 8.94556 7.50475 8.94556 7.35763H10.5456C10.5456 6.71176 10.0024 6.2 9.38117 6.2V7.8ZM9.81678 7.35763C9.81678 7.60736 9.62013 7.8 9.38117 7.8V6.2C8.73227 6.2 8.21678 6.72792 8.21678 7.35763H9.81678ZM9.81678 10.7886V7.35763H8.21678V10.7886H9.81678ZM7.98508 10.9081L8.46333 11.3663L9.57024 10.211L9.09198 9.75277L7.98508 10.9081ZM8.60886 10.8785C8.4296 11.0691 8.13503 11.0691 7.95577 10.8785L9.12128 9.78234C8.66873 9.30117 7.89591 9.30117 7.44336 9.78234L8.60886 10.8785ZM8.56323 10.2405C8.7657 10.4239 8.7657 10.7399 8.56323 10.9233L7.48899 9.73755C6.99045 10.1892 6.99045 10.9746 7.48899 11.4262L8.56323 10.2405ZM9.67964 11.3353L8.58648 10.2624L7.46574 11.4043L8.5589 12.4772L9.67964 11.3353ZM9.04893 11.3581C9.22819 11.1675 9.52276 11.1675 9.70202 11.3581L8.53651 12.4543C8.98906 12.9355 9.76189 12.9355 10.2144 12.4543L9.04893 11.3581Z" fill="black" mask="url(#path-3-inside-2_7883_28223)"/>
</svg>
