<svg viewBox="0 0 32 32" height="32" width="32" xmlns="http://www.w3.org/2000/svg" xml:space="preserve" style="fill-rule:evenodd;clip-rule:evenodd;stroke-linejoin:round;stroke-miterlimit:2"><path d="M13.333 2.667H2.667c-.734 0-1.327.6-1.327 1.333l-.007 8c0 .733.6 1.333 1.334 1.333h10.666c.734 0 1.334-.6 1.334-1.333V4c0-.733-.6-1.333-1.334-1.333Zm0 2.666L8 8.667 2.667 5.333V4L8 7.333 13.333 4v1.333Z" style="fill:#fff;fill-rule:nonzero" transform="translate(0 16)"/><path d="M6 14c-.55 0-1.021-.196-1.412-.587A1.93 1.93 0 0 1 4 12c0-.55.196-1.021.588-1.413A1.925 1.925 0 0 1 6 10c.55 0 1.021.196 1.413.587.391.392.587.863.587 1.413a1.931 1.931 0 0 1-.587 1.413c-.37.382-.881.594-1.413.587Zm6 0c-.55 0-1.021-.196-1.412-.587A1.93 1.93 0 0 1 10 12c0-.55.196-1.021.588-1.413A1.925 1.925 0 0 1 12 10c.55 0 1.021.196 1.413.587.391.392.587.863.587 1.413a1.931 1.931 0 0 1-.587 1.413c-.37.382-.881.594-1.413.587Zm6 0c-.55 0-1.021-.196-1.412-.587A1.93 1.93 0 0 1 16 12c0-.55.196-1.021.588-1.413A1.925 1.925 0 0 1 18 10c.55 0 1.021.196 1.413.587.391.392.587.863.587 1.413a1.931 1.931 0 0 1-.587 1.413c-.37.382-.881.594-1.413.587Z" style="fill:#fff;fill-rule:nonzero" transform="matrix(.875 0 0 .875 13.5 13.558)"/><path d="M5 22c-.55 0-1.021-.196-1.412-.587A1.93 1.93 0 0 1 3 20V6c0-.55.196-1.021.588-1.413A1.925 1.925 0 0 1 5 4h1V2h2v2h8V2h2v2h1c.55 0 1.021.196 1.413.587.391.392.587.863.587 1.413v14a1.931 1.931 0 0 1-.587 1.413c-.37.382-.881.594-1.413.587H5Zm0-2h14V10H5v10Z" style="fill:#fff;fill-rule:nonzero" transform="matrix(.73887 0 0 .73887 -.924 -.495)"/><path d="M1 20v-2.8c0-.567.146-1.087.438-1.563A2.916 2.916 0 0 1 2.6 14.55a14.859 14.859 0 0 1 3.15-1.163A13.738 13.738 0 0 1 9 13c1.1 0 2.183.129 3.25.387 1.067.259 2.117.646 3.15 1.163.483.25.871.613 1.163 1.087.291.476.437.996.437 1.563V20H1Zm18 0v-3c0-.733-.204-1.437-.612-2.113-.409-.675-.988-1.254-1.738-1.737 1.575.179 3.102.654 4.5 1.4.6.333 1.058.704 1.375 1.113.317.408.475.854.475 1.337v3h-4ZM9 12c-1.1 0-2.042-.392-2.825-1.175C5.392 10.042 5 9.1 5 8s.392-2.042 1.175-2.825C6.958 4.392 7.9 4 9 4s2.042.392 2.825 1.175C12.608 5.958 13 6.9 13 8s-.392 2.042-1.175 2.825C11.042 11.608 10.1 12 9 12Zm10-4c0 1.1-.392 2.042-1.175 2.825C17.042 11.608 16.1 12 15 12c-.183 0-.417-.021-.7-.062a6.142 6.142 0 0 1-.7-.138 5.956 5.956 0 0 0 1.038-1.775A5.785 5.785 0 0 0 15 8c0-.7-.121-1.375-.362-2.025A5.956 5.956 0 0 0 13.6 4.2c.233-.083.467-.137.7-.163.233-.025.467-.037.7-.037 1.1 0 2.042.392 2.825 1.175C18.608 5.958 19 6.9 19 8Z" style="fill:#fff;fill-rule:nonzero" transform="matrix(.62273 0 0 .62273 16.416 1.062)"/></svg>