<?xml version="1.0" encoding="UTF-8" standalone="no"?>
<!DOCTYPE svg PUBLIC "-//W3C//DTD SVG 1.1//EN" "http://www.w3.org/Graphics/SVG/1.1/DTD/svg11.dtd">
<svg width="100%" height="100%" viewBox="0 0 15 14" version="1.1" xmlns="http://www.w3.org/2000/svg" xmlns:xlink="http://www.w3.org/1999/xlink" xml:space="preserve" xmlns:serif="http://www.serif.com/" style="fill-rule:evenodd;clip-rule:evenodd;stroke-linejoin:round;stroke-miterlimit:2;">
    <g transform="matrix(1,0,0,1,-0.996312,-1.00477)">
        <g transform="matrix(1.0355,0,0,1.0355,-0.283957,-0.284117)">
            <path d="M9.236,2.166L6.055,5.35C5.348,6.057 5.017,6.968 5.066,7.807C5.116,8.646 5.5,9.391 6.055,9.945L7.467,8.529C6.9,7.962 6.922,7.31 7.469,6.764L10.65,3.582C11.175,3.057 11.901,3.059 12.422,3.58C12.904,4.136 12.949,4.818 12.418,5.349L11.598,6.17C12.153,6.955 12.243,7.536 12.191,8.404L13.832,6.764C15.069,5.526 15.069,3.399 13.832,2.162C12.596,0.926 10.49,0.951 9.236,2.166ZM9.943,6.051L8.529,7.469L8.533,7.469C9.083,8.019 9.041,8.727 8.529,9.238L5.348,12.42C4.652,13.012 4.049,12.891 3.578,12.42C2.952,11.794 3.078,11.152 3.578,10.652L4.428,9.805C3.872,9.021 3.78,8.44 3.831,7.572L2.165,9.238C0.925,10.478 0.929,12.598 2.165,13.834C3.4,15.069 5.527,15.07 6.762,13.834L9.944,10.652C10.652,9.944 10.983,9.034 10.934,8.193C10.886,7.353 10.502,6.607 9.946,6.053L9.943,6.051Z" style="fill:white;fill-opacity:0.8;fill-rule:nonzero;"/>
        </g>
    </g>
</svg>
