<?xml version="1.0" encoding="UTF-8" standalone="no"?>
<!DOCTYPE svg PUBLIC "-//W3C//DTD SVG 1.1//EN" "http://www.w3.org/Graphics/SVG/1.1/DTD/svg11.dtd">
<svg width="100%" height="100%" viewBox="0 0 58 59" version="1.1" xmlns="http://www.w3.org/2000/svg" xmlns:xlink="http://www.w3.org/1999/xlink" xml:space="preserve" xmlns:serif="http://www.serif.com/" style="fill-rule:evenodd;clip-rule:evenodd;stroke-linejoin:round;stroke-miterlimit:2;">
    <g transform="matrix(1,0,0,1,-3.0001,-3)">
        <g transform="matrix(3.86652,0,0,3.86662,1.06684,2.78579)">
            <path d="M6.938,0.056C6.689,0.056 6.5,0.245 6.5,0.494L6.5,1.744C5.946,1.886 5.449,2.115 4.969,2.4L4.063,1.494C3.887,1.318 3.613,1.318 3.438,1.494L1.938,2.994C1.762,3.169 1.762,3.443 1.938,3.619L2.844,4.525C2.559,5.005 2.33,5.502 2.188,6.056L0.938,6.056C0.689,6.056 0.5,6.245 0.5,6.494L0.5,8.619C0.5,8.867 0.689,9.056 0.938,9.056L2.188,9.056C2.33,9.61 2.559,10.107 2.844,10.587L1.937,11.494C1.762,11.67 1.762,11.944 1.937,12.119L3.437,13.619C3.613,13.795 3.887,13.795 4.062,13.619L4.969,12.712C5.449,12.997 5.946,13.226 6.5,13.368L6.5,14.618C6.5,14.867 6.689,15.056 6.937,15.056L9.062,15.056C9.311,15.056 9.5,14.867 9.5,14.618L9.5,13.368C10.054,13.226 10.551,12.996 11.031,12.711L11.937,13.618C12.113,13.793 12.387,13.793 12.562,13.618L14.062,12.118C14.238,11.942 14.238,11.668 14.062,11.493L13.156,10.587C13.441,10.107 13.67,9.61 13.812,9.056L15.062,9.056C15.311,9.056 15.5,8.867 15.5,8.618L15.5,6.493C15.5,6.245 15.311,6.056 15.062,6.056L13.812,6.056C13.67,5.502 13.441,5.005 13.156,4.525L14.062,3.618C14.238,3.443 14.238,3.169 14.062,2.993L12.562,1.493C12.387,1.318 12.113,1.318 11.937,1.493L11.031,2.399C10.551,2.115 10.054,1.885 9.5,1.743L9.5,0.493C9.501,0.244 9.312,0.055 9.063,0.055L6.938,0.056ZM8,4.213C9.845,4.213 11.343,5.711 11.343,7.556C11.343,9.401 9.845,10.899 8,10.899C6.155,10.899 4.657,9.401 4.657,7.556C4.657,5.711 6.155,4.213 8,4.213L8,4.213Z" style="fill:white;fill-rule:nonzero;"/>
        </g>
    </g>
</svg>
