<?xml version="1.0" encoding="UTF-8" standalone="no"?>
<!DOCTYPE svg PUBLIC "-//W3C//DTD SVG 1.1//EN" "http://www.w3.org/Graphics/SVG/1.1/DTD/svg11.dtd">
<svg width="24" height="24" viewBox="0 0 24 24" version="1.1" xmlns="http://www.w3.org/2000/svg" xmlns:xlink="http://www.w3.org/1999/xlink" xml:space="preserve" xmlns:serif="http://www.serif.com/" style="fill-rule:evenodd;clip-rule:evenodd;stroke-linejoin:round;stroke-miterlimit:2;">
    <g transform="matrix(0.025,0,0,0.025,0,24)">
        <path d="M388,-80L368,-206C355.333,-210.667 342,-217 328,-225C314,-233 301.667,-241.333 291,-250L173,-196L80,-360L188,-439C186.667,-445 185.833,-451.833 185.5,-459.5C185.167,-467.167 185,-474 185,-480C185,-486 185.167,-492.833 185.5,-500.5C185.833,-508.167 186.667,-515 188,-521L80,-600L173,-764L291,-710C301.667,-718.667 314,-727 328,-735C342,-743 355.333,-749 368,-753L388,-880L572,-880L592,-754C604.667,-749.333 618.167,-743.167 632.5,-735.5C646.833,-727.833 659,-719.333 669,-710L787,-764L880,-600L772,-523C773.333,-516.333 774.167,-509.167 774.5,-501.5C774.833,-493.833 775,-486.667 775,-480C775,-473.333 774.833,-466.333 774.5,-459C774.167,-451.667 773.333,-444.667 772,-438L880,-360L787,-196L669,-250C658.333,-241.333 646.167,-232.833 632.5,-224.5C618.833,-216.167 605.333,-210 592,-206L572,-80L388,-80ZM436,-140L524,-140L538,-252C560,-257.333 580.833,-265.667 600.5,-277C620.167,-288.333 638,-302 654,-318L760,-272L800,-344L706,-413C708.667,-424.333 710.833,-435.5 712.5,-446.5C714.167,-457.5 715,-468.667 715,-480C715,-491.333 714.333,-502.5 713,-513.5C711.667,-524.5 709.333,-535.667 706,-547L800,-616L760,-688L654,-642C638.667,-659.333 621.333,-673.833 602,-685.5C582.667,-697.167 561.333,-704.667 538,-708L524,-820L436,-820L422,-708C399.333,-703.333 378.167,-695.333 358.5,-684C338.833,-672.667 321.333,-658.667 306,-642L200,-688L160,-616L254,-547C251.333,-535.667 249.167,-524.5 247.5,-513.5C245.833,-502.5 245,-491.333 245,-480C245,-468.667 245.833,-457.5 247.5,-446.5C249.167,-435.5 251.333,-424.333 254,-413L160,-344L200,-272L306,-318C322,-302 339.833,-288.333 359.5,-277C379.167,-265.667 400,-257.333 422,-252L436,-140ZM480,-350C516,-350 546.667,-362.667 572,-388C597.333,-413.333 610,-444 610,-480C610,-516 597.333,-546.667 572,-572C546.667,-597.333 516,-610 480,-610C444,-610 413.333,-597.333 388,-572C362.667,-546.667 350,-516 350,-480C350,-444 362.667,-413.333 388,-388C413.333,-362.667 444,-350 480,-350Z" style="fill:white;fill-rule:nonzero;"/>
    </g>
</svg>
