<?xml version="1.0" encoding="utf-8"?>
<!-- Generator: Adobe Illustrator 18.0.0, SVG Export Plug-In . SVG Version: 6.00 Build 0)  -->
<!DOCTYPE svg PUBLIC "-//W3C//DTD SVG 1.1//EN" "http://www.w3.org/Graphics/SVG/1.1/DTD/svg11.dtd">
<svg version="1.1" id="Ebene_1" xmlns="http://www.w3.org/2000/svg" xmlns:xlink="http://www.w3.org/1999/xlink" x="0px" y="0px"
	 viewBox="0 0 64 64" enable-background="new 0 0 64 64" xml:space="preserve">
<g>
	<path fill="#FFFFFF" d="M58.9,24.8c-0.4,0-0.9,0.1-1.3,0.2c-0.5-5-4.6-8.9-9.6-8.9c0,0-0.1,0-0.1,0c-0.1-5-4.1-8.9-9-8.9
		c-0.4,0-0.7,0-1.1,0.1C36.9,3.1,33.3,0,29,0c-3.5,0-6.6,2.1-8,5.1c-0.8-0.7-1.9-1.1-3-1.1c-2.7,0-4.9,2.3-4.9,5
		c0,1.1,0.3,2.1,0.9,2.9c-1.9,1.2-3.4,3.1-4.1,5.4c-0.3,0-0.6,0-0.9,0c-5,0-9,4.1-9,9.2C0,31.6,4,36,9,36h9.2c3.7-6,10.3-10,17.9-10
		s14.2,4,17.9,10h5c2.8,0,5.1-3,5.1-5.9C64,27.2,61.7,24.8,58.9,24.8z"/>
	<path fill="#FFFFFF" d="M48.9,36c-3.1-3.7-7.8-6-12.9-6s-9.8,2.3-12.9,6c-2.5,3-4.1,6.8-4.1,11c0,9.4,7.6,17,17,17s17-7.6,17-17
		C53,42.8,51.5,39,48.9,36z M45.9,48.9c-0.4,2-1.3,3.8-2.8,5.2c-1.5,1.5-3.3,2.4-5.4,2.8c-0.6,0.1-1.2,0.2-1.8,0.2
		c-3.2,0-6.2-1.5-8.1-4.1l-1.3,1.7l-0.5-5.9c0,0,0,0,0,0l0-0.3l3.6-0.6l0,0l2.5-0.4l-1.9,2.5c1.1,2.2,3.3,3.5,5.7,3.5
		c0.4,0,0.7,0,1.1-0.1c2.2-0.4,4-1.9,4.8-4l0.1-0.2l4-0.7L45.9,48.9z M46,45.7L46,45.7l-6.2,1.1l1.9-2.5c-1.1-2.2-3.3-3.6-5.7-3.6
		c-0.4,0-0.7,0-1.1,0.1c-2.2,0.4-4.1,1.9-4.9,4L30,45.1l-4,0.7l0.1-0.5c0.8-4.1,4-7.4,8.2-8.1c0.6-0.1,1.2-0.2,1.8-0.2
		c3.2,0,6.2,1.5,8.1,4.1l1.3-1.7l0.5,5.8L46,45.7L46,45.7z"/>
</g>
</svg>
