<svg xmlns="http://www.w3.org/2000/svg" height="16" width="16" version="1.1" viewBox="0 0 4.2333331 4.2333334"><g transform="translate(0 -292.77)"><path d="m2.1167 292.77a2.1167 2.1167 0 0 0 -2.1167 2.11 2.1167 2.1167 0 0 0 2.1167 2.1167 2.1167 2.1167 0 0 0 2.1167 -2.1167 2.1167 2.1167 0 0 0 -2.1167 -2.1167zm0 0.79375c0.3765 0 0.72885 0.1623 0.97668 0.4346a0.2646 0.2646 0 0 1 0.24288 -0.17002 0.2646 0.2646 0 0 1 0.26872 0.2682v0.52555a0.2646 0.2646 0 0 1 -0.26458 0.26459h-0.5256a0.2646 0.2646 0 1 1 0 -0.52917h0.0062c-0.16534-0.22017-0.42481-0.35295-0.70435-0.35295-0.31544 0-0.60606 0.16814-0.76378 0.44132a0.22053 0.22053 0 1 1 -0.38189 -0.22066c0.23614-0.40901 0.67339-0.66146 1.1457-0.66146zm-1.2072 1.3229h0.52555a0.2646 0.2646 0 1 1 0 0.52916h-0.022738c0.16534 0.22018 0.42481 0.35295 0.70435 0.35295 0.31544 0 0.60606-0.16813 0.76378-0.44131a0.22053 0.22053 0 1 1 0.38189 0.22065c-0.23614 0.40901-0.67339 0.66146-1.1457 0.66146-0.37089 0-0.71859-0.15725-0.96583-0.42219a0.2646 0.2646 0 0 1 -0.50591 -0.11059v-0.52555a0.2646 0.2646 0 0 1 0.26458 -0.26458z" stroke-width=".25066" fill="#fff"/></g></svg>
