<svg width="16" height="16" version="1.1" viewBox="0 0 4.2333 4.2333" xmlns="http://www.w3.org/2000/svg"><path transform="scale(.26458)" d="m8 1a7 7 0 0 0-7 7 7 7 0 0 0 7 7 7 7 0 0 0 7-7 7 7 0 0 0-7-7zm0 1a6 6 0 0 1 6 6 6 6 0 0 1-6 6 6 6 0 0 1-6-6 6 6 0 0 1 6-6zm3.7812 3.3594a0.75005 0.75005 0 0 0-0.51562 0.22852l-4.3633 4.3633-2.1113-2.1113a0.75005 0.75005 0 1 0-1.0625 1.0547l2.6426 2.6504a0.75005 0.75005 0 0 0 1.0625 0l4.8945-4.8945a0.75005 0.75005 0 0 0-0.54688-1.291z" fill="#fff" stroke-width=".82894"/></svg>
