<svg width="16" height="16" version="1.1" viewBox="0 0 4.2333 4.2333" xmlns="http://www.w3.org/2000/svg"><g transform="matrix(.87499 0 0 .87499 .26458 -255.9)" fill="#fff"><path transform="matrix(.30239 0 0 .30239 -.30239 292.46)" d="m8 1a7 7 0 0 0-7 7 7 7 0 0 0 7 7 7 7 0 0 0 7-7 7 7 0 0 0-7-7zm0 1a6 6 0 0 1 6 6 6 6 0 0 1-6 6 6 6 0 0 1-6-6 6 6 0 0 1 6-6z" stroke-width=".82894"/><path d="m2.1194 294.11c0.35242 0 0.64861 0.24038 0.74159 0.56378 0.080509-0.17145 0.25241-0.29255 0.45289-0.29255 0.27754 8.6e-4 0.50223 0.22593 0.50347 0.50346-0.00125 0.27754-0.22593 0.50223-0.50347 0.50347-0.20071 0-0.37261-0.12178-0.45357-0.29301-0.092528 0.32363-0.38871 0.56379-0.74114 0.56379-0.35446 0-0.65247-0.24266-0.7434-0.56923-0.080509 0.1804-0.25897 0.29716-0.45652 0.29867-0.27754-8.5e-4 -0.50223-0.22592-0.50347-0.50346 9.9429e-4 -0.27772 0.22575-0.50268 0.50347-0.50392 0.2032 0 0.37783 0.12405 0.4572 0.29868 0.090711-0.32657 0.38848-0.56924 0.74295-0.56924zm0 0.29595c-0.26625 0-0.47852 0.2125-0.47897 0.47852-0.00152 0.26516 0.21381 0.48049 0.47897 0.47897 0.2648 8.6e-4 0.47979-0.21372 0.47852-0.47852 0-0.26647-0.21249-0.47897-0.47852-0.47897zm-1.1997 0.27055c-0.11558-8.6e-4 -0.20967 0.0926-0.20865 0.20819 0 0.11657 0.091851 0.20774 0.20865 0.20774 0.11517 8.6e-4 0.20878-0.0926 0.20751-0.20774 0.00141-0.11538-0.092357-0.20934-0.20774-0.20819zm2.3942 0c-0.11558-8.6e-4 -0.20967 0.0926-0.20865 0.20819 0 0.11657 0.091851 0.20774 0.20865 0.20774 0.11529 8.6e-4 0.20912-0.0924 0.20796-0.20774 0.00127-0.1155-0.092683-0.20947-0.20819-0.20819z" stroke-width=".22678"/></g></svg>
