<svg xmlns="http://www.w3.org/2000/svg" xmlns:xlink="http://www.w3.org/1999/xlink" width="16" height="16" viewBox="0 0 16 16"><defs><path id="a" d="M0,0 L16,0 L16,16 L0,16 L0,0 Z"/></defs><g fill="none" fill-rule="evenodd"><use xlink:href="#a" fill="#FFF"/><path fill="#FFF" fill-rule="nonzero" d="M8.8,12.8 L8.8,3.2 L12.8,3.2 L12.8,12.8 L8.8,12.8 Z M3.2,12.8 L3.2,3.2 L7.2,3.2 L7.2,12.8 L3.2,12.8 Z M10,11.6 L11.6,11.6 L11.6,4.4 L10,4.4 L10,11.6 Z M4.4,11.6 L6,11.6 L6,4.4 L4.4,4.4 L4.4,11.6 Z M4.4,4.4 L4.4,4.4 L4.4,11.6 L4.4,11.6 L4.4,4.4 Z M10,4.4 L10,4.4 L10,11.6 L10,11.6 L10,4.4 Z"/></g></svg>