<svg xmlns="http://www.w3.org/2000/svg" xmlns:xlink="http://www.w3.org/1999/xlink" width="16" height="16" viewBox="0 0 16 16"><defs><path id="a" d="M0,0 L16,0 L16,16 L0,16 L0,0 Z"/></defs><g fill="none" fill-rule="evenodd"><use xlink:href="#a" fill="#FFF"/><path fill="#FFF" fill-rule="nonzero" d="M7.4,11.2 L8.6,11.2 L8.6,7.2 L7.4,7.2 L7.4,11.2 Z M7.99661458,6 C8.16553819,6 8.30833333,5.94283854 8.425,5.82851562 C8.54166667,5.71419271 8.6,5.57248264 8.6,5.40338542 C8.6,5.23446181 8.54283854,5.09166667 8.42851562,4.975 C8.31419271,4.85833333 8.17248264,4.8 8.00338542,4.8 C7.83446181,4.8 7.69166667,4.85716146 7.575,4.97148437 C7.45833333,5.08580729 7.4,5.22751736 7.4,5.39661458 C7.4,5.56553819 7.45716146,5.70833333 7.57148437,5.825 C7.68580729,5.94166667 7.82751736,6 7.99661458,6 Z M8.0046875,14.4 C7.12378472,14.4 6.29444444,14.2333333 5.51666667,13.9 C4.73888889,13.5666667 4.05833333,13.1083333 3.475,12.525 C2.89166667,11.9416667 2.43333333,11.2613281 2.1,10.4839844 C1.76666667,9.70664063 1.6,8.87612847 1.6,7.99244792 C1.6,7.10859375 1.76666667,6.28055556 2.1,5.50833333 C2.43333333,4.73611111 2.89166667,4.05833333 3.475,3.475 C4.05833333,2.89166667 4.73867187,2.43333333 5.51601562,2.1 C6.29335937,1.76666667 7.12387153,1.6 8.00755208,1.6 C8.89140625,1.6 9.71944444,1.76666667 10.4916667,2.1 C11.2638889,2.43333333 11.9416667,2.89166667 12.525,3.475 C13.1083333,4.05833333 13.5666667,4.73736979 13.9,5.51210937 C14.2333333,6.28684896 14.4,7.11458333 14.4,7.9953125 C14.4,8.87621528 14.2333333,9.70555556 13.9,10.4833333 C13.5666667,11.2611111 13.1083333,11.9416667 12.525,12.525 C11.9416667,13.1083333 11.2626302,13.5666667 10.4878906,13.9 C9.71315104,14.2333333 8.88541667,14.4 8.0046875,14.4 Z M8,13.2 C9.44444444,13.2 10.6722222,12.6944444 11.6833333,11.6833333 C12.6944444,10.6722222 13.2,9.44444444 13.2,8 C13.2,6.55555556 12.6944444,5.32777778 11.6833333,4.31666667 C10.6722222,3.30555556 9.44444444,2.8 8,2.8 C6.55555556,2.8 5.32777778,3.30555556 4.31666667,4.31666667 C3.30555556,5.32777778 2.8,6.55555556 2.8,8 C2.8,9.44444444 3.30555556,10.6722222 4.31666667,11.6833333 C5.32777778,12.6944444 6.55555556,13.2 8,13.2 Z"/></g></svg>