<?xml version="1.0" encoding="utf-8"?>
<!-- Generator: Adobe Illustrator 29.2.1, SVG Export Plug-In . SVG Version: 9.03 Build 55982)  -->
<svg version="1.1" baseProfile="basic" id="Layer_1"
	 xmlns="http://www.w3.org/2000/svg" xmlns:xlink="http://www.w3.org/1999/xlink" x="0px" y="0px" width="16px" height="16px"
	 viewBox="0 0 16 16" xml:space="preserve">
<style type="text/css">
	.st0{fill:#FFFFFF;}
</style>
<path class="st0" d="M8,4.4c1.7,0,3.1,1.1,3.5,2.7c0.4-0.8,1.2-1.4,2.1-1.4C14.9,5.6,16,6.7,16,8c0,1.3-1.1,2.4-2.4,2.4
	c-0.9,0-1.8-0.6-2.1-1.4c-0.4,1.5-1.8,2.7-3.5,2.7c-1.7,0-3.1-1.1-3.5-2.7c-0.4,0.8-1.2,1.4-2.1,1.4C1.1,10.4,0,9.3,0,8
	c0-1.3,1.1-2.4,2.4-2.4c1,0,1.8,0.6,2.2,1.4C4.9,5.5,6.3,4.4,8,4.4L8,4.4z M8,5.7c-1.3,0-2.3,1-2.3,2.3c0,1.2,1,2.3,2.3,2.3
	c1.2,0,2.3-1,2.3-2.3C10.3,6.7,9.3,5.7,8,5.7z M2.4,7c-0.5,0-1,0.4-1,1c0,0.5,0.4,1,1,1c0.5,0,1-0.4,1-1C3.4,7.5,2.9,7,2.4,7L2.4,7z
	 M13.6,7c-0.5,0-1,0.4-1,1c0,0.5,0.4,1,1,1c0.5,0,1-0.4,1-1C14.6,7.5,14.2,7,13.6,7L13.6,7z"/>
</svg>
