<?xml version="1.0" encoding="utf-8"?>
<!-- Generator: Adobe Illustrator 29.2.1, SVG Export Plug-In . SVG Version: 9.03 Build 55982)  -->
<svg version="1.1" baseProfile="basic" id="Layer_1"
	 xmlns="http://www.w3.org/2000/svg" xmlns:xlink="http://www.w3.org/1999/xlink" x="0px" y="0px" width="16px" height="16px"
	 viewBox="0 0 16 16" xml:space="preserve">
<style type="text/css">
	.st0{fill:#FFFFFF;}
</style>
<path class="st0" d="M13.2,10.5c-1.5,0-2.8,1.2-2.8,2.8s1.2,2.8,2.8,2.8s2.8-1.2,2.8-2.8S14.8,10.5,13.2,10.5z M13.2,10.9
	c1.3,0,2.4,1.1,2.4,2.4s-1.1,2.4-2.4,2.4s-2.4-1.1-2.4-2.4S11.9,10.9,13.2,10.9z M13.2,11.8c-0.5,0-1,0.3-1.3,0.7
	c-0.1,0.1,0,0.3,0.1,0.3c0.1,0.1,0.3,0,0.3-0.1c0,0,0,0,0,0c0.2-0.3,0.5-0.5,0.9-0.5c0.3,0,0.6,0.2,0.8,0.4c-0.2,0-0.3,0.1-0.3,0.3
	s0.1,0.3,0.3,0.3c0,0,0,0,0,0h0.6c0.2,0,0.3-0.1,0.3-0.3v-0.6c0-0.2-0.1-0.3-0.3-0.3c0,0,0,0,0,0c-0.1,0-0.2,0.1-0.3,0.2
	C14.1,11.9,13.7,11.8,13.2,11.8L13.2,11.8z M12.5,13.2C12.5,13.2,12.5,13.2,12.5,13.2l-0.6,0c0,0,0,0,0,0c-0.2,0-0.3,0.1-0.3,0.3
	v0.6c0,0.2,0.1,0.3,0.3,0.3c0.1,0,0.2-0.1,0.3-0.2c0.3,0.3,0.7,0.5,1.1,0.5c0.5,0,1-0.3,1.3-0.7c0.1-0.1,0-0.3-0.1-0.3
	c-0.1-0.1-0.3,0-0.3,0.1c0,0,0,0,0,0c-0.2,0.3-0.5,0.5-0.9,0.5c-0.3,0-0.6-0.1-0.8-0.4h0c0.2,0,0.3-0.1,0.3-0.3
	C12.8,13.4,12.7,13.2,12.5,13.2L12.5,13.2L12.5,13.2z"/>
<path class="st0" d="M8,4.4c1.7,0,3.1,1.1,3.5,2.7c0.4-0.8,1.2-1.4,2.1-1.4C14.9,5.6,16,6.7,16,8c0,1.3-1.1,2.4-2.4,2.4
	c-0.9,0-1.8-0.6-2.1-1.4c-0.4,1.5-1.8,2.7-3.5,2.7c-1.7,0-3.1-1.1-3.5-2.7c-0.4,0.8-1.2,1.4-2.1,1.4C1.1,10.4,0,9.3,0,8
	c0-1.3,1.1-2.4,2.4-2.4c1,0,1.8,0.6,2.2,1.4C4.9,5.5,6.3,4.4,8,4.4L8,4.4z M8,5.7c-1.3,0-2.3,1-2.3,2.3c0,1.2,1,2.3,2.3,2.3
	c1.2,0,2.3-1,2.3-2.3C10.3,6.7,9.3,5.7,8,5.7z M2.4,7c-0.5,0-1,0.4-1,1c0,0.5,0.4,1,1,1c0.5,0,1-0.4,1-1C3.4,7.5,2.9,7,2.4,7L2.4,7z
	 M13.6,7c-0.5,0-1,0.4-1,1c0,0.5,0.4,1,1,1c0.5,0,1-0.4,1-1C14.6,7.5,14.2,7,13.6,7L13.6,7z"/>
</svg>
