<svg width="256" height="256" viewBox="0 0 256 256" fill="none" xmlns="http://www.w3.org/2000/svg">
<rect width="256" height="256" fill="#003D8F"/>
<path fill-rule="evenodd" clip-rule="evenodd" d="M195.2 111.7C212 117.4 224 133.6 224 152.2C224 176.2 204.8 195.4 180.8 195.4H70.4C49.4 195.4 32 178.3 32 157C32 138.7 45.2 123.1 62.9 119.5C61.7 116.2 60.8 112.9 60.8 109C60.8 93.1 73.7 80.2 89.6 80.2C95.6 80.2 101.3 82 105.8 85.3C113.9 70.9 129.5 61 147.2 61C173.9 61 195.2 82.6 195.2 109V111.7ZM126.483 124.496L113.365 111.387C111.725 109.612 108.856 109.612 107.216 111.387L94.0982 124.496C92.3219 126.134 92.3219 129.002 94.0982 130.64C95.738 132.415 98.6075 132.415 100.247 130.64L105.986 125.042V166.826C105.986 169.284 107.899 171.195 110.359 171.195C112.682 171.195 114.732 169.284 114.732 166.826V125.042L120.334 130.64C121.974 132.415 124.843 132.415 126.483 130.64C128.259 129.002 128.259 126.134 126.483 124.496ZM148.346 169.967L161.464 156.858C163.24 155.219 163.24 152.352 161.464 150.713C159.824 148.938 156.955 148.938 155.315 150.713L149.713 156.312V114.391C149.713 112.07 147.663 110.021 145.34 110.021C142.88 110.021 140.967 112.07 140.967 114.391V156.312L135.228 150.713C133.589 148.938 130.719 148.938 129.079 150.713C127.303 152.352 127.303 155.219 129.079 156.858L142.197 169.967C143.837 171.742 146.706 171.742 148.346 169.967Z" fill="white"/>
</svg>
