<svg xmlns="http://www.w3.org/2000/svg" width="16" height="16" viewBox="0 0 16 16"><path fill="#FFF" d="M7.00970874,10.7582524 L10.7019417,7.06601942 L9.99553398,6.35961165 L7.01708738,9.33786408 L5.68194175,8.00252427 L4.96796117,8.71650485 L7.00970874,10.7582524 Z M3.33980583,13.007767 C2.40880259,13.007767 1.61941748,12.6801294 0.971650485,12.0248544 C0.323883495,11.3697087 0,10.5766343 0,9.64563107 C0,8.72148867 0.336569579,7.92511327 1.00970874,7.25650485 C1.6828479,6.58776699 2.48491909,6.2633657 3.41592233,6.28330097 C3.6389644,5.21288026 4.17423948,4.33139159 5.02174757,3.63883495 C5.86912621,2.94627832 6.86187702,2.6 8,2.6 C9.22381877,2.6 10.2902913,3.01249191 11.1994175,3.83747573 C12.1085437,4.66245955 12.6213592,5.67391586 12.7378641,6.87184466 L12.7378641,7.26019417 L12.9768932,7.26019417 C13.8083495,7.22032362 14.5200647,7.48148867 15.1120388,8.04368932 C15.7040129,8.60576052 16,9.30252427 16,10.1339806 C16,10.935534 15.7214239,11.6148867 15.1642718,12.1720388 C14.6071197,12.7291909 13.927767,13.007767 13.1262136,13.007767 L3.33980583,13.007767 Z M3.33980583,11.9980583 L13.1262136,11.9980583 C13.6440129,11.9980583 14.0841424,11.8168285 14.4466019,11.4543689 C14.8090615,11.0919094 14.9902913,10.6517799 14.9902913,10.1339806 C14.9902913,9.61618123 14.8090615,9.17605178 14.4466019,8.81359223 C14.0841424,8.45113269 13.6440129,8.26990291 13.1262136,8.26990291 L11.8446602,8.26990291 L11.7281553,7.00776699 C11.6375405,6.04983819 11.236246,5.24401294 10.5242718,4.59029126 C9.81229773,3.93656958 8.97087379,3.60970874 8,3.60970874 C7.17152104,3.60970874 6.43042071,3.85889968 5.77669903,4.35728155 C5.12297735,4.85566343 4.67961165,5.51262136 4.44660194,6.32815534 L4.17475728,7.27961165 L3.18446602,7.33786408 C2.5631068,7.37669903 2.04530744,7.61941748 1.63106796,8.06601942 C1.21682848,8.51262136 1.00970874,9.04660194 1.00970874,9.66796117 C1.00970874,10.3152104 1.23624595,10.8653722 1.68932039,11.3184466 C2.14239482,11.771521 2.69255663,11.9980583 3.33980583,11.9980583 Z"/></svg>