<?xml version="1.0" encoding="UTF-8" standalone="no"?>
<!DOCTYPE svg PUBLIC "-//W3C//DTD SVG 1.1//EN" "http://www.w3.org/Graphics/SVG/1.1/DTD/svg11.dtd">
<svg width="100%" height="100%" viewBox="0 0 16 16"
    xmlns="http://www.w3.org/2000/svg" version="1.1">
    <path d="M8,0.998C4.16,0.998 1,4.158 1,7.999C1,11.839 4.16,14.999 8,14.999C11.84,14.999 15,11.839 15,7.999C15,4.158 11.84,0.998 8,0.998ZM8,1.998C11.292,1.998 14,4.707 14,7.999C14,11.29 11.292,13.999 8,13.999C4.709,13.999 2,11.29 2,7.999C2,4.707 4.709,1.998 8,1.998ZM8.009,5.455C9.174,5.455 10.154,6.25 10.462,7.32C10.728,6.753 11.296,6.352 11.959,6.352C12.877,6.355 13.62,7.099 13.624,8.017C13.62,8.935 12.877,9.678 11.959,9.682C11.295,9.682 10.727,9.279 10.459,8.713C10.153,9.783 9.174,10.578 8.008,10.578C6.836,10.578 5.85,9.775 5.55,8.695C5.284,9.292 4.693,9.678 4.04,9.683C3.122,9.68 2.379,8.936 2.375,8.018C2.378,7.099 3.122,6.355 4.04,6.351C4.712,6.351 5.29,6.762 5.552,7.339C5.852,6.259 6.837,5.457 8.009,5.457L8.009,5.455ZM8.009,6.434C7.129,6.434 6.427,7.137 6.425,8.016C6.42,8.893 7.132,9.605 8.009,9.6C8.885,9.603 9.596,8.894 9.592,8.018C9.592,7.137 8.889,6.434 8.009,6.434ZM4.042,7.329C3.659,7.326 3.348,7.635 3.351,8.017C3.351,8.403 3.655,8.704 4.042,8.704C4.422,8.707 4.732,8.398 4.728,8.017C4.732,7.635 4.422,7.325 4.041,7.329L4.042,7.329ZM11.959,7.329C11.577,7.326 11.266,7.635 11.269,8.017C11.269,8.403 11.573,8.704 11.959,8.704C12.341,8.707 12.651,8.398 12.647,8.017C12.651,7.635 12.341,7.324 11.959,7.329L11.959,7.329Z" style="fill:white;fill-rule:nonzero;"/>
</svg>
