<?xml version="1.0" encoding="UTF-8" standalone="no"?>
<svg
   width="16"
   height="16"
   viewBox="0 0 16 16"
   version="1.1"
   id="svg1"
   sodipodi:docname="state-pause.svg"
   inkscape:version="1.4.2 (ebf0e940d0, 2025-05-08)"
   xmlns:inkscape="http://www.inkscape.org/namespaces/inkscape"
   xmlns:sodipodi="http://sodipodi.sourceforge.net/DTD/sodipodi-0.dtd"
   xmlns="http://www.w3.org/2000/svg"
   xmlns:svg="http://www.w3.org/2000/svg">
  <sodipodi:namedview
     id="namedview1"
     pagecolor="#ffffff"
     bordercolor="#000000"
     borderopacity="0.25"
     inkscape:showpageshadow="2"
     inkscape:pageopacity="0.0"
     inkscape:pagecheckerboard="true"
     inkscape:deskcolor="#d1d1d1"
     inkscape:zoom="85.9375"
     inkscape:cx="7.9941818"
     inkscape:cy="8"
     inkscape:window-width="2954"
     inkscape:window-height="1612"
     inkscape:window-x="0"
     inkscape:window-y="0"
     inkscape:window-maximized="1"
     inkscape:current-layer="svg1" />
  <g
     fill="none"
     fill-rule="evenodd"
     id="g1">
    <path
       fill="#FFF"
       fill-rule="nonzero"
       d="M8.8,12.8 L8.8,3.2 L12.8,3.2 L12.8,12.8 L8.8,12.8 Z M3.2,12.8 L3.2,3.2 L7.2,3.2 L7.2,12.8 L3.2,12.8 Z M10,11.6 L11.6,11.6 L11.6,4.4 L10,4.4 L10,11.6 Z M4.4,11.6 L6,11.6 L6,4.4 L4.4,4.4 L4.4,11.6 Z M4.4,4.4 L4.4,4.4 L4.4,11.6 L4.4,11.6 L4.4,4.4 Z M10,4.4 L10,4.4 L10,11.6 L10,11.6 L10,4.4 Z"
       id="path1" />
  </g>
</svg>
