<?xml version="1.0" encoding="utf-8"?>
<!-- Generator: Adobe Illustrator 18.0.0, SVG Export Plug-In . SVG Version: 6.00 Build 0)  -->
<!DOCTYPE svg PUBLIC "-//W3C//DTD SVG 1.1//EN" "http://www.w3.org/Graphics/SVG/1.1/DTD/svg11.dtd">
<svg version="1.1" id="Ebene_1" xmlns="http://www.w3.org/2000/svg" xmlns:xlink="http://www.w3.org/1999/xlink" x="0px" y="0px"
	 viewBox="0 0 64 64" enable-background="new 0 0 64 64" xml:space="preserve">
<g>
	<path fill="#FFFFFF" d="M58.8,24.8c-0.4,0-0.9,0.1-1.3,0.2c-0.5-5-4.6-8.9-9.6-8.9h-0.1c-0.1-5-4.1-8.9-9-8.9c-0.4,0-0.7,0-1.1,0.1
		C36.8,3.1,33.2,0,29,0c-3.5,0-6.6,2.1-8,5.1C20.2,4.4,19.1,4,18,4c-2.7,0-4.9,2.3-4.9,5c0,1.1,0.3,2.1,0.9,2.9
		c-1.9,1.2-3.4,3.1-4.1,5.4c-0.3,0-0.6,0-0.9,0c-5,0-9,4.1-9,9.2s4,9.5,9,9.5h9.2c3.7-6,10.3-10,17.9-10s14.2,4,17.9,10h5
		c2.8,0,5.1-3,5.1-5.9C63.9,27.2,61.6,24.8,58.8,24.8z"/>
	<path fill="#FFFFFF" d="M48.9,35.9c-3.1-3.7-7.8-6-12.9-6s-9.8,2.3-12.9,6c-2.5,3-4.1,6.8-4.1,11c0,9.4,7.6,17,17,17
		c9.4,0,17-7.6,17-17C53,42.7,51.5,38.9,48.9,35.9z M31,49h-4v-4h4V49z M38,49h-4v-4h4V49z M45,49h-4v-4h4V49z"/>
</g>
</svg>
