<svg xmlns="http://www.w3.org/2000/svg" height="16" width="16" version="1.1" viewBox="0 0 4.2333331 4.2333334"><g transform="translate(0 -292.77)"><path d="m2.1167 292.77a2.1167 2.1167 0 0 0 -2.1167 2.11 2.1167 2.1167 0 0 0 2.1167 2.1167 2.1167 2.1167 0 0 0 2.1167 -2.1167 2.1167 2.1167 0 0 0 -2.1167 -2.1167zm0.0031 1.2175c0.41116 0 0.75658 0.28054 0.86506 0.65784 0.093927-0.20003 0.29476-0.34158 0.52865-0.34158 0.3238 0.001 0.5856 0.26376 0.58704 0.58756-0.00146 0.32379-0.26325 0.58611-0.58704 0.58756-0.23416 0-0.43471-0.14234-0.52917-0.3421-0.10795 0.37756-0.45338 0.65784-0.86455 0.65784-0.41354 0-0.76155-0.28304-0.86765-0.66404-0.093927 0.21047-0.30179 0.34653-0.53227 0.3483-0.3238-0.001-0.58611-0.26377-0.58756-0.58756 0.00116-0.32401 0.26356-0.58611 0.58756-0.58756 0.23707 0 0.4407 0.14457 0.5333 0.3483 0.10583-0.381 0.45307-0.66405 0.86661-0.66405zm0 0.3452c-0.31062 0-0.55809 0.24774-0.55862 0.5581-0.00177 0.30935 0.24927 0.56091 0.55862 0.55914 0.30893 0.001 0.55958-0.24969 0.55811-0.55862 0-0.31089-0.24775-0.55862-0.55811-0.55862zm-1.3999 0.31574c-0.1346-0.001-0.24407 0.10821-0.24288 0.24288 0 0.13599 0.10714 0.24236 0.2434 0.24236 0.13436 0.001 0.24334-0.108 0.24185-0.24236 0.00164-0.13443-0.10748-0.24394-0.24185-0.24288zm2.7931 0c-0.1346-0.001-0.24407 0.10821-0.24288 0.24288 0 0.13599 0.10714 0.24236 0.2434 0.24236 0.13451 0.001 0.24371-0.10786 0.24236-0.24236 0.00148-0.13458-0.10785-0.24408-0.24236-0.24288z" stroke-width=".25066" fill="#fff"/></g></svg>
