<?xml version="1.0" encoding="UTF-8" standalone="no"?>
<svg
   viewBox="0 0 64 64"
   width="64"
   version="1.1"
   height="64"
   xmlns="http://www.w3.org/2000/svg"
   xmlns:svg="http://www.w3.org/2000/svg">
  <path
     d="M 7.1861368,35.043818 V 53.628501 L 13.001078,47.8053 c 4.609001,5.509327 11.634012,8.8587 18.964637,8.920649 8.920648,0.07545 16.99879,-4.675081 21.459114,-12.398049 l -8.045103,-4.646171 c -2.795962,4.836147 -7.848931,7.789047 -13.414011,7.743618 -4.873317,-0.0413 -9.518249,-2.36232 -12.389789,-6.194895 l 6.194894,-6.194894 z"
     id="path2731"
     style="stroke:#ffffff;stroke-width:8.25986;stroke-miterlimit:4;stroke-dasharray:none;stroke-opacity:1" />
  <path
     d="m 31.965715,7.1667926 c -8.84631,0 -17.03596,4.7287694 -21.459115,12.3897884 l 8.045103,4.646171 c 2.771183,-4.798978 7.871646,-7.743618 13.41236,-7.743618 4.917094,0 9.486448,2.319245 12.389789,6.194895 l -6.194895,6.194894 H 56.743641 V 10.26424 L 50.93696,16.070921 C 46.274269,10.503776 39.366549,7.1667926 31.965715,7.1667926 Z"
     id="path827"
     style="stroke:#ffffff;stroke-width:8.25986;stroke-miterlimit:4;stroke-dasharray:none;stroke-opacity:1" />
  <path
     d="m 31.965715,7.1667926 c -8.84631,0 -17.03596,4.7287694 -21.459115,12.3897884 l 8.045103,4.646171 c 2.771183,-4.798978 7.871646,-7.743618 13.41236,-7.743618 4.917094,0 9.486448,2.319245 12.389789,6.194895 l -6.194895,6.194894 H 56.743641 V 10.26424 L 50.93696,16.070921 C 46.274269,10.503776 39.364897,7.1655536 31.964063,7.1655536 Z"
     id="path2"
     style="stroke-width:4.12993" />
  <path
     d="M 7.1861368,35.043818 V 53.628501 L 13.001078,47.8053 c 4.609001,5.509327 11.634012,8.8587 18.964637,8.920649 8.920648,0.07545 16.99879,-4.675081 21.459114,-12.398049 l -8.045103,-4.646171 c -2.795962,4.836147 -7.848931,7.789047 -13.414011,7.743618 -4.873317,-0.0413 -9.518249,-2.36232 -12.389789,-6.194895 l 6.194894,-6.194894 z"
     id="path4"
     style="stroke-width:4.12993" />
</svg>
