<?xml version="1.0" encoding="UTF-8" standalone="no"?>
<svg
   viewBox="0 0 16 16"
   width="16"
   version="1.1"
   height="16"
   id="svg6"
   sodipodi:docname="change-bordered.svg"
   inkscape:version="1.1.1 (3bf5ae0d25, 2021-09-20)"
   xmlns:inkscape="http://www.inkscape.org/namespaces/inkscape"
   xmlns:sodipodi="http://sodipodi.sourceforge.net/DTD/sodipodi-0.dtd"
   xmlns="http://www.w3.org/2000/svg"
   xmlns:svg="http://www.w3.org/2000/svg">
  <defs
     id="defs10" />
  <sodipodi:namedview
     id="namedview8"
     pagecolor="#ffffff"
     bordercolor="#666666"
     borderopacity="1.0"
     inkscape:pageshadow="2"
     inkscape:pageopacity="0.0"
     inkscape:pagecheckerboard="0"
     showgrid="false"
     inkscape:zoom="27.84233"
     inkscape:cx="6.0878526"
     inkscape:cy="3.9867353"
     inkscape:window-width="1920"
     inkscape:window-height="1020"
     inkscape:window-x="1"
     inkscape:window-y="1111"
     inkscape:window-maximized="1"
     inkscape:current-layer="svg6" />
  <path
     d="m2 8.75v4.5l1.408-1.41c1.116 1.334 2.817 2.145 4.592 2.16 2.16 0.01827 4.116-1.132 5.196-3.002l-1.948-1.125c-0.677 1.171-1.9005 1.886-3.248 1.875-1.18-0.01-2.3047-0.572-3-1.5l1.5-1.5z"
     id="path2731"
     style="stroke-width:2;stroke-miterlimit:4;stroke-dasharray:none;stroke:#ffffff;stroke-opacity:1" />
  <path
     d="M 8,2 C 5.858,2 3.875,3.145 2.804,5 L 4.752,6.125 C 5.423,4.963 6.658,4.25 7.9996,4.25 c 1.1906,0 2.297,0.56157 3,1.5 l -1.5,1.5 h 4.5 v -4.5 l -1.406,1.406 C 11.4646,2.808 9.792,2 8,2 Z"
     id="path827"
     style="stroke:#ffffff;stroke-opacity:1;stroke-width:2;stroke-miterlimit:4;stroke-dasharray:none"
     sodipodi:nodetypes="cccsccccccc" />
  <path
     d="m8 2c-2.142 0-4.125 1.145-5.196 3l1.948 1.125c0.671-1.162 1.906-1.875 3.2476-1.875 1.1906 0 2.297 0.56157 3 1.5l-1.5 1.5h4.5v-4.5l-1.406 1.406c-1.129-1.348-2.802-2.1563-4.594-2.1563z"
     id="path2" />
  <path
     d="m2 8.75v4.5l1.408-1.41c1.116 1.334 2.817 2.145 4.592 2.16 2.16 0.01827 4.116-1.132 5.196-3.002l-1.948-1.125c-0.677 1.171-1.9005 1.886-3.248 1.875-1.18-0.01-2.3047-0.572-3-1.5l1.5-1.5z"
     id="path4" />
</svg>
