<svg xmlns="http://www.w3.org/2000/svg" width="16" height="16" viewBox="0 0 16 16"><g fill="none" fill-rule="evenodd"><path fill="#DB0606" d="M8,14.9333333 C7.0484375,14.9333333 6.15134549,14.7526476 5.30872396,14.391276 C4.46610243,14.0299045 3.72912326,13.5335503 3.09778646,12.9022135 C2.46644965,12.2708767 1.97009549,11.5338976 1.60872396,10.691276 C1.24735243,9.84865451 1.06666667,8.9515625 1.06666667,8 C1.06666667,7.03454861 1.24765625,6.13198785 1.60963542,5.29231771 C1.97161458,4.45264757 2.46883681,3.71623264 3.10130208,3.08307292 C3.73376736,2.44991319 4.47074653,1.95555556 5.31223958,1.6 C6.15373264,1.24444444 7.04965278,1.06666667 8,1.06666667 C8.96545139,1.06666667 9.86792535,1.24444444 10.7074219,1.6 C11.5469184,1.95555556 12.2833333,2.45 12.9166667,3.08333333 C13.55,3.71666667 14.0444444,4.45325521 14.4,5.29309896 C14.7555556,6.13294271 14.9333333,7.03567708 14.9333333,8.00130208 C14.9333333,8.95598958 14.7555556,9.85277778 14.4,10.6916667 C14.0444444,11.5305556 13.5500868,12.2662326 12.9169271,12.8986979 C12.2837674,13.5311632 11.5473524,14.0283854 10.7076823,14.3903646 C9.86801215,14.7523437 8.96545139,14.9333333 8,14.9333333 Z"/><polygon fill="#FFF" points="5.617 11.533 8 9.15 10.383 11.533 11.533 10.383 9.15 8 11.533 5.617 10.383 4.467 8 6.85 5.617 4.467 4.467 5.617 6.85 8 4.467 10.383"/></g></svg>