<svg xmlns="http://www.w3.org/2000/svg" width="16" height="16" viewBox="0 0 16 16"><g fill="none" fill-rule="evenodd"><path fill="#0071AD" d="M8.0046875,14.9333333 C7.05,14.9333333 6.15134549,14.7526476 5.30872396,14.391276 C4.46610243,14.0299045 3.72912326,13.5335503 3.09778646,12.9022135 C2.46644965,12.2708767 1.97009549,11.5341146 1.60872396,10.6919271 C1.24735243,9.84973958 1.06666667,8.94991319 1.06666667,7.99244792 C1.06666667,7.03203125 1.24765625,6.13198785 1.60963542,5.29231771 C1.97161458,4.45264757 2.46883681,3.71623264 3.10130208,3.08307292 C3.73376736,2.44991319 4.47052951,1.95555556 5.31158854,1.6 C6.15264757,1.24444444 7.05130208,1.06666667 8.00755208,1.06666667 C8.96796875,1.06666667 9.86792535,1.24444444 10.7074219,1.6 C11.5469184,1.95555556 12.2833333,2.45 12.9166667,3.08333333 C13.55,3.71666667 14.0444444,4.45447049 14.4,5.29674479 C14.7555556,6.1390191 14.9333333,7.0390625 14.9333333,7.996875 C14.9333333,8.95451389 14.7555556,9.85277778 14.4,10.6916667 C14.0444444,11.5305556 13.5500868,12.2662326 12.9169271,12.8986979 C12.2837674,13.5311632 11.5461372,14.0283854 10.7040365,14.3903646 C9.86193576,14.7523438 8.96215278,14.9333333 8.0046875,14.9333333 Z"/><path fill="#FFF" d="M7.2,11.4666667 L8.83333333,11.4666667 L8.83333333,7.2 L7.2,7.2 L7.2,11.4666667 Z M7.99348958,5.73333333 C8.20894097,5.73333333 8.39166667,5.66046007 8.54166667,5.51471354 C8.69166667,5.36896701 8.76666667,5.18845486 8.76666667,4.97317708 C8.76666667,4.75772569 8.6937934,4.575 8.54804688,4.425 C8.40230035,4.275 8.22178819,4.2 8.00651042,4.2 C7.79105903,4.2 7.60833333,4.27287326 7.45833333,4.41861979 C7.30833333,4.56436632 7.23333333,4.74487847 7.23333333,4.96015625 C7.23333333,5.17560764 7.3062066,5.35833333 7.45195313,5.50833333 C7.59769965,5.65833333 7.77821181,5.73333333 7.99348958,5.73333333 Z"/></g></svg>