<svg width="318" height="39" viewBox="0 0 318 39" fill="none" xmlns="http://www.w3.org/2000/svg">
<g clip-path="url(#clip0_3275_9767)">
<path d="M118.594 37.9948C117.96 37.9966 117.328 37.9313 116.707 37.8C115.37 37.5194 114.106 36.9575 112.996 36.1505C111.886 35.3436 110.955 34.3095 110.262 33.1148L110.227 33.0481C109.883 32.3867 109.8 31.6173 109.994 30.8958C110.188 30.1743 110.644 29.5547 111.271 29.1625C111.706 28.8972 112.203 28.7571 112.71 28.7576C113.214 28.7583 113.71 28.8955 114.145 29.1549C114.581 29.4143 114.941 29.7867 115.188 30.2339L115.284 30.3979L115.586 30.8131L115.99 31.2283C116.515 31.6897 117.15 32.0026 117.832 32.1357C118.384 32.244 118.951 32.2343 119.499 32.1072C120.046 31.9801 120.561 31.7384 121.012 31.3975C121.477 31.0613 121.863 30.6243 122.141 30.1181C122.419 29.6119 122.584 29.0491 122.622 28.4705C122.668 27.8978 122.594 27.3215 122.403 26.7804C122.213 26.2393 121.91 25.7459 121.516 25.3333C121.516 25.3333 112.21 15.5936 112.008 15.322L111.549 14.6299C110.46 12.9038 109.968 10.8585 110.151 8.81691C110.251 7.40224 110.663 6.02857 111.357 4.79802L111.761 4.08036C112.495 3.01332 113.456 2.127 114.572 1.48654L115.031 1.15334C117.178 -0.0452989 119.702 -0.340901 122.061 0.33003C124.42 1.00096 126.426 2.58491 127.648 4.74163C127.839 5.06712 127.963 5.42816 128.013 5.8033C128.063 6.17844 128.039 6.56002 127.941 6.92536C127.844 7.29731 127.675 7.64582 127.443 7.95041C127.212 8.255 126.923 8.50952 126.593 8.69901C126.173 8.95204 125.694 9.0849 125.205 9.08346C124.703 9.08207 124.211 8.94509 123.778 8.68656C123.345 8.42804 122.988 8.05727 122.743 7.61227C122.476 7.15206 122.117 6.75458 121.688 6.44616C121.259 6.13773 120.77 5.92541 120.255 5.82325C119.73 5.71951 119.19 5.72746 118.669 5.84658C118.148 5.9657 117.657 6.1934 117.227 6.51527C116.813 6.84243 116.473 7.25537 116.23 7.72652C115.986 8.19768 115.844 8.71621 115.813 9.2475C115.77 9.78082 115.837 10.3175 116.011 10.8227C116.185 11.3278 116.461 11.7902 116.823 12.1796L125.569 21.34C126.888 22.7303 127.775 24.4844 128.119 26.3834C128.463 28.2823 128.249 30.2422 127.504 32.0184C126.758 33.7947 125.514 35.3086 123.927 36.3714C122.34 37.4343 120.48 37.9989 118.579 37.9948H118.594Z" fill="#003D8F"/>
<path d="M90.9275 37.9897C88.4348 37.987 86.0448 36.98 84.2822 35.1896C82.5195 33.3992 81.5281 30.9717 81.5254 28.4398V9.54998C81.5254 8.29586 81.7686 7.05402 82.2411 5.89536C82.7136 4.7367 83.4061 3.68392 84.2792 2.79712C85.1523 1.91033 86.1888 1.20688 87.3295 0.726949C88.4702 0.247018 89.6928 0 90.9275 0C92.1622 0 93.3849 0.247018 94.5256 0.726949C95.6663 1.20688 96.7028 1.91033 97.5759 2.79712C98.4489 3.68392 99.1415 4.7367 99.614 5.89536C100.086 7.05402 100.33 8.29586 100.33 9.54998V28.4398C100.327 30.9717 99.3356 33.3992 97.5729 35.1896C95.8102 36.98 93.4203 37.987 90.9275 37.9897ZM90.9275 5.7669C89.9401 5.76825 88.9936 6.16726 88.2954 6.87643C87.5972 7.58561 87.2044 8.54706 87.203 9.54998V28.4398C87.1976 28.9381 87.2903 29.4325 87.4755 29.894C87.6608 30.3554 87.9349 30.7747 88.2819 31.1271C88.6288 31.4794 89.0415 31.7579 89.4959 31.9461C89.9502 32.1342 90.4369 32.2283 90.9275 32.2229C91.9149 32.2215 92.8615 31.8225 93.5597 31.1133C94.2579 30.4041 94.6507 29.4427 94.6521 28.4398V9.54998C94.639 8.55077 94.2424 7.59622 93.5467 6.88961C92.8511 6.183 91.9113 5.78017 90.9275 5.7669Z" fill="#003D8F"/>
<path d="M54.4094 19.4845V35.1345C54.4094 35.8986 54.1106 36.6314 53.5787 37.1716C53.0468 37.7119 52.3253 38.0154 51.5731 38.0154C50.8209 38.0154 50.0995 37.7119 49.5675 37.1716C49.0356 36.6314 48.7368 35.8986 48.7368 35.1345V7.52007L54.4094 19.4845ZM69.7264 30.4851V2.88092C69.6955 2.13722 69.3829 1.43439 68.8539 0.919258C68.3249 0.404121 67.6204 0.116514 66.8876 0.116514C66.1547 0.116514 65.4502 0.404121 64.9212 0.919258C64.3922 1.43439 64.0796 2.13722 64.0487 2.88092V18.5156L69.7264 30.4851ZM54.1419 1.63527V1.57888C53.8862 1.11441 53.5136 0.72727 53.0623 0.457064C52.6109 0.186859 52.097 0.0432897 51.5731 0.0410454C51.3814 0.0401198 51.1901 0.0607498 51.0028 0.102559C50.3648 0.228752 49.7908 0.578745 49.3812 1.09132C48.9716 1.6039 48.7524 2.24644 48.7621 2.90655V3.56782L64.3364 36.4109C64.5806 36.8784 64.9432 37.2712 65.3868 37.5487C65.8304 37.8263 66.3389 37.9785 66.8598 37.9898C67.0793 37.9903 67.2981 37.9628 67.5108 37.9078C68.1377 37.7746 68.7002 37.4261 69.1038 36.921C69.5073 36.4159 69.7272 35.785 69.7264 35.1345V34.4835C69.7264 34.4835 54.5608 2.51184 54.1419 1.63527Z" fill="#003D8F"/>
<path d="M27.4544 37.9897C24.9612 37.9884 22.5705 36.9818 20.8075 35.1911C19.0446 33.4005 18.0536 30.9722 18.0522 28.4398V9.54998C18.0522 7.01717 19.0428 4.58809 20.8061 2.79712C22.5693 1.00616 24.9608 0 27.4544 0C29.948 0 32.3395 1.00616 34.1027 2.79712C35.866 4.58809 36.8565 7.01717 36.8565 9.54998V28.4398C36.8552 30.9722 35.8642 33.4005 34.1012 35.1911C32.3383 36.9818 29.9476 37.9884 27.4544 37.9897ZM27.4544 5.7669C26.9651 5.76622 26.4805 5.86361 26.0283 6.05349C25.5761 6.24337 25.1653 6.522 24.8193 6.87343C24.4733 7.22486 24.199 7.64217 24.012 8.10146C23.8251 8.56075 23.7292 9.05299 23.7299 9.54998V28.4398C23.7299 29.4431 24.1223 30.4053 24.8208 31.1148C25.5192 31.8243 26.4666 32.2229 27.4544 32.2229C28.4422 32.2229 29.3895 31.8243 30.088 31.1148C30.7865 30.4053 31.1789 29.4431 31.1789 28.4398V9.54998C31.1659 8.55077 30.7693 7.59622 30.0736 6.88961C29.3779 6.183 28.4381 5.78017 27.4544 5.7669Z" fill="#003D8F"/>
<path d="M3.08351 37.9745C2.675 37.9766 2.27019 37.8958 1.89282 37.7369C1.51546 37.578 1.17313 37.3441 0.885914 37.0491C0.598702 36.754 0.372389 36.4036 0.220248 36.0185C0.0681079 35.6335 -0.00679676 35.2214 -7.25414e-05 34.8065V3.09114C0.0145242 2.26672 0.348603 1.48139 0.929672 0.905585C1.51074 0.329776 2.29192 0.00993477 3.1037 0.0154662C3.78347 0.00536269 4.44682 0.227908 4.98695 0.647273C5.52707 1.06664 5.91254 1.65842 6.08129 2.32735C6.1021 2.39983 6.11895 2.47341 6.13176 2.54777V2.68618C6.16065 2.85543 6.17417 3.02703 6.17214 3.19879C6.17214 3.19879 6.17214 34.4682 6.17214 34.827C6.17481 35.2402 6.09681 35.6499 5.94267 36.0323C5.78852 36.4147 5.56128 36.7623 5.27407 37.055C4.98686 37.3477 4.64539 37.5796 4.2694 37.7374C3.8934 37.8953 3.49034 37.9758 3.08351 37.9745Z" fill="#003D8F"/>
</g>
<path d="M310.908 38.2008C309.771 38.2008 308.914 37.8724 308.336 37.2155C307.758 36.5586 307.469 35.5982 307.469 34.3343V25.5264H305.19V22.5855H307.469V17.883L310.761 16.2856V22.5855H314.259V25.5264H310.761V33.6028C310.761 34.1502 310.864 34.5582 311.069 34.8269C311.285 35.0857 311.613 35.2151 312.054 35.2151C312.769 35.2151 313.548 34.9762 314.391 34.4985L314.024 37.5141C313.563 37.743 313.078 37.9122 312.569 38.0216C312.059 38.1411 311.505 38.2008 310.908 38.2008Z" fill="#003D8F"/>
<path d="M289.102 37.8424L294.423 29.9303L289.469 22.5854H293.232L295.422 25.8399C295.589 26.0688 295.75 26.3126 295.907 26.5714C296.074 26.8301 296.206 27.069 296.304 27.2879C296.431 27.059 296.573 26.8202 296.73 26.5714C296.887 26.3126 297.044 26.0688 297.2 25.8399L299.39 22.5854H303.168L298.2 29.9303L303.535 37.8424H299.758L297.186 34.0207C297.029 33.7819 296.872 33.538 296.715 33.2892C296.568 33.0305 296.431 32.7916 296.304 32.5727C296.206 32.7916 296.074 33.0305 295.907 33.2892C295.74 33.538 295.579 33.7819 295.422 34.0207L292.865 37.8424H289.102Z" fill="#003D8F"/>
<path d="M281.109 38.2006C279.689 38.2006 278.464 37.8672 277.435 37.2004C276.406 36.5336 275.617 35.6031 275.069 34.4088C274.52 33.2045 274.246 31.8012 274.246 30.1989C274.246 28.5369 274.53 27.1137 275.098 25.9293C275.666 24.7351 276.465 23.8194 277.494 23.1825C278.523 22.5455 279.728 22.2271 281.109 22.2271C282.295 22.2271 283.373 22.4858 284.343 23.0033C285.323 23.5209 286.102 24.3171 286.68 25.3919C287.258 26.4568 287.547 27.8153 287.547 29.4674C287.547 29.7262 287.542 30.0347 287.532 30.393C287.522 30.7413 287.493 31.0946 287.444 31.4529H277.523C277.582 32.2292 277.763 32.906 278.067 33.4832C278.38 34.0604 278.797 34.5133 279.316 34.8417C279.836 35.1602 280.448 35.3194 281.153 35.3194C281.839 35.3194 282.447 35.205 282.976 34.9761C283.505 34.7372 284.01 34.359 284.49 33.8415L286.4 35.8867C285.783 36.5734 285.029 37.1307 284.137 37.5587C283.255 37.9866 282.246 38.2006 281.109 38.2006ZM277.538 28.7508H284.313C284.284 28.0243 284.137 27.3874 283.872 26.84C283.618 26.2926 283.255 25.8696 282.785 25.5711C282.315 25.2625 281.741 25.1083 281.065 25.1083C280.125 25.1083 279.321 25.4068 278.655 26.004C277.998 26.6011 277.626 27.5167 277.538 28.7508Z" fill="#003D8F"/>
<path d="M254.262 37.8424V16.9424H257.496L265.932 30.1094C266.059 30.3084 266.201 30.5523 266.358 30.8409C266.525 31.1195 266.667 31.3932 266.784 31.662C266.775 31.4231 266.76 31.1544 266.74 30.8558C266.731 30.5572 266.726 30.3084 266.726 30.1094V16.9424H270.106V37.8424H267.005L258.407 24.6157C258.289 24.4166 258.147 24.1728 257.981 23.8842C257.824 23.5955 257.682 23.3318 257.554 23.093C257.594 23.3318 257.613 23.5906 257.613 23.8692C257.623 24.138 257.628 24.3868 257.628 24.6157V37.8424H254.262Z" fill="#003D8F"/>
<path d="M236.672 38.2006C235.252 38.2006 234.027 37.8672 232.998 37.2004C231.969 36.5336 231.18 35.6031 230.632 34.4088C230.083 33.2045 229.809 31.8012 229.809 30.1989C229.809 28.5369 230.093 27.1137 230.661 25.9293C231.229 24.7351 232.028 23.8194 233.057 23.1825C234.086 22.5455 235.291 22.2271 236.672 22.2271C237.858 22.2271 238.936 22.4858 239.906 23.0033C240.886 23.5209 241.665 24.3171 242.243 25.3919C242.821 26.4568 243.11 27.8153 243.11 29.4674C243.11 29.7262 243.105 30.0347 243.095 30.393C243.085 30.7413 243.056 31.0946 243.007 31.4529H233.086C233.145 32.2292 233.326 32.906 233.63 33.4832C233.943 34.0604 234.36 34.5133 234.879 34.8417C235.399 35.1602 236.011 35.3194 236.716 35.3194C237.402 35.3194 238.01 35.205 238.539 34.9761C239.068 34.7372 239.573 34.359 240.053 33.8415L241.963 35.8867C241.346 36.5734 240.592 37.1307 239.7 37.5587C238.818 37.9866 237.809 38.2006 236.672 38.2006ZM233.101 28.7508H239.876C239.847 28.0243 239.7 27.3874 239.435 26.84C239.181 26.2926 238.818 25.8696 238.348 25.5711C237.878 25.2625 237.304 25.1083 236.628 25.1083C235.688 25.1083 234.884 25.4068 234.218 26.004C233.561 26.6011 233.189 27.5167 233.101 28.7508Z" fill="#003D8F"/>
<path d="M218.97 37.8424L213.474 22.5854H216.869L220.161 32.0203C220.239 32.2492 220.318 32.4881 220.396 32.7369C220.475 32.9857 220.543 33.2395 220.602 33.4982C220.671 33.2395 220.739 32.9907 220.808 32.7518C220.886 32.503 220.969 32.2592 221.058 32.0203L224.306 22.5854H227.686L222.189 37.8424H218.97Z" fill="#003D8F"/>
<path d="M206.95 37.8428V22.5858H210.242V37.8428H206.95ZM208.581 20.3763C208.042 20.3763 207.582 20.1823 207.2 19.7941C206.818 19.406 206.626 18.9382 206.626 18.3908C206.626 17.8335 206.813 17.3608 207.185 16.9726C207.567 16.5745 208.033 16.3755 208.581 16.3755C209.15 16.3755 209.62 16.5696 209.992 16.9577C210.374 17.3458 210.565 17.8236 210.565 18.3908C210.565 18.9482 210.374 19.4209 209.992 19.8091C209.61 20.1873 209.14 20.3763 208.581 20.3763Z" fill="#003D8F"/>
<path d="M195.093 37.8423V22.5853H198.385V24.3469C198.679 23.6901 199.12 23.1725 199.708 22.7943C200.306 22.4161 200.962 22.2271 201.678 22.2271C202.687 22.2271 203.539 22.5605 204.235 23.2273L203.779 26.3175C203.407 26.0189 203.035 25.8049 202.662 25.6756C202.29 25.5462 201.879 25.4815 201.428 25.4815C200.801 25.4815 200.262 25.6407 199.811 25.9592C199.36 26.2777 199.008 26.7305 198.753 27.3177C198.508 27.9049 198.385 28.6016 198.385 29.4077V37.8423H195.093Z" fill="#003D8F"/>
<path d="M174.661 37.8424V16.9424H181.157C182.94 16.9424 184.449 17.241 185.684 17.8381C186.928 18.4253 187.932 19.2215 188.697 20.2267C189.471 21.2219 190.034 22.3415 190.387 23.5856C190.74 24.8296 190.916 26.0986 190.916 27.3924C190.916 28.5867 190.749 29.7959 190.416 31.02C190.083 32.2442 189.539 33.3738 188.785 34.4088C188.03 35.4439 187.021 36.2749 185.757 36.9019C184.493 37.5289 182.921 37.8424 181.039 37.8424H174.661ZM178.056 34.588H181.407C182.534 34.588 183.479 34.379 184.243 33.961C185.008 33.533 185.62 32.9657 186.081 32.2591C186.551 31.5525 186.884 30.7762 187.08 29.9302C187.286 29.0843 187.389 28.2383 187.389 27.3924C187.389 26.4967 187.281 25.6209 187.065 24.765C186.85 23.8991 186.512 23.1228 186.051 22.4361C185.6 21.7494 185.017 21.202 184.302 20.794C183.587 20.376 182.73 20.167 181.73 20.167H178.056V34.588Z" fill="#003D8F"/>
<path d="M166.417 37.8428V22.5858H169.709V37.8428H166.417ZM168.049 20.3763C167.51 20.3763 167.049 20.1823 166.667 19.7941C166.285 19.406 166.094 18.9382 166.094 18.3908C166.094 17.8335 166.28 17.3608 166.652 16.9726C167.034 16.5745 167.5 16.3755 168.049 16.3755C168.617 16.3755 169.087 16.5696 169.459 16.9577C169.842 17.3458 170.033 17.8236 170.033 18.3908C170.033 18.9482 169.842 19.4209 169.459 19.8091C169.077 20.1873 168.607 20.3763 168.049 20.3763Z" fill="#003D8F"/>
<path d="M145.639 37.8424V16.9424H149.034V25.4069H158.058V16.9424H161.453V37.8424H158.058V28.6762H149.034V37.8424H145.639Z" fill="#003D8F"/>
<g clip-path="url(#clip1_3275_9767)">
<path d="M118.594 37.9948C117.96 37.9966 117.328 37.9313 116.707 37.8C115.37 37.5194 114.106 36.9575 112.996 36.1505C111.886 35.3436 110.955 34.3095 110.262 33.1148L110.227 33.0481C109.883 32.3867 109.8 31.6173 109.994 30.8958C110.188 30.1743 110.644 29.5547 111.271 29.1625C111.706 28.8972 112.203 28.7571 112.71 28.7576C113.214 28.7583 113.71 28.8955 114.145 29.1549C114.581 29.4143 114.941 29.7867 115.188 30.2339L115.284 30.3979L115.586 30.8131L115.99 31.2283C116.515 31.6897 117.15 32.0026 117.832 32.1357C118.384 32.244 118.951 32.2343 119.499 32.1072C120.046 31.9801 120.561 31.7384 121.012 31.3975C121.477 31.0613 121.863 30.6243 122.141 30.1181C122.419 29.6119 122.584 29.0491 122.622 28.4705C122.668 27.8978 122.594 27.3215 122.403 26.7804C122.213 26.2393 121.91 25.7459 121.516 25.3333C121.516 25.3333 112.21 15.5936 112.008 15.322L111.549 14.6299C110.46 12.9038 109.968 10.8585 110.151 8.81691C110.251 7.40224 110.663 6.02857 111.357 4.79802L111.761 4.08036C112.495 3.01332 113.456 2.127 114.572 1.48654L115.031 1.15334C117.178 -0.0452989 119.702 -0.340901 122.061 0.33003C124.42 1.00096 126.426 2.58491 127.648 4.74163C127.839 5.06712 127.963 5.42816 128.013 5.8033C128.063 6.17844 128.039 6.56002 127.941 6.92536C127.844 7.29731 127.675 7.64582 127.443 7.95041C127.212 8.255 126.923 8.50952 126.593 8.69901C126.173 8.95204 125.694 9.0849 125.205 9.08346C124.703 9.08207 124.211 8.94509 123.778 8.68656C123.345 8.42804 122.988 8.05727 122.743 7.61227C122.476 7.15206 122.117 6.75458 121.688 6.44616C121.259 6.13773 120.77 5.92541 120.255 5.82325C119.73 5.71951 119.19 5.72746 118.669 5.84658C118.148 5.9657 117.657 6.1934 117.227 6.51527C116.813 6.84243 116.473 7.25537 116.23 7.72652C115.986 8.19768 115.844 8.71621 115.813 9.2475C115.77 9.78082 115.837 10.3175 116.011 10.8227C116.185 11.3278 116.461 11.7902 116.823 12.1796L125.569 21.34C126.888 22.7303 127.775 24.4844 128.119 26.3834C128.463 28.2823 128.249 30.2422 127.504 32.0184C126.758 33.7947 125.514 35.3086 123.927 36.3714C122.34 37.4343 120.48 37.9989 118.579 37.9948H118.594Z" fill="#003D8F"/>
<path d="M90.9275 37.9897C88.4348 37.987 86.0448 36.98 84.2822 35.1896C82.5195 33.3992 81.5281 30.9717 81.5254 28.4398V9.54998C81.5254 8.29586 81.7686 7.05402 82.2411 5.89536C82.7136 4.7367 83.4061 3.68392 84.2792 2.79712C85.1523 1.91033 86.1888 1.20688 87.3295 0.726949C88.4702 0.247018 89.6928 0 90.9275 0C92.1622 0 93.3849 0.247018 94.5256 0.726949C95.6663 1.20688 96.7028 1.91033 97.5759 2.79712C98.4489 3.68392 99.1415 4.7367 99.614 5.89536C100.086 7.05402 100.33 8.29586 100.33 9.54998V28.4398C100.327 30.9717 99.3356 33.3992 97.5729 35.1896C95.8102 36.98 93.4203 37.987 90.9275 37.9897ZM90.9275 5.7669C89.9401 5.76825 88.9936 6.16726 88.2954 6.87643C87.5972 7.58561 87.2044 8.54706 87.203 9.54998V28.4398C87.1976 28.9381 87.2903 29.4325 87.4755 29.894C87.6608 30.3554 87.9349 30.7747 88.2819 31.1271C88.6288 31.4794 89.0415 31.7579 89.4959 31.9461C89.9502 32.1342 90.4369 32.2283 90.9275 32.2229C91.9149 32.2215 92.8615 31.8225 93.5597 31.1133C94.2579 30.4041 94.6507 29.4427 94.6521 28.4398V9.54998C94.639 8.55077 94.2424 7.59622 93.5467 6.88961C92.8511 6.183 91.9113 5.78017 90.9275 5.7669Z" fill="#003D8F"/>
<path d="M54.4094 19.4845V35.1345C54.4094 35.8986 54.1106 36.6314 53.5787 37.1716C53.0468 37.7119 52.3253 38.0154 51.5731 38.0154C50.8209 38.0154 50.0995 37.7119 49.5675 37.1716C49.0356 36.6314 48.7368 35.8986 48.7368 35.1345V7.52007L54.4094 19.4845ZM69.7264 30.4851V2.88092C69.6955 2.13722 69.3829 1.43439 68.8539 0.919258C68.3249 0.404121 67.6204 0.116514 66.8876 0.116514C66.1547 0.116514 65.4502 0.404121 64.9212 0.919258C64.3922 1.43439 64.0796 2.13722 64.0487 2.88092V18.5156L69.7264 30.4851ZM54.1419 1.63527V1.57888C53.8862 1.11441 53.5136 0.72727 53.0623 0.457064C52.6109 0.186859 52.097 0.0432897 51.5731 0.0410454C51.3814 0.0401198 51.1901 0.0607498 51.0028 0.102559C50.3648 0.228752 49.7908 0.578745 49.3812 1.09132C48.9716 1.6039 48.7524 2.24644 48.7621 2.90655V3.56782L64.3364 36.4109C64.5806 36.8784 64.9432 37.2712 65.3868 37.5487C65.8304 37.8263 66.3389 37.9785 66.8598 37.9898C67.0793 37.9903 67.2981 37.9628 67.5108 37.9078C68.1377 37.7746 68.7002 37.4261 69.1038 36.921C69.5073 36.4159 69.7272 35.785 69.7264 35.1345V34.4835C69.7264 34.4835 54.5608 2.51184 54.1419 1.63527Z" fill="#003D8F"/>
<path d="M27.4544 37.9897C24.9612 37.9884 22.5705 36.9818 20.8075 35.1911C19.0446 33.4005 18.0536 30.9722 18.0522 28.4398V9.54998C18.0522 7.01717 19.0428 4.58809 20.8061 2.79712C22.5693 1.00616 24.9608 0 27.4544 0C29.948 0 32.3395 1.00616 34.1027 2.79712C35.866 4.58809 36.8565 7.01717 36.8565 9.54998V28.4398C36.8552 30.9722 35.8642 33.4005 34.1012 35.1911C32.3383 36.9818 29.9476 37.9884 27.4544 37.9897ZM27.4544 5.7669C26.9651 5.76622 26.4805 5.86361 26.0283 6.05349C25.5761 6.24337 25.1653 6.522 24.8193 6.87343C24.4733 7.22486 24.199 7.64217 24.012 8.10146C23.8251 8.56075 23.7292 9.05299 23.7299 9.54998V28.4398C23.7299 29.4431 24.1223 30.4053 24.8208 31.1148C25.5192 31.8243 26.4666 32.2229 27.4544 32.2229C28.4422 32.2229 29.3895 31.8243 30.088 31.1148C30.7865 30.4053 31.1789 29.4431 31.1789 28.4398V9.54998C31.1659 8.55077 30.7693 7.59622 30.0736 6.88961C29.3779 6.183 28.4381 5.78017 27.4544 5.7669Z" fill="#003D8F"/>
<path d="M3.08351 37.9745C2.675 37.9766 2.27019 37.8958 1.89282 37.7369C1.51546 37.578 1.17313 37.3441 0.885914 37.0491C0.598702 36.754 0.372389 36.4036 0.220248 36.0185C0.0681079 35.6335 -0.00679676 35.2214 -7.25414e-05 34.8065V3.09114C0.0145242 2.26672 0.348603 1.48139 0.929672 0.905585C1.51074 0.329776 2.29192 0.00993477 3.1037 0.0154662C3.78347 0.00536269 4.44682 0.227908 4.98695 0.647273C5.52707 1.06664 5.91254 1.65842 6.08129 2.32735C6.1021 2.39983 6.11895 2.47341 6.13176 2.54777V2.68618C6.16065 2.85543 6.17417 3.02703 6.17214 3.19879C6.17214 3.19879 6.17214 34.4682 6.17214 34.827C6.17481 35.2402 6.09681 35.6499 5.94267 36.0323C5.78852 36.4147 5.56128 36.7623 5.27407 37.055C4.98686 37.3477 4.64539 37.5796 4.2694 37.7374C3.8934 37.8953 3.49034 37.9758 3.08351 37.9745Z" fill="#003D8F"/>
</g>
<defs>
<clipPath id="clip0_3275_9767">
<rect width="128.314" height="38" fill="white"/>
</clipPath>
<clipPath id="clip1_3275_9767">
<rect width="128.314" height="38" fill="white"/>
</clipPath>
</defs>
</svg>
