<?xml version="1.0" encoding="UTF-8" standalone="no"?>
<!DOCTYPE svg PUBLIC "-//W3C//DTD SVG 1.1//EN" "http://www.w3.org/Graphics/SVG/1.1/DTD/svg11.dtd">
<svg width="100%" height="100%" viewBox="0 0 1024 1024"
	xmlns="http://www.w3.org/2000/svg" version="1.1">
	<path d="M513.6,266.9C406.9,266.9 317.3,340 290,438.2C266.1,385.6 213.5,348.4 152.4,348.4C69.2,348.5 0.8,416.9 0.8,500C0.8,583.2 69.2,651.6 152.4,651.6C213.5,651.6 266.1,614.3 289.9,561.7C317.3,660 406.9,733.1 513.6,733.1C619.7,733.1 708.8,660.8 736.8,563.4C761.1,615 812.9,651.6 873.3,651.6C956.5,651.6 1024.9,583.2 1024.9,500C1024.9,416.8 956.5,348.4 873.3,348.4C812.9,348.4 761.1,385 736.8,436.6C708.8,339.2 619.7,266.9 513.6,266.9ZM513.6,355.9C593.7,355.9 657.7,419.9 657.7,500C657.7,580.1 593.7,644.2 513.6,644.1C433.5,644.1 369.5,580.1 369.5,500C369.5,419.9 433.5,355.9 513.6,355.9ZM152.3,437.4C187.4,437.4 214.9,464.9 214.9,500C214.9,535.1 187.4,562.6 152.3,562.6C117.2,562.6 89.7,535.1 89.7,500C89.8,464.9 117.2,437.4 152.3,437.4ZM873.2,437.4C908.3,437.4 935.8,464.9 935.8,500C935.8,535.1 908.3,562.6 873.2,562.6C838.1,562.6 810.6,535.1 810.6,500C810.6,464.9 838.1,437.4 873.2,437.4Z" style="fill:white;fill-rule:nonzero;"/>
</svg>
