<svg xmlns="http://www.w3.org/2000/svg" width="16" height="16" viewBox="0 0 16 16"><path fill="#949494" d="M12.6333333,14.9333333 L10.9666667,13.3 L3.93333333,13.3 C2.91111111,13.3 2.03888889,12.9444444 1.31666667,12.2333333 C0.594444444,11.5222222 0.233333333,10.6555556 0.233333333,9.63333333 C0.233333333,8.74444444 0.55,7.93611111 1.18333333,7.20833333 C1.81666667,6.48055556 2.58333333,6.07222222 3.48333333,5.98333333 C3.48333333,5.95 3.48611111,5.91944444 3.49166667,5.89166667 C3.49722222,5.86388889 3.51111111,5.84444444 3.53333333,5.83333333 L0.766666667,3.06666667 L1.91666667,1.91666667 L13.7833333,13.7833333 L12.6333333,14.9333333 Z M14.4,12.6666667 L5.28333333,3.53333333 C5.65,3.27777778 6.06666667,3.075 6.53333333,2.925 C7,2.775 7.48888889,2.7 8,2.7 C9.2,2.7 10.2611111,3.08611111 11.1833333,3.85833333 C12.1055556,4.63055556 12.6777778,5.61666667 12.9,6.81666667 L12.9,6.81666667 L12.9,6.81666667 C13.7111111,6.89444444 14.3916667,7.23888889 14.9416667,7.85 C15.4916667,8.46111111 15.7666667,9.18888889 15.7666667,10.0333333 C15.7666667,10.6 15.6333333,11.1111111 15.3666667,11.5666667 C15.1,12.0222222 14.7777778,12.3888889 14.4,12.6666667 Z"/></svg>