<svg width="128" height="128" viewBox="0 0 128 128" fill="none" xmlns="http://www.w3.org/2000/svg">
<path d="M108 0H20C8.9543 0 0 8.9543 0 20V108C0 119.046 8.9543 128 20 128H108C119.046 128 128 119.046 128 108V20C128 8.9543 119.046 0 108 0Z" fill="#041E42"/>
<path fill-rule="evenodd" clip-rule="evenodd" d="M104.778 68.1983C103.639 61.1912 97.471 55.7878 89.9831 55.5757C89.3946 48.4274 83.2208 42.7809 75.7006 42.7809C75.334 42.7809 74.9743 42.8084 74.6142 42.8346C72.9764 36.9035 67.4019 32.5161 60.7758 32.5161C55.4523 32.5161 50.8065 35.3502 48.3329 39.5376C47.0682 38.7571 45.5725 38.2983 43.9654 38.2983C39.4655 38.2983 35.8045 41.8484 35.8045 46.2121C35.8045 47.6533 36.2105 49.0018 36.9075 50.1666C34.2961 51.9257 32.2686 54.4422 31.1685 57.3887C30.8928 57.3731 30.6197 57.3475 30.3408 57.3475C22.4335 57.3475 16 63.5869 16 71.2544C16 78.9222 22.4335 85.1613 30.3408 85.1613C33.3856 85.1613 103.527 84.6083 106.067 84.6083C110.761 84.6083 114.581 80.9042 114.581 76.3514C114.581 71.7982 110.761 68.0938 106.067 68.0938C105.628 68.0938 105.2 68.1363 104.778 68.1983Z" fill="white"/>
</svg>
