<svg xmlns="http://www.w3.org/2000/svg" width="16" height="16" viewBox="0 0 16 16"><g fill="none"><path fill="#949494" fill-rule="evenodd" d="M8.0046875,14.9333333 C7.05,14.9333333 6.15134549,14.7526476 5.30872396,14.391276 C4.46610243,14.0299045 3.72912326,13.5335503 3.09778646,12.9022135 C2.46644965,12.2708767 1.97009549,11.5341146 1.60872396,10.6919271 C1.24735243,9.84973958 1.06666667,8.94991319 1.06666667,7.99244792 C1.06666667,7.03203125 1.24765625,6.13198785 1.60963542,5.29231771 C1.97161458,4.45264757 2.46883681,3.71623264 3.10130208,3.08307292 C3.73376736,2.44991319 4.47052951,1.95555556 5.31158854,1.6 C6.15264757,1.24444444 7.05130208,1.06666667 8.00755208,1.06666667 C8.96796875,1.06666667 9.86792535,1.24444444 10.7074219,1.6 C11.5469184,1.95555556 12.2833333,2.45 12.9166667,3.08333333 C13.55,3.71666667 14.0444444,4.45447049 14.4,5.29674479 C14.7555556,6.1390191 14.9333333,7.0390625 14.9333333,7.996875 C14.9333333,8.95451389 14.7555556,9.85277778 14.4,10.6916667 C14.0444444,11.5305556 13.5500868,12.2662326 12.9169271,12.8986979 C12.2837674,13.5311632 11.5461372,14.0283854 10.7040365,14.3903646 C9.86193576,14.7523438 8.96215278,14.9333333 8.0046875,14.9333333 Z"/><path fill="#FFF" d="M5.63333333,10.6666667 L7.26666667,10.6666667 L7.26666667,5.33333333 L5.63333333,5.33333333 L5.63333333,10.6666667 Z M8.73333333,10.6666667 L10.3666667,10.6666667 L10.3666667,5.33333333 L8.73333333,5.33333333 L8.73333333,10.6666667 Z"/></g></svg>