<?xml version="1.0" encoding="UTF-8" standalone="no"?>
<!DOCTYPE svg PUBLIC "-//W3C//DTD SVG 1.1//EN" "http://www.w3.org/Graphics/SVG/1.1/DTD/svg11.dtd">
<svg width="100%" height="100%" viewBox="0 0 16 16"
    xmlns="http://www.w3.org/2000/svg" version="1.1">
    <circle cx="8" cy="8.002" r="7" style="fill:rgb(134,134,134);"/>
    <path d="M8.01,5.025C9.37,5.025 10.513,5.953 10.872,7.2C11.182,6.539 11.845,6.072 12.619,6.072C13.69,6.075 14.557,6.943 14.561,8.014C14.557,9.085 13.69,9.952 12.619,9.957C11.845,9.957 11.181,9.487 10.869,8.826C10.512,10.075 9.369,11.001 8.009,11.001C6.642,11.001 5.492,10.065 5.141,8.805C4.831,9.501 4.142,9.952 3.38,9.957C2.309,9.954 1.442,9.086 1.437,8.015C1.441,6.943 2.308,6.076 3.38,6.071C4.164,6.071 4.838,6.549 5.144,7.223C5.494,5.963 6.643,5.027 8.01,5.027L8.01,5.025ZM8.01,6.167C6.983,6.167 6.164,6.987 6.162,8.013C6.156,9.036 6.987,9.867 8.01,9.861C9.032,9.865 9.861,9.037 9.857,8.015C9.857,6.987 9.037,6.167 8.01,6.167ZM3.382,7.211C2.936,7.208 2.573,7.568 2.577,8.014C2.577,8.464 2.931,8.816 3.382,8.816C3.826,8.819 4.187,8.458 4.182,8.014C4.188,7.569 3.826,7.206 3.381,7.211L3.382,7.211ZM12.619,7.211C12.173,7.208 11.81,7.568 11.814,8.014C11.814,8.464 12.168,8.816 12.619,8.816C13.064,8.819 13.426,8.459 13.421,8.014C13.426,7.568 13.064,7.206 12.618,7.211L12.619,7.211Z" style="fill:rgb(252,255,255);fill-rule:nonzero;"/>
</svg>
