<svg xmlns="http://www.w3.org/2000/svg" width="16" height="16" viewBox="0 0 16 16"><g fill="none" fill-rule="evenodd"><circle cx="8" cy="8" r="8" fill="#949494"/><path fill="#FFF" fill-rule="nonzero" d="M6.01005025,0 C4.76633166,0 3.71105528,0.83919598 3.38442211,1.98241206 C3.09798995,1.37939698 2.48743719,0.957286432 1.77638191,0.957286432 C0.798994975,0.957286432 0,1.75628141 0,2.73366834 C0,3.71105528 0.798994975,4.51005025 1.77638191,4.51005025 C2.48743719,4.51005025 3.09798995,4.08542714 3.38442211,3.48492462 C3.71105528,4.63065327 4.76633166,5.46733668 6.01005025,5.46733668 C7.24371859,5.46733668 8.28894472,4.63819095 8.62562814,3.51256281 C8.9120603,4.10552764 9.52261307,4.5201005 10.2236181,4.5201005 C11.201005,4.5201005 12,3.72110553 12,2.74371859 C12,1.76633166 11.201005,0.967336683 10.2236181,0.967336683 C9.52261307,0.967336683 8.92211055,1.38190955 8.62562814,1.97487437 C8.28894472,0.829145729 7.24371859,0 6.01005025,0 Z M6.01005025,1.03517588 C6.94723618,1.03517588 7.69849246,1.78643216 7.69849246,2.72361809 C7.69849246,3.66080402 6.94723618,4.4120603 6.01005025,4.4120603 C5.07286432,4.4120603 4.32160804,3.66080402 4.32160804,2.72361809 C4.32160804,1.78643216 5.07286432,1.03517588 6.01005025,1.03517588 Z M1.77638191,1.99246231 C2.19095477,1.99246231 2.50753769,2.31909548 2.50753769,2.72361809 C2.50753769,3.13819095 2.18090452,3.45477387 1.77638191,3.45477387 C1.36180905,3.45477387 1.04522613,3.1281407 1.04522613,2.72361809 C1.04522613,2.31909548 1.3718593,1.99246231 1.77638191,1.99246231 Z M10.2236181,1.99246231 C10.638191,1.99246231 10.9547739,2.31909548 10.9547739,2.72361809 C10.9547739,3.13819095 10.6281407,3.45477387 10.2236181,3.45477387 C9.80904523,3.45477387 9.49246231,3.1281407 9.49246231,2.72361809 C9.48241206,2.31909548 9.80904523,1.99246231 10.2236181,1.99246231 Z" transform="translate(2 5.48)"/></g></svg>