<svg xmlns="http://www.w3.org/2000/svg" width="16" height="16" viewBox="0 0 16 16"><g fill="none" fill-rule="evenodd"><path fill="#DB0606" d="M3.33980583,13.007767 C2.40880259,13.007767 1.61941748,12.6801294 0.971650485,12.0248544 C0.323883495,11.3697087 0,10.5766343 0,9.64563107 C0,8.72148867 0.336569579,7.92511327 1.00970874,7.25650485 C1.6828479,6.58776699 2.48491909,6.2633657 3.41592233,6.28330097 C3.6389644,5.21288026 4.17423948,4.33139159 5.02174757,3.63883495 C5.86912621,2.94627832 6.86187702,2.6 8,2.6 C9.22381877,2.6 10.2902913,3.01249191 11.1994175,3.83747573 C12.1085437,4.66245955 12.6213592,5.67391586 12.7378641,6.87184466 L12.7378641,7.26019417 L12.9768932,7.26019417 C13.8083495,7.22032362 14.5200647,7.48148867 15.1120388,8.04368932 C15.7040129,8.60576052 16,9.30252427 16,10.1339806 C16,10.935534 15.7214239,11.6148867 15.1642718,12.1720388 C14.6071197,12.7291909 13.927767,13.007767 13.1262136,13.007767 L3.33980583,13.007767 Z"/><g fill="#FFF" transform="rotate(45 -.871 11.225)"><polygon fill-rule="nonzero" points="3 .5 3 5.5 4 5.5 4 .5"/><polygon fill-rule="nonzero" points="3.5 1 3.5 6 4.5 6 4.5 1" transform="rotate(90 4 3)"/></g></g></svg>