<svg width="16" height="16" version="1.1" viewBox="0 0 4.2333 4.2333" xmlns="http://www.w3.org/2000/svg"><g transform="matrix(.87498 0 0 .87498 .26458 -255.9)"><circle cx="2.1167" cy="294.88" r="2.1167" fill="#2268ab" stroke-width=".25066"/><g fill="none" stroke-linecap="round" stroke-linejoin="round"><path d="m3.0714 295.43a1.1024 1.1024 0 0 1-0.95473 0.55121 1.1024 1.1024 0 0 1-0.95473-0.55121" stroke="#fff" stroke-width=".44097"/><path transform="scale(-1)" d="m-1.1619-294.33a1.1024 1.1024 0 0 1-0.95473 0.55122 1.1024 1.1024 0 0 1-0.95473-0.55122" stroke="#fff" stroke-width=".44097"/><path d="m1.4349 295.15-0.52538-4e-5 1.138e-4 0.52563" stroke="#faffff" stroke-width=".52916"/><path d="m2.815 294.62 0.52538 4e-5 -1.138e-4 -0.52563" stroke="#faffff" stroke-width=".52916"/></g></g></svg>
