<svg xmlns="http://www.w3.org/2000/svg" width="16" height="16" viewBox="0 0 16 16"><g fill="none" fill-rule="evenodd"><path fill="#0082C9" d="M3.33980583,13.007767 C2.40880259,13.007767 1.61941748,12.6801294 0.971650485,12.0248544 C0.323883495,11.3697087 0,10.5766343 0,9.64563107 C0,8.72148867 0.336569579,7.92511327 1.00970874,7.25650485 C1.6828479,6.58776699 2.48491909,6.2633657 3.41592233,6.28330097 C3.6389644,5.21288026 4.17423948,4.33139159 5.02174757,3.63883495 C5.86912621,2.94627832 6.86187702,2.6 8,2.6 C9.22381877,2.6 10.2902913,3.01249191 11.1994175,3.83747573 C12.1085437,4.66245955 12.6213592,5.67391586 12.7378641,6.87184466 L12.7378641,7.26019417 L12.9768932,7.26019417 C13.8083495,7.22032362 14.5200647,7.48148867 15.1120388,8.04368932 C15.7040129,8.60576052 16,9.30252427 16,10.1339806 C16,10.935534 15.7214239,11.6148867 15.1642718,12.1720388 C14.6071197,12.7291909 13.927767,13.007767 13.1262136,13.007767 L3.33980583,13.007767 Z"/><path fill="#FFF" fill-rule="nonzero" d="M0.186254139,5.90041667 L0.186254139,5.12597852 L0.860891869,5.12597852 L0.892628722,5.1504679 C0.584852683,4.86738845 0.33837333,4.53382742 0.153190665,4.14978479 C-0.0319920006,3.76581048 -0.124583333,3.34935444 -0.124583333,2.90041667 C-0.124583333,2.18431584 0.0955336814,1.55722383 0.535767711,1.01914062 C0.975933709,0.481057421 1.53124359,0.13332192 2.20169737,-0.02406588 L2.20169737,0.857141853 C1.77146402,0.999501304 1.4173583,1.25522232 1.1393802,1.62430491 C0.861402108,1.99331919 0.722413061,2.41868977 0.722413061,2.90041667 C0.722413061,3.21853949 0.787519531,3.51394901 0.91773247,3.78664523 C1.04794541,4.05934146 1.2220729,4.29310059 1.44011495,4.48792264 L1.42052178,4.46835163 L1.42052178,3.88409041 L2.19190078,3.88409041 L2.19190078,5.90041667 L0.186254139,5.90041667 Z M3.54913597,5.82489921 L3.54913597,4.94369148 C3.97936932,4.80133203 4.33347504,4.54561101 4.61145313,4.17652842 C4.88943123,3.80751415 5.02842027,3.38214356 5.02842027,2.90041667 C5.02842027,2.58229384 4.9633138,2.28688432 4.83310086,2.0141881 C4.70288792,1.74149188 4.52876043,1.50773274 4.31071839,1.31291069 L4.33031156,1.3324817 L4.33031156,1.91674292 L3.55893255,1.91674292 L3.55893255,-0.0995833333 L5.56457919,-0.0995833333 L5.56457919,0.674854811 L4.88994146,0.674854811 L4.85820461,0.650365434 C5.16924618,0.930165966 5.41654191,1.26290727 5.60009181,1.64858936 C5.78364172,2.03420313 5.87541667,2.4514789 5.87541667,2.90041667 C5.87541667,3.61651749 5.65529965,4.24360951 5.21506562,4.78169271 C4.77489962,5.31977591 4.21958974,5.66751141 3.54913597,5.82489921 L3.54913597,5.82489921 Z" transform="translate(5.125 5.1)"/></g></svg>