<svg xmlns="http://www.w3.org/2000/svg" width="16" height="16" viewBox="0 0 16 16"><g fill="none"><path fill="#A37200" fill-rule="evenodd" d="M3.33980583,13.007767 C2.40880259,13.007767 1.61941748,12.680712 0.971650485,12.0266019 C0.323883495,11.3724919 0,10.578835 0,9.64563107 C0,8.72394822 0.336569579,7.92815534 1.00970874,7.25825243 C1.6828479,6.58834951 2.48491909,6.2633657 3.41592233,6.28330097 C3.6389644,5.21288026 4.17423948,4.33139159 5.02174757,3.63883495 C5.86912621,2.94627832 6.86187702,2.6 8,2.6 C9.22511327,2.6 10.2919094,3.01216828 11.2003883,3.83650485 C12.1088673,4.66084142 12.6213592,5.67262136 12.7378641,6.87184466 L12.7378641,7.26019417 L12.9768932,7.26019417 C13.8083495,7.22032362 14.5200647,7.48148867 15.1120388,8.04368932 C15.7040129,8.60576052 16,9.30252427 16,10.1339806 C16,10.935534 15.7214239,11.6148867 15.1642718,12.1720388 C14.6071197,12.7291909 13.927767,13.007767 13.1262136,13.007767 L3.33980583,13.007767 Z"/><path fill="#FFF" d="M8.00019417,10.2040777 C8.12653722,10.2040777 8.24220065,10.151521 8.34718447,10.0464078 C8.45229773,9.94116505 8.50485437,9.82537217 8.50485437,9.69902913 C8.50485437,9.55987055 8.45546926,9.44097087 8.35669903,9.3423301 C8.2579288,9.24381877 8.1389644,9.19456311 7.99980583,9.19456311 C7.8605178,9.19456311 7.74161812,9.2438835 7.6431068,9.34252427 C7.54446602,9.4412945 7.49514563,9.56032362 7.49514563,9.69961165 C7.49514563,9.82582524 7.54776699,9.94148867 7.65300971,10.0466019 C7.75825243,10.1515858 7.87398058,10.2040777 8.00019417,10.2040777 Z M7.49514563,8.26252427 L8.50485437,8.26252427 L8.50485437,5.20194175 L7.49514563,5.20194175 L7.49514563,8.26252427 Z"/></g></svg>