<svg width="128" height="128" viewBox="0 0 24 24" fill="none" xmlns="http://www.w3.org/2000/svg">
<path d="M12.0001 3.32496C10.1064 3.32496 8.57153 1.8358 8.57153 -5.24521e-05H20.5717C22.4653 -5.24521e-05 24.0001 1.48832 24.0001 3.32496L23.9999 14.9622C22.1063 14.9622 20.5713 13.4735 20.5713 11.6374L20.5717 4.98732C20.5717 4.06933 19.804 3.32496 18.8573 3.32496H12.0001Z" fill="#FF8800"/>
<path d="M17.1428 8.31274C17.1428 7.39458 16.3752 6.65004 15.4286 6.65004H1.71416C0.76735 6.65004 0 7.39458 0 8.31274V21.6123C0 22.5305 0.76735 23.2749 1.71416 23.2749H15.4286C16.3752 23.2749 17.1428 22.5305 17.1428 21.6123V8.31274Z" fill="#FF8800"/>
</svg>
