<svg width="158" height="16" viewBox="0 0 158 16" fill="none" xmlns="http://www.w3.org/2000/svg">
<path d="M155.49 16.0002C154.989 16.0002 154.611 15.8561 154.356 15.5681C154.102 15.2801 153.974 14.859 153.974 14.3048V10.4427H152.97V9.15313H153.974V7.09116L155.426 6.39075V9.15313H156.968V10.4427H155.426V13.984C155.426 14.224 155.471 14.403 155.562 14.5208C155.657 14.6342 155.801 14.691 155.996 14.691C156.311 14.691 156.655 14.5862 157.026 14.3768L156.864 15.699C156.661 15.7994 156.447 15.8736 156.223 15.9216C155.998 15.974 155.754 16.0002 155.49 16.0002Z" fill="#FF8800"/>
<path d="M145.877 15.8431L148.223 12.3738L146.039 9.15317H147.698L148.663 10.5802C148.737 10.6806 148.808 10.7875 148.877 10.9009C148.951 11.0144 149.009 11.1191 149.052 11.2151C149.108 11.1148 149.171 11.01 149.24 10.9009C149.309 10.7875 149.378 10.6806 149.447 10.5802L150.413 9.15317H152.078L149.888 12.3738L152.24 15.8431H150.575L149.441 14.1673C149.372 14.0626 149.303 13.9557 149.234 13.8466C149.169 13.7331 149.108 13.6284 149.052 13.5324C149.009 13.6284 148.951 13.7331 148.877 13.8466C148.804 13.9557 148.732 14.0626 148.663 14.1673L147.536 15.8431H145.877Z" fill="#FF8800"/>
<path d="M142.353 16.0002C141.727 16.0002 141.187 15.854 140.734 15.5616C140.28 15.2692 139.932 14.8612 139.69 14.3375C139.448 13.8095 139.327 13.1942 139.327 12.4916C139.327 11.7628 139.453 11.1387 139.703 10.6194C139.954 10.0958 140.306 9.69428 140.759 9.41498C141.213 9.13569 141.744 8.99605 142.353 8.99605C142.876 8.99605 143.351 9.10951 143.779 9.33643C144.211 9.56336 144.554 9.91247 144.809 10.3838C145.064 10.8507 145.191 11.4464 145.191 12.1708C145.191 12.2843 145.189 12.4196 145.185 12.5767C145.181 12.7294 145.168 12.8843 145.146 13.0414H140.772C140.798 13.3818 140.878 13.6786 141.012 13.9317C141.15 14.1848 141.334 14.3833 141.563 14.5273C141.792 14.667 142.062 14.7368 142.373 14.7368C142.675 14.7368 142.943 14.6866 143.176 14.5863C143.41 14.4815 143.632 14.3157 143.844 14.0888L144.686 14.9856C144.414 15.2867 144.081 15.5311 143.688 15.7187C143.299 15.9064 142.854 16.0002 142.353 16.0002ZM140.779 11.8566H143.766C143.753 11.538 143.688 11.2588 143.572 11.0187C143.459 10.7787 143.299 10.5932 143.092 10.4623C142.885 10.327 142.632 10.2594 142.334 10.2594C141.919 10.2594 141.565 10.3903 141.271 10.6522C140.982 10.914 140.818 11.3155 140.779 11.8566Z" fill="#FF8800"/>
<path d="M130.518 15.8431V6.67877H131.943L135.662 12.4523C135.718 12.5395 135.781 12.6465 135.85 12.773C135.924 12.8952 135.986 13.0152 136.038 13.133C136.034 13.0283 136.027 12.9105 136.019 12.7796C136.014 12.6486 136.012 12.5395 136.012 12.4523V6.67877H137.503V15.8431H136.135L132.345 10.0434C132.293 9.95609 132.23 9.84917 132.157 9.72262C132.088 9.59607 132.025 9.48042 131.969 9.37569C131.986 9.48042 131.995 9.59388 131.995 9.71607C131.999 9.8339 132.001 9.943 132.001 10.0434V15.8431H130.518Z" fill="#FF8800"/>
<path d="M122.763 16.0002C122.137 16.0002 121.597 15.854 121.143 15.5616C120.69 15.2692 120.342 14.8612 120.1 14.3375C119.858 13.8095 119.737 13.1942 119.737 12.4916C119.737 11.7628 119.862 11.1387 120.113 10.6194C120.363 10.0958 120.716 9.69428 121.169 9.41498C121.623 9.13569 122.154 8.99605 122.763 8.99605C123.286 8.99605 123.761 9.10951 124.189 9.33643C124.62 9.56336 124.964 9.91247 125.219 10.3838C125.474 10.8507 125.601 11.4464 125.601 12.1708C125.601 12.2843 125.599 12.4196 125.595 12.5767C125.59 12.7294 125.577 12.8843 125.556 13.0414H121.182C121.208 13.3818 121.288 13.6786 121.422 13.9317C121.56 14.1848 121.744 14.3833 121.973 14.5273C122.201 14.667 122.471 14.7368 122.782 14.7368C123.085 14.7368 123.353 14.6866 123.586 14.5863C123.819 14.4815 124.042 14.3157 124.253 14.0888L125.096 14.9856C124.824 15.2867 124.491 15.5311 124.098 15.7187C123.709 15.9064 123.264 16.0002 122.763 16.0002ZM121.189 11.8566H124.176C124.163 11.538 124.098 11.2588 123.981 11.0187C123.869 10.7787 123.709 10.5932 123.502 10.4623C123.294 10.327 123.042 10.2594 122.744 10.2594C122.329 10.2594 121.975 10.3903 121.681 10.6522C121.392 10.914 121.227 11.3155 121.189 11.8566Z" fill="#FF8800"/>
<path d="M114.959 15.8431L112.536 9.15317H114.032L115.484 13.2902C115.518 13.3906 115.553 13.4953 115.588 13.6044C115.622 13.7135 115.652 13.8248 115.678 13.9382C115.709 13.8248 115.739 13.7157 115.769 13.6109C115.804 13.5018 115.84 13.3949 115.879 13.2902L117.311 9.15317H118.801L116.378 15.8431H114.959Z" fill="#FF8800"/>
<path d="M109.66 15.8431V9.15314H111.111V15.8431H109.66ZM110.379 8.18434C110.141 8.18434 109.938 8.09925 109.77 7.92905C109.601 7.75886 109.517 7.55375 109.517 7.31374C109.517 7.06935 109.599 6.86207 109.763 6.69187C109.932 6.51732 110.137 6.43004 110.379 6.43004C110.63 6.43004 110.837 6.51513 111.001 6.68533C111.169 6.85552 111.254 7.06499 111.254 7.31374C111.254 7.55812 111.169 7.7654 111.001 7.9356C110.833 8.10143 110.625 8.18434 110.379 8.18434Z" fill="#FF8800"/>
<path d="M104.433 15.8431V9.15315H105.884V9.92557C106.014 9.63755 106.208 9.41062 106.467 9.24479C106.731 9.07896 107.02 8.99605 107.335 8.99605C107.78 8.99605 108.156 9.14224 108.463 9.43462L108.262 10.7896C108.098 10.6587 107.934 10.5649 107.77 10.5082C107.605 10.4514 107.424 10.4231 107.225 10.4231C106.949 10.4231 106.711 10.4929 106.513 10.6325C106.314 10.7722 106.158 10.9707 106.046 11.2282C105.938 11.4857 105.884 11.7912 105.884 12.1446V15.8431H104.433Z" fill="#FF8800"/>
<path d="M95.4247 15.8431V6.67877H98.2886C99.0748 6.67877 99.74 6.80969 100.284 7.07152C100.833 7.329 101.276 7.67811 101.613 8.11887C101.954 8.55526 102.202 9.04621 102.358 9.5917C102.513 10.1372 102.591 10.6936 102.591 11.2609C102.591 11.7846 102.518 12.3148 102.371 12.8516C102.224 13.3883 101.984 13.8836 101.651 14.3375C101.319 14.7913 100.874 15.1557 100.317 15.4307C99.7594 15.7056 99.0661 15.8431 98.2367 15.8431H95.4247ZM96.9214 14.416H98.3987C98.8955 14.416 99.3123 14.3244 99.6493 14.1411C99.9862 13.9535 100.256 13.7047 100.459 13.3949C100.667 13.085 100.813 12.7447 100.9 12.3737C100.991 12.0028 101.036 11.6318 101.036 11.2609C101.036 10.8682 100.988 10.4841 100.893 10.1088C100.798 9.72917 100.649 9.38878 100.446 9.08767C100.248 8.78655 99.9905 8.54654 99.6752 8.36761C99.3599 8.18433 98.9819 8.09269 98.5413 8.09269H96.9214V14.416Z" fill="#FF8800"/>
<path d="M91.7905 15.8431V9.15314H93.2419V15.8431H91.7905ZM92.5098 8.18434C92.2722 8.18434 92.0692 8.09925 91.9007 7.92905C91.7322 7.75886 91.648 7.55375 91.648 7.31374C91.648 7.06935 91.7301 6.86207 91.8942 6.69187C92.0627 6.51732 92.2679 6.43004 92.5098 6.43004C92.7603 6.43004 92.9676 6.51513 93.1318 6.68533C93.3003 6.85552 93.3845 7.06499 93.3845 7.31374C93.3845 7.55812 93.3003 7.7654 93.1318 7.9356C92.9633 8.10143 92.756 8.18434 92.5098 8.18434Z" fill="#FF8800"/>
<path d="M82.6302 15.8431V6.67877H84.127V10.3903H88.1054V6.67877H89.6022V15.8431H88.1054V11.8239H84.127V15.8431H82.6302Z" fill="#FF8800"/>
<path d="M8.05122 2.2312C6.78065 2.2312 5.75085 1.23206 5.75085 0.000314713H13.8023C15.0727 0.000314713 16.1025 0.99892 16.1025 2.2312L16.1023 10.0391C14.8319 10.0391 13.802 9.04025 13.802 7.80836L13.8023 3.34654C13.8023 2.73063 13.2871 2.2312 12.652 2.2312H8.05122Z" fill="#FF8800"/>
<path d="M11.5018 5.57749C11.5018 4.96146 10.9867 4.46192 10.3516 4.46192H1.15004C0.514785 4.46192 -6.10352e-05 4.96146 -6.10352e-05 5.57749V14.5007C-6.10352e-05 15.1168 0.514785 15.6162 1.15004 15.6162H10.3516C10.9867 15.6162 11.5018 15.1168 11.5018 14.5007V5.57749Z" fill="#FF8800"/>
<path d="M27.5674 14.5294C26.9295 15.7 25.2738 15.7838 23.9977 15.7838C23.0146 15.7838 22.0316 15.7168 21.4625 15.6667C20.7556 15.5997 20.5658 15.4326 20.5658 15.0814V14.5127C20.5658 13.9105 20.6694 13.7099 21.2211 13.7099C22.2387 13.7099 22.7559 13.8437 24.2564 13.8437C25.4118 13.8437 25.636 13.7601 25.636 12.7567C25.636 11.6195 25.6189 11.5359 25.0324 11.3018C24.2908 11.0007 23.5838 10.7163 22.8595 10.4154C21.0659 9.66281 20.7039 9.32833 20.7039 7.33836C20.7039 6.06717 20.9453 5.08044 22.4112 4.61219C23.0492 4.41149 23.7907 4.34468 24.8082 4.34468C25.6016 4.34468 26.0153 4.37801 26.757 4.42829C27.4641 4.47852 27.671 4.64562 27.671 5.01357V5.56553C27.671 6.16745 27.5501 6.36827 26.9985 6.36827C26.3949 6.36827 26.343 6.26791 23.8944 6.26791C22.9285 6.26791 22.963 6.6692 22.963 7.48877C22.963 8.09085 22.9802 8.22468 23.5666 8.47544C24.0322 8.67619 24.515 8.86009 24.9806 9.06072C27.3778 10.0474 27.8952 10.2816 27.8952 12.1881C27.8952 12.8236 27.8779 13.944 27.5674 14.5294Z" fill="#FF8800"/>
<path d="M37.0103 6.38501C36.0272 6.38501 35.2169 6.36827 34.4753 6.35147V14.8973C34.4753 15.3992 34.2338 15.6333 33.7337 15.6333H32.9922C32.423 15.6333 32.1643 15.4827 32.1643 14.8973V6.35147C31.4228 6.36827 30.595 6.38501 29.612 6.38501C28.905 6.38501 28.8878 5.9502 28.8878 5.59903V5.14725C28.8878 4.57871 29.2154 4.46173 29.612 4.46173H37.0103C37.4071 4.46173 37.7518 4.57871 37.7518 5.14725V5.59903C37.7518 5.9502 37.7173 6.38501 37.0103 6.38501Z" fill="#FF8800"/>
<path d="M44.0901 6.50204C43.8145 6.36827 43.0729 6.36827 42.7624 6.36827C42.2104 6.36827 41.7622 6.38501 41.2793 6.40159V9.66281H43.228C43.8487 9.66281 44.1592 9.56246 44.3488 9.32834C44.5041 9.12759 44.5557 8.86009 44.5557 8.24133C44.5557 7.55564 44.4869 6.70268 44.0901 6.50204ZM46.8322 15.6333H45.7973C45.3664 15.6333 45.0731 15.583 44.7457 15.1818L41.8139 11.5693H41.2793V14.8973C41.2793 15.3992 41.0551 15.6333 40.555 15.6333H39.8133C39.2443 15.6333 38.9682 15.4827 38.9682 14.8973V5.14725C38.9682 4.49511 39.4338 4.46173 39.8133 4.46173H43.0038C44.8144 4.46173 45.2803 4.57871 45.9528 5.2477C46.5908 5.86648 46.8494 6.93691 46.8494 8.3751C46.8494 9.74636 46.4357 10.5994 45.7114 11.0843C45.4009 11.2851 45.0389 11.4187 44.5557 11.4857L47.1945 14.5965C47.5392 14.9977 47.6082 15.6333 46.8322 15.6333Z" fill="#FF8800"/>
<path d="M53.4847 7.28814L52.1052 11.2348C52.5017 11.2348 52.9676 11.2181 53.4677 11.2181C54.0022 11.2181 54.3645 11.2348 54.8646 11.2348L53.4847 7.28814ZM58.0377 15.6333H57.0892C56.5546 15.6333 56.3994 15.3823 56.2788 15.048L55.52 12.9573C54.7785 12.974 54.2262 12.974 53.4677 12.974C52.7432 12.974 52.1052 12.974 51.4844 12.9573L50.7945 14.9309C50.6393 15.3823 50.5015 15.6333 49.915 15.6333H49.1217C48.5355 15.6333 48.4492 15.4827 48.4492 15.2318C48.4492 15.1315 48.501 14.9309 48.587 14.7135L52.1225 5.14725C52.312 4.62888 52.5017 4.39481 53.1399 4.39481H53.847C54.4852 4.39481 54.6749 4.62888 54.8646 5.13061L58.5896 14.8806C58.6241 14.9644 58.6586 15.048 58.6586 15.1315C58.6586 15.5497 58.3136 15.6333 58.0377 15.6333Z" fill="#FF8800"/>
<path d="M65.8319 6.38501C64.849 6.38501 64.0383 6.36827 63.2968 6.35147V14.8973C63.2968 15.3992 63.0553 15.6333 62.5552 15.6333H61.8137C61.2445 15.6333 60.9858 15.4827 60.9858 14.8973V6.35147C60.2443 6.36827 59.4167 6.38501 58.4337 6.38501C57.7267 6.38501 57.7094 5.9502 57.7094 5.59903V5.14725C57.7094 4.57871 58.0368 4.46173 58.4337 4.46173H65.8319C66.2286 4.46173 66.5736 4.57871 66.5736 5.14725V5.59903C66.5736 5.9502 66.539 6.38501 65.8319 6.38501Z" fill="#FF8800"/>
<path d="M74.0989 7.17107C73.7197 6.38515 72.9263 6.10079 71.9605 6.10079C70.9948 6.10079 70.2016 6.38515 69.8222 7.17107C69.4945 7.8735 69.4426 9.21133 69.4426 10.0642C69.4426 10.917 69.4945 12.2383 69.8222 12.9407C70.2016 13.7267 70.9948 14.0278 71.9605 14.0278C72.9263 14.0278 73.7197 13.7267 74.0989 12.9407C74.4267 12.2383 74.4784 10.917 74.4784 10.0642C74.4784 9.21133 74.4267 7.8735 74.0989 7.17107ZM75.5821 14.5796C74.7542 15.5329 73.5988 15.9844 71.9605 15.9844C70.3221 15.9844 69.1322 15.5329 68.3219 14.5796C67.3043 13.4089 67.0456 11.7868 67.0456 10.0642C67.0456 8.3418 67.3043 6.71962 68.3219 5.54883C69.1667 4.57885 70.3566 4.14391 71.9605 4.14391C73.5643 4.14391 74.737 4.57885 75.5821 5.54883C76.5996 6.71962 76.8755 8.3418 76.8755 10.0642C76.8755 11.7868 76.5996 13.4089 75.5821 14.5796Z" fill="#FF8800"/>
</svg>
