<svg xmlns="http://www.w3.org/2000/svg" width="16" height="16" viewBox="0 0 16 16"><g fill="none"><path fill="#0071AD" fill-rule="evenodd" d="M8.0046875,14.9333333 C7.05,14.9333333 6.15134549,14.7526476 5.30872396,14.391276 C4.46610243,14.0299045 3.72912326,13.5335503 3.09778646,12.9022135 C2.46644965,12.2708767 1.97009549,11.5341146 1.60872396,10.6919271 C1.24735243,9.84973958 1.06666667,8.94991319 1.06666667,7.99244792 C1.06666667,7.03203125 1.24765625,6.13198785 1.60963542,5.29231771 C1.97161458,4.45264757 2.46883681,3.71623264 3.10130208,3.08307292 C3.73376736,2.44991319 4.47052951,1.95555556 5.31158854,1.6 C6.15264757,1.24444444 7.05130208,1.06666667 8.00755208,1.06666667 C8.96796875,1.06666667 9.86792535,1.24444444 10.7074219,1.6 C11.5469184,1.95555556 12.2833333,2.45 12.9166667,3.08333333 C13.55,3.71666667 14.0444444,4.45447049 14.4,5.29674479 C14.7555556,6.1390191 14.9333333,7.0390625 14.9333333,7.996875 C14.9333333,8.95451389 14.7555556,9.85277778 14.4,10.6916667 C14.0444444,11.5305556 13.5500868,12.2662326 12.9169271,12.8986979 C12.2837674,13.5311632 11.5461372,14.0283854 10.7040365,14.3903646 C9.86193576,14.7523438 8.96215278,14.9333333 8.0046875,14.9333333 Z"/><path fill="#FFF" d="M7.9,12.7333333 L9.83333333,10.8 L7.93333333,8.86666667 L7.11666667,9.66666667 L7.61666667,10.1833333 C7.39444444,10.1277778 7.17777778,10.0527778 6.96666667,9.95833333 C6.75555556,9.86388889 6.57222222,9.73888889 6.41666667,9.58333333 C6.20555556,9.37222222 6.04444444,9.13055556 5.93333333,8.85833333 C5.82222222,8.58611111 5.76666667,8.3 5.76666667,8 C5.76666667,7.83333333 5.78611111,7.66388889 5.825,7.49166667 C5.86388889,7.31944444 5.92222222,7.14444444 6,6.96666667 L5.18333333,6.15 C5.01666667,6.47222222 4.88333333,6.78611111 4.78333333,7.09166667 C4.68333333,7.39722222 4.63333333,7.7 4.63333333,8 C4.63333333,8.45555556 4.71388889,8.88888889 4.875,9.3 C5.03611111,9.71111111 5.27777778,10.0777778 5.6,10.4 C5.88888889,10.6888889 6.20833333,10.9083333 6.55833333,11.0583333 C6.90833333,11.2083333 7.28333333,11.3 7.68333333,11.3333333 L7.1,11.9333333 L7.9,12.7333333 Z M10.8166667,9.85 C10.9833333,9.52777778 11.1166667,9.21388889 11.2166667,8.90833333 C11.3166667,8.60277778 11.3666667,8.3 11.3666667,8 C11.3666667,7.54444444 11.2805556,7.11388889 11.1083333,6.70833333 C10.9361111,6.30277778 10.6888889,5.93888889 10.3666667,5.61666667 C10.0888889,5.33888889 9.76944444,5.12222222 9.40833333,4.96666667 C9.04722222,4.81111111 8.67222222,4.71666667 8.28333333,4.68333333 L8.9,4.06666667 L8.1,3.26666667 L6.16666667,5.2 L8.08333333,7.13333333 L8.9,6.33333333 L8.38333333,5.81666667 C8.63888889,5.86111111 8.85833333,5.92777778 9.04166667,6.01666667 C9.225,6.10555556 9.40555556,6.23888889 9.58333333,6.41666667 C9.79444444,6.62777778 9.95555556,6.86944444 10.0666667,7.14166667 C10.1777778,7.41388889 10.2333333,7.7 10.2333333,8 C10.2333333,8.16666667 10.2138889,8.33611111 10.175,8.50833333 C10.1361111,8.68055556 10.0777778,8.85555556 10,9.03333333 L10.8166667,9.85 Z"/></g></svg>