<?xml version="1.0" encoding="UTF-8" standalone="no"?>
<svg
   height="64"
   width="64"
   version="1.1"
   viewBox="0 0 64 64"
   xmlns="http://www.w3.org/2000/svg"
   xmlns:svg="http://www.w3.org/2000/svg">
  <path
     fill="#ffffff"
     d="M 31.928199,5.9153513 A 26.014931,26.015303 0 0 0 5.9136395,31.931397 26.014931,26.015303 0 0 0 31.928199,57.946699 26.014931,26.015303 0 0 0 45.42312,54.140706 c 3.197332,1.270547 10.359067,5.039968 12.063587,3.411791 1.78116,-1.700989 -2.091104,-9.70677 -3.019446,-12.681689 A 26.014931,26.015303 0 0 0 57.94246,31.931173 26.014931,26.015303 0 0 0 31.928273,5.9162433 Z m 0.003,9.8907517 A 16.13087,16.131242 0 0 1 48.062041,31.937344 16.13087,16.131242 0 0 1 31.931172,48.06747 16.13087,16.131242 0 0 1 15.800302,31.937344 16.13087,16.131242 0 0 1 31.931172,15.806103 Z"
     id="path2-8"
     style="stroke:#ffffff;stroke-width:7.43358;stroke-miterlimit:4;stroke-dasharray:none;stroke-opacity:1;paint-order:normal" />
  <path
     fill="#000000"
     d="M 31.928199,5.9153513 A 26.014931,26.015303 0 0 0 5.9136395,31.931397 26.014931,26.015303 0 0 0 31.928199,57.946699 26.014931,26.015303 0 0 0 45.42312,54.140706 c 3.197332,1.270547 10.359067,5.039968 12.063587,3.411791 1.78116,-1.700989 -2.091104,-9.70677 -3.019446,-12.681689 A 26.014931,26.015303 0 0 0 57.94246,31.931173 26.014931,26.015303 0 0 0 31.928273,5.9162433 Z m 0.003,9.8907517 A 16.13087,16.131242 0 0 1 48.062041,31.937344 16.13087,16.131242 0 0 1 31.931172,48.06747 16.13087,16.131242 0 0 1 15.800302,31.937344 16.13087,16.131242 0 0 1 31.931172,15.806103 Z"
     id="path886"
     style="stroke-width:3.71679" />
</svg>
