<?xml version="1.0" encoding="UTF-8" standalone="no"?>
<svg
   height="16"
   width="16"
   version="1.1"
   viewBox="0 0 16 16"
   id="svg4"
   xmlns="http://www.w3.org/2000/svg"
   xmlns:svg="http://www.w3.org/2000/svg">
  <defs
     id="defs8" />
  <path
     fill="#ffffff"
     d="M 7.9992,0.999 A 6.9993,6.9994 0 0 0 1,7.9986 6.9993,6.9994 0 0 0 7.9992,14.998 6.9993,6.9994 0 0 0 11.63,13.974 c 0.86024,0.34184 2.7871,1.356 3.2457,0.91794 0.47922,-0.45765 -0.56261,-2.6116 -0.81238,-3.412 a 6.9993,6.9994 0 0 0 0.935,-3.4814 6.9993,6.9994 0 0 0 -6.9991,-6.9993 z M 8,3.6601 A 4.34,4.3401 0 0 1 12.34,8.0002 4.34,4.3401 0 0 1 8,12.34 4.34,4.3401 0 0 1 3.66,8.0002 4.34,4.3401 0 0 1 8,3.6601 Z"
     id="path2-8"
     style="stroke:#ffffff;stroke-opacity:1;stroke-width:2;stroke-miterlimit:4;stroke-dasharray:none;paint-order:normal" />
  <path
     fill="#000000"
     d="M 7.9992,0.999 A 6.9993,6.9994 0 0 0 1,7.9985999 6.9993,6.9994 0 0 0 7.9992,14.998 6.9993,6.9994 0 0 0 11.63,13.974 c 0.86024,0.34184 2.7871,1.356 3.2457,0.91794 0.47922,-0.45765 -0.56261,-2.6116 -0.81238,-3.412 A 6.9993,6.9994 0 0 0 14.99832,7.9985399 6.9993,6.9994 0 0 0 7.99922,0.99924 Z M 8,3.6601 A 4.34,4.3401 0 0 1 12.34,8.0001999 4.34,4.3401 0 0 1 8,12.34 4.34,4.3401 0 0 1 3.66,8.0001999 4.34,4.3401 0 0 1 8,3.6601 Z"
     id="path886" />
</svg>
