<?xml version="1.0" encoding="UTF-8" standalone="no"?>
<svg
   xmlns:dc="http://purl.org/dc/elements/1.1/"
   xmlns:cc="http://creativecommons.org/ns#"
   xmlns:rdf="http://www.w3.org/1999/02/22-rdf-syntax-ns#"
   xmlns:svg="http://www.w3.org/2000/svg"
   xmlns="http://www.w3.org/2000/svg"
   xmlns:xlink="http://www.w3.org/1999/xlink"
   xmlns:sodipodi="http://sodipodi.sourceforge.net/DTD/sodipodi-0.dtd"
   xmlns:inkscape="http://www.inkscape.org/namespaces/inkscape"
   version="1.1"
   id="Layer_1"
   x="0px"
   y="0px"
   viewBox="0 0 150.00001 149.99999"
   enable-background="new 0 0 196.6 72"
   xml:space="preserve"
   inkscape:version="1.0 (4035a4f, 2020-05-01)"
   sodipodi:docname="nextcloud-icon-round.svg"
   width="160"
   height="160"
   inkscape:export-filename="nextcloud-icon-1024.png"
   inkscape:export-xdpi="612.79999"
   inkscape:export-ydpi="612.79999">
    <metadata
   id="metadata20">
        <rdf:RDF>
            <cc:Work
   rdf:about="">
                <dc:format>image/svg+xml</dc:format>
                <dc:type
   rdf:resource="http://purl.org/dc/dcmitype/StillImage" />
                <dc:title></dc:title>
            </cc:Work>
        </rdf:RDF>
    </metadata>
    <defs
   id="defs18">
        <linearGradient
   inkscape:collect="always"
   id="linearGradient857">
            <stop
   style="stop-color:#0082c9;stop-opacity:1;"
   offset="0"
   id="stop853" />
            <stop
   style="stop-color:#1cafff;stop-opacity:1"
   offset="1"
   id="stop855" />
        </linearGradient>
        <clipPath
   clipPathUnits="userSpaceOnUse"
   id="clipPath8812">
            <circle
   id="circle8814"
   cx="95.669289"
   cy="95.669296"
   r="79.724197"
   style="fill:#00080d;fill-opacity:1;stroke-width:1" />
        </clipPath>
        <linearGradient
   gradientTransform="matrix(0.92898391,0,0,0.92898394,75.000006,74.999997)"
   inkscape:collect="always"
   xlink:href="#linearGradient857"
   id="linearGradient1192"
   gradientUnits="userSpaceOnUse"
   x1="18.230097"
   y1="150"
   x2="150.00002"
   y2="-7.6293945e-06" />
    </defs>
    <sodipodi:namedview
   pagecolor="#ffffff"
   bordercolor="#666666"
   borderopacity="1"
   objecttolerance="10"
   gridtolerance="10"
   guidetolerance="10"
   inkscape:pageopacity="0"
   inkscape:pageshadow="2"
   inkscape:window-width="1440"
   inkscape:window-height="812"
   id="namedview16"
   showgrid="false"
   inkscape:zoom="2.8284271"
   inkscape:cx="57.814339"
   inkscape:cy="72.675931"
   inkscape:current-layer="Layer_1"
   fit-margin-top="0"
   fit-margin-left="0"
   fit-margin-right="0"
   fit-margin-bottom="0"
   inkscape:window-x="0"
   inkscape:window-y="23"
   inkscape:window-maximized="1"
   units="px"
   inkscape:snap-bbox="true"
   inkscape:bbox-paths="true"
   inkscape:bbox-nodes="true"
   inkscape:snap-bbox-edge-midpoints="true"
   inkscape:snap-bbox-midpoints="true"
   inkscape:snap-page="true"
   inkscape:document-rotation="0" />
    <circle
   r="74.0625"
   cy="75"
   cx="75"
   id="circle1050"
   style="opacity:1;fill:url(#linearGradient1192);fill-opacity:1;fill-rule:evenodd;stroke:none;stroke-width:0.0928984;stroke-miterlimit:4;stroke-dasharray:none;stroke-opacity:1"
   inkscape:export-filename="nextcloud-icon.png"
   inkscape:export-xdpi="300"
   inkscape:export-ydpi="300" />
    <path
   inkscape:connector-curvature="0"
   id="path1052"
   d="m 75.095076,46.603241 c -12.931054,0 -23.891193,8.766401 -27.288104,20.643885 -2.952271,-6.299997 -9.349944,-10.713674 -16.718953,-10.713674 -10.13413,0 -18.464649,8.330521 -18.464649,18.464646 0,10.134113 8.330519,18.468436 18.464649,18.468436 7.369009,0 13.766682,-4.416376 16.718954,-10.71748 3.396911,11.878387 14.357049,20.647706 27.288103,20.647706 12.835421,0 23.739679,-8.637059 27.223474,-20.381468 3.00681,6.158056 9.32529,10.451242 16.58964,10.451242 10.13413,0 18.46844,-8.334323 18.46844,-18.468436 0,-10.134125 -8.33431,-18.464646 -18.46844,-18.464646 -7.26435,0 -13.58283,4.290496 -16.58964,10.44745 C 98.834755,55.23741 87.930497,46.603241 75.095076,46.603241 Z m 0,10.839181 c 9.761486,0 17.559482,7.794221 17.559482,17.555676 0,9.76144 -7.797996,17.559471 -17.559482,17.559471 -9.761428,0 -17.555649,-7.798031 -17.555649,-17.559471 0,-9.761455 7.79422,-17.555673 17.555649,-17.555676 z m -44.007057,9.930211 c 4.276712,0 7.629256,3.348731 7.629256,7.625465 0,4.276719 -3.352544,7.629255 -7.629256,7.629255 -4.276723,0 -7.625488,-3.352536 -7.625488,-7.629255 0,-4.276734 3.348765,-7.625465 7.625488,-7.625465 z m 87.820171,0 c 4.27676,0 7.62928,3.348731 7.62928,7.625465 0,4.276719 -3.35254,7.629255 -7.62928,7.629255 -4.27669,0 -7.62544,-3.352536 -7.62544,-7.629255 0,-4.276734 3.34876,-7.625465 7.62544,-7.625465 z"
   style="color:#000000;font-style:normal;font-variant:normal;font-weight:normal;font-stretch:normal;font-size:medium;line-height:normal;font-family:sans-serif;text-indent:0;text-align:start;text-decoration:none;text-decoration-line:none;text-decoration-style:solid;text-decoration-color:#000000;letter-spacing:normal;word-spacing:normal;text-transform:none;writing-mode:lr-tb;direction:ltr;baseline-shift:baseline;text-anchor:start;white-space:normal;clip-rule:nonzero;display:inline;overflow:visible;visibility:visible;opacity:1;isolation:auto;mix-blend-mode:normal;color-interpolation:sRGB;color-interpolation-filters:linearRGB;solid-color:#000000;solid-opacity:1;fill:#ffffff;fill-opacity:1;fill-rule:nonzero;stroke:none;stroke-width:6.09669;stroke-linecap:butt;stroke-linejoin:miter;stroke-miterlimit:10;stroke-dasharray:none;stroke-dashoffset:0;stroke-opacity:1;color-rendering:auto;image-rendering:auto;shape-rendering:auto;text-rendering:auto;enable-background:accumulate"
   inkscape:export-filename="Nextcloud Hub logo variants.png"
   inkscape:export-xdpi="300"
   inkscape:export-ydpi="300" />
</svg>
