<svg xmlns="http://www.w3.org/2000/svg" width="18" height="16" viewBox="0 0 18 16"><g fill="none" transform="translate(1)"><polygon fill="#A37200" fill-rule="evenodd" points="-.067 14.3 8 .833 16.067 14.3"/><path fill="#FFF" d="M8.01328125,12.05 C8.23776042,12.05 8.43055556,11.9706163 8.59166667,11.811849 C8.75277778,11.6530816 8.83333333,11.4613715 8.83333333,11.2367188 C8.83333333,11.0122396 8.75394965,10.8194444 8.59518229,10.6583333 C8.43641493,10.4972222 8.24470486,10.4166667 8.02005208,10.4166667 C7.79557292,10.4166667 7.60277778,10.4960503 7.44166667,10.6548177 C7.28055556,10.8135851 7.2,11.0052951 7.2,11.2299479 C7.2,11.4544271 7.27938368,11.6472222 7.43815104,11.8083333 C7.5969184,11.9694444 7.78862847,12.05 8.01328125,12.05 Z M7.2,9.66666667 L8.83333333,9.66666667 L8.83333333,6.4 L7.2,6.4 L7.2,9.66666667 Z"/></g></svg>