<?xml version="1.0" encoding="UTF-8" standalone="no"?>
<!DOCTYPE svg PUBLIC "-//W3C//DTD SVG 1.1//EN" "http://www.w3.org/Graphics/SVG/1.1/DTD/svg11.dtd">
<svg width="100%" height="100%" viewBox="0 0 16 16"
    xmlns="http://www.w3.org/2000/svg" version="1.1">
    <path fill="#0082c9" d="m1.5 2c-0.25 0-0.5 0.25-0.5 0.5v11c0 0.26 0.24 0.5 0.5 0.5h13c0.26 0 0.5-0.241 0.5-0.5v-9c0-0.25-0.25-0.5-0.5-0.5h-6.5l-2-2h-4.5zm8.75 3.5a1.25 1.25 0 0 1 1.25 1.25 1.25 1.25 0 0 1 -1.25 1.25 1.25 1.25 0 0 1 -0.8008 -0.291l-2.4512 1.2265a1.25 1.25 0 0 1 0.002 0.0645 1.25 1.25 0 0 1 -0.0039 0.0645l2.4531 1.2265a1.25 1.25 0 0 1 0.8008 -0.291 1.25 1.25 0 0 1 1.25 1.25 1.25 1.25 0 0 1 -1.25 1.25 1.25 1.25 0 0 1 -1.25 -1.25 1.25 1.25 0 0 1 0.0039 -0.064l-2.4531-1.227a1.25 1.25 0 0 1 -0.8008 0.291 1.25 1.25 0 0 1 -1.25 -1.25 1.25 1.25 0 0 1 1.25 -1.25 1.25 1.25 0 0 1 0.8008 0.291l2.4512-1.2265a1.25 1.25 0 0 1 -0.002 -0.0645 1.25 1.25 0 0 1 1.25 -1.25z"/>
</svg>
