<svg viewBox="0 0 16 16" height="16" width="16" xmlns="http://www.w3.org/2000/svg" xml:space="preserve" style="fill:#0082c9;fill-rule:evenodd;clip-rule:evenodd;stroke-linejoin:round;stroke-miterlimit:2"><path d="M2.4 13.6c-.385 0-.715-.137-.988-.41A1.351 1.351 0 0 1 1 12.2V3.8c0-.385.137-.715.412-.99.258-.267.616-.416.988-.41h4.2L8 3.8h5.6c.385 0 .715.137.99.41.273.275.41.605.41.99v7c.005.372-.143.73-.41.99a1.352 1.352 0 0 1-.99.41H2.4Zm7.384-2.023c.258 0 .477-.09.658-.27a.897.897 0 0 0 .27-.659.897.897 0 0 0-.27-.658.896.896 0 0 0-.658-.27.896.896 0 0 0-.34.065 1.013 1.013 0 0 0-.295.182l-2.183-1.27a.578.578 0 0 0 .024-.104.922.922 0 0 0 0-.224.6.6 0 0 0-.024-.105l2.183-1.27c.088.078.186.139.294.183a.91.91 0 0 0 .341.066c.258 0 .477-.09.658-.271a.897.897 0 0 0 .27-.658.897.897 0 0 0-.27-.658.896.896 0 0 0-.658-.271.897.897 0 0 0-.658.27.897.897 0 0 0-.24.875L6.704 7.8a1.026 1.026 0 0 0-.295-.182.884.884 0 0 0-.34-.066.897.897 0 0 0-.658.27.897.897 0 0 0-.271.659c0 .257.09.477.27.658.181.18.4.27.659.27a.908.908 0 0 0 .34-.065c.108-.044.206-.104.295-.182l2.182 1.27a.895.895 0 0 0 .24.875c.18.18.4.27.658.27Z"/></svg>