<?xml version="1.0" encoding="UTF-8" standalone="no"?>
<!DOCTYPE svg PUBLIC "-//W3C//DTD SVG 1.1//EN" "http://www.w3.org/Graphics/SVG/1.1/DTD/svg11.dtd">
<svg width="16" height="16" viewBox="0 0 16 16" version="1.1" xmlns="http://www.w3.org/2000/svg" xmlns:xlink="http://www.w3.org/1999/xlink" xml:space="preserve" xmlns:serif="http://www.serif.com/" style="fill-rule:evenodd;clip-rule:evenodd;stroke-linejoin:round;stroke-miterlimit:2;">
    <g transform="matrix(0.0175,0,0,0.0175,-0.4,16.4)">
        <path d="M160,-160C138,-160 119.167,-167.833 103.5,-183.5C87.833,-199.167 80,-218 80,-240L80,-720C80,-742 87.833,-760.833 103.5,-776.5C119.167,-792.167 138,-800 160,-800L400,-800L480,-720L800,-720C822,-720 840.833,-712.167 856.5,-696.5C872.167,-680.833 880,-662 880,-640L880,-240C880,-218 872.167,-199.167 856.5,-183.5C840.833,-167.833 822,-160 800,-160L160,-160ZM160,-240L800,-240L800,-640L447,-640L367,-720L160,-720L160,-240ZM160,-240L160,-720L160,-240Z" style="fill:rgb(0,130,201);fill-rule:nonzero;"/>
    </g>
    <g transform="matrix(0.009375,0,0,0.009375,3.49928,13.2704)">
        <path d="M0,-240L0,-303C0,-331.667 14.667,-355 44,-373C73.333,-391 112,-400 160,-400C168.667,-400 177,-399.833 185,-399.5C193,-399.167 200.667,-398.333 208,-397C198.667,-383 191.667,-368.333 187,-353C182.333,-337.667 180,-321.667 180,-305L180,-240L0,-240ZM240,-240L240,-305C240,-326.333 245.833,-345.833 257.5,-363.5C269.167,-381.167 285.667,-396.667 307,-410C328.333,-423.333 353.833,-433.333 383.5,-440C413.167,-446.667 445.333,-450 480,-450C515.333,-450 547.833,-446.667 577.5,-440C607.167,-433.333 632.667,-423.333 654,-410C675.333,-396.667 691.667,-381.167 703,-363.5C714.333,-345.833 720,-326.333 720,-305L720,-240L240,-240ZM780,-240L780,-305C780,-322.333 777.833,-338.667 773.5,-354C769.167,-369.333 762.667,-383.667 754,-397C761.333,-398.333 768.833,-399.167 776.5,-399.5C784.167,-399.833 792,-400 800,-400C848,-400 886.667,-391.167 916,-373.5C945.333,-355.833 960,-332.333 960,-303L960,-240L780,-240ZM325,-320L636,-320C629.333,-333.333 610.833,-345 580.5,-355C550.167,-365 516.667,-370 480,-370C443.333,-370 409.833,-365 379.5,-355C349.167,-345 331,-333.333 325,-320ZM160,-440C138,-440 119.167,-447.833 103.5,-463.5C87.833,-479.167 80,-498 80,-520C80,-542.667 87.833,-561.667 103.5,-577C119.167,-592.333 138,-600 160,-600C182.667,-600 201.667,-592.333 217,-577C232.333,-561.667 240,-542.667 240,-520C240,-498 232.333,-479.167 217,-463.5C201.667,-447.833 182.667,-440 160,-440ZM800,-440C778,-440 759.167,-447.833 743.5,-463.5C727.833,-479.167 720,-498 720,-520C720,-542.667 727.833,-561.667 743.5,-577C759.167,-592.333 778,-600 800,-600C822.667,-600 841.667,-592.333 857,-577C872.333,-561.667 880,-542.667 880,-520C880,-498 872.333,-479.167 857,-463.5C841.667,-447.833 822.667,-440 800,-440ZM480,-480C446.667,-480 418.333,-491.667 395,-515C371.667,-538.333 360,-566.667 360,-600C360,-634 371.667,-662.5 395,-685.5C418.333,-708.5 446.667,-720 480,-720C514,-720 542.5,-708.5 565.5,-685.5C588.5,-662.5 600,-634 600,-600C600,-566.667 588.5,-538.333 565.5,-515C542.5,-491.667 514,-480 480,-480ZM480,-560C491.333,-560 500.833,-563.833 508.5,-571.5C516.167,-579.167 520,-588.667 520,-600C520,-611.333 516.167,-620.833 508.5,-628.5C500.833,-636.167 491.333,-640 480,-640C468.667,-640 459.167,-636.167 451.5,-628.5C443.833,-620.833 440,-611.333 440,-600C440,-588.667 443.833,-579.167 451.5,-571.5C459.167,-563.833 468.667,-560 480,-560Z" style="fill:rgb(0,130,201);fill-rule:nonzero;"/>
    </g>
</svg>
