<svg width="512" height="512" viewBox="0 0 512 512" fill="@{color}" xmlns="http://www.w3.org/2000/svg">
<g clip-path="url(#clip0_1106_48)">
<path d="M256 512C323.895 512 389.01 485.029 437.019 437.019C485.029 389.01 512 323.895 512 256C512 188.105 485.029 122.99 437.019 74.9807C389.01 26.9714 323.895 0 256 0C188.105 0 122.99 26.9714 74.9807 74.9807C26.9714 122.99 0 188.105 0 256C0 323.895 26.9714 389.01 74.9807 437.019C122.99 485.029 188.105 512 256 512ZM216 336H240V272H216C202.7 272 192 261.3 192 248C192 234.7 202.7 224 216 224H264C277.3 224 288 234.7 288 248V336H296C309.3 336 320 346.7 320 360C320 373.3 309.3 384 296 384H216C202.7 384 192 373.3 192 360C192 346.7 202.7 336 216 336ZM256 128C264.487 128 272.626 131.371 278.627 137.373C284.629 143.374 288 151.513 288 160C288 168.487 284.629 176.626 278.627 182.627C272.626 188.629 264.487 192 256 192C247.513 192 239.374 188.629 233.373 182.627C227.371 176.626 224 168.487 224 160C224 151.513 227.371 143.374 233.373 137.373C239.374 131.371 247.513 128 256 128Z" fill="@{color}"/>
</g>
<defs>
<clipPath id="clip0_1106_48">
<rect width="512" height="512" fill="@{color}"/>
</clipPath>
</defs>
</svg>
