<svg width="512" height="512" viewBox="0 0 512 512" fill="@{color}" xmlns="http://www.w3.org/2000/svg">
<g clip-path="url(#clip0_1106_52)">
<g clip-path="url(#clip1_1106_52)">
<path d="M160 -1C142.3 -1 128 13.3 128 31V127H192V31C192 13.3 177.7 -1 160 -1ZM352 -1C334.3 -1 320 13.3 320 31V127H384V31C384 13.3 369.7 -1 352 -1ZM96 159C78.3 159 64 173.3 64 191C64 208.7 78.3 223 96 223V255C96 332.4 151 397 224 411.8V479C224 496.7 238.3 511 256 511C273.7 511 288 496.7 288 479V411.8C361 397 416 332.4 416 255V223C433.7 223 448 208.7 448 191C448 173.3 433.7 159 416 159H96Z" fill="@{color}"/>
</g>
</g>
<defs>
<clipPath id="clip0_1106_52">
<rect width="512" height="512" fill="@{color}"/>
</clipPath>
<clipPath id="clip1_1106_52">
<rect width="384" height="512" fill="@{color}" transform="translate(64 -1)"/>
</clipPath>
</defs>
</svg>
