<svg width="512" height="512" viewBox="0 0 512 512" fill="@{color}" xmlns="http://www.w3.org/2000/svg">
<path d="M142.9 142.9C205.1 80.7 305.6 80.4 368.2 141.9L327 183C320.1 189.9 318.1 200.2 321.8 209.2C325.5 218.2 334.3 224 344 224H463.5H472C485.3 224 496 213.3 496 200V72C496 62.3 490.2 53.5 481.2 49.8C472.2 46.1 461.9 48.1 455 55L413.4 96.6C325.8 10.1 184.7 10.4 97.6 97.6C73.2 122 55.6 150.7 44.8 181.4C38.9 198.1 47.7 216.3 64.3 222.2C80.9 228.1 99.2 219.3 105.1 202.7C112.8 180.9 125.3 160.4 142.9 142.9ZM16 312V319.6V320.3V440C16 449.7 21.8 458.5 30.8 462.2C39.8 465.9 50.1 463.9 57 457L98.6 415.4C186.2 501.9 327.3 501.6 414.4 414.4C438.8 390 456.5 361.3 467.3 330.7C473.2 314 464.4 295.8 447.8 289.9C431.2 284 412.9 292.8 407 309.4C399.3 331.2 386.8 351.7 369.2 369.2C307 431.4 206.5 431.7 143.9 370.2L185 329C191.9 322.1 193.9 311.8 190.2 302.8C186.5 293.8 177.7 288 168 288H48.4H47.7H40C26.7 288 16 298.7 16 312Z" fill="@{color}"/>
</svg>
