<svg viewBox="0 0 16 16" height="16" width="16" xmlns="http://www.w3.org/2000/svg" xml:space="preserve" style="fill-rule:evenodd;clip-rule:evenodd;stroke-linejoin:round;stroke-miterlimit:2"><path d="M9 18c-.55 0-1.021-.196-1.412-.587A1.927 1.927 0 0 1 7 16V4c0-.55.196-1.021.588-1.413A1.926 1.926 0 0 1 9 2h9c.55 0 1.021.196 1.413.587.391.392.587.863.587 1.413v12a1.93 1.93 0 0 1-.587 1.413A1.93 1.93 0 0 1 18 18H9Zm0-2h9V4H9v12Zm-4 6c-.55 0-1.021-.196-1.412-.587A1.927 1.927 0 0 1 3 20V6h2v14h11v2H5Zm4-6V4v12Z" style="fill-rule:nonzero" transform="matrix(.7 0 0 .7 -.1 -.4)"/></svg>