<?xml version="1.0" encoding="UTF-8" standalone="no"?>
<!DOCTYPE svg PUBLIC "-//W3C//DTD SVG 1.1//EN" "http://www.w3.org/Graphics/SVG/1.1/DTD/svg11.dtd">
<svg width="24" height="24" viewBox="0 0 24 24" version="1.1" xmlns="http://www.w3.org/2000/svg" xmlns:xlink="http://www.w3.org/1999/xlink" xml:space="preserve" xmlns:serif="http://www.serif.com/" style="fill-rule:evenodd;clip-rule:evenodd;stroke-linejoin:round;stroke-miterlimit:2;">
    <g transform="matrix(0.025,0,0,0.025,0,24)">
        <path d="M800,-274L720,-354L720,-560L514,-560L434,-640L600,-640L600,-720C600,-753.333 588.5,-781.667 565.5,-805C542.5,-828.333 514.333,-840 481,-840C447.667,-840 419.667,-828.5 397,-805.5C374.333,-782.5 363,-754 363,-720L363,-711L290,-784C304.667,-824.667 329.667,-857.5 365,-882.5C400.333,-907.5 439,-920 481,-920C536.333,-920 583.333,-900.5 622,-861.5C660.667,-822.5 680,-775.333 680,-720L680,-640L720,-640C742,-640 760.833,-632.167 776.5,-616.5C792.167,-600.833 800,-582 800,-560L800,-274ZM820,-28L758,-90C750.667,-86.667 744,-84.167 738,-82.5C732,-80.833 726,-80 720,-80L240,-80C218,-80 199.167,-87.833 183.5,-103.5C167.833,-119.167 160,-138 160,-160L160,-560C160,-576.667 164.833,-592 174.5,-606C184.167,-620 196.667,-630 212,-636L28,-820L84,-876L876,-84L820,-28ZM686,-160L539,-309C531.667,-301.667 523.167,-296 513.5,-292C503.833,-288 493.333,-286 482,-286C460,-286 441.167,-293.833 425.5,-309.5C409.833,-325.167 402,-344 402,-366C402,-377.333 404,-387.833 408,-397.5C412,-407.167 417.667,-415.667 425,-423L286,-560L240,-560L240,-160L686,-160Z" style="fill:rgb(170,0,0);fill-rule:nonzero;"/>
    </g>
</svg>
