<?xml version="1.0" encoding="UTF-8" standalone="no"?>
<svg
   enable-background="new 0 0 24 24"
   height="24px"
   viewBox="0 0 24 24"
   width="24px"
   fill="#000000"
   version="1.1"
   id="svg836"
   sodipodi:docname="lock-http.svg"
   inkscape:version="1.1.2 (b8e25be8, 2022-02-05)"
   xmlns:inkscape="http://www.inkscape.org/namespaces/inkscape"
   xmlns:sodipodi="http://sodipodi.sourceforge.net/DTD/sodipodi-0.dtd"
   xmlns="http://www.w3.org/2000/svg"
   xmlns:svg="http://www.w3.org/2000/svg">
  <defs
     id="defs840" />
  <sodipodi:namedview
     id="namedview838"
     pagecolor="#ffffff"
     bordercolor="#666666"
     borderopacity="1.0"
     inkscape:pageshadow="2"
     inkscape:pageopacity="0.0"
     inkscape:pagecheckerboard="0"
     showgrid="false"
     inkscape:zoom="29.791667"
     inkscape:cx="12"
     inkscape:cy="12"
     inkscape:window-width="2560"
     inkscape:window-height="937"
     inkscape:window-x="0"
     inkscape:window-y="25"
     inkscape:window-maximized="1"
     inkscape:current-layer="svg836" />
  <g
     id="g826">
    <rect
       fill="none"
       height="24"
       width="24"
       x="0"
       id="rect824" />
  </g>
  <g
     id="g834"
     style="fill:#d4aa00">
    <g
       id="g832"
       style="fill:#d4aa00">
      <g
         id="g830"
         style="fill:#d4aa00">
        <path
           d="M12,17c1.1,0,2-0.9,2-2s-0.9-2-2-2s-2,0.9-2,2S10.9,17,12,17z M18,8h-1V6c0-2.76-2.24-5-5-5S7,3.24,7,6v2H6 c-1.1,0-2,0.9-2,2v10c0,1.1,0.9,2,2,2h12c1.1,0,2-0.9,2-2V10C20,8.9,19.1,8,18,8z M8.9,6c0-1.71,1.39-3.1,3.1-3.1 s3.1,1.39,3.1,3.1v2H8.9V6z M18,20H6V10h12V20z"
           id="path828"
           style="fill:#d4aa00" />
      </g>
    </g>
  </g>
</svg>
