<svg viewBox="0 0 24 24" height="24" width="24" xmlns="http://www.w3.org/2000/svg" xml:space="preserve" style="fill-rule:evenodd;clip-rule:evenodd;stroke-linejoin:round;stroke-miterlimit:2"><path style="fill:none;fill-rule:nonzero" d="M0 0h24v24H0z"/><path d="M20 17.15 10.85 8H15V6c0-.833-.287-1.542-.862-2.125S12.858 3 12.025 3s-1.533.292-2.1.875c-.567.583-.85 1.292-.85 2.125v.225L7.25 4.4A5.096 5.096 0 0 1 9.1 1.938 4.881 4.881 0 0 1 12.025 1c1.383 0 2.558.487 3.525 1.462C16.517 3.438 17 4.617 17 6v2h1c.55 0 1.021.196 1.413.587.391.392.587.863.587 1.413v7.15Zm.5 6.15-1.55-1.55A1.943 1.943 0 0 1 18 22H6c-.55 0-1.021-.196-1.412-.587A1.927 1.927 0 0 1 4 20V10c0-.433.121-.821.363-1.163.241-.341.554-.587.937-.737L.7 3.5l1.4-1.4 19.8 19.8-1.4 1.4Zm-9.875-9.875a2.26 2.26 0 0 0-.425.662c-.1.242-.15.496-.15.763 0 .55.196 1.021.588 1.412.391.392.862.588 1.412.588.267 0 .521-.05.763-.15.241-.1.462-.242.662-.425l-2.85-2.85Z" style="fill:#a00;fill-rule:nonzero"/></svg>