<?xml version="1.0" encoding="UTF-8" standalone="no"?>
<!DOCTYPE svg PUBLIC "-//W3C//DTD SVG 1.1//EN" "http://www.w3.org/Graphics/SVG/1.1/DTD/svg11.dtd">
<svg width="100%" height="100%" viewBox="0 0 64 64"
    xmlns="http://www.w3.org/2000/svg" version="1.1">
    <path d="M28.032,4.002C27.105,4.002 26.399,4.708 26.399,5.635L26.399,10.302C24.331,10.833 22.475,11.691 20.683,12.752L17.3,9.369C16.644,8.713 15.622,8.713 14.966,9.369L9.366,14.969C8.711,15.625 8.711,16.646 9.366,17.302L12.75,20.686C11.688,22.478 10.831,24.334 10.3,26.402L5.633,26.402C4.706,26.402 4,27.108 4,28.035L4,35.969C4,36.896 4.706,37.602 5.633,37.602L10.3,37.602C10.831,39.67 11.688,41.526 12.75,43.318L9.366,46.704C8.711,47.36 8.711,48.382 9.366,49.038L14.966,54.638C15.622,55.293 16.644,55.293 17.299,54.638L20.683,51.252C22.475,52.316 24.331,53.17 26.399,53.701L26.399,58.367C26.399,59.295 27.105,60.001 28.032,60.001L35.965,60.001C36.893,60.001 37.599,59.295 37.599,58.365L37.599,53.699C39.666,53.168 41.523,52.31 43.315,51.249L46.698,54.632C47.354,55.288 48.376,55.288 49.031,54.632L54.631,49.032C55.287,48.376 55.287,47.355 54.631,46.699L51.249,43.316C52.313,41.524 53.168,39.669 53.698,37.601L58.364,37.601C59.294,37.601 59.999,36.895 59.999,35.967L59.999,28.034C59.999,27.107 59.294,26.401 58.364,26.401L53.698,26.401C53.168,24.333 52.313,22.476 51.249,20.684L54.631,17.301C55.287,16.645 55.287,15.623 54.631,14.968L49.031,9.368C48.376,8.712 47.354,8.712 46.698,9.368L43.316,12.751C41.524,11.689 39.668,10.832 37.6,10.301L37.6,5.634C37.602,4.706 36.896,4 35.969,4L28.032,4.002ZM31.999,19.523C38.887,19.523 44.478,25.113 44.478,32.002C44.478,38.89 38.888,44.481 31.999,44.481C25.111,44.481 19.52,38.889 19.52,32.001C19.52,25.112 25.111,19.521 31.999,19.521L31.999,19.523Z" style="fill:url(#_Linear1);fill-rule:nonzero;"/>
    <defs>
        <linearGradient id="_Linear1" x1="0" y1="0" x2="1" y2="0" gradientUnits="userSpaceOnUse" gradientTransform="matrix(3.42762e-15,55.9788,-55.9773,3.42771e-15,30.1063,3.80636)">
            <stop offset="0" style="stop-color:black;stop-opacity:0.7"/>
            <stop offset="1" style="stop-color:rgb(54,54,54);stop-opacity:0.7"/>
        </linearGradient>
    </defs>
</svg>
