<svg viewBox="0 0 16 16" height="16" width="16" xmlns="http://www.w3.org/2000/svg" xml:space="preserve" style="fill-rule:evenodd;clip-rule:evenodd;stroke-linejoin:round;stroke-miterlimit:2"><path d="M17 22a2.894 2.894 0 0 1-2.125-.875A2.894 2.894 0 0 1 14 19c0-.1.025-.333.075-.7L7.05 14.2A2.977 2.977 0 0 1 5 15a2.894 2.894 0 0 1-2.125-.875A2.894 2.894 0 0 1 2 12c0-.833.292-1.542.875-2.125A2.894 2.894 0 0 1 5 9a2.982 2.982 0 0 1 2.05.8l7.025-4.1a1.708 1.708 0 0 1-.062-.337A4.455 4.455 0 0 1 14 5c0-.833.292-1.542.875-2.125A2.894 2.894 0 0 1 17 2c.833 0 1.542.292 2.125.875S20 4.167 20 5s-.292 1.542-.875 2.125A2.894 2.894 0 0 1 17 8a2.964 2.964 0 0 1-2.05-.8l-7.025 4.1c.033.117.054.229.063.337a4.993 4.993 0 0 1 0 .725c-.009.109-.03.221-.063.338l7.025 4.1A2.977 2.977 0 0 1 17 16c.833 0 1.542.292 2.125.875S20 18.167 20 19s-.292 1.542-.875 2.125A2.894 2.894 0 0 1 17 22Z" style="fill-rule:nonzero" transform="matrix(.7 0 0 .7 .3 -.4)"/></svg>