<?xml version="1.0" encoding="UTF-8" standalone="no"?>
<!DOCTYPE svg PUBLIC "-//W3C//DTD SVG 1.1//EN" "http://www.w3.org/Graphics/SVG/1.1/DTD/svg11.dtd">
<svg width="100%" height="100%" viewBox="0 0 16 16"
    xmlns="http://www.w3.org/2000/svg" version="1.1">
    <path d="m4.0293 4.0003a1 1 0 0 0-0.73633 0.29297l-3 3a1.0001 1.0001 0 0 0 0 1.4141l3 3a1 1 0 0 0 1.4141 0 1 1 0 0 0 0-1.4141l-1.293-1.293h9.1719l-1.293 1.293a1 1 0 0 0 0 1.4141 1 1 0 0 0 1.4141 0l3-3a1.0001 1.0001 0 0 0 0-1.4141l-3-3a1 1 0 0 0-0.67773-0.29297 1 1 0 0 0-0.73633 0.29297 1 1 0 0 0 0 1.4141l1.293 1.293h-9.1719l1.293-1.293a1 1 0 0 0 0-1.4141 1 1 0 0 0-0.67773-0.29297z" fill="#969696"/>
</svg>
