<svg xmlns="http://www.w3.org/2000/svg" xml:space="preserve" style="fill-rule:evenodd;clip-rule:evenodd;stroke-linejoin:round;stroke-miterlimit:2" viewBox="0 0 32 32" height="32" width="32"><path d="M222-200 80-342l56-56 85 85 170-170 56 57-225 226Zm0-320L80-662l56-56 85 85 170-170 56 57-225 226Zm298 240v-80h360v80H520Zm0-320v-80h360v80H520Z" style="fill:#333;fill-rule:nonzero" transform="matrix(.022 0 0 .022 5.411 26.064)"/><path d="M480-80c-55.333 0-107.333-10.5-156-31.5S233-161 197-197s-64.5-78.333-85.5-127S80-424.667 80-480s10.5-107.333 31.5-156S161-727 197-763s78.333-64.5 127-85.5S424.667-880 480-880s107.333 10.5 156 31.5S727-799 763-763s64.5 78.333 85.5 127S880-535.333 880-480s-10.5 107.333-31.5 156S799-233 763-197s-78.333 64.5-127 85.5S535.333-80 480-80Zm0-80c89.333 0 165-31 227-93s93-137.667 93-227-31-165-93-227-137.667-93-227-93-165 31-227 93-93 137.667-93 227 31 165 93 227 137.667 93 227 93Z" style="fill:#333;fill-rule:nonzero" transform="matrix(.04 0 0 .04 -3.2 35.2)"/></svg>