<svg xmlns="http://www.w3.org/2000/svg" xml:space="preserve" style="fill-rule:evenodd;clip-rule:evenodd;stroke-linejoin:round;stroke-miterlimit:2" viewBox="0 0 32 32" height="32" width="32"><path d="M480-280c11.333 0 20.833-3.833 28.5-11.5 7.667-7.667 11.5-17.167 11.5-28.5 0-11.333-3.833-20.833-11.5-28.5-7.667-7.667-17.167-11.5-28.5-11.5-11.333 0-20.833 3.833-28.5 11.5-7.667 7.667-11.5 17.167-11.5 28.5 0 11.333 3.833 20.833 11.5 28.5 7.667 7.667 17.167 11.5 28.5 11.5Zm-40-160h80v-240h-80v240ZM330-120 120-330v-300l210-210h300l210 210v300L630-120H330Z" style="fill:#d14;fill-rule:nonzero" transform="matrix(.04444 0 0 .04444 -5.333 37.333)"/></svg>