<?xml version="1.0" encoding="utf-8"?>
<!-- Generator: Adobe Illustrator 21.0.2, SVG Export Plug-In . SVG Version: 6.00 Build 0)  -->
<svg version="1.1" id="Ebene_1" focusable="false" xmlns="http://www.w3.org/2000/svg" xmlns:xlink="http://www.w3.org/1999/xlink"
	 x="0px" y="0px" viewBox="0 0 640 640" style="enable-background:new 0 0 640 640;" xml:space="preserve">
<style type="text/css">
	.st0{display:none;fill:#6C6C6C;}
	.st1{fill:#6C6C6C;}
</style>
<path class="st0" d="M544.8,224h-448c-17.7,0-32-14.3-32-32v-64c0-17.7,14.3-32,32-32h448c17.7,0,32,14.3,32,32v64
	C576.8,209.7,562.5,224,544.8,224z M496.8,136c-13.3,0-24,10.7-24,24s10.7,24,24,24s24-10.7,24-24S510,136,496.8,136z M432.8,136
	c-13.3,0-24,10.7-24,24s10.7,24,24,24s24-10.7,24-24S446,136,432.8,136z M544.8,384h-448c-17.7,0-32-14.3-32-32v-64
	c0-17.7,14.3-32,32-32h448c17.7,0,32,14.3,32,32v64C576.8,369.7,562.5,384,544.8,384z M496.8,296c-13.3,0-24,10.7-24,24
	s10.7,24,24,24s24-10.7,24-24S510,296,496.8,296z M432.8,296c-13.3,0-24,10.7-24,24s10.7,24,24,24s24-10.7,24-24S446,296,432.8,296z
	 M544.8,544h-448c-17.7,0-32-14.3-32-32v-64c0-17.7,14.3-32,32-32h448c17.7,0,32,14.3,32,32v64C576.8,529.7,562.5,544,544.8,544z
	 M496.8,456c-13.3,0-24,10.7-24,24s10.7,24,24,24s24-10.7,24-24S510,456,496.8,456z M432.8,456c-13.3,0-24,10.7-24,24s10.7,24,24,24
	s24-10.7,24-24S446,456,432.8,456z"/>
<path class="st0" d="M321.8,320c61.9,0,112-50.1,112-112s-50.1-112-112-112s-112,50.1-112,112S259.9,320,321.8,320z M400.2,348
	h-14.6c-19.4,8.9-41,14-63.8,14s-44.3-5.1-63.8-14h-14.6c-64.9,0-117.6,52.7-117.6,117.6V502c0,23.2,18.8,42,42,42h308
	c23.2,0,42-18.8,42-42v-36.4C517.8,400.7,465.1,348,400.2,348z"/>
<path class="st0" d="M531.3,374.1l-38.6-22.3c3.9-21,3.9-42.6,0-63.6l38.6-22.3c4.4-2.5,6.4-7.8,5-12.7
	c-10-32.2-27.2-61.4-49.5-85.6c-3.4-3.7-9.1-4.6-13.4-2.1l-38.6,22.3c-16.2-13.9-34.9-24.7-55-31.8v-44.5c0-5.1-3.5-9.5-8.5-10.6
	c-33.2-7.4-67.3-7.1-98.9,0c-5,1.1-8.5,5.5-8.5,10.6v44.5c-20.1,7.2-38.8,17.9-55,31.8l-38.5-22.3c-4.4-2.5-10-1.7-13.4,2.1
	c-22.4,24.2-39.5,53.3-49.5,85.6c-1.5,4.9,0.5,10.1,5,12.7l38.6,22.3c-3.9,21-3.9,42.6,0,63.6l-38.6,22.3c-4.4,2.5-6.4,7.8-5,12.7
	c10,32.2,27.2,61.4,49.5,85.6c3.4,3.7,9.1,4.6,13.4,2.1l38.6-22.3c16.2,13.9,34.9,24.7,55,31.8v44.5c0,5.1,3.5,9.5,8.5,10.6
	c33.2,7.4,67.3,7.1,98.9,0c5-1.1,8.5-5.5,8.5-10.6v-44.5c20.1-7.2,38.8-17.9,55-31.8l38.6,22.3c4.4,2.5,10,1.7,13.4-2.1
	c22.4-24.2,39.5-53.3,49.5-85.6C537.7,381.8,535.7,376.6,531.3,374.1z M321.8,392.4c-39.9,0-72.4-32.5-72.4-72.4
	s32.5-72.4,72.4-72.4s72.4,32.5,72.4,72.4S361.7,392.4,321.8,392.4z"/>
<path class="st0" d="M321.8,542.9c30.7,0,55.7-24.9,55.7-55.7H266.1C266.1,517.9,291,542.9,321.8,542.9z M509.3,412.5
	c-16.8-18.1-48.3-45.3-48.3-134.3c0-67.6-47.4-121.8-111.4-135.1V125c0-15.4-12.5-27.9-27.8-27.9S294,109.6,294,125v18.1
	c-63.9,13.3-111.4,67.4-111.4,135.1c0,89.1-31.5,116.2-48.3,134.3c-5.2,5.6-7.5,12.3-7.5,18.9c0.1,14.3,11.3,27.9,27.9,27.9h334.1
	c16.6,0,27.9-13.6,27.9-27.9C516.8,424.9,514.5,418.1,509.3,412.5z"/>
<path class="st0" d="M634.7,219C457.6,55.2,182.2,55.3,5.2,219c-6.7,6.2-6.8,16.6-0.3,23l34.2,34c6.1,6.1,16,6.2,22.4,0.4
	c145.9-133.6,371.1-133.7,517,0c6.4,5.8,16.3,5.7,22.4-0.4l34.2-34C641.5,235.6,641.4,225.2,634.7,219L634.7,219z M319.9,416.1
	c-35.3,0-64,28.6-64,64s28.6,64,64,64s64-28.6,64-64S355.3,416.1,319.9,416.1z M522.5,332.5c-115.2-101.9-290.1-101.8-405.2,0
	c-6.9,6.1-7.1,16.7-0.6,23.1l34.4,34c6,5.9,15.7,6.3,22,0.8c83.9-72.5,209.6-72.4,293.4,0c6.4,5.5,16,5.1,22-0.8l34.4-34
	C529.6,349.2,529.4,338.6,522.5,332.5z"/>
<path class="st0" d="M132.5,440.6H63.6c-9.5,0-17.2,7.7-17.2,17.2v68.9c0,9.5,7.7,17.2,17.2,17.2h68.9c9.5,0,17.2-7.7,17.2-17.2
	v-68.9C149.7,448.3,142,440.6,132.5,440.6z M132.5,95.9H63.6c-9.5,0-17.2,7.7-17.2,17.2v68.9c0,9.5,7.7,17.2,17.2,17.2h68.9
	c9.5,0,17.2-7.7,17.2-17.2v-68.9C149.7,103.7,142,95.9,132.5,95.9z M132.5,268.3H63.6c-9.5,0-17.2,7.7-17.2,17.2v68.9
	c0,9.5,7.7,17.2,17.2,17.2h68.9c9.5,0,17.2-7.7,17.2-17.2v-68.9C149.7,276,142,268.3,132.5,268.3z M580.6,457.8H235.9
	c-9.5,0-17.2,7.7-17.2,17.2v34.5c0,9.5,7.7,17.2,17.2,17.2h344.7c9.5,0,17.2-7.7,17.2-17.2v-34.5
	C597.8,465.5,590.1,457.8,580.6,457.8z M580.6,113.2H235.9c-9.5,0-17.2,7.7-17.2,17.2v34.5c0,9.5,7.7,17.2,17.2,17.2h344.7
	c9.5,0,17.2-7.7,17.2-17.2v-34.5C597.8,120.9,590.1,113.2,580.6,113.2z M580.6,285.5H235.9c-9.5,0-17.2,7.7-17.2,17.2v34.5
	c0,9.5,7.7,17.2,17.2,17.2h344.7c9.5,0,17.2-7.7,17.2-17.2v-34.5C597.8,293.2,590.1,285.5,580.6,285.5z"/>
<path class="st0" d="M568.1,481.1c16.2,28-4.1,63-36.4,63H111.8c-32.3,0-52.5-35-36.4-63l210-364c16.2-28,56.6-28,72.8,0
	L568.1,481.1L568.1,481.1z M321.8,405.9c-22.2,0-40.3,18-40.3,40.3c0,22.2,18,40.3,40.3,40.3c22.2,0,40.2-18,40.2-40.3
	C362,423.9,344,405.9,321.8,405.9z M283.6,261.2l6.5,119c0.3,5.6,4.9,9.9,10.5,9.9H343c5.6,0,10.2-4.4,10.5-9.9l6.5-119
	c0.3-6-4.5-11.1-10.5-11.1h-55.5C288,250.1,283.2,255.2,283.6,261.2L283.6,261.2z"/>
<path class="st1" d="M448.6,144.1c56,40,92.4,105.4,92.4,179.5c0,121.6-98.5,220.2-220,220.4c-121.3,0.3-220.7-98.7-220.9-220.1
	c-0.1-74,36.4-139.6,92.3-179.7c10.4-7.4,24.9-4.3,31.1,6.8l14,25c5.2,9.3,2.8,21.2-5.9,27.6c-36.9,27.4-60.4,70.8-60.4,119.9
	c-0.1,82,66.2,149.4,149.3,149.4c81.4,0,149.9-66,149.3-150.3c-0.3-46-22-90.5-60.5-119.1c-8.6-6.4-11-18.2-5.8-27.5l14-25
	C423.9,140,438.3,136.7,448.6,144.1L448.6,144.1z M356.1,330.7V117.3c0-11.8-9.5-21.3-21.3-21.3h-28.4c-11.8,0-21.3,9.5-21.3,21.3
	v213.3c0,11.8,9.5,21.3,21.3,21.3h28.4C346.6,352,356.1,342.5,356.1,330.7z"/>
</svg>
