<?xml version="1.0" encoding="UTF-8" standalone="no"?>
<!DOCTYPE svg PUBLIC "-//W3C//DTD SVG 1.1//EN" "http://www.w3.org/Graphics/SVG/1.1/DTD/svg11.dtd">
<svg width="100%" height="100%" viewBox="0 0 128 128"
     xmlns="http://www.w3.org/2000/svg" version="1.1">
     <circle cx="64" cy="64" r="60" style="fill:rgb(178,48,21);stroke:rgb(152,29,5);stroke-width:3.95px;"/>
     <path d="M42.494,94.225C40.169,94.225 38.231,93.353 36.488,91.706C34.841,90.059 33.872,87.928 33.775,85.506C33.678,82.988 34.453,80.856 36.197,78.919L51.213,64L36.294,49.081C34.453,47.241 33.678,45.206 33.872,42.784C34.066,40.556 34.938,38.425 36.488,36.681C38.328,34.841 40.363,33.872 42.591,33.872L43.172,33.872C45.497,34.066 47.531,34.938 49.372,36.584L64,51.116L78.919,36.391C80.663,34.647 82.697,33.775 85.022,33.775L85.216,33.775C87.541,33.872 89.672,34.744 91.513,36.488C93.159,38.134 94.031,40.266 94.031,42.784C94.031,45.303 93.159,47.434 91.513,49.178L76.981,64L91.609,78.725C93.256,80.372 94.128,82.503 94.225,85.022C94.322,87.541 93.45,89.866 91.609,91.706C89.962,93.353 87.734,94.225 85.216,94.225C82.697,94.225 80.469,93.256 78.628,91.319L64,76.981L49.372,91.706C47.725,93.159 45.691,94.031 43.172,94.225L42.494,94.225Z" style="fill:white;fill-rule:nonzero;stroke:rgb(152,29,5);stroke-width:2.6px;"/>
</svg>
