<?xml version="1.0" encoding="utf-8"?>
<!-- Generator: Adobe Illustrator 18.0.0, SVG Export Plug-In . SVG Version: 6.00 Build 0)  -->
<!DOCTYPE svg PUBLIC "-//W3C//DTD SVG 1.1//EN" "http://www.w3.org/Graphics/SVG/1.1/DTD/svg11.dtd">
<svg version="1.1" id="Sync" xmlns="http://www.w3.org/2000/svg" xmlns:xlink="http://www.w3.org/1999/xlink" x="0px" y="0px"
	 viewBox="0 0 128 128" enable-background="new 0 0 128 128" xml:space="preserve">
<g>
	<g>
		<g>
			<circle fill="#B23015" cx="64" cy="64" r="61.9"/>
			<path fill="#981D05" d="M64,128C28.7,128,0,99.3,0,64S28.7,0,64,0s64,28.7,64,64S99.3,128,64,128z M64,4.1C31,4.1,4.1,31,4.1,64
				S31,123.9,64,123.9c33,0,59.9-26.9,59.9-59.9S97,4.1,64,4.1z"/>
		</g>
	</g>
	<g>
		<g>
			<path fill="#FFFFFF" d="M41.8,95.2c-2.4,0-4.4-0.9-6.2-2.6c-1.7-1.7-2.7-3.9-2.8-6.4c-0.1-2.6,0.7-4.8,2.5-6.8L50.8,64L35.4,48.6
				c-1.9-1.9-2.7-4-2.5-6.5c0.2-2.3,1.1-4.5,2.7-6.3l0,0l0,0c1.9-1.9,4-2.9,6.3-2.9c0.2,0,0.4,0,0.6,0c2.4,0.2,4.5,1.1,6.4,2.8l0,0
				L64,50.7l15.4-15.2c1.8-1.8,3.9-2.7,6.3-2.7c0.1,0,0.1,0,0.2,0c2.4,0.1,4.6,1,6.5,2.8l0,0c1.7,1.7,2.6,3.9,2.6,6.5
				c0,2.6-0.9,4.8-2.6,6.6L77.4,64l15.1,15.2c1.7,1.7,2.6,3.9,2.7,6.5c0.1,2.6-0.8,5-2.7,6.9c-1.7,1.7-4,2.6-6.6,2.6
				c-2.6,0-4.9-1-6.8-3L64,77.4L48.9,92.6l0,0c-1.7,1.5-3.8,2.4-6.4,2.6C42.3,95.2,42,95.2,41.8,95.2z"/>
		</g>
		<g>
			<path fill="#981D05" d="M41.9,34.1c0.2,0,0.3,0,0.5,0c2,0.2,3.9,1,5.5,2.5l16,16l16.4-16.2c1.5-1.5,3.3-2.3,5.3-2.3
				c0.1,0,0.1,0,0.2,0c2.1,0,4,0.8,5.6,2.4c1.5,1.5,2.2,3.3,2.2,5.6c0,2.2-0.7,4.1-2.2,5.7L75.4,64l16,16.2c1.5,1.5,2.3,3.3,2.3,5.6
				c0.1,2.3-0.7,4.2-2.3,5.9c-1.5,1.5-3.3,2.2-5.6,2.2c-2.3,0-4.2-0.9-5.9-2.6L64,75.5l-16,16.2c-1.5,1.3-3.3,2.1-5.5,2.2
				c-0.2,0-0.4,0-0.6,0c-2,0-3.7-0.7-5.2-2.2c-1.5-1.5-2.3-3.3-2.4-5.5c-0.1-2.2,0.6-4.1,2.2-5.7L52.7,64L36.3,47.6
				c-1.6-1.6-2.3-3.4-2.1-5.4c0.2-2.1,0.9-3.9,2.3-5.6C38.3,35,40,34.1,41.9,34.1 M41.9,31.4c-2.6,0-5,1.1-7.2,3.3l-0.1,0.1
				l-0.1,0.1c-1.8,2.1-2.8,4.5-3,7.1c-0.2,2.9,0.8,5.5,2.9,7.6L48.9,64L34.4,78.5l0,0l0,0c-2.1,2.2-3.1,4.8-2.9,7.8
				c0.2,2.9,1.2,5.3,3.2,7.3c2,2,4.4,3,7.2,3c0.3,0,0.5,0,0.8,0c2.8-0.2,5.2-1.2,7.2-2.9l0.1-0.1l0.1-0.1L64,79.4L78,93.2
				c2.2,2.3,4.8,3.4,7.8,3.4c3,0,5.6-1,7.6-3c2.2-2.2,3.3-4.9,3.1-7.9c-0.1-3-1.2-5.5-3.1-7.5L79.3,64l14.1-14.2l0,0l0,0
				c2-2.1,3-4.6,3-7.6c0-3-1-5.5-3-7.5l0,0l0,0c-2.2-2-4.7-3.1-7.4-3.2c-0.1,0-0.1,0-0.2,0c-2.8,0-5.2,1-7.3,3.1L64,48.8L49.9,34.7
				l0-0.1l-0.1-0.1c-2.1-1.9-4.5-2.9-7.2-3.2C42.4,31.4,42.1,31.4,41.9,31.4L41.9,31.4z"/>
		</g>
	</g>
</g>
</svg>
