<?xml version="1.0" encoding="utf-8"?>
<!-- Generator: Adobe Illustrator 18.0.0, SVG Export Plug-In . SVG Version: 6.00 Build 0)  -->
<!DOCTYPE svg PUBLIC "-//W3C//DTD SVG 1.1//EN" "http://www.w3.org/Graphics/SVG/1.1/DTD/svg11.dtd">
<svg version="1.1" id="Sync" xmlns="http://www.w3.org/2000/svg" xmlns:xlink="http://www.w3.org/1999/xlink" x="0px" y="0px"
	 viewBox="0 0 128 128" enable-background="new 0 0 128 128" xml:space="preserve">
<g>
	<g>
		<path fill="#5EB220" d="M64,2.1c34.2,0,61.9,27.7,61.9,61.9S98.2,125.9,64,125.9C29.8,125.9,2.1,98.2,2.1,64S29.8,2.1,64,2.1z"/>
		<path fill="#3A9804" d="M64,128C28.7,128,0,99.3,0,64S28.7,0,64,0s64,28.7,64,64S99.3,128,64,128z M64,4.1C31,4.1,4.1,31,4.1,64
			S31,123.9,64,123.9c33,0,59.9-26.9,59.9-59.9S97,4.1,64,4.1z"/>
	</g>
	<g>
		<g>
			<polygon fill="#FFFFFF" points="25.7,76.8 35.9,63.8 53,77.3 87.1,31 100.3,40.7 61.3,93.9 56.2,100.7 			"/>
		</g>
		<g>
			<path fill="#3A9804" d="M87.3,32.4L98.9,41l-4.3,5.8L60.4,93.2l-4.4,6l-5.8-4.6L32.8,81.1l-5.7-4.4L36,65.3l5.7,4.4l11.5,9
				L83,38.2L87.3,32.4 M86.8,29.5l-1.2,1.7L81.3,37L52.8,75.8L43,68.1l-5.7-4.4l-1.6-1.3L34.4,64l-8.9,11.4L24.3,77l1.6,1.3l5.7,4.4
				l17.4,13.6l5.8,4.6l1.7,1.3l1.3-1.7l4.4-6L96.3,48l4.3-5.8l1.2-1.7l-1.7-1.2l-11.6-8.5L86.8,29.5L86.8,29.5z"/>
		</g>
	</g>
</g>
</svg>
