<?xml version="1.0" encoding="UTF-8" standalone="no"?>
<!DOCTYPE svg PUBLIC "-//W3C//DTD SVG 1.1//EN" "http://www.w3.org/Graphics/SVG/1.1/DTD/svg11.dtd">
<svg width="100%" height="100%" viewBox="0 0 128 128"
     xmlns="http://www.w3.org/2000/svg" version="1.1">
     <circle cx="64" cy="64" r="60" style="fill:rgb(94,178,32);stroke:rgb(58,152,4);stroke-width:4px;"/>
     <path d="M81.778,24.766C74.125,24.766 68.022,30.966 68.022,38.522C68.022,38.909 68.022,39.394 68.119,39.781L41.575,53.344C39.153,51.309 36.053,50.05 32.663,50.05C25.01,50.05 18.907,56.25 18.907,63.806C18.907,71.459 25.107,77.563 32.663,77.563C35.763,77.563 38.572,76.594 40.897,74.85L68.216,88.703C68.216,88.897 68.119,89.188 68.119,89.478C68.119,97.131 74.319,103.234 81.875,103.234C89.432,103.234 95.632,97.034 95.632,89.478C95.632,81.825 89.432,75.722 81.875,75.722C78.291,75.722 74.997,77.078 72.575,79.306L46.225,65.841C46.322,65.162 46.419,64.484 46.419,63.709C46.419,63.322 46.322,62.934 46.322,62.547L72.963,48.984C75.385,51.019 78.485,52.278 81.875,52.278C89.528,52.278 95.632,46.078 95.632,38.522C95.535,30.869 89.335,24.669 81.778,24.766Z" style="fill:white;fill-rule:nonzero;stroke:rgb(58,152,4);stroke-width:2.2px;stroke-linecap:butt;stroke-linejoin:miter;stroke-miterlimit:2;"/>
</svg>
