<?xml version="1.0" encoding="UTF-8" standalone="no"?>
<svg
   xmlns:dc="http://purl.org/dc/elements/1.1/"
   xmlns:cc="http://creativecommons.org/ns#"
   xmlns:rdf="http://www.w3.org/1999/02/22-rdf-syntax-ns#"
   xmlns:svg="http://www.w3.org/2000/svg"
   xmlns="http://www.w3.org/2000/svg"
   version="1.1"
   id="Sync"
   x="0px"
   y="0px"
   viewBox="0 0 128 128"
   enable-background="new 0 0 128 128"
   xml:space="preserve"><metadata
     id="metadata37"><rdf:RDF><cc:Work
         rdf:about=""><dc:format>image/svg+xml</dc:format><dc:type
           rdf:resource="http://purl.org/dc/dcmitype/StillImage" /><dc:title></dc:title></cc:Work></rdf:RDF></metadata><defs
     id="defs35" /><g
     id="g3362"><g
       id="g5"
       transform="matrix(0.96875,0,0,0.96875,2,2)"><g
         id="g7"><g
           id="g9"><path
             d="m 64,2.1 c 34.2,0 61.9,27.7 61.9,61.9 0,34.2 -27.7,61.9 -61.9,61.9 C 29.8,125.9 2.1,98.2 2.1,64 2.1,29.8 29.8,2.1 64,2.1 Z"
             id="path11"
             style="fill:#5eb220" /></g><g
           id="g13"><path
             d="M 64,128 C 28.7,128 0,99.3 0,64 0,28.7 28.7,0 64,0 c 35.3,0 64,28.7 64,64 0,35.3 -28.7,64 -64,64 z M 64,4.1 C 31,4.1 4.1,31 4.1,64 4.1,97 31,123.9 64,123.9 97,123.9 123.9,97 123.9,64 123.9,31 97,4.1 64,4.1 Z"
             id="path15"
             style="fill:#3a9804" /></g></g></g><g
       transform="matrix(0.96875,0,0,0.96875,0.50025,-1002.0125)"
       id="g17"><g
         id="g19"><g
           id="g21"><path
             d="m 83.9,1059.9 c -7.9,0 -14.2,6.4 -14.2,14.2 0,0.4 0,0.9 0.1,1.3 l -27.4,14 c -2.5,-2.1 -5.7,-3.4 -9.2,-3.4 -7.9,0 -14.2,6.4 -14.2,14.2 0,7.9 6.4,14.2 14.2,14.2 3.2,0 6.1,-1 8.5,-2.8 l 28.2,14.3 c 0,0.2 -0.1,0.5 -0.1,0.8 0,7.9 6.4,14.2 14.2,14.2 7.8,0 14.2,-6.4 14.2,-14.2 0,-7.9 -6.4,-14.2 -14.2,-14.2 -3.7,0 -7.1,1.4 -9.6,3.7 l -27.2,-13.9 c 0.1,-0.7 0.2,-1.4 0.2,-2.2 0,-0.4 -0.1,-0.8 -0.1,-1.2 l 27.5,-14 c 2.5,2.1 5.7,3.4 9.2,3.4 7.9,0 14.2,-6.4 14.2,-14.2 -0.1,-7.9 -6.5,-14.3 -14.3,-14.2 l 0,0 z"
             id="path23"
             style="fill:#ffffff" /><path
             d="m 83.9,1141.9 c -8.4,0 -15.2,-6.8 -15.2,-15.1 0,-0.1 0,-0.2 0,-0.2 l -27.1,-13.8 c -2.5,1.7 -5.4,2.6 -8.5,2.6 -8.3,0 -15.1,-6.8 -15.1,-15.1 0,-8.3 6.8,-15.1 15.1,-15.1 3.4,0 6.7,1.1 9.4,3.2 L 68.8,1075 c 0,-0.3 0,-0.5 0,-0.8 0,-8 6.2,-14.6 14.1,-15.1 l 0,0 1,-0.1 c 8.3,0 15.1,6.8 15.1,15.1 0,8.4 -6.8,15.2 -15.1,15.2 -3.4,0 -6.7,-1.1 -9.3,-3.2 l -26.4,13.4 c 0,0.2 0,0.5 0,0.7 0,0.6 -0.1,1.1 -0.1,1.7 l 26.1,13.3 c 2.7,-2.3 6.2,-3.5 9.7,-3.5 8.3,0 15.1,6.8 15.1,15.2 0,8.2 -6.8,15 -15.1,15 z m -42.5,-31.3 29.2,14.9 -0.1,0.9 c 0,0.1 0,0.3 0,0.4 0,7.3 6,13.3 13.3,13.3 7.3,0 13.3,-6 13.3,-13.3 0,-7.3 -6,-13.3 -13.3,-13.3 -3.3,0 -6.5,1.2 -9,3.5 l -0.5,0.4 -28.3,-14.5 0.1,-0.6 c 0.1,-0.7 0.2,-1.4 0.2,-2.1 0,-0.3 0,-0.5 0,-0.8 l -0.1,-1 28.5,-14.5 0.5,0.4 c 2.4,2 5.5,3.2 8.6,3.2 7.3,0 13.3,-6 13.3,-13.3 0,-7.1 -5.6,-12.9 -12.6,-13.3 l -0.7,0 c -7.3,0 -13.3,6 -13.3,13.3 0,0.4 0,0.7 0.1,1.1 l 0.1,0.6 -0.5,0.4 -28,14.3 -0.5,-0.4 c -2.4,-2 -5.5,-3.2 -8.6,-3.2 -7.3,0 -13.3,6 -13.3,13.3 0,7.3 6,13.3 13.3,13.3 2.9,0 5.6,-0.9 7.9,-2.6 l 0.4,-0.4 z"
             id="path25"
             style="fill:#3a9804" /></g><g
           id="g27"><path
             d="m 83.9,1141.2 c -8,0 -14.4,-6.5 -14.4,-14.4 0,-0.2 0,-0.3 0,-0.5 0,-0.1 0,-0.1 0,-0.2 l -28,-14.2 c -2.4,1.8 -5.4,2.7 -8.5,2.7 -7.9,0 -14.4,-6.5 -14.4,-14.4 0,-7.9 6.5,-14.4 14.4,-14.4 3.4,0 6.7,1.2 9.3,3.4 l 27.2,-13.9 0,-0.1 c 0,-0.4 -0.1,-0.7 -0.1,-1.1 0,-7.9 6.4,-14.3 14.2,-14.4 l 0,-0.1 0.2,0 c 7.9,0 14.4,6.5 14.4,14.4 0,8 -6.5,14.4 -14.4,14.4 -3.4,0 -6.6,-1.2 -9.2,-3.3 l -27.2,13.9 0,0.2 c 0,0.3 0.1,0.6 0.1,0.9 0,0.7 -0.1,1.4 -0.2,2.1 l 27,13.8 c 2.6,-2.4 6.1,-3.7 9.6,-3.7 7.9,0 14.4,6.5 14.4,14.4 0,8 -6.5,14.5 -14.4,14.5 z m -42.4,-29.8 0,0 28.4,14.4 0,0.1 c 0,0.1 0,0.2 0,0.3 0,0.2 0,0.3 0,0.5 0,7.7 6.3,14 14.1,14 7.7,0 14,-6.3 14,-14 0,-7.8 -6.3,-14.1 -14,-14.1 -3.5,0 -6.9,1.3 -9.5,3.7 l -0.1,0.1 -0.1,-0.1 -27.3,-14 0,-0.1 c 0.1,-0.7 0.2,-1.4 0.2,-2.2 0,-0.3 0,-0.6 -0.1,-0.9 0,-0.1 0,-0.2 0,-0.3 l 0,-0.1 0.1,-0.1 27.6,-14 0.1,0.1 c 2.5,2.1 5.8,3.3 9.1,3.3 7.7,0 14,-6.3 14,-14.1 0,-7.7 -6.2,-13.9 -13.8,-14 l 0,0.1 -0.2,0 c -7.8,0 -14.1,6.3 -14.1,14 0,0.4 0,0.7 0.1,1 l 0,0.3 -0.1,0.1 -27.5,14 -0.1,-0.1 c -2.5,-2.2 -5.8,-3.3 -9.1,-3.3 -7.7,0 -14,6.3 -14,14 0,7.7 6.3,14 14,14 2.9,0.2 5.8,-0.7 8.3,-2.6 l 0,0 z"
             id="path29"
             style="fill:#ffffff" /><path
             d="m 83.9,1142.1 c -8.5,0 -15.3,-6.9 -15.3,-15.3 0,0 0,-0.1 0,-0.1 L 41.7,1113 c -2.5,1.7 -5.5,2.6 -8.6,2.6 -8.4,0 -15.3,-6.9 -15.3,-15.3 0,-8.4 6.9,-15.3 15.3,-15.3 3.4,0 6.7,1.1 9.4,3.2 l 26.1,-13.3 c 0,-0.2 0,-0.4 0,-0.7 0,-8 6.2,-14.6 14.1,-15.3 l 0,0 1,-0.1 c 8.6,0 15.5,6.9 15.5,15.3 0,8.5 -6.9,15.3 -15.3,15.3 -3.4,0 -6.7,-1.1 -9.3,-3.2 l -26.2,13.3 c 0,0.2 0,0.4 0,0.6 0,0.5 0,1 -0.1,1.6 l 25.8,13.2 c 2.7,-2.3 6.2,-3.5 9.7,-3.5 8.4,0 15.3,6.9 15.3,15.3 0.1,8.5 -6.8,15.4 -15.2,15.4 z m -42.6,-31.7 0.7,0.3 28.8,14.7 -0.1,1.1 c 0,0.1 0,0.2 0,0.4 0,7.2 5.9,13.1 13.1,13.1 7.2,0 13.1,-5.9 13.1,-13.1 0,-7.2 -5.9,-13.1 -13.1,-13.1 -3.3,0 -6.4,1.2 -8.8,3.4 l -0.5,0.4 -0.6,-0.2 -28,-14.3 0.1,-0.6 c 0.1,-0.8 0.2,-1.5 0.2,-2.2 0,-0.3 0,-0.5 0,-0.8 l -0.1,-1 0.5,-0.4 28.2,-14.4 0.5,0.4 c 2.5,2.1 5.5,3.2 8.6,3.2 7.2,0 13.1,-5.9 13.1,-13.1 0,-6.9 -5.5,-12.7 -12.3,-13.1 l -0.6,0 c -7.5,0 -13.4,5.9 -13.4,13.1 0,0.3 0,0.7 0.1,1 l 0.1,1 -0.5,0.3 -28.2,14.4 -0.5,-0.4 c -2.4,-2.1 -5.5,-3.2 -8.6,-3.2 -7.2,0 -13.1,5.9 -13.1,13.1 0,7.2 5.9,13.1 13.1,13.1 2.9,0 5.6,-0.9 7.8,-2.5 l 0.4,-0.6 z"
             id="path31"
             style="fill:#3a9804" /></g></g></g></g></svg>