<?xml version="1.0" encoding="utf-8"?>
<!-- Generator: Adobe Illustrator 18.0.0, SVG Export Plug-In . SVG Version: 6.00 Build 0)  -->
<!DOCTYPE svg PUBLIC "-//W3C//DTD SVG 1.1//EN" "http://www.w3.org/Graphics/SVG/1.1/DTD/svg11.dtd">
<svg version="1.1" id="Sync" xmlns="http://www.w3.org/2000/svg" xmlns:xlink="http://www.w3.org/1999/xlink" x="0px" y="0px"
	 viewBox="0 0 128 128" enable-background="new 0 0 128 128" xml:space="preserve">
<g>
	<g>
		<g>
			<g>
				<path fill="#5EB220" d="M64,2.1c34.2,0,61.9,27.7,61.9,61.9S98.2,125.9,64,125.9C29.8,125.9,2.1,98.2,2.1,64S29.8,2.1,64,2.1z"
					/>
			</g>
			<g>
				<path fill="#3A9804" d="M64,128C28.7,128,0,99.3,0,64S28.7,0,64,0s64,28.7,64,64S99.3,128,64,128z M64,4.1C31,4.1,4.1,31,4.1,64
					S31,123.9,64,123.9c33,0,59.9-26.9,59.9-59.9S97,4.1,64,4.1z"/>
			</g>
		</g>
	</g>
	<g transform="translate(0 -1036.4)">
		<g>
			<g>
				<path fill="#FFFFFF" d="M83.9,1059.9c-7.9,0-14.2,6.4-14.2,14.2c0,0.4,0,0.9,0.1,1.3l-27.4,14c-2.5-2.1-5.7-3.4-9.2-3.4
					c-7.9,0-14.2,6.4-14.2,14.2c0,7.9,6.4,14.2,14.2,14.2c3.2,0,6.1-1,8.5-2.8l28.2,14.3c0,0.2-0.1,0.5-0.1,0.8
					c0,7.9,6.4,14.2,14.2,14.2c7.8,0,14.2-6.4,14.2-14.2c0-7.9-6.4-14.2-14.2-14.2c-3.7,0-7.1,1.4-9.6,3.7l-27.2-13.9
					c0.1-0.7,0.2-1.4,0.2-2.2c0-0.4-0.1-0.8-0.1-1.2l27.5-14c2.5,2.1,5.7,3.4,9.2,3.4c7.9,0,14.2-6.4,14.2-14.2
					C98.1,1066.2,91.7,1059.8,83.9,1059.9L83.9,1059.9z"/>
				<path fill="#3A9804" d="M83.9,1141.9c-8.4,0-15.2-6.8-15.2-15.1c0-0.1,0-0.2,0-0.2l-27.1-13.8c-2.5,1.7-5.4,2.6-8.5,2.6
					c-8.3,0-15.1-6.8-15.1-15.1c0-8.3,6.8-15.1,15.1-15.1c3.4,0,6.7,1.1,9.4,3.2l26.3-13.4c0-0.3,0-0.5,0-0.8
					c0-8,6.2-14.6,14.1-15.1l0,0l1-0.1c8.3,0,15.1,6.8,15.1,15.1c0,8.4-6.8,15.2-15.1,15.2c-3.4,0-6.7-1.1-9.3-3.2l-26.4,13.4
					c0,0.2,0,0.5,0,0.7c0,0.6-0.1,1.1-0.1,1.7l26.1,13.3c2.7-2.3,6.2-3.5,9.7-3.5c8.3,0,15.1,6.8,15.1,15.2
					C99,1135.1,92.2,1141.9,83.9,1141.9z M41.4,1110.6l29.2,14.9l-0.1,0.9c0,0.1,0,0.3,0,0.4c0,7.3,6,13.3,13.3,13.3
					c7.3,0,13.3-6,13.3-13.3c0-7.3-6-13.3-13.3-13.3c-3.3,0-6.5,1.2-9,3.5l-0.5,0.4l-28.3-14.5l0.1-0.6c0.1-0.7,0.2-1.4,0.2-2.1
					c0-0.3,0-0.5,0-0.8l-0.1-1l28.5-14.5l0.5,0.4c2.4,2,5.5,3.2,8.6,3.2c7.3,0,13.3-6,13.3-13.3c0-7.1-5.6-12.9-12.6-13.3l-0.7,0
					c-7.3,0-13.3,6-13.3,13.3c0,0.4,0,0.7,0.1,1.1l0.1,0.6l-0.5,0.4l-28,14.3l-0.5-0.4c-2.4-2-5.5-3.2-8.6-3.2
					c-7.3,0-13.3,6-13.3,13.3c0,7.3,6,13.3,13.3,13.3c2.9,0,5.6-0.9,7.9-2.6L41.4,1110.6z"/>
			</g>
			<g>
				<path fill="#FFFFFF" d="M83.9,1141.2c-8,0-14.4-6.5-14.4-14.4c0-0.2,0-0.3,0-0.5c0-0.1,0-0.1,0-0.2l-28-14.2
					c-2.4,1.8-5.4,2.7-8.5,2.7c-7.9,0-14.4-6.5-14.4-14.4c0-7.9,6.5-14.4,14.4-14.4c3.4,0,6.7,1.2,9.3,3.4l27.2-13.9l0-0.1
					c0-0.4-0.1-0.7-0.1-1.1c0-7.9,6.4-14.3,14.2-14.4l0-0.1h0.2c7.9,0,14.4,6.5,14.4,14.4c0,8-6.5,14.4-14.4,14.4
					c-3.4,0-6.6-1.2-9.2-3.3L47.4,1099l0,0.2c0,0.3,0.1,0.6,0.1,0.9c0,0.7-0.1,1.4-0.2,2.1l27,13.8c2.6-2.4,6.1-3.7,9.6-3.7
					c7.9,0,14.4,6.5,14.4,14.4C98.3,1134.7,91.8,1141.2,83.9,1141.2z M41.5,1111.4L41.5,1111.4l28.4,14.4l0,0.1c0,0.1,0,0.2,0,0.3
					c0,0.2,0,0.3,0,0.5c0,7.7,6.3,14,14.1,14c7.7,0,14-6.3,14-14c0-7.8-6.3-14.1-14-14.1c-3.5,0-6.9,1.3-9.5,3.7l-0.1,0.1l-0.1-0.1
					l-27.3-14l0-0.1c0.1-0.7,0.2-1.4,0.2-2.2c0-0.3,0-0.6-0.1-0.9c0-0.1,0-0.2,0-0.3l0-0.1l0.1-0.1l27.6-14l0.1,0.1
					c2.5,2.1,5.8,3.3,9.1,3.3c7.7,0,14-6.3,14-14.1c0-7.7-6.2-13.9-13.8-14l0,0.1h-0.2c-7.8,0-14.1,6.3-14.1,14c0,0.4,0,0.7,0.1,1
					l0,0.3l-0.1,0.1l-27.5,14l-0.1-0.1c-2.5-2.2-5.8-3.3-9.1-3.3c-7.7,0-14,6.3-14,14c0,7.7,6.3,14,14,14
					C36.1,1114.2,39,1113.3,41.5,1111.4L41.5,1111.4z"/>
				<path fill="#3A9804" d="M83.9,1142.1c-8.5,0-15.3-6.9-15.3-15.3c0,0,0-0.1,0-0.1l-26.9-13.7c-2.5,1.7-5.5,2.6-8.6,2.6
					c-8.4,0-15.3-6.9-15.3-15.3c0-8.4,6.9-15.3,15.3-15.3c3.4,0,6.7,1.1,9.4,3.2l26.1-13.3c0-0.2,0-0.4,0-0.7
					c0-8,6.2-14.6,14.1-15.3l0,0l1-0.1c8.6,0,15.5,6.9,15.5,15.3c0,8.5-6.9,15.3-15.3,15.3c-3.4,0-6.7-1.1-9.3-3.2l-26.2,13.3
					c0,0.2,0,0.4,0,0.6c0,0.5,0,1-0.1,1.6l25.8,13.2c2.7-2.3,6.2-3.5,9.7-3.5c8.4,0,15.3,6.9,15.3,15.3
					C99.2,1135.2,92.3,1142.1,83.9,1142.1z M41.3,1110.4l0.7,0.3l28.8,14.7l-0.1,1.1c0,0.1,0,0.2,0,0.4c0,7.2,5.9,13.1,13.1,13.1
					c7.2,0,13.1-5.9,13.1-13.1c0-7.2-5.9-13.1-13.1-13.1c-3.3,0-6.4,1.2-8.8,3.4l-0.5,0.4l-0.6-0.2l-28-14.3l0.1-0.6
					c0.1-0.8,0.2-1.5,0.2-2.2c0-0.3,0-0.5,0-0.8l-0.1-1l0.5-0.4l28.2-14.4l0.5,0.4c2.5,2.1,5.5,3.2,8.6,3.2
					c7.2,0,13.1-5.9,13.1-13.1c0-6.9-5.5-12.7-12.3-13.1l-0.6,0c-7.5,0-13.4,5.9-13.4,13.1c0,0.3,0,0.7,0.1,1l0.1,1l-0.5,0.3
					l-28.2,14.4l-0.5-0.4c-2.4-2.1-5.5-3.2-8.6-3.2c-7.2,0-13.1,5.9-13.1,13.1c0,7.2,5.9,13.1,13.1,13.1c2.9,0,5.6-0.9,7.8-2.5
					L41.3,1110.4z"/>
			</g>
		</g>
	</g>
</g>
</svg>
