<?xml version="1.0" encoding="UTF-8" standalone="no"?>
<svg
   xmlns:dc="http://purl.org/dc/elements/1.1/"
   xmlns:cc="http://creativecommons.org/ns#"
   xmlns:rdf="http://www.w3.org/1999/02/22-rdf-syntax-ns#"
   xmlns:svg="http://www.w3.org/2000/svg"
   xmlns="http://www.w3.org/2000/svg"
   xml:space="preserve"
   enable-background="new 0 0 128 128"
   viewBox="0 0 128 128"
   y="0px"
   x="0px"
   id="Sync"
   version="1.1"><metadata
     id="metadata37"><rdf:RDF><cc:Work
         rdf:about=""><dc:format>image/svg+xml</dc:format><dc:type
           rdf:resource="http://purl.org/dc/dcmitype/StillImage" /><dc:title></dc:title></cc:Work></rdf:RDF></metadata><defs
     id="defs35" /><g
     transform="matrix(0.96875,0,0,0.96875,2,2)"
     id="g3"><g
       id="g5"><circle
         style="fill:#2268ab"
         id="circle7"
         r="61.933998"
         cy="64"
         cx="64" /><path
         style="fill:#114999"
         id="path9"
         d="M 64,128 C 28.711,128 0,99.289 0,64 0,28.711 28.711,0 64,0 c 35.289,0 64,28.711 64,64 0,35.289 -28.711,64 -64,64 z M 64,4.132 C 30.989,4.132 4.132,30.987 4.132,64 4.132,97.013 30.989,123.868 64,123.868 97.011,123.868 123.868,97.013 123.868,64 123.868,30.987 97.011,4.132 64,4.132 Z" /></g><g
       id="g11"><g
         id="g13"><g
           id="g15"><path
             style="fill:#ffffff"
             id="path17"
             d="M 85.311,53.564 C 81.354,45.453 73.09,40.257 64.047,40.257 c -1.375,0 -2.764,0.121 -4.125,0.364 -8.236,1.448 -15.172,7.237 -18.111,15.105 l -0.264,0.705 -14.818,2.616 0.346,-1.871 C 29.911,41.813 42.143,29.669 57.511,26.96 c 2.164,-0.38 4.361,-0.575 6.543,-0.575 12.025,0 23.222,5.73 30.3,15.411 l 4.771,-6.193 1.889,21.721 0.325,1.479 -0.046,0.004 0,0.007 -23.129,4.048 7.147,-9.298 z" /></g><g
           id="g19"><path
             style="fill:#114999"
             id="path21"
             d="m 64.053,27.711 c 12.314,0 23.643,6.318 30.25,16.325 l 3.8,-4.938 1.6,18.411 c 0.007,0.048 0.025,0.111 0.036,0.159 l -0.025,0.003 0.014,0.074 -18.446,3.232 5.568,-7.243 C 82.854,44.818 73.914,38.936 64.047,38.936 c -1.436,0 -2.889,0.125 -4.353,0.38 -9.054,1.595 -16.114,7.893 -19.121,15.948 l -12.197,2.152 c 2.672,-14.457 14.061,-26.452 29.368,-29.152 2.117,-0.373 4.227,-0.553 6.309,-0.553 m 0,-2.647 c -2.257,0 -4.536,0.2 -6.768,0.595 -7.957,1.405 -15.164,5.177 -20.846,10.911 -5.55,5.605 -9.239,12.65 -10.664,20.368 l -0.693,3.745 3.754,-0.661 12.196,-2.152 1.49,-0.264 0.528,-1.415 c 1.343,-3.602 3.6,-6.819 6.525,-9.307 3.014,-2.557 6.668,-4.273 10.575,-4.962 1.289,-0.225 2.596,-0.343 3.896,-0.343 8.264,0 15.839,4.602 19.704,11.845 l -4.564,5.941 -4.143,5.386 6.697,-1.168 18.443,-3.232 1.371,-0.24 1.393,-0.173 -0.625,-2.82 -1.582,-18.248 -0.593,-6.761 -4.143,5.377 -1.65,2.145 C 91.132,35.633 87.118,32.268 82.579,29.799 76.9,26.702 70.489,25.064 64.053,25.064 l 0,0 z" /></g></g><g
         id="g23"><g
           id="g25"><path
             style="fill:#ffffff"
             id="path27"
             d="M 64.032,101.541 C 52.05,101.541 40.875,95.84 33.778,86.2 l -4.825,6.289 -1.918,-21.98 c -0.007,-0.032 -0.011,-0.063 -0.014,-0.087 l -0.147,-1.245 13.597,-2.398 0.018,0.096 9.422,-1.653 -7.093,9.234 c 3.979,8.048 12.221,13.207 21.211,13.207 1.368,0 2.761,-0.12 4.125,-0.362 8.154,-1.439 15.068,-7.148 18.036,-14.902 l 0.268,-0.704 14.857,-2.62 -0.361,1.884 C 99.543,78.37 95.968,85.127 90.618,90.5 c -5.475,5.498 -12.411,9.121 -20.057,10.466 -2.157,0.382 -4.354,0.575 -6.529,0.575 z" /></g><g
           id="g29"><path
             style="fill:#114999"
             id="path31"
             d="m 46.793,67.111 -5.518,7.182 c 4.021,8.855 12.918,14.691 22.754,14.691 1.432,0 2.89,-0.123 4.353,-0.384 8.975,-1.581 15.997,-7.784 19.043,-15.732 l 12.232,-2.159 c -2.743,14.366 -14.086,26.268 -29.325,28.957 -2.118,0.37 -4.221,0.554 -6.3,0.554 -12.278,0 -23.582,-6.291 -30.204,-16.255 l -3.85,5.019 -1.632,-18.652 C 28.339,70.307 28.339,70.28 28.335,70.259 l 11.054,-1.948 c 0.004,0.029 0.018,0.059 0.025,0.095 l 7.379,-1.295 m 6.239,-3.779 -6.697,1.173 -4.764,0.834 -0.014,-0.093 -2.629,0.463 -11.05,1.948 -2.471,0.432 0.304,2.487 c 0.004,0.029 0.007,0.059 0.011,0.095 l 1.622,18.545 0.589,6.779 4.143,-5.398 1.711,-2.23 c 3.225,3.986 7.239,7.329 11.761,9.784 5.675,3.084 12.068,4.713 18.486,4.713 2.25,0 4.525,-0.2 6.761,-0.591 7.914,-1.398 15.097,-5.145 20.765,-10.841 5.535,-5.559 9.232,-12.555 10.696,-20.223 l 0.718,-3.768 -3.775,0.668 -12.232,2.156 -1.475,0.259 -0.536,1.402 c -1.361,3.55 -3.618,6.723 -6.529,9.173 -2.996,2.522 -6.629,4.218 -10.503,4.902 -1.29,0.225 -2.6,0.343 -3.893,0.343 -8.214,0 -15.764,-4.564 -19.65,-11.746 l 4.511,-5.872 4.14,-5.394 0,0 z" /></g></g></g></g></svg>