<?xml version="1.0" encoding="UTF-8" standalone="no"?>
<!DOCTYPE svg PUBLIC "-//W3C//DTD SVG 1.1//EN" "http://www.w3.org/Graphics/SVG/1.1/DTD/svg11.dtd">
<svg width="100%" height="100%" viewBox="0 0 128 128"
    xmlns="http://www.w3.org/2000/svg" version="1.1">
    <circle cx="64" cy="64" r="60" style="fill:rgb(34,104,171);stroke:rgb(17,73,153);stroke-width:4px;"/>
    <path d="M84.645,53.89C80.812,46.033 72.806,40.999 64.046,40.999C62.713,40.999 61.368,41.116 60.049,41.352C52.071,42.754 45.352,48.362 42.504,55.985L42.249,56.668L27.894,59.202L28.229,57.389C30.976,42.506 42.826,30.742 57.714,28.118C59.81,27.749 61.939,27.56 64.052,27.56C75.702,27.56 86.549,33.111 93.405,42.49L98.027,36.49L99.857,57.533L100.172,58.965L100.128,58.969L100.128,58.976L77.721,62.898L84.645,53.89ZM64.031,100.368C52.423,100.368 41.598,94.845 34.722,85.506L30.048,91.599L28.19,70.306C28.183,70.275 28.18,70.245 28.177,70.221L28.034,69.015L41.206,66.692L41.224,66.785L50.351,65.184L43.48,74.129C47.335,81.926 55.319,86.924 64.028,86.924C65.353,86.924 66.703,86.807 68.024,86.573C75.923,85.179 82.621,79.648 85.497,72.137L85.756,71.455L100.149,68.916L99.799,70.742C98.432,77.921 94.969,84.467 89.786,89.672C84.482,94.998 77.763,98.508 70.356,99.811C68.266,100.181 66.138,100.368 64.031,100.368Z" style="fill:white;fill-rule:nonzero;stroke:rgb(17,73,153);stroke-width:2.6px;stroke-linejoin:miter;stroke-miterlimit:7;"/>
</svg>
