<?xml version="1.0" encoding="utf-8"?>
<!-- Generator: Adobe Illustrator 18.0.0, SVG Export Plug-In . SVG Version: 6.00 Build 0)  -->
<!DOCTYPE svg PUBLIC "-//W3C//DTD SVG 1.1//EN" "http://www.w3.org/Graphics/SVG/1.1/DTD/svg11.dtd">
<svg version="1.1" id="Sync" xmlns="http://www.w3.org/2000/svg" xmlns:xlink="http://www.w3.org/1999/xlink" x="0px" y="0px"
	 viewBox="0 0 128 128" enable-background="new 0 0 128 128" xml:space="preserve">
<g>
	<g>
		<circle fill="#2268AB" cx="64" cy="64" r="61.934"/>
		<path fill="#114999" d="M64,128C28.711,128,0,99.289,0,64S28.711,0,64,0s64,28.711,64,64S99.289,128,64,128z M64,4.132
			C30.989,4.132,4.132,30.987,4.132,64S30.989,123.868,64,123.868S123.868,97.013,123.868,64S97.011,4.132,64,4.132z"/>
	</g>
	<g>
		<g>
			<g>
				<path fill="#FFFFFF" d="M85.311,53.564c-3.957-8.111-12.221-13.307-21.264-13.307c-1.375,0-2.764,0.121-4.125,0.364
					c-8.236,1.448-15.172,7.237-18.111,15.105l-0.264,0.705l-14.818,2.616l0.346-1.871c2.836-15.363,15.068-27.507,30.436-30.216
					c2.164-0.38,4.361-0.575,6.543-0.575c12.025,0,23.222,5.73,30.3,15.411l4.771-6.193l1.889,21.721l0.325,1.479l-0.046,0.004
					v0.007l-23.129,4.048L85.311,53.564z"/>
			</g>
			<g>
				<path fill="#114999" d="M64.053,27.711c12.314,0,23.643,6.318,30.25,16.325l3.8-4.938l1.6,18.411
					c0.007,0.048,0.025,0.111,0.036,0.159l-0.025,0.003l0.014,0.074l-18.446,3.232l5.568-7.243
					c-3.996-8.916-12.936-14.798-22.803-14.798c-1.436,0-2.889,0.125-4.353,0.38c-9.054,1.595-16.114,7.893-19.121,15.948
					l-12.197,2.152c2.672-14.457,14.061-26.452,29.368-29.152C59.861,27.891,61.971,27.711,64.053,27.711 M64.053,25.064
					c-2.257,0-4.536,0.2-6.768,0.595c-7.957,1.405-15.164,5.177-20.846,10.911c-5.55,5.605-9.239,12.65-10.664,20.368l-0.693,3.745
					l3.754-0.661l12.196-2.152l1.49-0.264l0.528-1.415c1.343-3.602,3.6-6.819,6.525-9.307c3.014-2.557,6.668-4.273,10.575-4.962
					c1.289-0.225,2.596-0.343,3.896-0.343c8.264,0,15.839,4.602,19.704,11.845l-4.564,5.941l-4.143,5.386l6.697-1.168l18.443-3.232
					l1.371-0.24l1.393-0.173l-0.625-2.82l-1.582-18.248l-0.593-6.761l-4.143,5.377l-1.65,2.145
					c-3.222-3.998-7.236-7.363-11.775-9.832C76.9,26.702,70.489,25.064,64.053,25.064L64.053,25.064z"/>
			</g>
		</g>
		<g>
			<g>
				<path fill="#FFFFFF" d="M64.032,101.541c-11.982,0-23.157-5.701-30.254-15.341l-4.825,6.289l-1.918-21.98
					c-0.007-0.032-0.011-0.063-0.014-0.087l-0.147-1.245l13.597-2.398l0.018,0.096l9.422-1.653l-7.093,9.234
					c3.979,8.048,12.221,13.207,21.211,13.207c1.368,0,2.761-0.12,4.125-0.362c8.154-1.439,15.068-7.148,18.036-14.902l0.268-0.704
					l14.857-2.62l-0.361,1.884C99.543,78.37,95.968,85.127,90.618,90.5c-5.475,5.498-12.411,9.121-20.057,10.466
					C68.404,101.348,66.207,101.541,64.032,101.541z"/>
			</g>
			<g>
				<path fill="#114999" d="M46.793,67.111l-5.518,7.182c4.021,8.855,12.918,14.691,22.754,14.691c1.432,0,2.89-0.123,4.353-0.384
					c8.975-1.581,15.997-7.784,19.043-15.732l12.232-2.159c-2.743,14.366-14.086,26.268-29.325,28.957
					c-2.118,0.37-4.221,0.554-6.3,0.554c-12.278,0-23.582-6.291-30.204-16.255l-3.85,5.019l-1.632-18.652
					c-0.007-0.025-0.007-0.052-0.011-0.073l11.054-1.948c0.004,0.029,0.018,0.059,0.025,0.095L46.793,67.111 M53.032,63.332
					l-6.697,1.173l-4.764,0.834l-0.014-0.093l-2.629,0.463l-11.05,1.948l-2.471,0.432l0.304,2.487
					c0.004,0.029,0.007,0.059,0.011,0.095l1.622,18.545l0.589,6.779l4.143-5.398l1.711-2.23c3.225,3.986,7.239,7.329,11.761,9.784
					c5.675,3.084,12.068,4.713,18.486,4.713c2.25,0,4.525-0.2,6.761-0.591c7.914-1.398,15.097-5.145,20.765-10.841
					c5.535-5.559,9.232-12.555,10.696-20.223l0.718-3.768l-3.775,0.668l-12.232,2.156l-1.475,0.259l-0.536,1.402
					c-1.361,3.55-3.618,6.723-6.529,9.173c-2.996,2.522-6.629,4.218-10.503,4.902c-1.29,0.225-2.6,0.343-3.893,0.343
					c-8.214,0-15.764-4.564-19.65-11.746l4.511-5.872L53.032,63.332L53.032,63.332z"/>
			</g>
		</g>
	</g>
</g>
</svg>
