<?xml version="1.0" encoding="UTF-8" standalone="no"?>
<!DOCTYPE svg PUBLIC "-//W3C//DTD SVG 1.1//EN" "http://www.w3.org/Graphics/SVG/1.1/DTD/svg11.dtd">
<svg width="100%" height="100%" viewBox="0 0 512 512"
    xmlns="http://www.w3.org/2000/svg" version="1.1">
    <circle cx="256" cy="256" r="256" style="fill:rgb(30,190,240);"/>
    <path d="M276.635,137.407C267.558,143.758 260.762,152.827 255.77,162.803L253.505,168.701C252.146,172.778 251.232,176.864 250.779,180.942C250.326,183.207 250.326,185.027 249.873,186.84L249.873,190.465L250.326,196.363L251.232,204.073L246.247,204.073C224.023,203.62 202.26,198.628 183.207,190.012L171.873,184.575C169.608,183.661 167.795,182.302 165.522,180.943C152.828,173.686 141.494,164.163 131.51,153.735C125.167,146.931 119.269,139.674 114.278,131.964C108.84,142.401 105.662,154.641 105.662,167.343C105.662,171.874 106.115,176.412 107.021,180.943C107.021,183.208 107.474,185.028 107.935,186.841C112.013,200.441 119.269,212.69 129.245,221.759L134.237,226.298L127.886,224.931C119.723,222.665 111.56,219.947 103.85,216.767C104.756,233.094 111.107,248.06 121.082,259.856C130.604,271.183 143.306,279.807 157.812,283.884L141.033,284.79L126.979,284.337C137.408,309.74 161.444,328.332 190.012,330.598C163.71,350.096 131.057,360.986 96.139,360.986C121.988,376.859 151.469,386.827 183.66,388.639L204.525,388.639C303.835,383.201 382.295,301.117 382.295,200.44L382.295,190.918C385.92,187.747 389.545,184.575 393.185,180.943C401.793,173.233 409.511,164.163 415.855,154.641C405.418,161.445 393.185,165.07 379.578,165.07L378.672,165.07L379.125,165.07C391.357,156.907 400.888,144.666 405.872,130.605C396.357,135.597 385.468,139.221 374.578,142.401L373.219,142.854L365.064,144.666C353.269,131.964 336.489,123.801 317.897,123.801L316.539,123.801C311.555,123.801 306.556,124.254 301.571,125.168C294.322,126.98 287.057,130.152 281.167,133.784L276.635,137.407Z" style="fill:white;"/>
</svg>
